<svg id="visual" viewBox="0 0 900 600" width="900" height="600" xmlns="http://www.w3.org/2000/svg" xmlns:xlink="http://www.w3.org/1999/xlink" version="1.1"><path d="M757 600L756.2 583.3C755.3 566.7 753.7 533.3 759.5 500C765.3 466.7 778.7 433.3 781.8 400C785 366.7 778 333.3 777 300C776 266.7 781 233.3 785 200C789 166.7 792 133.3 791.5 100C791 66.7 787 33.3 785 16.7L783 0L900 0L900 16.7C900 33.3 900 66.7 900 100C900 133.3 900 166.7 900 200C900 233.3 900 266.7 900 300C900 333.3 900 366.7 900 400C900 433.3 900 466.7 900 500C900 533.3 900 566.7 900 583.3L900 600Z" fill="#8ee4f7"></path><path d="M766 600L775.3 583.3C784.7 566.7 803.3 533.3 809 500C814.7 466.7 807.3 433.3 802.8 400C798.3 366.7 796.7 333.3 800.3 300C804 266.7 813 233.3 814.2 200C815.3 166.7 808.7 133.3 803.5 100C798.3 66.7 794.7 33.3 792.8 16.7L791 0L900 0L900 16.7C900 33.3 900 66.7 900 100C900 133.3 900 166.7 900 200C900 233.3 900 266.7 900 300C900 333.3 900 366.7 900 400C900 433.3 900 466.7 900 500C900 533.3 900 566.7 900 583.3L900 600Z" fill="#5fc6ec"></path><path d="M807 600L810 583.3C813 566.7 819 533.3 824 500C829 466.7 833 433.3 838.5 400C844 366.7 851 333.3 854.3 300C857.7 266.7 857.3 233.3 849.2 200C841 166.7 825 133.3 818.7 100C812.3 66.7 815.7 33.3 817.3 16.7L819 0L900 0L900 16.7C900 33.3 900 66.7 900 100C900 133.3 900 166.7 900 200C900 233.3 900 266.7 900 300C900 333.3 900 366.7 900 400C900 433.3 900 466.7 900 500C900 533.3 900 566.7 900 583.3L900 600Z" fill="#37a8e1"></path><path d="M861 600L859.2 583.3C857.3 566.7 853.7 533.3 854.2 500C854.7 466.7 859.3 433.3 865 400C870.7 366.7 877.3 333.3 878.3 300C879.3 266.7 874.7 233.3 868.3 200C862 166.7 854 133.3 849.3 100C844.7 66.7 843.3 33.3 842.7 16.7L842 0L900 0L900 16.7C900 33.3 900 66.7 900 100C900 133.3 900 166.7 900 200C900 233.3 900 266.7 900 300C900 333.3 900 366.7 900 400C900 433.3 900 466.7 900 500C900 533.3 900 566.7 900 583.3L900 600Z" fill="#2588d3"></path></svg>