<svg id="visual" viewBox="0 0 960 540" width="960" height="540" xmlns="http://www.w3.org/2000/svg" xmlns:xlink="http://www.w3.org/1999/xlink" version="1.1"><rect x="0" y="0" width="960" height="540" fill="#001220"></rect><path d="M694 540L696.8 527.2C699.7 514.3 705.3 488.7 710.3 463C715.3 437.3 719.7 411.7 721.8 386C724 360.3 724 334.7 723.2 308.8C722.3 283 720.7 257 716 231.2C711.3 205.3 703.7 179.7 700.7 154C697.7 128.3 699.3 102.7 699 77C698.7 51.3 696.3 25.7 695.2 12.8L694 0L960 0L960 12.8C960 25.7 960 51.3 960 77C960 102.7 960 128.3 960 154C960 179.7 960 205.3 960 231.2C960 257 960 283 960 308.8C960 334.7 960 360.3 960 386C960 411.7 960 437.3 960 463C960 488.7 960 514.3 960 527.2L960 540Z" fill="#fa7268"></path><path d="M734 540L736.2 527.2C738.3 514.3 742.7 488.7 743.7 463C744.7 437.3 742.3 411.7 737.2 386C732 360.3 724 334.7 724 308.8C724 283 732 257 735.5 231.2C739 205.3 738 179.7 735.5 154C733 128.3 729 102.7 728.2 77C727.3 51.3 729.7 25.7 730.8 12.8L732 0L960 0L960 12.8C960 25.7 960 51.3 960 77C960 102.7 960 128.3 960 154C960 179.7 960 205.3 960 231.2C960 257 960 283 960 308.8C960 334.7 960 360.3 960 386C960 411.7 960 437.3 960 463C960 488.7 960 514.3 960 527.2L960 540Z" fill="#f66b68"></path><path d="M755 540L752.8 527.2C750.7 514.3 746.3 488.7 744.7 463C743 437.3 744 411.7 745.8 386C747.7 360.3 750.3 334.7 752 308.8C753.7 283 754.3 257 755.3 231.2C756.3 205.3 757.7 179.7 756.5 154C755.3 128.3 751.7 102.7 753 77C754.3 51.3 760.7 25.7 763.8 12.8L767 0L960 0L960 12.8C960 25.7 960 51.3 960 77C960 102.7 960 128.3 960 154C960 179.7 960 205.3 960 231.2C960 257 960 283 960 308.8C960 334.7 960 360.3 960 386C960 411.7 960 437.3 960 463C960 488.7 960 514.3 960 527.2L960 540Z" fill="#f26467"></path><path d="M787 540L782.3 527.2C777.7 514.3 768.3 488.7 767 463C765.7 437.3 772.3 411.7 775.5 386C778.7 360.3 778.3 334.7 776.2 308.8C774 283 770 257 770.8 231.2C771.7 205.3 777.3 179.7 776.7 154C776 128.3 769 102.7 767.7 77C766.3 51.3 770.7 25.7 772.8 12.8L775 0L960 0L960 12.8C960 25.7 960 51.3 960 77C960 102.7 960 128.3 960 154C960 179.7 960 205.3 960 231.2C960 257 960 283 960 308.8C960 334.7 960 360.3 960 386C960 411.7 960 437.3 960 463C960 488.7 960 514.3 960 527.2L960 540Z" fill="#ee5d67"></path><path d="M796 540L795.8 527.2C795.7 514.3 795.3 488.7 793.7 463C792 437.3 789 411.7 785.5 386C782 360.3 778 334.7 777.2 308.8C776.3 283 778.7 257 782.7 231.2C786.7 205.3 792.3 179.7 796 154C799.7 128.3 801.3 102.7 801.2 77C801 51.3 799 25.7 798 12.8L797 0L960 0L960 12.8C960 25.7 960 51.3 960 77C960 102.7 960 128.3 960 154C960 179.7 960 205.3 960 231.2C960 257 960 283 960 308.8C960 334.7 960 360.3 960 386C960 411.7 960 437.3 960 463C960 488.7 960 514.3 960 527.2L960 540Z" fill="#ea5667"></path><path d="M812 540L813.8 527.2C815.7 514.3 819.3 488.7 818.3 463C817.3 437.3 811.7 411.7 807.8 386C804 360.3 802 334.7 805.7 308.8C809.3 283 818.7 257 823.2 231.2C827.7 205.3 827.3 179.7 823.3 154C819.3 128.3 811.7 102.7 807 77C802.3 51.3 800.7 25.7 799.8 12.8L799 0L960 0L960 12.8C960 25.7 960 51.3 960 77C960 102.7 960 128.3 960 154C960 179.7 960 205.3 960 231.2C960 257 960 283 960 308.8C960 334.7 960 360.3 960 386C960 411.7 960 437.3 960 463C960 488.7 960 514.3 960 527.2L960 540Z" fill="#e54f67"></path><path d="M839 540L838 527.2C837 514.3 835 488.7 831.5 463C828 437.3 823 411.7 821.5 386C820 360.3 822 334.7 824.7 308.8C827.3 283 830.7 257 831.7 231.2C832.7 205.3 831.3 179.7 832.8 154C834.3 128.3 838.7 102.7 837.5 77C836.3 51.3 829.7 25.7 826.3 12.8L823 0L960 0L960 12.8C960 25.7 960 51.3 960 77C960 102.7 960 128.3 960 154C960 179.7 960 205.3 960 231.2C960 257 960 283 960 308.8C960 334.7 960 360.3 960 386C960 411.7 960 437.3 960 463C960 488.7 960 514.3 960 527.2L960 540Z" fill="#e14867"></path><path d="M848 540L848.7 527.2C849.3 514.3 850.7 488.7 852.5 463C854.3 437.3 856.7 411.7 857.8 386C859 360.3 859 334.7 858.5 308.8C858 283 857 257 857.2 231.2C857.3 205.3 858.7 179.7 858.7 154C858.7 128.3 857.3 102.7 855.2 77C853 51.3 850 25.7 848.5 12.8L847 0L960 0L960 12.8C960 25.7 960 51.3 960 77C960 102.7 960 128.3 960 154C960 179.7 960 205.3 960 231.2C960 257 960 283 960 308.8C960 334.7 960 360.3 960 386C960 411.7 960 437.3 960 463C960 488.7 960 514.3 960 527.2L960 540Z" fill="#dc4167"></path><path d="M861 540L866 527.2C871 514.3 881 488.7 881 463C881 437.3 871 411.7 867.3 386C863.7 360.3 866.3 334.7 867.2 308.8C868 283 867 257 867 231.2C867 205.3 868 179.7 870.8 154C873.7 128.3 878.3 102.7 881.8 77C885.3 51.3 887.7 25.7 888.8 12.8L890 0L960 0L960 12.8C960 25.7 960 51.3 960 77C960 102.7 960 128.3 960 154C960 179.7 960 205.3 960 231.2C960 257 960 283 960 308.8C960 334.7 960 360.3 960 386C960 411.7 960 437.3 960 463C960 488.7 960 514.3 960 527.2L960 540Z" fill="#d73a67"></path><path d="M901 540L901.8 527.2C902.7 514.3 904.3 488.7 905.8 463C907.3 437.3 908.7 411.7 908.2 386C907.7 360.3 905.3 334.7 903.5 308.8C901.7 283 900.3 257 899.2 231.2C898 205.3 897 179.7 896.5 154C896 128.3 896 102.7 897.8 77C899.7 51.3 903.3 25.7 905.2 12.8L907 0L960 0L960 12.8C960 25.7 960 51.3 960 77C960 102.7 960 128.3 960 154C960 179.7 960 205.3 960 231.2C960 257 960 283 960 308.8C960 334.7 960 360.3 960 386C960 411.7 960 437.3 960 463C960 488.7 960 514.3 960 527.2L960 540Z" fill="#d13367"></path><path d="M921 540L920.5 527.2C920 514.3 919 488.7 918.5 463C918 437.3 918 411.7 919.7 386C921.3 360.3 924.7 334.7 925.3 308.8C926 283 924 257 922 231.2C920 205.3 918 179.7 917.7 154C917.3 128.3 918.7 102.7 918 77C917.3 51.3 914.7 25.7 913.3 12.8L912 0L960 0L960 12.8C960 25.7 960 51.3 960 77C960 102.7 960 128.3 960 154C960 179.7 960 205.3 960 231.2C960 257 960 283 960 308.8C960 334.7 960 360.3 960 386C960 411.7 960 437.3 960 463C960 488.7 960 514.3 960 527.2L960 540Z" fill="#cc2b68"></path><path d="M935 540L936 527.2C937 514.3 939 488.7 938 463C937 437.3 933 411.7 931 386C929 360.3 929 334.7 932 308.8C935 283 941 257 943.2 231.2C945.3 205.3 943.7 179.7 941 154C938.3 128.3 934.7 102.7 934.8 77C935 51.3 939 25.7 941 12.8L943 0L960 0L960 12.8C960 25.7 960 51.3 960 77C960 102.7 960 128.3 960 154C960 179.7 960 205.3 960 231.2C960 257 960 283 960 308.8C960 334.7 960 360.3 960 386C960 411.7 960 437.3 960 463C960 488.7 960 514.3 960 527.2L960 540Z" fill="#c62368"></path></svg>