<?xml version="1.0" encoding="UTF-8" standalone="no"?>
<!-- Uploaded to: SVG Repo, www.svgrepo.com, Generator: SVG Repo Mixer Tools -->

<svg
   height="800px"
   width="800px"
   version="1.1"
   id="_x35_"
   viewBox="0 0 512 512"
   xml:space="preserve"
   sodipodi:docname="bear-svgrepo-com.svg"
   inkscape:version="1.1.2 (0a00cf5339, 2022-02-04)"
   xmlns:inkscape="http://www.inkscape.org/namespaces/inkscape"
   xmlns:sodipodi="http://sodipodi.sourceforge.net/DTD/sodipodi-0.dtd"
   xmlns="http://www.w3.org/2000/svg"
   xmlns:svg="http://www.w3.org/2000/svg"><defs
   id="defs41" /><sodipodi:namedview
   id="namedview39"
   pagecolor="#ffffff"
   bordercolor="#666666"
   borderopacity="1.0"
   inkscape:pageshadow="2"
   inkscape:pageopacity="0.0"
   inkscape:pagecheckerboard="0"
   showgrid="false"
   inkscape:zoom="0.805"
   inkscape:cx="399.37888"
   inkscape:cy="400"
   inkscape:window-width="3840"
   inkscape:window-height="2075"
   inkscape:window-x="0"
   inkscape:window-y="54"
   inkscape:window-maximized="1"
   inkscape:current-layer="_x35_" />
<g
   id="g36"
   transform="translate(0,58.88)">
	<path
   style="fill:#857968"
   d="M 446.687,4.946 C 436.204,10.939 417.868,22.481 402.424,32.341 390.732,19.392 374.029,8.507 353.25,8.507 c -3.714,0 -59.856,0 -64.244,0 -13.936,0 -22.013,0.839 -33.007,9.888 -10.995,-9.049 -19.059,-9.888 -32.995,-9.888 -4.4,0 -60.542,0 -64.26,0 -20.773,0 -37.469,10.885 -49.171,23.833 C 94.132,22.48 75.799,10.938 65.314,4.945 35.261,-12.235 -13.896,16.681 3.707,70.953 c 6.547,20.196 32.636,39.925 66.799,47.051 -20.789,56.61 -45.587,127.587 -48.395,136.013 -7.924,23.765 -5.279,55.447 18.479,73.929 23.77,18.482 136.206,65.715 136.206,65.715 h 64.531 14.673 14.67 64.531 c 0,0 112.445,-47.233 136.204,-65.715 23.77,-18.482 26.412,-50.164 18.484,-73.929 -2.804,-8.426 -27.609,-79.404 -48.388,-136.013 34.155,-7.127 60.243,-26.855 66.787,-47.051 C 525.901,16.681 476.74,-12.234 446.687,4.946 Z"
   id="path2" />
	<g
   id="g24">
		<g
   id="g12">
			<path
   style="fill:#857968"
   d="m 136.452,49.682 c 0,0 -50.604,-33.001 -71.137,-44.737 -30.053,-17.18 -79.21,11.736 -61.607,66.008 8.193,25.272 46.939,49.872 93.879,49.872 z"
   id="path4" />
			<path
   style="fill:#cdb771"
   d="m 94.648,64.353 c 0,0 -35.195,-23.469 -46.204,-30.804 -7.766,-5.179 -26.401,24.936 -2.929,46.94 15.889,14.896 44.736,8.065 44.736,8.065 z"
   id="path6" />
			<path
   style="fill:#857968"
   d="m 158.745,8.507 c -29.037,0 -50.158,21.228 -60.716,39.71 -10.567,18.479 -71.418,192.311 -75.917,205.8 -7.924,23.765 -5.279,55.447 18.479,73.929 23.77,18.482 136.206,65.715 136.206,65.715 H 241.328 256 V 18.395 C 245.005,9.346 236.941,8.507 223.005,8.507 c -4.4,0 -60.541,0 -64.26,0 z"
   id="path8" />
			<path
   style="fill:#6e5f4e"
   d="m 163.598,176.561 c 0,9.321 -7.557,16.868 -16.875,16.868 -9.317,0 -16.864,-7.547 -16.864,-16.868 0,-9.314 7.547,-16.862 16.864,-16.862 9.318,0 16.875,7.548 16.875,16.862 z"
   id="path10" />
		</g>
		<g
   id="g22">
			<path
   style="fill:#756755"
   d="m 375.55,49.682 c 0,0 50.607,-33.001 71.137,-44.737 30.053,-17.18 79.215,11.736 61.602,66.008 -8.189,25.272 -46.931,49.872 -93.873,49.872 z"
   id="path14" />
			<path
   style="fill:#cdb771"
   d="m 417.357,64.353 c 0,0 35.189,-23.469 46.195,-30.804 7.778,-5.179 26.413,24.936 2.929,46.94 -15.88,14.896 -44.737,8.065 -44.737,8.065 z"
   id="path16" />
			<path
   style="fill:#756755"
   d="m 353.25,8.507 c 29.043,0 50.171,21.228 60.729,39.71 10.558,18.479 71.411,192.311 75.911,205.8 7.928,23.765 5.286,55.447 -18.484,73.929 -23.759,18.482 -136.204,65.715 -136.204,65.715 H 270.67 256 V 18.395 c 10.994,-9.049 19.071,-9.888 33.007,-9.888 4.387,0 60.529,0 64.243,0 z"
   id="path18" />
			<path
   style="fill:#564a3c"
   d="m 348.414,176.561 c 0,9.321 7.541,16.868 16.865,16.868 9.311,0 16.865,-7.547 16.865,-16.868 0,-9.314 -7.553,-16.862 -16.865,-16.862 -9.324,0 -16.865,7.548 -16.865,16.862 z"
   id="path20" />
		</g>
	</g>
	<g
   id="g34">
		<path
   style="fill:#eee8c0"
   d="m 247.199,346.719 c -21.477,0 -38.878,-17.4 -38.878,-38.868 0,-21.471 17.401,-38.872 38.878,-38.872 H 256 v -98.762 h -38.667 c -17.538,0 -33.169,10.268 -38.965,25.612 l -30.804,81.558 c -3.116,8.261 -3.085,17.263 0.087,25.497 l 17.667,45.839 c 5.87,15.22 21.426,25.384 38.877,25.384 H 256 v -27.388 z"
   id="path26" />
		<path
   style="fill:#ebe5b9"
   d="m 364.431,277.387 -30.813,-81.558 c -5.783,-15.344 -21.415,-25.612 -38.953,-25.612 H 256 v 98.762 h 8.8 c 21.464,0 38.878,17.401 38.878,38.872 0,21.468 -17.413,38.868 -38.878,38.868 H 256 v 27.388 h 51.803 c 17.438,0 33.007,-10.165 38.866,-25.384 l 17.675,-45.839 c 3.178,-8.234 3.203,-17.236 0.087,-25.497 z"
   id="path28" />
		<path
   style="fill:#655846"
   d="m 264.8,346.719 c 21.464,0 38.878,-17.4 38.878,-38.868 0,-21.471 -17.413,-38.872 -38.878,-38.872 H 256 v 77.74 z"
   id="path30" />
		<path
   style="fill:#6e5f4e"
   d="m 208.321,307.851 c 0,21.468 17.401,38.868 38.878,38.868 H 256 v -77.74 h -8.801 c -21.476,0 -38.878,17.401 -38.878,38.872 z"
   id="path32" />
	</g>
</g>
</svg>
