<?xml version="1.0" encoding="UTF-8" standalone="no"?>
<!-- Uploaded to: SVG Repo, www.svgrepo.com, Generator: SVG Repo Mixer Tools -->

<svg
   version="1.1"
   id="_x35_"
   viewBox="0 0 512 512"
   xml:space="preserve"
   sodipodi:docname="bird-svgrepo-com.svg"
   inkscape:version="1.1.2 (0a00cf5339, 2022-02-04)"
   xmlns:inkscape="http://www.inkscape.org/namespaces/inkscape"
   xmlns:sodipodi="http://sodipodi.sourceforge.net/DTD/sodipodi-0.dtd"
   xmlns="http://www.w3.org/2000/svg"
   xmlns:svg="http://www.w3.org/2000/svg"><defs
   id="defs39" /><sodipodi:namedview
   id="namedview37"
   pagecolor="#ffffff"
   bordercolor="#666666"
   borderopacity="1.0"
   inkscape:pageshadow="2"
   inkscape:pageopacity="0.0"
   inkscape:pagecheckerboard="0"
   showgrid="false"
   inkscape:zoom="1.2578125"
   inkscape:cx="255.60248"
   inkscape:cy="256"
   inkscape:window-width="3840"
   inkscape:window-height="2075"
   inkscape:window-x="0"
   inkscape:window-y="54"
   inkscape:window-maximized="1"
   inkscape:current-layer="_x35_" />
<g
   id="g34"
   transform="translate(0,34)">
	<g
   id="g14">
		<polygon
   style="fill:#9a9696"
   points="295,270.647 284.992,270.581 284.327,379.931 265.243,399.081 272.332,406.143 294.309,384.088 "
   id="polygon2" />
		
			<rect
   x="282.76401"
   y="395.04001"
   transform="matrix(-0.7667,-0.642,0.642,-0.7667,292.3471,906.3295)"
   style="fill:#9a9696"
   width="56.181999"
   height="10.009"
   id="rect4" />
		
			<rect
   x="273.76001"
   y="400.40799"
   transform="matrix(-0.3786,-0.9255,0.9255,-0.3786,34.3182,833.8671)"
   style="fill:#9a9696"
   width="46.616001"
   height="10.011"
   id="rect6" />
		<polygon
   style="fill:#9a9696"
   points="314.781,283.691 305.75,288.004 352.857,386.695 344.029,412.268 353.49,415.539 363.66,386.082 "
   id="polygon8" />
		<polygon
   style="fill:#9a9696"
   points="411.523,404.932 413.959,395.223 359.477,381.534 357.04,391.242 "
   id="polygon10" />
		
			<rect
   x="352.11899"
   y="399.07199"
   transform="matrix(-0.7445,-0.6676,0.6676,-0.7445,385.1624,955.5622)"
   style="fill:#9a9696"
   width="46.629002"
   height="10.012"
   id="rect12" />
	</g>
	<polygon
   style="fill:#c98484"
   points="131.703,293.762 18.281,348.005 8.073,321.251 209.23,241.922 325.654,119.227 336.796,52.174 325.654,19.015 297.899,10.207 337.13,0 372.758,24.686 442.479,32.159 455.022,57.178 459.759,57.979 462.828,83.598 464.563,98.477 462.828,98.143 414.791,148.649 373.492,296.365 332.193,320.184 323.519,325.187 294.564,341.8 284.556,347.605 283.488,348.206 205.894,312.377 68.32,442.746 59.647,450.952 24.019,401.18 25.62,399.979 136.106,317.448 17.614,389.638 0,370.022 "
   id="polygon16" />
	<path
   style="fill:#ffffff"
   d="m 420.996,80.576 c -1.381,8.36 -9.284,14.008 -17.637,12.608 -8.36,-1.368 -14.002,-9.285 -12.621,-17.638 1.388,-8.359 9.291,-14.008 17.644,-12.614 8.366,1.388 14.002,9.292 12.614,17.644 z"
   id="path18" />
	<path
   style="fill:#989898"
   d="m 413.641,78.856 c -0.664,3.988 -4.431,6.672 -8.412,6.001 -3.987,-0.651 -6.672,-4.418 -6.007,-8.399 0.665,-3.98 4.424,-6.672 8.412,-6.007 3.974,0.671 6.664,4.431 6.007,8.405 z"
   id="path20" />
	<polygon
   style="fill:#b0715d"
   points="299.984,287.515 239.468,295.243 208.708,266.431 242.029,279.86 283.624,231.489 256.434,276.329 296.452,273.11 368.775,182.466 "
   id="polygon22" />
	<polygon
   style="fill:#b0715d"
   points="337.552,171.344 351.469,158.867 331.076,192.48 "
   id="polygon24" />
	<polygon
   style="fill:#b0715d"
   points="228.711,254.417 235.891,237.157 210.898,267.52 "
   id="polygon26" />
	<g
   id="g32">
		<polygon
   style="fill:#eed783"
   points="508.731,114.89 486.246,87.468 462.828,83.598 459.759,57.979 490.85,63.116 499.724,64.585 501.992,74.258 512,116.758 "
   id="polygon28" />
		<polygon
   style="fill:#d9c37c"
   points="464.572,98.448 487.239,102.221 508.721,114.868 486.236,87.476 462.82,83.587 "
   id="polygon30" />
	</g>
</g>
</svg>
