<?xml version="1.0" encoding="UTF-8" standalone="no"?>
<!-- Uploaded to: SVG Repo, www.svgrepo.com, Generator: SVG Repo Mixer Tools -->

<svg
   height="800px"
   width="800px"
   version="1.1"
   id="_x35_"
   viewBox="0 0 512 512"
   xml:space="preserve"
   sodipodi:docname="deer-svgrepo-com.svg"
   inkscape:version="1.1.2 (0a00cf5339, 2022-02-04)"
   xmlns:inkscape="http://www.inkscape.org/namespaces/inkscape"
   xmlns:sodipodi="http://sodipodi.sourceforge.net/DTD/sodipodi-0.dtd"
   xmlns="http://www.w3.org/2000/svg"
   xmlns:svg="http://www.w3.org/2000/svg"><defs
   id="defs45" /><sodipodi:namedview
   id="namedview43"
   pagecolor="#ffffff"
   bordercolor="#666666"
   borderopacity="1.0"
   inkscape:pageshadow="2"
   inkscape:pageopacity="0.0"
   inkscape:pagecheckerboard="0"
   showgrid="false"
   inkscape:zoom="0.805"
   inkscape:cx="399.37888"
   inkscape:cy="400"
   inkscape:window-width="3840"
   inkscape:window-height="2075"
   inkscape:window-x="0"
   inkscape:window-y="54"
   inkscape:window-maximized="1"
   inkscape:current-layer="_x35_" />
<g
   id="g40"
   transform="translate(0,16.64)">
	<path
   style="fill:#ae8354"
   d="m 508.937,13.702 v 0.006 C 507.023,4.42 497.934,-1.557 488.638,0.356 c -9.283,1.907 -15.266,10.997 -13.345,20.286 1.634,7.953 2.355,14.893 2.355,20.944 -0.05,11.992 -2.622,20.305 -7.09,27.53 -4.48,7.207 -11.345,13.625 -21.193,19.745 -4.225,2.666 -9.071,5.188 -14.303,7.661 V 64.227 c 0,-8.369 -6.785,-15.16 -15.154,-15.16 -8.375,0 -15.153,6.791 -15.153,15.16 v 44.449 c -12.805,4.529 -26.897,9.065 -41.97,13.917 -0.839,0.273 -1.559,0.59 -2.379,0.87 V 96.864 c 0,-8.369 -6.791,-15.154 -15.154,-15.154 -8.369,0 -15.16,6.785 -15.16,15.154 v 40.441 c -18.583,11.159 -31.059,24.598 -38.596,37.508 -4.064,6.902 -6.76,13.476 -8.605,19.391 -9.742,0 -19.571,0 -26.89,0 -7.319,0 -17.148,0 -26.89,0 -1.845,-5.915 -4.541,-12.488 -8.605,-19.391 -7.537,-12.911 -20.012,-26.35 -38.602,-37.508 V 96.864 c 0,-8.369 -6.785,-15.154 -15.153,-15.154 -8.366,0 -15.154,6.785 -15.154,15.154 v 26.598 c -0.82,-0.28 -1.54,-0.597 -2.38,-0.87 -15.073,-4.853 -29.164,-9.388 -41.97,-13.917 V 64.227 c 0,-8.369 -6.778,-15.16 -15.153,-15.16 -8.366,0 -15.154,6.791 -15.154,15.16 V 96.523 C 71.708,94.05 66.865,91.528 62.631,88.862 52.787,82.742 45.918,76.324 41.438,69.117 36.98,61.892 34.405,53.578 34.355,41.587 c 0,-6.051 0.721,-12.991 2.358,-20.944 C 38.627,11.354 32.647,2.265 23.365,0.357 14.07,-1.557 4.987,4.42 3.07,13.708 V 13.702 C 1.038,23.556 0.001,32.82 0.001,41.586 c -0.059,17.279 4.212,32.849 12.284,45.71 6.008,9.642 13.923,17.658 22.883,24.38 13.476,10.103 29.319,17.546 46.747,24.306 17.44,6.735 36.551,12.736 56.71,19.292 31.133,10.233 44.97,24.822 52.302,37.017 0.404,0.684 0.714,1.342 1.081,2.014 -5.499,0.584 -15.495,3.777 -23.312,10.028 -1.081,-0.459 -2.162,-0.919 -3.342,-1.311 -24.737,-8.233 -58.422,-18.062 -71.839,-21.187 -15.576,-3.635 -30.071,6.157 -18.844,29.437 10.845,22.498 24.722,50.637 57.707,58.882 5.256,1.318 10.336,1.982 15.21,2.255 -3.197,16.583 -5.952,31.289 -6.505,34.607 -2.665,16.011 6.316,29.046 12.203,39.993 3.886,7.232 30.361,73.265 34.306,81.957 2.771,6.089 9.475,18.863 9.475,18.863 0,1.764 0,3.112 0,4.28 0,0.422 0,0.889 0,1.243 0,6.312 3.156,25.256 22.1,25.256 18.937,0 36.837,0 36.837,0 0,0 17.9,0 36.837,0 18.944,0 22.1,-18.944 22.1,-25.256 0,-0.354 0,-0.821 0,-1.243 0,-1.168 0,-2.516 0,-4.28 0,0 6.704,-12.774 9.475,-18.863 3.945,-8.692 30.419,-74.725 34.302,-81.957 5.89,-10.947 14.874,-23.982 12.209,-39.993 -0.553,-3.318 -3.312,-18.024 -6.505,-34.607 4.871,-0.273 9.947,-0.938 15.204,-2.255 32.985,-8.245 46.865,-36.383 57.713,-58.882 11.22,-23.28 -3.268,-33.072 -18.851,-29.437 -13.42,3.125 -47.102,12.954 -71.836,21.187 -1.18,0.391 -2.267,0.851 -3.348,1.311 -7.81,-6.25 -17.806,-9.444 -23.305,-10.028 0.366,-0.671 0.677,-1.33 1.081,-2.014 7.332,-12.196 21.162,-26.784 52.302,-37.017 20.155,-6.555 39.273,-12.557 56.713,-19.292 17.427,-6.76 33.265,-14.204 46.747,-24.306 8.953,-6.722 16.869,-14.738 22.876,-24.38 8.071,-12.861 12.346,-28.431 12.284,-45.71 -0.003,-8.766 -1.034,-18.03 -3.065,-27.884 z"
   id="path2" />
	<g
   id="g38">
		<g
   id="g8">
			<path
   style="fill:#fbdeb3"
   d="m 220.506,174.814 c -7.537,-12.911 -20.012,-26.35 -38.602,-37.508 V 96.864 c 0,-8.369 -6.785,-15.154 -15.153,-15.154 -8.366,0 -15.154,6.785 -15.154,15.154 v 26.598 c -0.82,-0.28 -1.54,-0.597 -2.38,-0.87 -15.073,-4.853 -29.164,-9.388 -41.97,-13.917 V 64.227 c 0,-8.369 -6.778,-15.16 -15.153,-15.16 -8.366,0 -15.154,6.791 -15.154,15.16 V 96.523 C 71.708,94.05 66.865,91.528 62.631,88.862 52.787,82.742 45.918,76.324 41.438,69.117 36.98,61.892 34.405,53.578 34.355,41.587 c 0,-6.051 0.721,-12.991 2.358,-20.944 C 38.627,11.354 32.647,2.265 23.365,0.357 14.07,-1.557 4.987,4.42 3.07,13.708 V 13.702 C 1.038,23.556 0.001,32.82 0.001,41.586 c -0.059,17.279 4.212,32.849 12.284,45.71 6.008,9.642 13.923,17.658 22.883,24.38 13.476,10.103 29.319,17.546 46.747,24.306 17.44,6.735 36.551,12.736 56.71,19.292 31.133,10.233 44.97,24.822 52.302,37.017 7.25,12.215 7.642,23.008 7.623,24.772 v 0.249 h 0.019 c -0.423,9.369 6.76,17.384 16.166,17.919 9.463,0.54 17.583,-6.698 18.123,-16.173 0.013,-0.298 0.043,-0.975 0.043,-1.995 -0.006,-5.828 -1,-22.89 -12.395,-42.249 z"
   id="path4" />
			<path
   style="fill:#fad4a7"
   d="m 291.497,174.814 c 7.537,-12.911 20.012,-26.35 38.596,-37.508 V 96.864 c 0,-8.369 6.791,-15.154 15.16,-15.154 8.363,0 15.154,6.785 15.154,15.154 v 26.598 c 0.82,-0.28 1.54,-0.597 2.379,-0.87 15.073,-4.853 29.164,-9.388 41.97,-13.917 V 64.227 c 0,-8.369 6.778,-15.16 15.153,-15.16 8.369,0 15.154,6.791 15.154,15.16 v 32.296 c 5.232,-2.473 10.078,-4.995 14.303,-7.661 9.847,-6.12 16.713,-12.538 21.193,-19.745 4.467,-7.225 7.04,-15.539 7.09,-27.53 0,-6.051 -0.721,-12.991 -2.355,-20.944 -1.92,-9.289 4.063,-18.378 13.345,-20.286 9.295,-1.914 18.385,4.064 20.299,13.352 v -0.006 c 2.031,9.854 3.063,19.118 3.063,27.884 0.062,17.279 -4.212,32.849 -12.284,45.71 -6.008,9.642 -13.923,17.658 -22.876,24.38 -13.482,10.103 -29.32,17.546 -46.747,24.306 -17.44,6.735 -36.558,12.736 -56.713,19.292 -31.14,10.233 -44.97,24.822 -52.302,37.017 -7.25,12.215 -7.642,23.008 -7.623,24.772 v 0.249 h -0.019 c 0.423,9.369 -6.76,17.384 -16.166,17.919 -9.475,0.54 -17.583,-6.698 -18.123,-16.173 -0.013,-0.298 -0.043,-0.975 -0.043,-1.995 0.003,-5.829 0.997,-22.891 12.392,-42.25 z"
   id="path6" />
		</g>
		<g
   id="g22">
			<g
   id="g14">
				<path
   style="fill:#a87e47"
   d="m 192.429,245.432 c 0,-10.612 -2.355,-34.16 -27.076,-42.411 -24.737,-8.233 -58.422,-18.062 -71.839,-21.187 -15.576,-3.635 -30.071,6.157 -18.844,29.437 10.845,22.498 24.722,50.637 57.707,58.882 32.976,8.251 60.053,-7.058 60.053,-7.058 v -17.663 z"
   id="path10" />
				<path
   style="fill:#bf9862"
   d="m 152.355,252.385 c -5.138,0 -10.208,-0.615 -15.082,-1.833 -17.17,-4.293 -27.381,-16.285 -36.39,-32.395 -2.734,-4.871 2.38,-12.929 9.068,-11.028 14.8,4.212 33.396,9.867 49.006,15.073 3.632,1.206 13.268,4.424 13.268,23.231 v 4.02 c -5.212,1.529 -12.103,2.933 -19.863,2.933 -0.001,-0.001 -0.001,-0.001 -0.007,-0.001 z"
   id="path12" />
			</g>
			<g
   id="g20">
				<path
   style="fill:#a27544"
   d="m 319.574,245.432 c 0,-10.612 2.355,-34.16 27.076,-42.411 24.734,-8.233 58.416,-18.062 71.836,-21.187 15.582,-3.635 30.071,6.157 18.851,29.437 -10.848,22.498 -24.729,50.637 -57.713,58.882 -32.973,8.251 -60.05,-7.058 -60.05,-7.058 z"
   id="path16" />
				<path
   style="fill:#bf9862"
   d="m 359.648,252.385 c 5.138,0 10.208,-0.615 15.085,-1.833 17.167,-4.293 27.375,-16.285 36.384,-32.395 2.733,-4.871 -2.374,-12.929 -9.065,-11.028 -14.806,4.212 -33.396,9.867 -49.009,15.073 -3.629,1.206 -13.265,4.424 -13.265,23.231 v 4.02 c 5.213,1.529 12.103,2.933 19.857,2.933 0.001,-0.001 0.001,-0.001 0.013,-0.001 z"
   id="path18" />
			</g>
		</g>
		<g
   id="g28">
			<path
   style="fill:#ae8354"
   d="m 256.002,194.205 c -18.943,0 -54.731,0 -62.305,0 -7.58,0 -30.941,7.574 -35.362,25.25 -3.243,12.997 -15.99,79.987 -17.254,87.561 -2.665,16.011 6.316,29.046 12.203,39.993 3.886,7.232 30.361,73.265 34.306,81.957 2.771,6.089 9.475,18.863 9.475,18.863 0,19.732 0,-0.795 0,5.524 0,6.312 3.156,25.256 22.1,25.256 18.937,0 36.837,0 36.837,0 z"
   id="path24" />
			<path
   style="fill:#a87e47"
   d="m 256.002,194.205 c 18.943,0 54.731,0 62.305,0 7.58,0 30.935,7.574 35.359,25.25 3.243,12.997 15.993,79.987 17.26,87.561 2.665,16.011 -6.319,29.046 -12.209,39.993 -3.883,7.232 -30.357,73.265 -34.302,81.957 -2.771,6.089 -9.475,18.863 -9.475,18.863 0,19.732 0,-0.795 0,5.524 0,6.312 -3.156,25.256 -22.1,25.256 -18.937,0 -36.837,0 -36.837,0 V 194.205 Z"
   id="path26" />
		</g>
		<path
   style="fill:#67411d"
   d="m 290.733,432.297 c 0,14.545 -11.78,26.319 -26.306,26.319 h -16.85 c -14.526,0 -26.306,-11.774 -26.306,-26.319 v 0 c 0,-14.52 11.78,-26.3 26.306,-26.3 h 16.85 c 14.526,0 26.306,11.78 26.306,26.3 z"
   id="path30" />
		<g
   id="g36">
			<path
   style="fill:#67411d"
   d="m 172.013,304.127 h -19.499 l 6.309,8.562 c -0.817,1.808 -1.286,3.796 -1.286,5.902 0,7.984 6.481,14.47 14.477,14.47 7.978,0 14.458,-6.486 14.458,-14.47 -0.001,-7.984 -6.482,-14.464 -14.459,-14.464 z"
   id="path32" />
			<path
   style="fill:#67411d"
   d="M 359.493,304.127 H 339.99 c -7.978,0 -14.458,6.48 -14.458,14.464 0,7.984 6.481,14.47 14.458,14.47 7.996,0 14.477,-6.486 14.477,-14.47 0,-2.106 -0.473,-4.094 -1.286,-5.902 z"
   id="path34" />
		</g>
	</g>
</g>
</svg>
