<?xml version="1.0" encoding="iso-8859-1"?>

<!DOCTYPE svg PUBLIC "-//W3C//DTD SVG 1.1//EN" "http://www.w3.org/Graphics/SVG/1.1/DTD/svg11.dtd">
<!-- Uploaded to: SVG Repo, www.svgrepo.com, Generator: SVG Repo Mixer Tools -->
<svg version="1.1" id="_x35_" xmlns="http://www.w3.org/2000/svg" xmlns:xlink="http://www.w3.org/1999/xlink" 
	 viewBox="0 0 512 512"  xml:space="preserve">
<g>
	<path style="fill:#ECC79F;" d="M512,138.673c-0.007-15.319-3.312-30.019-9.263-43.207c-5.951-13.202-14.503-24.92-25.011-34.542
		c-10.803-9.882-27.578-9.136-37.461,1.667c-9.89,10.804-9.143,27.586,1.66,37.467c5.247,4.797,9.516,10.656,12.456,17.183
		c2.933,6.534,4.572,13.729,4.579,21.452v-0.014l0,0v0.043c0,7.301-1.463,14.123-4.1,20.369
		c-3.953,9.362-10.621,17.415-18.998,23.063c-8.384,5.655-18.316,8.925-29.253,8.94l-43.495,0.028
		c-14.644,0-26.51,11.88-26.503,26.531c0,14.644,11.88,26.509,26.531,26.503l43.495-0.022c14.475-0.007,28.402-2.961,41.027-8.307
		c18.941-8.032,34.971-21.361,46.323-38.171c11.324-16.733,17.971-37.06,18.006-58.709l0,0l0.007-0.225l0,0v-0.043V138.673z"/>
	<polygon style="fill:#F4D1A6;" points="130.549,95.875 87.772,95.875 97.07,127.498 87.772,159.113 130.549,159.113 
		128.689,127.498 	"/>
	<polygon style="fill:#F4D1A6;" points="371.315,159.113 414.086,159.113 404.788,127.498 414.086,95.875 371.315,95.875 
		373.172,127.498 	"/>
	<path style="fill:#F4D1A6;" d="M110.152,308.021V140.749C110.152,63.021,173.166,0,250.901,0
		c77.735,0,140.756,63.021,140.756,140.749v167.272H110.152z"/>
	<polygon style="fill:#F9D5B0;" points="421.985,375.339 79.817,375.339 101.627,326.956 108.559,311.53 110.152,308.021 
		391.656,308.021 393.246,311.53 400.181,326.956 	"/>
	<rect x="79.817" y="375.339" style="fill:#F4D1A6;" width="342.168" height="130.55"/>
	<polygon style="fill:#DBB289;" points="258.243,93.835 258.243,194.626 225.151,194.626 210.106,214.186 273.288,214.186 
		268.78,107.374 	"/>
	<path style="fill:#6E5A4E;" d="M283.536,253.968c0,15.206-15.523,27.536-34.675,27.536c-19.145,0-34.676-12.33-34.676-27.536
		c0-15.214,15.53-27.544,34.676-27.544C268.013,226.424,283.536,238.755,283.536,253.968z"/>
	<path style="fill:#6E5A4E;" d="M214.185,136.676c0,16.895-13.701,30.596-30.596,30.596c-16.902,0-30.596-13.702-30.596-30.596
		c0-16.902,13.694-30.603,30.596-30.603C200.484,106.074,214.185,119.774,214.185,136.676z"/>
	<path style="fill:#6E5A4E;" d="M346.775,136.676c0,16.895-13.695,30.596-30.596,30.596c-16.895,0-30.596-13.702-30.596-30.596
		c0-16.902,13.702-30.603,30.596-30.603C333.08,106.074,346.775,119.774,346.775,136.676z"/>
	<path style="fill:#F4D1A6;" d="M70.054,332.681c-5.243-4.804-9.509-10.656-12.446-17.19c-2.936-6.541-4.565-13.73-4.572-21.453
		c0.007-7.308,1.466-14.13,4.108-20.383c3.95-9.362,10.631-17.415,19.001-23.063c8.394-5.648,18.329-8.919,29.27-8.932h43.499
		c14.644,0,26.517-11.873,26.517-26.517c0-14.644-11.873-26.516-26.517-26.516h-43.499c-14.482,0-28.412,2.947-41.038,8.293
		c-18.955,8.025-34.998,21.354-46.362,38.157C6.654,251.879-0.011,272.297,0,294.038c-0.007,15.312,3.299,30.012,9.242,43.214
		c5.94,13.195,14.489,24.927,24.994,34.549c10.804,9.89,27.579,9.151,37.464-1.646c9.897-10.804,9.158-27.579-1.642-37.475H70.054z"
		/>
	<g>
		<path style="opacity:0.06;fill:#6E5A4E;" d="M502.737,95.467c-5.951-13.202-14.503-24.92-25.011-34.542
			c-10.803-9.882-27.578-9.136-37.461,1.667c-9.89,10.804-9.143,27.586,1.66,37.467c5.247,4.797,9.516,10.656,12.456,17.183
			c2.933,6.534,4.572,13.729,4.579,21.452v0.028c0,7.301-1.463,14.123-4.1,20.369c-3.953,9.362-10.621,17.415-18.998,23.063
			c-8.384,5.655-18.316,8.925-29.253,8.94l-14.953,0.014v-31.996h22.43l-9.298-31.616l9.298-31.623h-29.78
			C365.562,40.155,312.937,0,250.901,0c-9.559,0-18.893,0.964-27.916,2.779c43.784,13.546,76.877,75.575,76.877,150.096v155.146
			l26.517,69.352v128.517h95.607v-130.55l-30.328-67.318v-63.871l14.981-0.014c14.475-0.007,28.402-2.961,41.027-8.307
			c18.941-8.032,34.971-21.361,46.323-38.171c11.324-16.733,17.971-37.06,18.006-58.709l0,0l0.007-0.225v-0.043v-0.007
			C511.993,123.355,508.688,108.655,502.737,95.467z"/>
	</g>
	<path style="fill:#E7C197;" d="M421.985,382.928H80.576c-0.271,0-0.51,0-0.76,0.022v15.375c0.25,0.022,0.489,0.022,0.76,0.022
		h341.409V382.928z"/>
	<polygon style="fill:#E7C197;" points="400.181,326.956 101.627,326.956 108.559,311.53 393.246,311.53 	"/>
	<path style="fill:#F4D1A6;" d="M435.51,380.438c0,6.19-5.022,11.218-11.218,11.218H80.576c-6.197,0-11.219-5.029-11.219-11.218l0,0
		c0-6.196,5.022-11.218,11.219-11.218h343.715C430.489,369.22,435.51,374.242,435.51,380.438L435.51,380.438z"/>
	<path style="fill:#F4D1A6;" d="M399.815,309.04c0,6.197-5.029,11.219-11.226,11.219H111.172c-6.196,0-11.218-5.022-11.218-11.219
		l0,0c0-6.189,5.022-11.218,11.218-11.218H388.59C394.786,297.822,399.815,302.851,399.815,309.04L399.815,309.04z"/>
</g>
</svg>