<?xml version="1.0" encoding="UTF-8" standalone="no"?>
<!-- Uploaded to: SVG Repo, www.svgrepo.com, Generator: SVG Repo Mixer Tools -->

<svg
   height="800px"
   width="800px"
   version="1.1"
   id="_x35_"
   viewBox="0 0 512 512"
   xml:space="preserve"
   sodipodi:docname="lion-svgrepo-com.svg"
   inkscape:version="1.1.2 (0a00cf5339, 2022-02-04)"
   xmlns:inkscape="http://www.inkscape.org/namespaces/inkscape"
   xmlns:sodipodi="http://sodipodi.sourceforge.net/DTD/sodipodi-0.dtd"
   xmlns="http://www.w3.org/2000/svg"
   xmlns:svg="http://www.w3.org/2000/svg"><defs
   id="defs59" /><sodipodi:namedview
   id="namedview57"
   pagecolor="#ffffff"
   bordercolor="#666666"
   borderopacity="1.0"
   inkscape:pageshadow="2"
   inkscape:pageopacity="0.0"
   inkscape:pagecheckerboard="0"
   showgrid="false"
   inkscape:zoom="0.805"
   inkscape:cx="399.37888"
   inkscape:cy="400"
   inkscape:window-width="3840"
   inkscape:window-height="2075"
   inkscape:window-x="0"
   inkscape:window-y="54"
   inkscape:window-maximized="1"
   inkscape:current-layer="_x35_" />
<g
   id="g54"
   style="opacity:0.98"
   transform="translate(0,23.04)">
	<g
   id="g50">
		<g
   id="g34">
			<path
   style="fill:#be955d"
   d="m 512,259.599 c 0,0 -75.96,-189.421 -109.717,-226.771 C 368.526,-4.528 306.638,3.48 256,3.48 205.362,3.48 143.474,-4.528 109.717,32.829 75.954,70.178 0,259.599 0,259.599 l 47.828,10.673 -14.072,72.035 59.079,-5.343 1.405,60.025 52.043,-6.666 8.44,56.031 56.269,-21.346 45.008,42.688 45.007,-42.687 56.27,21.346 8.44,-56.031 52.043,6.666 1.405,-60.025 59.079,5.343 -14.066,-72.035 z"
   id="path2" />
			<polygon
   style="fill:#d5ad79"
   points="256,383.301 256,307.34 165.98,307.34 199.743,383.301 "
   id="polygon4" />
			<g
   id="g10">
				<polygon
   style="fill:#d5ad79"
   points="168.796,318.597 256,245.452 256,110.419 151.914,85.103 97.055,215.916 "
   id="polygon6" />
				<polygon
   style="fill:#e4bc8c"
   points="149.105,329.853 219.428,197.623 256,194.814 256,329.853 188.481,360.794 "
   id="polygon8" />
			</g>
			<g
   id="g14">
				<polygon
   style="fill:#936538"
   points="208.177,312.971 256,329.853 256,276.399 208.177,276.399 "
   id="polygon12" />
			</g>
			<polygon
   style="fill:#d5ad79"
   points="256,383.301 256,307.34 346.026,307.34 312.27,383.301 "
   id="polygon16" />
			<g
   id="g22">
				<polygon
   style="fill:#d5ad79"
   points="343.204,318.597 256,245.452 256,110.419 360.086,85.103 414.944,215.916 "
   id="polygon18" />
				<polygon
   style="fill:#e4bc8c"
   points="362.907,329.853 292.566,197.623 256,194.814 256,329.853 323.519,360.794 "
   id="polygon20" />
			</g>
			<g
   id="g26">
				<polygon
   style="fill:#936538"
   points="303.828,312.971 256,329.853 256,276.399 303.828,276.399 "
   id="polygon24" />
			</g>
			<g
   id="g32">
				<path
   style="fill:#a3764b"
   d="m 196.219,199.386 c 0,6.603 -5.355,11.959 -11.959,11.959 -6.597,0 -11.946,-5.355 -11.946,-11.959 0,-6.604 5.349,-11.953 11.946,-11.953 6.603,0 11.959,5.349 11.959,11.953 z"
   id="path28" />
				<path
   style="fill:#a3764b"
   d="m 336.877,199.386 c 0,6.603 -5.349,11.959 -11.953,11.959 -6.597,0 -11.959,-5.355 -11.959,-11.959 0,-6.604 5.362,-11.953 11.959,-11.953 6.604,0 11.953,5.349 11.953,11.953 z"
   id="path30" />
			</g>
		</g>
		<g
   id="g48">
			<g
   id="g40">
				<path
   style="fill:#e4bc8c"
   d="M 94.679,0 C 65.162,0 41.232,23.93 41.232,53.447 c 0,29.524 23.93,53.454 53.447,53.454 2.458,0 4.848,-0.225 7.212,-0.539 L 141.63,27.881 C 132.562,11.268 114.941,0 94.679,0 Z"
   id="path36" />
				<path
   style="fill:#a3764b"
   d="M 90.867,83.924 C 79.26,80.462 70.775,69.682 70.775,56.965 c 0,-15.514 12.617,-28.131 28.126,-28.131 6.239,0 12.166,2.063 16.982,5.707 z"
   id="path38" />
			</g>
			<g
   id="g46">
				<path
   style="fill:#e4bc8c"
   d="m 417.315,0 c 29.524,0 53.46,23.93 53.46,53.447 0,29.524 -23.936,53.454 -53.46,53.454 -2.446,0 -4.841,-0.225 -7.199,-0.539 L 370.383,27.881 C 379.444,11.268 397.066,0 417.315,0 Z"
   id="path42" />
				<path
   style="fill:#a3764b"
   d="m 421.133,83.924 c 11.614,-3.462 20.099,-14.242 20.099,-26.959 0,-15.514 -12.623,-28.131 -28.132,-28.131 -6.233,0 -12.165,2.063 -16.975,5.707 z"
   id="path44" />
			</g>
		</g>
	</g>
	<path
   style="opacity:0.08;fill:#a3764b"
   d="m 512,259.599 c 0,0 -36.321,-90.578 -69.902,-158.812 17.038,-8.943 28.677,-26.765 28.677,-47.34 C 470.775,23.93 446.839,0 417.315,0 402.541,0 389.177,6.02 379.507,15.721 344.71,-1.681 296.724,3.48 256,3.48 v 464.216 l 45.007,-42.687 56.27,21.346 8.44,-56.031 52.043,6.666 1.405,-60.025 59.079,5.343 -14.066,-72.035 z"
   id="path52" />
</g>
</svg>
