<?xml version="1.0" encoding="UTF-8" standalone="no"?>
<!-- Uploaded to: SVG Repo, www.svgrepo.com, Generator: SVG Repo Mixer Tools -->

<svg
   height="800px"
   width="800px"
   version="1.1"
   id="_x35_"
   viewBox="0 0 512 512"
   xml:space="preserve"
   sodipodi:docname="mount-fuji-svgrepo-com.svg"
   inkscape:version="1.1.2 (0a00cf5339, 2022-02-04)"
   xmlns:inkscape="http://www.inkscape.org/namespaces/inkscape"
   xmlns:sodipodi="http://sodipodi.sourceforge.net/DTD/sodipodi-0.dtd"
   xmlns="http://www.w3.org/2000/svg"
   xmlns:svg="http://www.w3.org/2000/svg"><defs
   id="defs13" /><sodipodi:namedview
   id="namedview11"
   pagecolor="#ffffff"
   bordercolor="#666666"
   borderopacity="1.0"
   inkscape:pageshadow="2"
   inkscape:pageopacity="0.0"
   inkscape:pagecheckerboard="0"
   showgrid="false"
   inkscape:zoom="0.805"
   inkscape:cx="399.37888"
   inkscape:cy="400"
   inkscape:window-width="3840"
   inkscape:window-height="2075"
   inkscape:window-x="0"
   inkscape:window-y="54"
   inkscape:window-maximized="1"
   inkscape:current-layer="_x35_" />
<g
   id="g8"
   transform="translate(0,64)">
	<polygon
   style="fill:#ffffff"
   points="298.436,78.934 298.436,78.959 256,124.433 213.564,78.959 213.564,78.934 210.65,75.815 165.332,124.433 128.846,85.246 164.921,0 213.564,0 298.436,0 347.073,0 383.154,85.246 346.662,124.433 301.344,75.815 "
   id="polygon2" />
	<polygon
   style="fill:#667f9b"
   points="512,389.733 256,389.733 213.564,389.733 0,389.733 128.846,85.246 165.332,124.433 210.65,75.815 256,124.433 301.344,75.815 346.662,124.433 383.154,85.246 "
   id="polygon4" />
	<polygon
   style="opacity:0.05;fill:#231815"
   points="347.073,0 383.154,85.246 512,389.733 256,389.733 256,0 298.436,0 "
   id="polygon6" />
</g>
</svg>
