<?xml version="1.0" encoding="UTF-8" standalone="no"?>
<!-- Uploaded to: SVG Repo, www.svgrepo.com, Generator: SVG Repo Mixer Tools -->

<svg
   height="800px"
   width="800px"
   version="1.1"
   id="_x35_"
   viewBox="0 0 512 512"
   xml:space="preserve"
   sodipodi:docname="octopus-svgrepo-com.svg"
   inkscape:version="1.1.2 (0a00cf5339, 2022-02-04)"
   xmlns:inkscape="http://www.inkscape.org/namespaces/inkscape"
   xmlns:sodipodi="http://sodipodi.sourceforge.net/DTD/sodipodi-0.dtd"
   xmlns="http://www.w3.org/2000/svg"
   xmlns:svg="http://www.w3.org/2000/svg"><defs
   id="defs27" /><sodipodi:namedview
   id="namedview25"
   pagecolor="#ffffff"
   bordercolor="#666666"
   borderopacity="1.0"
   inkscape:pageshadow="2"
   inkscape:pageopacity="0.0"
   inkscape:pagecheckerboard="0"
   showgrid="false"
   inkscape:zoom="0.805"
   inkscape:cx="399.37888"
   inkscape:cy="400"
   inkscape:window-width="3840"
   inkscape:window-height="2075"
   inkscape:window-x="0"
   inkscape:window-y="54"
   inkscape:window-maximized="1"
   inkscape:current-layer="_x35_" />
<g
   id="g22"
   transform="translate(26.88)">
	<g
   id="g18">
		<path
   style="fill:#e7987e"
   d="m 377.438,463.923 c 44.561,2.453 73.459,-22.544 79.252,-28.351 l -11.594,-25.766 c -5.8,5.793 -32.106,25.674 -67.658,19.328 -34.96,-6.241 -49.954,-32.527 -56.05,-49.875 12.732,12.35 37.67,26.444 77.312,9.924 61.857,-25.773 54.13,-82.481 54.13,-100.513 l -21.913,-1.296 c 0,36.834 -18.04,64.436 -52.835,65.724 -14.179,-1.289 -36.078,-28.351 -21.255,-42.911 32.882,-32.882 53.223,-78.305 53.223,-128.483 0,-50.178 -20.341,-95.601 -53.223,-128.483 C 323.945,20.341 278.523,0 228.345,0 178.174,0 132.737,20.341 99.866,53.222 66.978,86.104 46.644,131.527 46.644,181.705 c 0,50.178 20.334,95.601 53.222,128.483 14.823,14.56 -7.083,41.622 -21.258,42.911 -34.789,-1.289 -52.831,-28.89 -52.831,-65.724 l -21.91,1.295 c 0,18.032 -7.733,74.74 54.124,100.513 39.642,16.52 64.584,2.426 77.319,-9.924 -6.097,17.349 -21.091,43.634 -56.057,49.875 C 43.707,435.48 17.399,415.6 11.602,409.806 L 0,435.572 c 5.797,5.807 34.694,30.804 79.252,28.351 70.235,-3.867 98.586,-56.701 98.586,-56.701 2.545,17.348 1.46,37.275 -25.069,59.115 -27.877,22.958 -58.02,18.341 -65.924,16.125 l 1.345,25.839 c 7.892,2.21 53.598,10.417 84.48,-8.286 51.296,-31.041 55.676,-87.637 55.676,-87.637 0,0 4.38,56.596 55.676,87.637 30.882,18.703 76.588,10.496 84.486,8.286 l 1.335,-25.839 c -7.898,2.216 -38.044,6.833 -65.921,-16.125 -26.529,-21.84 -27.614,-41.767 -25.069,-59.115 -0.002,0 28.349,52.835 98.585,56.701 z"
   id="path2" />
		<path
   style="fill:#727171"
   d="m 154.768,172.037 c 0,8.971 -7.267,16.244 -16.237,16.244 -8.964,0 -16.234,-7.274 -16.234,-16.244 0,-8.963 7.27,-16.237 16.234,-16.237 8.97,10e-4 16.237,7.274 16.237,16.237 z"
   id="path4" />
		<path
   style="fill:#727171"
   d="m 328.746,172.037 c 0,8.971 -7.274,16.244 -16.238,16.244 -8.97,0 -16.243,-7.274 -16.243,-16.244 0,-8.963 7.274,-16.237 16.243,-16.237 8.965,10e-4 16.238,7.274 16.238,16.237 z"
   id="path6" />
		<path
   style="fill:#bf87a9"
   d="m 324.103,270.624 c 0,20.288 -16.441,36.729 -36.729,36.729 H 186.861 c -20.288,0 -36.735,-16.441 -36.735,-36.729 v 0 c 0,-20.288 16.447,-36.729 36.735,-36.729 h 100.514 c 20.287,0 36.728,16.441 36.728,36.729 z"
   id="path8" />
		<path
   style="fill:#efbdd7"
   d="m 318.303,262.891 c 0,20.288 -16.441,36.729 -36.729,36.729 h -100.52 c -20.281,0 -36.722,-16.441 -36.722,-36.729 v 0 c 0,-20.288 16.441,-36.723 36.722,-36.723 h 100.52 c 20.288,0 36.729,16.434 36.729,36.723 z"
   id="path10" />
		<g
   id="g14">
			<path
   style="fill:#727171"
   d="m 186.861,272.557 h 86.986 c 5.333,0 9.661,-4.327 9.661,-9.667 0,-5.333 -4.327,-9.661 -9.661,-9.661 h -86.986 c -5.346,0 -9.667,4.327 -9.667,9.661 0,5.34 4.32,9.667 9.667,9.667"
   id="path12" />
		</g>
		<path
   style="opacity:0.06;fill:#231815"
   d="m 445.095,409.807 c -5.8,5.793 -32.106,25.674 -67.658,19.328 -34.96,-6.241 -49.954,-32.527 -56.05,-49.875 12.732,12.35 37.67,26.444 77.312,9.924 61.857,-25.773 54.13,-82.481 54.13,-100.513 l -21.913,-1.296 c 0,36.834 -18.04,64.436 -52.835,65.724 -14.179,-1.289 -36.078,-28.351 -21.255,-42.911 32.882,-32.882 53.223,-78.305 53.223,-128.483 0,-50.178 -20.341,-95.601 -53.223,-128.483 C 323.945,20.341 278.523,0 228.345,0 v 412.378 c 0,0 4.38,56.596 55.676,87.637 30.882,18.703 76.588,10.496 84.486,8.286 l 1.335,-25.839 c -7.898,2.216 -38.044,6.833 -65.921,-16.125 -26.529,-21.84 -27.614,-41.767 -25.069,-59.115 0,0 28.351,52.835 98.586,56.701 44.561,2.453 73.459,-22.544 79.252,-28.351 z"
   id="path16" />
	</g>
	<path
   style="fill:#ffffff"
   d="m 158.287,85.572 c 0,15.178 -12.311,27.489 -27.49,27.489 -15.181,0 -27.489,-12.311 -27.489,-27.489 0,-15.178 12.308,-27.489 27.489,-27.489 15.179,0 27.49,12.31 27.49,27.489 z"
   id="path20" />
</g>
</svg>
