<?xml version="1.0" encoding="UTF-8" standalone="no"?>
<!-- Uploaded to: SVG Repo, www.svgrepo.com, Generator: SVG Repo Mixer Tools -->

<svg
   height="800px"
   width="800px"
   version="1.1"
   id="_x35_"
   viewBox="0 0 512 512"
   xml:space="preserve"
   sodipodi:docname="penguin-svgrepo-com.svg"
   inkscape:version="1.1.2 (0a00cf5339, 2022-02-04)"
   xmlns:inkscape="http://www.inkscape.org/namespaces/inkscape"
   xmlns:sodipodi="http://sodipodi.sourceforge.net/DTD/sodipodi-0.dtd"
   xmlns="http://www.w3.org/2000/svg"
   xmlns:svg="http://www.w3.org/2000/svg"><defs
   id="defs31" /><sodipodi:namedview
   id="namedview29"
   pagecolor="#ffffff"
   bordercolor="#666666"
   borderopacity="1.0"
   inkscape:pageshadow="2"
   inkscape:pageopacity="0.0"
   inkscape:pagecheckerboard="0"
   showgrid="false"
   inkscape:zoom="0.805"
   inkscape:cx="399.37888"
   inkscape:cy="400"
   inkscape:window-width="3840"
   inkscape:window-height="2075"
   inkscape:window-x="0"
   inkscape:window-y="54"
   inkscape:window-maximized="1"
   inkscape:current-layer="_x35_" />
<g
   id="g26"
   transform="translate(80.64)">
	<g
   id="g22">
		<path
   style="fill:#595758"
   d="m 57.666,180.554 c 0,24.604 -12.782,166.02 -12.782,181.83 0,24.61 -10.41,54.688 -17.848,43.746 C 19.605,395.194 -2.707,354.179 0.271,299.498 3.244,244.816 39.675,194.494 47.255,180.554 c 8.925,-16.411 10.411,-15.29 10.411,0 z"
   id="path2" />
		<polygon
   style="fill:#614943"
   points="140.611,442.629 140.611,456.018 140.611,487.656 98.228,512 96.866,496.178 77.718,496.178 85.929,480.361 70.888,475.488 111.902,460.885 111.902,442.629 "
   id="polygon4" />
		<path
   style="fill:#595758"
   d="m 267.995,180.554 c 0,24.604 12.794,166.02 12.794,181.83 0,24.61 10.397,54.688 17.835,43.746 7.437,-10.936 29.743,-51.951 26.765,-106.632 -2.973,-54.682 -39.404,-105.004 -46.984,-118.944 -8.923,-16.411 -10.41,-15.29 -10.41,0 z"
   id="path6" />
		<polygon
   style="fill:#614943"
   points="185.05,442.629 185.05,456.018 185.05,487.656 227.433,512 228.801,496.178 247.943,496.178 239.737,480.361 254.78,475.488 213.765,460.885 213.765,442.629 "
   id="polygon8" />
		<g
   id="g14">
			<path
   style="fill:#fafafb"
   d="M 258.638,203.796 C 235.397,129.973 244.971,123.13 165.673,132.703 86.382,123.129 95.95,129.973 72.709,203.796 57.92,250.761 32.227,331.613 55.455,394.537 c 3.406,4.124 7.184,7.951 11.357,11.469 8.701,7.319 31.416,31.57 34.147,37.038 6.96,13.915 51.956,19.136 51.956,1.368 0,-11.023 2.997,-7.177 9.915,-7.177 6.917,0 9.915,-3.846 9.915,7.177 0,17.767 44.996,12.546 51.956,-1.368 2.738,-5.468 25.446,-29.719 34.147,-37.038 7.227,-6.094 13.265,-13.092 18.244,-21.018 11.376,-56.075 -4.607,-137.206 -18.454,-181.192 z"
   id="path10" />
			<path
   style="fill:#595758"
   d="M 270.726,162.781 C 251.585,129.972 247.12,123.315 235.935,66.255 227.761,24.573 203.25,0 162.831,0 c -40.42,0 -60.652,25.644 -73.105,66.256 -17.018,55.511 -21.123,67.81 -34.79,96.526 -18.324,38.475 -27.347,82.028 -25.917,140.642 0.96,39.392 8.577,69.476 26.437,91.113 -23.229,-62.924 2.465,-143.776 17.253,-190.741 23.241,-73.823 13.673,-80.666 92.964,-71.093 79.298,-9.574 69.724,-2.73 92.965,71.093 13.847,43.987 29.83,125.117 18.455,181.192 12.967,-20.659 18.733,-47.665 19.55,-81.564 1.43,-58.615 -4.447,-103.84 -25.917,-140.643 z"
   id="path12" />
		</g>
		<path
   style="fill:#231815"
   d="m 236.43,57.133 c 0,0 21.879,6.688 43.746,28.561 4.868,4.861 -10.323,5.468 -47.517,5.994 -17.766,0.254 -36.946,-3.567 -20.535,-19.971 5.463,-16.404 15.191,-27.954 24.306,-14.584 z"
   id="path16" />
		<path
   style="fill:#ede887"
   d="m 221.723,128.603 c -14.38,-4.384 -41.014,-16.411 -56.05,-16.411 -15.042,0 -42.066,10.887 -56.056,16.411 -15.99,6.311 -9.568,12.305 4.106,17.773 13.673,5.468 51.95,6.83 51.95,6.83 0,0 38.284,-1.362 51.951,-6.83 13.673,-5.467 21.841,-12.372 4.099,-17.773 z"
   id="path18" />
		<path
   style="fill:#f6ec6d"
   d="m 98.495,71.575 c 0,0 3.641,-12.856 9.716,-16.404 6.081,-3.542 -3.034,11.97 34.029,45.219 4.26,2.657 -29.775,-7.097 -43.745,-28.815 z"
   id="path20" />
	</g>
	<path
   style="opacity:0.11;fill:#231815"
   d="m 325.389,299.498 c -2.632,-48.408 -31.447,-93.343 -43.293,-112.701 -3.183,-8.391 -6.924,-16.392 -11.37,-24.015 -15.847,-27.161 -21.643,-36.481 -29.508,-71.223 30.914,-0.52 43.43,-1.399 38.959,-5.864 C 258.31,63.823 236.431,57.134 236.431,57.134 235.143,55.245 233.842,53.908 232.548,52.954 222.045,19.414 198.729,0 162.831,0 c -0.278,0 -0.539,0.03 -0.817,0.03 v 437.155 c 0.278,0.013 0.526,0.05 0.817,0.05 6.917,0 9.915,-3.846 9.915,7.177 0,6.019 5.208,9.344 12.305,10.645 v 0.96 31.638 l 42.382,24.345 1.368,-15.822 h 19.142 l -8.206,-15.817 15.042,-4.873 -41.014,-14.603 v -9.314 c 5.14,-2.167 9.209,-5.078 10.936,-8.527 2.738,-5.468 25.446,-29.719 34.147,-37.038 7.227,-6.094 13.265,-13.092 18.244,-21.018 1.696,-2.707 3.257,-5.53 4.712,-8.453 2.793,20.318 10.782,38.482 16.82,29.595 7.437,-10.937 29.744,-51.951 26.765,-106.632 z"
   id="path24" />
</g>
</svg>
