<?xml version="1.0" encoding="UTF-8" standalone="no"?>
<!-- Uploaded to: SVG Repo, www.svgrepo.com, Generator: SVG Repo Mixer Tools -->

<svg
   version="1.1"
   id="_x35_"
   viewBox="0 0 512 512"
   xml:space="preserve"
   sodipodi:docname="ranking-crown-svgrepo-com.svg"
   inkscape:version="1.1.2 (0a00cf5339, 2022-02-04)"
   xmlns:inkscape="http://www.inkscape.org/namespaces/inkscape"
   xmlns:sodipodi="http://sodipodi.sourceforge.net/DTD/sodipodi-0.dtd"
   xmlns="http://www.w3.org/2000/svg"
   xmlns:svg="http://www.w3.org/2000/svg"><defs
   id="defs45" /><sodipodi:namedview
   id="namedview43"
   pagecolor="#ffffff"
   bordercolor="#666666"
   borderopacity="1.0"
   inkscape:pageshadow="2"
   inkscape:pageopacity="0.0"
   inkscape:pagecheckerboard="0"
   showgrid="false"
   inkscape:zoom="1.2578125"
   inkscape:cx="255.60248"
   inkscape:cy="256"
   inkscape:window-width="3840"
   inkscape:window-height="2075"
   inkscape:window-x="0"
   inkscape:window-y="54"
   inkscape:window-maximized="1"
   inkscape:current-layer="_x35_" />
<g
   id="g40"
   transform="translate(0,30)">
	<path
   style="fill:#856330"
   d="M 480.928,399.689 V 162.177 C 498.525,159.334 512,144.189 512,125.782 c 0,-20.433 -16.56,-36.993 -36.985,-36.993 -20.44,0 -37,16.56 -37,36.993 0,11.684 5.522,21.982 13.986,28.755 L 386.218,236.759 275.312,90.566 C 291.829,83.168 303.35,66.623 303.35,47.348 303.35,21.201 282.156,0 256.003,0 c -26.154,0 -47.349,21.201 -47.349,47.347 0,19.275 11.52,35.82 28.038,43.218 L 125.782,236.758 60.006,154.536 C 68.467,147.763 73.993,137.465 73.993,125.781 73.993,105.348 57.43,88.788 36.99,88.788 16.56,88.789 0,105.349 0,125.782 c 0,18.407 13.479,33.552 31.079,36.396 V 399.69 C 17.062,400.471 5.92,411.978 5.92,426.177 c 0,14.719 11.919,26.638 26.641,26.638 h 60.67 139.089 247.128 c 14.712,0 26.638,-11.919 26.638,-26.638 10e-4,-14.207 -11.15,-25.706 -25.158,-26.488 z"
   id="path2" />
	<g
   id="g38">
		<g
   id="g18">
			<g
   id="g8">
				<polygon
   style="fill:#f6e6a6"
   points="256.003,65.108 125.782,236.759 31.079,118.383 31.079,423.214 256.003,423.214 "
   id="polygon4" />
				<polygon
   style="fill:#e8c581"
   points="256.003,65.108 386.218,236.759 480.928,118.383 480.928,423.214 256.003,423.214 "
   id="polygon6" />
			</g>
			<g
   id="g16">
				<polygon
   style="opacity:0.13;fill:#c69950"
   points="317.166,413.356 409.899,407.436 283.62,281.15 228.384,324.56 "
   id="polygon10" />
				<path
   style="fill:#70b3ae"
   d="m 256.003,266.36 c 19.615,0 35.506,15.899 35.506,35.514 0,19.615 -15.891,35.521 -35.506,35.521 z"
   id="path12" />
				<path
   style="fill:#96d3d5"
   d="m 256.003,337.395 c -19.616,0 -35.508,-15.905 -35.508,-35.521 0,-19.616 15.891,-35.514 35.508,-35.514 z"
   id="path14" />
			</g>
		</g>
		<g
   id="g24">
			<path
   style="fill:#e8c581"
   d="m 256.003,0 c 26.154,0 47.347,21.201 47.347,47.347 0,26.162 -21.193,47.362 -47.347,47.362 z"
   id="path20" />
			<path
   style="fill:#f6e6a6"
   d="m 256.003,94.709 c -26.154,0 -47.349,-21.2 -47.349,-47.362 C 208.654,21.201 229.848,0 256.003,0 Z"
   id="path22" />
		</g>
		<g
   id="g30">
			<path
   style="fill:#f6e6a6"
   d="m 73.992,125.782 c 0,20.433 -16.563,36.992 -37.003,36.992 -20.43,0 -36.99,-16.56 -36.99,-36.992 0,-20.432 16.56,-36.993 36.99,-36.993 20.44,0 37.003,16.56 37.003,36.993 z"
   id="path26" />
			<path
   style="fill:#e8c581"
   d="m 512,125.782 c 0,20.433 -16.56,36.992 -36.985,36.992 -20.44,0 -37,-16.56 -37,-36.992 0,-20.432 16.56,-36.993 37,-36.993 20.425,0 36.985,16.56 36.985,36.993 z"
   id="path28" />
		</g>
		<g
   id="g36">
			<path
   style="fill:#715022"
   d="m 506.087,426.177 c 0,14.719 -11.926,26.638 -26.638,26.638 H 32.562 c -14.723,0 -26.641,-11.919 -26.641,-26.638 v 0 c 0,-14.711 11.919,-26.637 26.641,-26.637 h 446.887 c 14.712,0 26.638,11.926 26.638,26.637 z"
   id="path32" />
			<rect
   x="93.232002"
   y="399.54001"
   style="fill:#856330"
   width="139.089"
   height="53.275002"
   id="rect34" />
		</g>
	</g>
</g>
</svg>
