<?xml version="1.0" encoding="UTF-8" standalone="no"?>
<!-- Uploaded to: SVG Repo, www.svgrepo.com, Generator: SVG Repo Mixer Tools -->

<svg
   height="800px"
   width="800px"
   version="1.1"
   id="_x35_"
   viewBox="0 0 512 512"
   xml:space="preserve"
   sodipodi:docname="squid-svgrepo-com.svg"
   inkscape:version="1.1.2 (0a00cf5339, 2022-02-04)"
   xmlns:inkscape="http://www.inkscape.org/namespaces/inkscape"
   xmlns:sodipodi="http://sodipodi.sourceforge.net/DTD/sodipodi-0.dtd"
   xmlns="http://www.w3.org/2000/svg"
   xmlns:svg="http://www.w3.org/2000/svg"><defs
   id="defs25" /><sodipodi:namedview
   id="namedview23"
   pagecolor="#ffffff"
   bordercolor="#666666"
   borderopacity="1.0"
   inkscape:pageshadow="2"
   inkscape:pageopacity="0.0"
   inkscape:pagecheckerboard="0"
   showgrid="false"
   inkscape:zoom="0.805"
   inkscape:cx="399.37888"
   inkscape:cy="400"
   inkscape:window-width="3840"
   inkscape:window-height="2075"
   inkscape:window-x="0"
   inkscape:window-y="54"
   inkscape:window-maximized="1"
   inkscape:current-layer="g16" />
<g
   id="g20">
	<g
   id="g16">
		<path
   style="fill:#eee5d0"
   d="m 302.228,407.885 c -2.422,16.531 -1.141,41.39 24.08,62.194 26.579,21.806 62.556,17.457 70.106,15.321 l -8.621,24.581 c -7.549,2.136 -47.444,6.339 -76.875,-11.404 -48.801,-29.563 -56.496,-83.499 -56.496,-83.499 0,0 -7.764,53.936 -56.566,83.499 -29.354,17.742 -69.253,13.54 -76.805,11.404 L 112.43,485.4 c 7.479,2.136 43.527,6.485 70.106,-15.321 25.221,-20.803 26.502,-45.663 24.08,-62.194 0,0 -37.188,47.59 -94.043,52.509 -42.324,3.702 -69.894,-22.09 -75.453,-27.572 l 7.41,-25.723 c 5.487,5.49 34.2,29.925 68.042,23.872 33.268,-5.914 47.518,-30.927 53.292,-47.451 -12.113,11.751 -35.839,25.145 -73.528,9.477 C 33.488,368.416 40.825,314.48 40.825,297.308 l 18.667,-8.544 c 0,35.053 17.6,67.322 52.437,63.475 9.619,-1.064 23.872,-7.41 31.066,-22.654 2.992,-5.983 4.773,-13.394 4.773,-22.445 h 213.307 c 0,9.052 1.781,16.462 4.773,22.445 7.202,15.245 21.451,21.59 31.066,22.654 34.767,3.847 52.44,-28.422 52.44,-63.475 l 18.667,8.544 c 0,17.172 7.333,71.107 -51.515,95.689 -37.759,15.668 -61.485,2.275 -73.598,-9.477 5.844,16.525 20.094,41.537 53.366,47.451 33.842,6.053 62.556,-18.382 68.039,-23.872 l 7.41,25.723 c -5.559,5.482 -33.125,31.274 -75.448,27.573 -56.859,-4.92 -94.047,-52.51 -94.047,-52.51 z"
   id="path2" />
		<path
   style="fill:#d9d5cc"
   d="M 365.848,329.583 H 142.995 c 2.992,-5.983 4.773,-13.394 4.773,-22.445 h 213.307 c 0,9.052 1.781,16.462 4.773,22.445 z"
   id="path4" />
		<path
   style="fill:#eee5d0"
   d="m 138.375,312.662 v -66.445 c 0,-9.275 -7.518,-16.796 -16.788,-16.796 h -56.39 c -6.728,0 -12.799,-4.014 -15.446,-10.193 -2.637,-6.186 -1.336,-13.345 3.323,-18.201 L 240.743,5.169 C 243.915,1.865 248.285,0 252.87,0 c 4.571,0 8.948,1.865 12.12,5.169 l 187.668,195.858 c 4.648,4.856 5.963,12.016 3.326,18.201 -2.651,6.178 -8.718,10.193 -15.446,10.193 H 384.14 c -9.267,0 -16.789,7.521 -16.789,16.796 v 66.445 z"
   id="path6" />
		<path
   style="fill:#636262"
   d="m 186.682,336.583 c 0,9.491 -7.688,17.186 -17.178,17.186 -9.484,0 -17.172,-7.695 -17.172,-17.186 0,-9.483 7.688,-17.178 17.172,-17.178 9.489,-10e-4 17.178,7.695 17.178,17.178 z"
   id="path8" />
		<path
   style="fill:#636262"
   d="m 352.608,336.583 c 0,9.491 -7.689,17.186 -17.179,17.186 -9.483,0 -17.171,-7.695 -17.171,-17.186 0,-9.483 7.688,-17.178 17.171,-17.178 9.49,-10e-4 17.179,7.695 17.179,17.178 z"
   id="path10" />
		<g
   style="opacity:0.06"
   id="g14"
   transform="translate(37.12)">
			<path
   style="fill:#140808"
   d="m 359.154,460.395 c 42.323,3.701 69.889,-22.091 75.448,-27.573 l -7.41,-25.723 c -5.483,5.49 -34.197,29.925 -68.039,23.872 -33.272,-5.914 -47.521,-30.927 -53.366,-47.451 12.113,11.751 35.839,25.145 73.598,9.477 58.848,-24.581 51.515,-78.517 51.515,-95.689 l -18.667,-8.544 c 0,35.053 -17.673,67.322 -52.44,63.475 -9.615,-1.064 -23.865,-7.41 -31.066,-22.654 -2.351,-4.71 -3.917,-10.339 -4.494,-16.921 h 5.997 v -66.445 c 0,-9.275 7.522,-16.796 16.789,-16.796 h 56.399 c 6.728,0 12.795,-4.014 15.446,-10.193 2.637,-6.186 1.322,-13.345 -3.326,-18.201 L 227.87,5.169 C 224.697,1.865 220.321,0 215.75,0 v 422.287 c 1.127,-4.453 1.552,-7.208 1.552,-7.208 0,0 7.695,53.936 56.496,83.499 29.431,17.742 69.326,13.54 76.875,11.404 l 8.621,-24.581 c -7.549,2.136 -43.527,6.485 -70.106,-15.321 -25.221,-20.803 -26.501,-45.663 -24.08,-62.194 0,-0.001 37.188,47.589 94.046,52.509 z"
   id="path12" />
		</g>
	</g>
	<path
   style="fill:#d9d5cc"
   d="m 391.737,221.197 -30.55,-30.558 v 53.247 c 0,0 3.624,-22.39 11.493,-22.39 7.869,0 19.057,-0.299 19.057,-0.299 z"
   id="path18" />
</g>
</svg>
