<?xml version="1.0" encoding="UTF-8" standalone="no"?>
<!-- Uploaded to: SVG Repo, www.svgrepo.com, Generator: SVG Repo Mixer Tools -->

<svg
   version="1.1"
   id="_x35_"
   viewBox="0 0 512 512"
   xml:space="preserve"
   sodipodi:docname="startup-rocket-svgrepo-com.svg"
   inkscape:version="1.1.2 (0a00cf5339, 2022-02-04)"
   xmlns:inkscape="http://www.inkscape.org/namespaces/inkscape"
   xmlns:sodipodi="http://sodipodi.sourceforge.net/DTD/sodipodi-0.dtd"
   xmlns="http://www.w3.org/2000/svg"
   xmlns:svg="http://www.w3.org/2000/svg"><defs
   id="defs67" /><sodipodi:namedview
   id="namedview65"
   pagecolor="#ffffff"
   bordercolor="#666666"
   borderopacity="1.0"
   inkscape:pageshadow="2"
   inkscape:pageopacity="0.0"
   inkscape:pagecheckerboard="0"
   showgrid="false"
   inkscape:zoom="1.2578125"
   inkscape:cx="255.60248"
   inkscape:cy="256"
   inkscape:window-width="3840"
   inkscape:window-height="2075"
   inkscape:window-x="0"
   inkscape:window-y="54"
   inkscape:window-maximized="1"
   inkscape:current-layer="_x35_" />
<g
   id="g62"
   transform="translate(20)">
	<g
   id="g58">
		<g
   id="g56">
			<g
   id="g30">
				<g
   id="g14">
					
						<rect
   x="298.65601"
   y="312.17999"
   transform="matrix(-0.7071,-0.7071,0.7071,-0.7071,406.748,869.2086)"
   style="fill:#b77821"
   width="169.474"
   height="76.369003"
   id="rect2" />
					<g
   id="g12">
						<path
   style="fill:#e5e5e4"
   d="m 398.886,425.781 c 1.1,6.066 2.597,11.209 4.378,15.558 7.921,19.353 21.443,23.069 30.565,23.069 9.119,0 22.641,-3.716 30.562,-23.069 1.781,-4.349 3.278,-9.492 4.378,-15.558 1.445,-7.958 2.206,-17.515 2.027,-28.967 -0.357,-22.837 -5.974,-42.219 -12.727,-57.401 -10.697,-24.046 -24.24,-37.555 -24.24,-37.555 0,0 -13.547,13.509 -24.243,37.555 -6.753,15.183 -12.37,34.565 -12.727,57.401 -0.179,11.452 0.582,21.009 2.027,28.967 z"
   id="path4" />
						<path
   style="fill:#d8a029"
   d="m 397.65,427.262 -0.224,-1.215 c -1.525,-8.438 -2.22,-18.278 -2.046,-29.253 0.311,-19.999 4.634,-39.513 12.855,-57.986 l 0.39,-0.882 h 50.408 l 0.39,0.882 c 8.213,18.458 12.537,37.973 12.855,57.986 0.174,10.932 -0.521,20.772 -2.046,29.246 l -0.224,1.222 z"
   id="path6" />
						<path
   style="fill:#d8a029"
   d="m 398.886,425.781 h 69.883 c 1.445,-7.958 2.206,-17.515 2.027,-28.967 -0.357,-22.837 -5.974,-42.219 -12.727,-57.401 h -48.483 c -6.753,15.183 -12.37,34.565 -12.727,57.401 -0.179,11.452 0.582,21.009 2.027,28.967 z"
   id="path8" />
						<path
   style="fill:#d8a029"
   d="m 403.264,441.339 c 7.921,19.353 21.443,23.069 30.565,23.069 9.119,0 22.641,-3.716 30.562,-23.069 z"
   id="path10" />
					</g>
				</g>
				<g
   id="g28">
					<polygon
   style="fill:#b77821"
   points="121.163,372.107 74.372,418.824 55.937,437.259 1.965,383.286 2.483,382.768 45.868,339.383 57.122,328.129 109.984,275.267 111.538,273.713 121.83,263.422 175.802,317.468 "
   id="polygon16" />
					<g
   id="g26">
						<path
   style="fill:#e5e5e4"
   d="m 75.409,396.835 c 0.148,8.292 -0.222,15.547 -1.037,21.989 -0.222,2.443 -0.592,4.738 -0.963,6.96 -1.11,6.071 -2.591,11.18 -4.368,15.547 -7.922,19.398 -21.471,23.1 -30.577,23.1 -4.146,0 -9.18,-0.741 -14.141,-3.406 -4.738,-2.443 -9.476,-6.663 -13.401,-13.401 -1.11,-1.925 -2.073,-3.998 -3.035,-6.293 C 6.11,436.963 4.629,431.855 3.519,425.784 2.038,417.788 1.298,408.237 1.52,396.836 c 0.074,-4.517 0.296,-8.959 0.814,-13.179 0,-0.296 0,-0.592 0.148,-0.888 1.777,-16.88 6.367,-31.391 11.698,-43.385 10.735,-23.988 24.284,-37.536 24.284,-37.536 0,0 9.329,9.329 18.657,26.283 1.851,3.406 3.776,7.182 5.553,11.254 6.812,15.175 12.365,34.573 12.735,57.45 z"
   id="path18" />
						<path
   style="fill:#d8a029"
   d="m 2.286,427.269 -0.224,-1.215 c -1.554,-8.409 -2.234,-18.249 -2.024,-29.246 0.09,-5.227 0.354,-9.464 0.828,-13.332 -0.011,-0.188 -0.011,-0.752 0.286,-1.359 1.435,-14.496 5.412,-29.239 11.677,-43.337 l 0.39,-0.882 h 50.416 l 0.394,0.875 c 8.206,18.299 12.533,37.828 12.862,58.043 0.145,8.199 -0.195,15.458 -1.048,22.197 -0.221,2.429 -0.593,4.757 -0.972,7.02 l -0.206,1.236 H 2.286 Z"
   id="path20" />
						<path
   style="fill:#d8a029"
   d="m 75.409,396.835 c 0.148,8.292 -0.222,15.547 -1.037,21.989 -0.222,2.443 -0.592,4.738 -0.963,6.96 H 3.519 C 2.038,417.788 1.298,408.237 1.52,396.836 c 0.074,-4.517 0.296,-8.959 0.814,-13.179 0,-0.296 0,-0.592 0.148,-0.888 1.777,-16.88 6.367,-31.391 11.698,-43.385 h 48.494 c 6.812,15.176 12.365,34.574 12.735,57.451 z"
   id="path22" />
						<path
   style="fill:#d8a029"
   d="m 69.042,441.331 c -7.922,19.398 -21.471,23.1 -30.577,23.1 -4.146,0 -9.18,-0.741 -14.141,-3.406 -4.738,-2.443 -9.476,-6.663 -13.401,-13.401 -1.11,-1.925 -2.073,-3.998 -3.035,-6.293 z"
   id="path24" />
					</g>
				</g>
			</g>
			<ellipse
   style="fill:#d8a029"
   cx="236.142"
   cy="472.25699"
   rx="79.486"
   ry="39.743"
   id="ellipse32" />
			<path
   style="fill:#d8a029"
   d="m 354.008,360.039 c -0.074,0.518 -0.222,0.963 -0.37,1.481 -0.741,3.628 -1.555,7.181 -2.517,10.587 -0.888,3.406 -1.851,6.663 -2.887,9.847 -0.814,2.665 -1.703,5.256 -2.591,7.774 -1.111,3.035 -2.221,5.923 -3.406,8.736 -0.962,2.369 -1.999,4.59 -3.035,6.738 -0.592,1.333 -1.258,2.591 -1.925,3.85 -0.592,1.259 -1.259,2.517 -1.925,3.702 -3.998,7.404 -8.366,13.845 -12.882,19.546 -1.481,1.777 -2.962,3.479 -4.442,5.108 -3.332,3.702 -6.812,7.034 -10.365,10.069 -1.259,1.037 -2.517,1.999 -3.776,2.962 -0.222,0.148 -0.444,0.37 -0.666,0.518 -21.693,16.362 -45.607,20.952 -64.486,21.248 -0.888,0.074 -1.777,0.074 -2.591,0.074 -0.815,0 -1.703,0 -2.592,-0.074 -18.879,-0.296 -42.867,-4.961 -64.486,-21.323 -13.474,-10.143 -26.061,-24.728 -35.982,-45.68 -4.59,-9.625 -8.662,-20.582 -11.92,-33.094 -0.963,-3.406 -1.777,-6.959 -2.517,-10.587 -0.148,-0.518 -0.296,-0.963 -0.37,-1.481 -4.886,-23.099 -7.404,-50.863 -6.811,-84.179 0,-0.74 0,-1.481 0.074,-2.147 1.555,-65.448 20.286,-120.976 42.867,-164.583 0.296,-0.518 0.518,-1.036 0.814,-1.48 C 187.5,45.607 227.183,8.07 234.809,1.185 235.697,0.37 236.142,0 236.142,0 c 0,0 3.554,3.11 9.476,9.033 0.666,0.666 1.333,1.333 2.073,2.073 6.071,6.219 14.141,15.03 23.247,26.209 5.775,7.181 11.994,15.325 18.361,24.506 1.11,1.555 2.221,3.183 3.331,4.812 2.813,4.146 5.627,8.44 8.44,12.956 1.925,3.11 3.85,6.219 5.775,9.477 0.222,0.444 0.444,0.814 0.666,1.184 2.073,3.628 4.146,7.256 6.219,11.031 0.296,0.444 0.518,0.963 0.74,1.407 0.888,1.629 1.777,3.258 2.592,4.961 h 0.074 c 0.222,0.444 0.445,0.963 0.741,1.48 22.581,43.607 41.313,99.135 42.867,164.583 0.074,0.666 0.074,1.407 0.074,2.147 0.593,33.317 -1.924,61.081 -6.81,84.18 z"
   id="path34" />
			<path
   style="fill:#e5e5e4"
   d="m 362.3,275.267 v 0.592 c 0.592,31.688 -1.703,60.117 -6.885,84.476 l -0.222,1.184 H 117.091 l -0.222,-1.184 c -5.183,-24.358 -7.478,-52.788 -6.885,-84.476 v -0.592 c 1.111,-57.526 15.622,-113.646 43.089,-166.804 l 0.444,-0.814 H 318.84 l 0.37,0.814 c 17.325,33.538 29.466,68.261 36.278,103.725 1.333,6.367 2.369,12.734 3.258,19.175 0.814,5.405 1.407,10.809 1.924,16.214 0.222,2.221 0.444,4.442 0.592,6.663 0.519,7.035 0.889,13.994 1.038,21.027 z"
   id="path36" />
			<path
   style="fill:#e5e5e4"
   d="M 353.989,360.038 H 118.294 c -4.873,-23.12 -7.44,-50.884 -6.837,-84.155 1.205,-66.345 20.148,-122.653 42.924,-166.762 h 163.52 c 22.777,44.109 41.719,100.417 42.924,166.762 0.604,33.271 -1.962,61.035 -6.836,84.155 z"
   id="path38" />
			<path
   style="fill:#e5e5e4"
   d="m 339.224,405.238 c -26.715,56.225 -72.32,67.021 -103.087,67.021 -30.757,0 -76.362,-10.796 -103.077,-67.021 z"
   id="path40" />
			<path
   style="fill:#d8a029"
   d="m 236.142,328.352 c -49.558,0 -89.878,-40.319 -89.878,-89.877 0,-49.558 40.319,-89.877 89.878,-89.877 49.558,0 89.877,40.319 89.877,89.877 0,49.558 -40.318,89.877 -89.877,89.877 z"
   id="path42" />
			<g
   style="opacity:0.2"
   id="g46">
				<path
   style="fill:#ffffff"
   d="m 253.466,156.661 c -0.518,-0.148 -1.111,-0.148 -1.629,-0.148 -3.332,0 -6.293,2.295 -7.033,5.701 -0.814,3.998 1.703,7.848 5.627,8.662 0.518,0.074 1.036,0.148 1.48,0.148 3.406,0 6.442,-2.369 7.108,-5.775 0.148,-0.518 0.148,-1.037 0.148,-1.555 0,-3.331 -2.295,-6.293 -5.701,-7.033 z m -26.135,5.627 c -0.741,-3.406 -3.776,-5.775 -7.182,-5.775 -0.518,0 -0.962,0.074 -1.481,0.148 -3.924,0.814 -6.441,4.738 -5.553,8.662 0.667,3.406 3.702,5.701 7.034,5.701 0.518,0 1.037,0 1.555,-0.148 3.405,-0.74 5.775,-3.702 5.775,-7.108 0,-0.518 -0.074,-0.962 -0.148,-1.48 z m 57.897,8.514 c -1.333,-0.962 -2.813,-1.407 -4.368,-1.407 -2.221,0 -4.442,1.037 -5.849,2.962 -2.296,3.258 -1.629,7.848 1.629,10.217 1.333,0.888 2.814,1.333 4.294,1.333 2.221,0 4.442,-1.037 5.849,-2.962 0.962,-1.333 1.407,-2.813 1.407,-4.368 -10e-4,-2.222 -1.037,-4.368 -2.962,-5.775 z m -88.103,1.629 c -1.407,-1.925 -3.628,-2.962 -5.923,-2.962 -1.481,0 -2.962,0.444 -4.294,1.407 -3.184,2.369 -3.924,6.885 -1.555,10.143 1.407,1.999 3.628,2.962 5.849,2.962 1.48,0 3.035,-0.444 4.294,-1.333 1.999,-1.407 3.036,-3.702 3.036,-5.923 -0.001,-1.481 -0.445,-3.036 -1.407,-4.294 z m 111.35,24.135 c -1.333,-2.369 -3.776,-3.628 -6.293,-3.628 -1.258,0 -2.517,0.296 -3.628,0.962 -3.48,1.999 -4.664,6.515 -2.666,9.995 h 0.074 c 1.333,2.295 3.776,3.554 6.219,3.554 1.259,0 2.517,-0.296 3.702,-0.962 2.295,-1.333 3.628,-3.776 3.628,-6.219 10e-4,-1.258 -0.369,-2.517 -1.036,-3.702 z m -134.82,-2.517 c -1.111,-0.667 -2.369,-0.963 -3.628,-0.963 -2.517,0 -4.96,1.258 -6.367,3.628 -1.999,3.48 -0.814,7.922 2.665,9.921 1.185,0.666 2.443,0.963 3.628,0.963 2.517,0 4.96,-1.259 6.293,-3.628 0.667,-1.184 1.037,-2.443 1.037,-3.702 0,-2.443 -1.333,-4.886 -3.628,-6.219 z m 145.63,35.538 c -0.37,-3.702 -3.554,-6.515 -7.182,-6.515 -0.296,0 -0.518,0.074 -0.814,0.074 -3.998,0.444 -6.885,3.998 -6.441,7.996 0.37,3.702 3.554,6.515 7.255,6.515 0.222,0 0.518,0 0.741,-0.074 3.702,-0.37 6.515,-3.554 6.515,-7.182 0,-0.296 -0.074,-0.518 -0.074,-0.814 z m -158.364,-6.293 h -0.666 c -3.702,0 -6.886,2.739 -7.33,6.515 -0.37,3.998 2.518,7.551 6.515,7.996 h 0.741 c 3.702,0 6.885,-2.813 7.255,-6.515 v -0.666 c 0,-3.702 -2.739,-6.886 -6.515,-7.33 z m 150.146,31.761 c -0.741,-0.222 -1.555,-0.37 -2.295,-0.37 -3.036,0 -5.849,1.925 -6.886,5.035 -1.258,3.776 0.889,7.922 4.664,9.18 0.815,0.222 1.555,0.296 2.295,0.296 3.036,0 5.923,-1.925 6.886,-5.034 0.222,-0.74 0.37,-1.48 0.37,-2.295 0,-3.036 -1.925,-5.849 -5.034,-6.812 z m -140.67,4.813 c -0.962,-3.11 -3.776,-5.034 -6.812,-5.034 -0.814,0 -1.554,0.148 -2.295,0.37 -3.85,1.258 -5.923,5.33 -4.664,9.18 0.963,3.035 3.85,4.96 6.885,4.96 0.741,0 1.481,-0.074 2.221,-0.296 3.109,-1.037 5.034,-3.85 5.034,-6.885 0.002,-0.815 -0.147,-1.555 -0.369,-2.295 z m 127.417,24.135 c -1.407,-1.258 -3.109,-1.851 -4.812,-1.851 -1.999,0 -3.998,0.815 -5.479,2.443 -2.665,2.962 -2.443,7.552 0.592,10.291 1.407,1.184 3.109,1.851 4.813,1.851 1.999,0 3.998,-0.814 5.479,-2.443 1.259,-1.407 1.851,-3.109 1.851,-4.812 -10e-4,-1.999 -0.815,-3.998 -2.444,-5.479 z m -112.98,0.667 c -1.407,-1.555 -3.405,-2.369 -5.404,-2.369 -1.777,0 -3.479,0.592 -4.886,1.851 -2.962,2.739 -3.184,7.329 -0.518,10.291 1.407,1.555 3.405,2.369 5.404,2.369 1.703,0 3.48,-0.592 4.887,-1.851 1.555,-1.407 2.369,-3.406 2.369,-5.405 -0.001,-1.703 -0.593,-3.479 -1.852,-4.886 z m 89.14,20.508 c -1.185,-2.666 -3.85,-4.294 -6.663,-4.294 -0.962,0 -1.999,0.222 -2.961,0.667 -3.628,1.629 -5.331,5.923 -3.628,9.625 1.185,2.665 3.85,4.294 6.589,4.294 1.037,0 2.073,-0.222 3.036,-0.666 2.665,-1.185 4.294,-3.85 4.294,-6.663 -0.001,-0.964 -0.223,-2 -0.667,-2.963 z m -65.892,-3.554 c -0.963,-0.444 -1.999,-0.666 -2.961,-0.666 -2.813,0 -5.479,1.629 -6.663,4.294 -1.629,3.702 0,7.996 3.702,9.625 0.962,0.444 1.925,0.666 2.962,0.666 2.739,0 5.405,-1.629 6.589,-4.368 0.444,-0.962 0.667,-1.925 0.667,-2.962 -0.002,-2.739 -1.631,-5.404 -4.296,-6.589 z m 28.208,5.923 c -0.074,0 -0.074,0 -0.148,0 h -0.074 c -3.998,0.074 -7.182,3.258 -7.182,7.329 0,3.998 3.258,7.255 7.256,7.255 h 0.074 c 0.074,0 0.074,0 0.074,0 0,0 0,0 0.074,0 3.998,0 7.255,-3.258 7.255,-7.33 -0.074,-3.996 -3.331,-7.254 -7.329,-7.254 z"
   id="path44" />
			</g>
			<path
   style="fill:#56bfc9"
   d="m 236.142,298.218 c -32.943,0 -59.744,-26.801 -59.744,-59.744 0,-32.943 26.801,-59.744 59.744,-59.744 32.942,0 59.743,26.801 59.743,59.744 0.001,32.943 -26.8,59.744 -59.743,59.744 z"
   id="path48" />
			<g
   style="opacity:0.3"
   id="g52">
				<path
   style="fill:#ffffff"
   d="m 193.406,243.931 c -5.165,0 -9.352,-4.187 -9.352,-9.352 0,-28.721 23.366,-52.087 52.088,-52.087 5.165,0 9.352,4.187 9.352,9.352 0,5.165 -4.187,9.352 -9.352,9.352 -18.408,0 -33.385,14.976 -33.385,33.383 0.001,5.165 -4.186,9.352 -9.351,9.352 z"
   id="path50" />
			</g>
			<polygon
   style="fill:#b77821"
   points="216.043,354.243 236.132,489.837 256.22,354.243 236.132,346.485 "
   id="polygon54" />
		</g>
	</g>
	<path
   style="opacity:0.06;fill:#040000"
   d="m 469.942,383.652 0.37,-0.37 -0.453,-0.453 c -1.891,-16.828 -6.465,-31.446 -11.789,-43.417 -10.697,-24.046 -24.24,-37.555 -24.24,-37.555 0,0 -9.329,9.422 -18.616,26.326 L 362.28,275.25 C 361.135,217.708 346.66,161.592 319.217,108.442 l -0.412,-0.803 h -1.701 C 281.177,38.777 236.201,0.072 236.142,0.021 V 512 c 43.899,0 79.486,-17.794 79.486,-39.743 0,-7.837 -4.6,-15.124 -12.434,-21.281 13.47,-10.128 26.066,-24.767 36.03,-45.739 4.583,-9.642 8.598,-20.651 11.897,-33.145 l 46.75,46.75 c 0.288,2.428 0.62,4.757 1.016,6.939 1.1,6.066 2.597,11.209 4.378,15.558 7.921,19.353 21.443,23.069 30.565,23.069 9.119,0 22.641,-3.716 30.562,-23.069 1.781,-4.349 3.278,-9.492 4.378,-15.558 1.445,-7.958 2.206,-17.514 2.027,-28.967 -0.072,-4.54 -0.401,-8.902 -0.855,-13.162 z"
   id="path60" />
</g>
</svg>
