<?xml version="1.0" encoding="UTF-8" standalone="no"?>
<!-- Uploaded to: SVG Repo, www.svgrepo.com, Generator: SVG Repo Mixer Tools -->

<svg
   height="800px"
   width="800px"
   version="1.1"
   id="_x35_"
   viewBox="0 0 512 512"
   xml:space="preserve"
   sodipodi:docname="ufo-part-2-svgrepo-com.svg"
   inkscape:version="1.1.2 (0a00cf5339, 2022-02-04)"
   xmlns:inkscape="http://www.inkscape.org/namespaces/inkscape"
   xmlns:sodipodi="http://sodipodi.sourceforge.net/DTD/sodipodi-0.dtd"
   xmlns="http://www.w3.org/2000/svg"
   xmlns:svg="http://www.w3.org/2000/svg"><defs
   id="defs59" /><sodipodi:namedview
   id="namedview57"
   pagecolor="#ffffff"
   bordercolor="#666666"
   borderopacity="1.0"
   inkscape:pageshadow="2"
   inkscape:pageopacity="0.0"
   inkscape:pagecheckerboard="0"
   showgrid="false"
   inkscape:zoom="0.805"
   inkscape:cx="399.37888"
   inkscape:cy="400"
   inkscape:window-width="3840"
   inkscape:window-height="2075"
   inkscape:window-x="0"
   inkscape:window-y="54"
   inkscape:window-maximized="1"
   inkscape:current-layer="_x35_" />
<g
   id="g54"
   transform="translate(0.6359667,105.58016)">
	<path
   style="fill:#7db78c"
   d="m 512,219.849 c 0,4.213 -0.744,8.36 -2.231,12.379 -8.353,22.903 -39.676,43.206 -85.227,57.688 -45.001,14.362 -103.989,23.024 -168.544,23.024 -64.555,0 -123.543,-8.662 -168.541,-23.024 -28.285,-8.976 -51.064,-20.237 -66.289,-32.93 -0.124,-0.06 -0.188,-0.181 -0.311,-0.241 l -9.901,-9.907 C 10.832,246.777 10.769,246.65 10.708,246.53 6.87,241.948 4.023,237.119 2.228,232.229 0.741,228.209 0,224.062 0,219.849 0,187.85 44.439,150.157 112.152,126.202 116.981,123.107 123.047,120.2 130.104,117.54 134.87,51.807 189.4,0 255.998,0 c 29.956,0 57.501,10.523 79.104,28.04 6.993,5.633 13.37,12.004 18.997,18.998 15.788,19.56 25.937,43.889 27.792,70.503 7.06,2.66 13.123,5.567 17.952,8.662 C 467.555,150.157 512,187.85 512,219.849 Z"
   id="path2" />
	<g
   id="g52">
		<polygon
   style="fill:#dadada"
   points="255.998,121.385 256.005,121.385 "
   id="polygon4" />
		<g
   id="g18">
			<g
   id="g10">
				<path
   style="fill:#dcdbdb"
   d="M 255.998,121.379 V 312.94 c -64.555,0 -123.543,-8.662 -168.541,-23.024 -28.285,-8.976 -51.064,-20.237 -66.289,-32.93 -0.124,-0.06 -0.188,-0.181 -0.311,-0.241 -3.775,-3.222 -7.117,-6.504 -9.901,-9.907 -0.124,-0.061 -0.187,-0.188 -0.248,-0.308 C 6.87,241.948 4.023,237.119 2.228,232.229 0.741,228.209 0,224.062 0,219.849 0,187.85 44.439,150.157 112.152,126.202 c 5.757,-2.043 11.638,-3.959 17.704,-5.694 32.124,-9.713 68.581,-16.217 107.453,-17.825 l 9.344,9.345 z"
   id="path6" />
				<path
   style="fill:#c4c4c4"
   d="m 512,219.849 c 0,4.213 -0.744,8.36 -2.231,12.379 -8.353,22.903 -39.676,43.206 -85.227,57.688 -45.001,14.362 -103.989,23.024 -168.544,23.024 V 121.379 l 9.345,-9.351 9.344,-9.345 c 38.872,1.608 75.332,8.112 107.453,17.825 6.069,1.735 11.944,3.651 17.704,5.694 C 467.555,150.157 512,187.85 512,219.849 Z"
   id="path8" />
			</g>
			<path
   style="fill:#b8b8b8"
   d="m 509.769,232.228 c -8.353,22.903 -39.676,43.206 -85.227,57.688 l -69.264,-69.257 -99.28,-99.28 9.345,-9.351 71.427,35.161 10.892,5.319 h 0.066 l 36.019,17.765 28.844,14.174 z"
   id="path12" />
			<path
   style="fill:#eaeaea"
   d="m 246.653,112.028 -71.366,35.094 c -0.061,0 -0.061,0.067 -0.061,0.067 l -9.84,4.824 -37.14,18.26 -28.841,14.174 -97.177,47.781 C 0.741,228.209 0,224.062 0,219.849 0,187.85 44.439,150.157 112.152,126.202 c 5.757,-2.043 11.638,-3.959 17.704,-5.694 32.124,-9.713 68.581,-16.217 107.453,-17.825 z"
   id="path14" />
			<path
   style="fill:#d3d3d3"
   d="M 255.998,121.379 V 312.94 c -64.555,0 -123.543,-8.662 -168.541,-23.024 l 69.261,-69.257 z"
   id="path16" />
		</g>
		<g
   id="g24">
			<path
   style="fill:#cececf"
   d="m 99.383,144.3 v 40.16 c 0,25.834 70.125,46.784 156.621,46.784 V 141.296 C 169.508,141.295 99.383,166.156 99.383,144.3 Z"
   id="path20" />
			<path
   style="fill:#c7c8c8"
   d="m 256.005,141.295 v 89.948 c 86.49,0 156.606,-20.95 156.606,-46.784 V 144.3 c -10e-4,21.856 -70.116,-3.005 -156.606,-3.005 z"
   id="path22" />
		</g>
		<g
   id="g30">
			<path
   style="fill:#eaeaea"
   d="m 255.998,99.649 v 89.252 c -22.715,0 -44.258,-1.36 -63.69,-3.832 -25.75,-3.222 -47.845,-8.36 -64.062,-14.797 -15.907,-6.25 -26.243,-13.74 -28.841,-21.845 -0.435,-1.366 -0.683,-2.727 -0.683,-4.153 0,-6.438 4.767,-12.56 13.431,-18.073 4.829,-3.095 10.895,-6.002 17.952,-8.662 28.717,-10.89 74.395,-17.89 125.893,-17.89 z"
   id="path26" />
			<path
   style="fill:#dadada"
   d="m 413.276,144.275 c 0,1.426 -0.248,2.787 -0.683,4.153 -2.599,8.105 -12.935,15.594 -28.844,21.845 -16.217,6.437 -38.309,11.575 -64.059,14.797 -19.433,2.472 -40.975,3.832 -63.69,3.832 V 99.649 c 51.499,0 97.177,7 125.894,17.891 7.06,2.66 13.123,5.567 17.952,8.662 8.66,5.513 13.43,11.636 13.43,18.073 z"
   id="path28" />
		</g>
		<g
   id="g36">
			<path
   style="fill:#78979b"
   d="m 382.328,127.073 c 0,8.105 -9.841,16.03 -26.433,22.527 -2.532,1.052 -5.259,1.982 -8.166,2.907 h -0.066 c -13.8,4.461 -31.008,8.051 -50.381,10.155 -12.935,1.421 -26.802,2.224 -41.284,2.224 V 0 c 29.956,0 57.501,10.523 79.104,28.04 6.993,5.633 13.37,12.004 18.997,18.998 15.788,19.56 25.937,43.889 27.792,70.503 0.188,0.992 0.248,1.977 0.248,2.968 0.128,2.169 0.189,4.394 0.189,6.564 z"
   id="path32" />
			<path
   style="fill:#86abaf"
   d="m 255.998,0 v 164.887 c -14.422,0 -28.222,-0.864 -41.096,-2.411 -18.944,-2.291 -35.904,-6.002 -49.516,-10.463 -2.603,-0.865 -5.141,-1.729 -7.492,-2.66 -17.641,-6.746 -28.225,-14.851 -28.225,-22.28 0,-2.17 0.064,-4.395 0.188,-6.565 0,-0.991 0.061,-1.976 0.248,-2.968 C 134.87,51.807 189.4,0 255.998,0 Z"
   id="path34" />
		</g>
		<g
   id="g42">
			<path
   style="fill:#78979b"
   d="m 387.876,194.239 c 0,4.637 -2.78,8.396 -6.195,8.396 -3.409,0 -6.178,-3.759 -6.178,-8.396 0,-4.636 2.769,-8.395 6.178,-8.395 3.415,-0.001 6.195,3.759 6.195,8.395 z"
   id="path38" />
			<path
   style="fill:#86abaf"
   d="m 138.917,192.601 c 0,5.549 -3.31,10.034 -7.393,10.034 -4.086,0 -7.395,-4.485 -7.395,-10.034 0,-5.543 3.31,-10.034 7.395,-10.034 4.084,0 7.393,4.491 7.393,10.034 z"
   id="path40" />
		</g>
		<path
   style="fill:#f0f0f0"
   d="m 206.047,73.483 c 0,9.858 -7.997,17.849 -17.849,17.849 -9.853,0 -17.843,-7.991 -17.843,-17.849 0,-9.859 7.991,-17.849 17.843,-17.849 9.852,-10e-4 17.849,7.99 17.849,17.849 z"
   id="path44" />
		<g
   id="g50">
			<path
   style="fill:#86abaf"
   d="m 245.554,210.71 c 0,6.074 4.92,10.989 10.989,10.989 v -21.978 c -6.069,0 -10.989,4.92 -10.989,10.989 z"
   id="path46" />
			<path
   style="fill:#78979b"
   d="m 256.543,199.721 v 21.978 c 6.074,0 10.995,-4.915 10.995,-10.989 0,-6.069 -4.921,-10.989 -10.995,-10.989 z"
   id="path48" />
		</g>
	</g>
</g>
</svg>
