<?xml version="1.0" encoding="utf-8"?>
<!-- Generator: Adobe Illustrator 24.3.0, SVG Export Plug-In . SVG Version: 6.00 Build 0)  -->
<svg version="1.1" id="Layer_1" xmlns="http://www.w3.org/2000/svg" xmlns:xlink="http://www.w3.org/1999/xlink" x="0px" y="0px"
	 viewBox="0 0 300 300" enable-background="new 0 0 300 300" xml:space="preserve">
<path fill-rule="evenodd" clip-rule="evenodd" fill="#C26936" d="M110.282,79.094l-44.764,47.598
	c-18.661-2.716-33.307-18.543-34.016-38.031C30.794,66.692,47.92,48.267,69.77,47.44C89.494,46.731,106.384,60.432,110.282,79.094
	L110.282,79.094z"/>
<path fill-rule="evenodd" clip-rule="evenodd" fill="#DB8351" d="M101.424,88.542l-35.905,38.15
	c-18.661-2.716-33.307-18.543-34.016-38.031c0-2.717,0.118-5.315,0.472-7.795c6.968-9.803,18.189-16.417,31.063-16.89
	C80.164,63.267,95.282,73.542,101.424,88.542L101.424,88.542z"/>
<path fill-rule="evenodd" clip-rule="evenodd" fill="#FF8C8C" d="M96.817,87.243l-24.921,26.929
	c-8.032-2.48-13.937-9.803-14.291-18.661C57.25,84.29,65.991,74.96,77.211,74.487C85.951,74.133,93.628,79.448,96.817,87.243
	L96.817,87.243z"/>
<path fill-rule="evenodd" clip-rule="evenodd" fill="#C26936" d="M190.715,79.094l44.764,47.598
	c18.661-2.716,33.307-18.543,34.016-38.031c0.709-21.969-16.299-40.394-38.268-41.221C211.502,46.731,194.613,60.432,190.715,79.094
	L190.715,79.094z"/>
<path fill="#C26936" d="M190.951,79.094l44.646,47.362c9.331-1.418,17.598-6.024,23.622-12.756
	c6.023-6.732,9.803-15.354,10.039-25.039c0.473-10.866-3.661-20.906-10.512-28.347c-6.968-7.441-16.654-12.165-27.52-12.638
	c-9.685-0.354-18.78,2.835-25.866,8.386C198.156,61.613,192.959,69.763,190.951,79.094L190.951,79.094z M235.361,126.81
	l-44.882-47.598v-0.118c2.008-9.449,7.323-17.716,14.646-23.386c7.205-5.551,16.299-8.74,26.102-8.386
	c10.984,0.354,20.787,5.197,27.756,12.756c6.969,7.441,11.102,17.599,10.748,28.583c-0.354,9.685-4.134,18.543-10.158,25.275
	c-6.142,6.85-14.646,11.575-24.094,12.992h-0.118V126.81z"/>
<path fill-rule="evenodd" clip-rule="evenodd" fill="#DB8351" d="M199.573,88.542l35.906,38.15
	c18.661-2.716,33.307-18.543,34.016-38.031c0.118-2.717-0.118-5.315-0.472-7.795c-6.969-9.803-18.189-16.417-31.063-16.89
	C220.833,63.267,205.833,73.542,199.573,88.542L199.573,88.542z"/>
<path fill-rule="evenodd" clip-rule="evenodd" fill="#FF8C8C" d="M204.298,87.243l24.803,26.929
	c8.032-2.48,13.937-9.803,14.291-18.661c0.354-11.22-8.386-20.551-19.488-21.024C215.046,74.133,207.368,79.448,204.298,87.243
	L204.298,87.243z"/>
<path fill-rule="evenodd" clip-rule="evenodd" fill="#C26936" d="M150.557,70.117c50.315,0,91.181,40.748,91.181,91.181
	c0,50.315-40.866,91.063-91.181,91.063c-50.433,0-91.181-40.748-91.181-91.063C59.376,110.865,100.124,70.117,150.557,70.117
	L150.557,70.117z"/>
<path fill-rule="evenodd" clip-rule="evenodd" fill="#C2835F" d="M150.557,70.117c33.78,0,63.425,18.425,79.134,45.827
	c1.772,6.732,2.716,13.701,2.716,21.024c0,45.236-36.614,81.85-81.85,81.85s-81.968-36.614-81.968-81.85
	c0-7.323,1.063-14.291,2.835-21.024C87.132,88.542,116.66,70.117,150.557,70.117L150.557,70.117z"/>
<path fill-rule="evenodd" clip-rule="evenodd" fill="#C88F6F" d="M150.557,70.117c-33.898,0-63.425,18.425-79.134,45.827
	c-1.654,6.26-2.599,12.756-2.717,19.488c14.764-30.236,45.827-51.024,81.85-51.024c35.906,0,66.969,20.787,81.85,51.024
	c-0.118-6.732-1.063-13.228-2.716-19.488C213.983,88.542,184.337,70.117,150.557,70.117L150.557,70.117z"/>
<path fill-rule="evenodd" clip-rule="evenodd" fill="#CDC6BC" d="M128.235,192.479l3.189-0.118l7.559,7.677l11.575,3.779v3.898
	c0,6.142-5.079,11.102-11.22,11.102c-6.142,0-11.102-4.961-11.102-11.102v-1.417V192.479z"/>
<path fill-rule="evenodd" clip-rule="evenodd" fill="#CDC6BC" d="M172.762,192.479l-3.071-0.118l-7.677,7.677l-11.457,3.779v3.898
	c0,6.142,4.961,11.102,11.102,11.102c6.142,0,11.102-4.961,11.102-11.102v-1.417V192.479z"/>
<path fill="#CDC6BC" d="M148.55,203.818c0-1.063,0.827-2.008,2.008-2.008c1.063,0,2.008,0.945,2.008,2.008v3.898
	c0,3.661-1.535,6.969-3.898,9.331l0,0c-2.362,2.362-5.669,3.78-9.331,3.78c-3.543,0-6.85-1.417-9.213-3.78l0,0
	c-2.48-2.48-3.898-5.669-3.898-9.331v-14.527c0-1.063,0.945-2.008,2.008-2.008c1.063,0,2.008,0.945,2.008,2.008v14.527
	c0,2.48,1.063,4.842,2.717,6.496l0,0c1.654,1.654,3.898,2.598,6.378,2.598c2.598,0,4.842-0.945,6.496-2.598l0,0
	c1.654-1.654,2.717-4.016,2.717-6.496V203.818z"/>
<path fill="#CDC6BC" d="M148.55,203.818c0-1.063,0.827-2.008,2.008-2.008c1.063,0,2.008,0.945,2.008,2.008v3.898
	c0,2.48,0.945,4.842,2.598,6.496l0,0c1.654,1.654,4.016,2.598,6.496,2.598c2.48,0,4.842-0.945,6.496-2.598l0,0
	c1.654-1.654,2.599-4.016,2.599-6.496v-13.583c0-1.063,0.945-2.008,2.008-2.008c1.181,0,2.008,0.945,2.008,2.008v13.583
	c0,3.661-1.417,6.85-3.78,9.331l0,0c-2.48,2.362-5.669,3.78-9.331,3.78c-3.661,0-6.85-1.417-9.331-3.78l0,0
	c-2.362-2.362-3.78-5.669-3.78-9.331V203.818z"/>
<path fill-rule="evenodd" clip-rule="evenodd" fill="#303030" d="M197.093,147.597c4.016,0,7.441,3.307,7.441,7.441
	c0,4.134-3.425,7.441-7.441,7.441c-4.134,0-7.559-3.307-7.559-7.441C189.534,150.905,192.959,147.597,197.093,147.597
	L197.093,147.597z"/>
<path fill="#A8511E" d="M116.542,245.038c0,0.236,0,0.59-0.118,0.827c-1.299-0.59-2.599-1.181-3.898-1.772v-23.622
	c0-6.614,1.772-12.756,4.842-18.071c3.307-5.551,7.913-10.157,13.465-13.346c0.945-0.473,2.126-0.236,2.717,0.827
	c0.591,0.945,0.236,2.126-0.709,2.717c-4.961,2.835-9.094,6.85-11.929,11.811c-2.835,4.725-4.37,10.157-4.37,16.063V245.038z
	 M168.274,192.598c-1.063-0.591-1.299-1.772-0.827-2.717c0.59-1.063,1.772-1.299,2.835-0.827
	c5.433,3.189,10.158,7.795,13.346,13.346c3.071,5.315,4.842,11.457,4.842,18.071v23.622c-1.181,0.59-2.48,1.181-3.779,1.654
	c-0.118-0.236-0.236-0.472-0.236-0.709v-24.567c0-5.906-1.535-11.339-4.252-16.063C177.25,199.448,173.117,195.432,168.274,192.598
	L168.274,192.598z"/>
<path fill-rule="evenodd" clip-rule="evenodd" fill="#303030" d="M104.022,147.597c4.134,0,7.441,3.307,7.441,7.441
	c0,4.134-3.307,7.441-7.441,7.441c-4.134,0-7.441-3.307-7.441-7.441C96.581,150.905,99.888,147.597,104.022,147.597L104.022,147.597
	z"/>
<path fill-rule="evenodd" clip-rule="evenodd" fill="#424242" d="M152.093,141.456c12.402,6.968,20.079,20.197,20.079,34.488
	c0,5.315-1.181,10.63-3.189,15.473c-3.189,7.559-10.276,12.165-18.425,12.165c-8.268,0-15.354-4.606-18.543-12.165
	c-2.008-4.842-3.071-10.158-3.071-15.473c0-14.291,7.677-27.52,19.961-34.488C149.967,140.865,151.03,140.865,152.093,141.456
	L152.093,141.456z"/>
<path fill-rule="evenodd" clip-rule="evenodd" fill="#3B3636" d="M150.557,189.527c-8.268,0-15.354-4.606-18.543-12.165
	c-1.063-2.717-2.008-5.551-2.48-8.504c-0.473,2.362-0.591,4.606-0.591,7.087c0,5.197,0.945,10.276,2.835,14.882
	c0.118,0.236,0.236,0.354,0.236,0.591c0.59,1.181,1.181,2.362,2.008,3.543c1.299,2.008,3.071,3.78,4.961,5.079
	c3.071,2.126,6.732,3.425,10.748,3.543c0.236,0,0.473,0,0.827,0c0.236,0,0.473,0,0.709,0c4.016-0.118,7.677-1.417,10.748-3.543
	c2.008-1.299,3.661-3.071,5.079-5.079c0.709-1.181,1.417-2.362,1.89-3.543c0.118-0.236,0.118-0.354,0.236-0.591
	c1.89-4.606,2.953-9.685,2.953-14.882c0-2.48-0.236-4.724-0.59-7.087c-0.591,2.953-1.417,5.787-2.598,8.504
	C165.794,184.92,158.707,189.527,150.557,189.527L150.557,189.527z"/>
</svg>
