<?xml version="1.0" encoding="utf-8"?>
<!-- Generator: Adobe Illustrator 24.3.0, SVG Export Plug-In . SVG Version: 6.00 Build 0)  -->
<svg version="1.1" id="Layer_1" xmlns="http://www.w3.org/2000/svg" xmlns:xlink="http://www.w3.org/1999/xlink" x="0px" y="0px"
	 viewBox="0 0 300 300" enable-background="new 0 0 300 300" xml:space="preserve">
<path fill-rule="evenodd" clip-rule="evenodd" fill="#FFC830" d="M75.498,74.369c-4.724,4.37-9.094,9.449-12.874,14.882
	c-2.717,3.898-5.197,8.032-7.323,12.402c-0.236,0.236-0.354,0.472-0.472,0.827c-8.74,18.071-12.283,38.032-8.74,55.63
	c4.961,24.094,20.669,47.008,40.394,62.244c10.866,8.268,21.614,13.228,30.827,19.724c1.654,1.063,3.307,2.362,4.842,3.543
	c1.654,1.417,3.307,2.835,4.842,4.488c3.78,3.898,8.504,5.905,14.055,5.905h9.449h9.567c5.433,0,10.158-2.008,13.937-5.905
	c0.827-0.827,1.654-1.654,2.48-2.362c2.835-2.598,5.906-4.961,9.213-7.087c8.74-5.787,18.779-10.63,28.819-18.307
	c19.724-15.236,35.551-38.15,40.394-62.244c3.661-17.598,0-37.677-8.74-55.748c-0.118-0.236-0.236-0.472-0.354-0.708
	c-2.244-4.606-4.843-8.858-7.559-12.874c-3.779-5.551-8.031-10.512-12.638-14.882c-3.425-3.307-6.968-6.26-10.748-8.976
	c-18.779-13.465-41.575-19.842-64.37-19.606c-22.559,0.118-45,6.85-63.425,19.724C82.939,67.755,79.16,70.944,75.498,74.369
	L75.498,74.369z M150.498,218.228l-19.252-17.008c-0.709-0.59-0.945-1.536-0.591-2.362c0.236-0.827,1.063-1.299,1.89-1.299h17.953
	h18.189c0.827,0,1.536,0.472,1.89,1.299c0.354,0.827,0.118,1.772-0.59,2.244L150.498,218.228z"/>
<path fill-rule="evenodd" clip-rule="evenodd" fill="#8A6B17" d="M123.333,244.684c1.299,1.063,2.48,2.126,3.661,3.425
	c3.78,3.898,8.504,5.905,14.055,5.905h9.449h9.567c5.433,0,10.158-2.008,13.937-5.905c0.827-0.827,1.654-1.654,2.48-2.362
	c0.236-0.236,0.591-0.591,0.945-0.827c-6.732-8.15-16.654-12.756-27.165-12.756C139.868,232.164,129.947,236.771,123.333,244.684
	L123.333,244.684z"/>
<path fill-rule="evenodd" clip-rule="evenodd" fill="#FFBB00" d="M229.278,57.007c18.898-10.04,38.268,10.394,26.929,27.52
	l-10.984,16.653c-2.126-4.252-4.606-8.268-7.323-12.165l0.118-0.118l4.724-5.787c5.433-6.733-3.071-18.071-11.693-12.52
	l-5.197,3.307l-0.59,0.472c-3.543-3.307-7.323-6.378-11.339-9.213L229.278,57.007z"/>
<path fill-rule="evenodd" clip-rule="evenodd" fill="#EEECDF" d="M231.05,70.59c8.622-5.551,17.126,5.787,11.693,12.52l-4.724,5.787
	l-0.118,0.118c-3.661-5.315-7.913-10.275-12.638-14.646l0.59-0.472L231.05,70.59z"/>
<path fill-rule="evenodd" clip-rule="evenodd" fill="#FFBB00" d="M71.719,57.007c-18.898-10.04-38.268,10.394-26.929,27.52
	l11.102,16.653c2.126-4.252,4.488-8.268,7.205-12.165l-0.118-0.118l-4.724-5.787c-5.315-6.733,3.071-18.071,11.693-12.52
	l5.197,3.307l0.709,0.472c3.543-3.307,7.323-6.378,11.339-9.213L71.719,57.007z"/>
<path fill-rule="evenodd" clip-rule="evenodd" fill="#EEECDF" d="M69.947,70.59c-8.622-5.551-17.008,5.787-11.693,12.52l4.724,5.787
	l0.118,0.118c3.779-5.315,8.031-10.275,12.756-14.646l-0.709-0.472L69.947,70.59z"/>
<path fill-rule="evenodd" clip-rule="evenodd" fill="#EEECDF" d="M113.412,214.684c-0.59,0.708-0.945,1.299-1.299,2.126
	c-2.835,7.796-0.945,16.536,4.725,22.677c0.118,0.236,0.354,0.354,0.472,0.59c1.654,1.063,3.307,2.362,4.842,3.543
	c5.551,3.071,12.165,3.779,18.307,1.535l10.039-6.732v-19.37l-20.787-18.425c-0.709-0.59-1.063-1.536-0.709-2.362L113.412,214.684z"
	/>
<path fill-rule="evenodd" clip-rule="evenodd" fill="#EEECDF" d="M187.585,214.684c0.59,0.708,1.063,1.299,1.299,2.126
	c2.835,7.796,1.063,16.536-4.724,22.677c-0.118,0.236-0.354,0.354-0.472,0.59c-1.654,1.063-3.307,2.362-4.842,3.543
	c-5.433,3.071-12.165,3.779-18.307,1.535l-10.039-6.732v-19.37l20.905-18.425c0.709-0.59,0.945-1.536,0.59-2.362L187.585,214.684z"
	/>
<path fill-rule="evenodd" clip-rule="evenodd" fill="#452403" d="M228.924,117.007c-1.772,0-3.071,1.417-3.071,3.071
	c0,1.771,1.299,3.189,3.071,3.189c1.772,0,3.189-1.417,3.189-3.189C232.113,118.424,230.695,117.007,228.924,117.007
	L228.924,117.007z"/>
<path fill-rule="evenodd" clip-rule="evenodd" fill="#452403" d="M213.097,91.141c-1.653,0-3.071,1.417-3.071,3.189
	c0,1.653,1.417,3.071,3.071,3.071c1.772,0,3.189-1.417,3.189-3.071C216.286,92.558,214.868,91.141,213.097,91.141L213.097,91.141z"
	/>
<path fill-rule="evenodd" clip-rule="evenodd" fill="#452403" d="M191.601,70.944c-1.654,0-3.071,1.418-3.071,3.071
	c0,1.771,1.417,3.189,3.071,3.189c1.772,0,3.189-1.417,3.189-3.189C194.79,72.361,193.372,70.944,191.601,70.944L191.601,70.944z"/>
<path fill-rule="evenodd" clip-rule="evenodd" fill="#452403" d="M174.829,88.306c-1.772,0-3.071,1.299-3.071,3.071
	c0,1.771,1.299,3.189,3.071,3.189c1.772,0,3.071-1.417,3.071-3.189C177.9,89.605,176.601,88.306,174.829,88.306L174.829,88.306z"/>
<path fill-rule="evenodd" clip-rule="evenodd" fill="#452403" d="M166.798,60.196c-1.654,0-3.071,1.417-3.071,3.189
	c0,1.654,1.417,3.071,3.071,3.071c1.772,0,3.189-1.417,3.189-3.071C169.987,61.613,168.569,60.196,166.798,60.196L166.798,60.196z"
	/>
<path fill-rule="evenodd" clip-rule="evenodd" fill="#452403" d="M194.908,106.259c-1.654,0-3.071,1.417-3.071,3.189
	c0,1.772,1.417,3.071,3.071,3.071c1.772,0,3.189-1.299,3.189-3.071C198.097,107.676,196.68,106.259,194.908,106.259L194.908,106.259
	z"/>
<path fill-rule="evenodd" clip-rule="evenodd" fill="#452403" d="M230.459,145.353c-1.772,0-3.189,1.417-3.189,3.189
	c0,1.654,1.417,3.071,3.189,3.071c1.654,0,3.071-1.417,3.071-3.071C233.53,146.771,232.113,145.353,230.459,145.353L230.459,145.353
	z"/>
<path fill-rule="evenodd" clip-rule="evenodd" fill="#452403" d="M68.648,117.007c1.772,0,3.189,1.417,3.189,3.071
	c0,1.771-1.417,3.189-3.189,3.189c-1.654,0-3.071-1.417-3.071-3.189C65.577,118.424,66.994,117.007,68.648,117.007L68.648,117.007z"
	/>
<path fill-rule="evenodd" clip-rule="evenodd" fill="#452403" d="M84.475,91.141c1.772,0,3.189,1.417,3.189,3.189
	c0,1.653-1.417,3.071-3.189,3.071c-1.772,0-3.071-1.417-3.071-3.071C81.404,92.558,82.703,91.141,84.475,91.141L84.475,91.141z"/>
<path fill-rule="evenodd" clip-rule="evenodd" fill="#452403" d="M105.971,70.944c1.653,0,3.071,1.418,3.071,3.071
	c0,1.771-1.417,3.189-3.071,3.189c-1.772,0-3.189-1.417-3.189-3.189C102.782,72.361,104.199,70.944,105.971,70.944L105.971,70.944z"
	/>
<path fill-rule="evenodd" clip-rule="evenodd" fill="#452403" d="M122.743,88.306c1.772,0,3.189,1.299,3.189,3.071
	c0,1.771-1.417,3.189-3.189,3.189c-1.654,0-3.071-1.417-3.071-3.189C119.672,89.605,121.089,88.306,122.743,88.306L122.743,88.306z"
	/>
<path fill-rule="evenodd" clip-rule="evenodd" fill="#452403" d="M130.774,60.196c1.772,0,3.071,1.417,3.071,3.189
	c0,1.654-1.299,3.071-3.071,3.071c-1.772,0-3.071-1.417-3.071-3.071C127.703,61.613,129.002,60.196,130.774,60.196L130.774,60.196z"
	/>
<path fill-rule="evenodd" clip-rule="evenodd" fill="#452403" d="M102.664,106.259c1.654,0,3.071,1.417,3.071,3.189
	c0,1.772-1.417,3.071-3.071,3.071c-1.772,0-3.189-1.299-3.189-3.071C99.475,107.676,100.892,106.259,102.664,106.259
	L102.664,106.259z"/>
<path fill-rule="evenodd" clip-rule="evenodd" fill="#452403" d="M67.231,145.353c1.654,0,3.071,1.417,3.071,3.189
	c0,1.654-1.417,3.071-3.071,3.071c-1.772,0-3.189-1.417-3.189-3.071C64.042,146.771,65.459,145.353,67.231,145.353L67.231,145.353z"
	/>
<path fill-rule="evenodd" clip-rule="evenodd" fill="#8A6B17" d="M132.546,197.558c-0.827,0-1.654,0.472-1.89,1.299
	c-0.354,0.827-0.118,1.772,0.591,2.362l19.252,17.008l0,0l19.488-17.126c0.709-0.473,0.945-1.418,0.59-2.244
	c-0.354-0.827-1.063-1.299-1.89-1.299h-18.189H132.546z"/>
<path fill="#452403" d="M186.995,213.621c1.181,0,2.126,0.945,2.126,2.126c0,1.063-0.945,2.008-2.126,2.008h-14.882
	c-1.063,0-2.008-0.945-2.008-2.008c0-1.181,0.945-2.126,2.008-2.126H186.995z"/>
<path fill="#452403" d="M186.995,224.723c1.181,0,2.126,0.945,2.126,2.008c0,1.181-0.945,2.126-2.126,2.126h-14.882
	c-1.063,0-2.008-0.945-2.008-2.126c0-1.063,0.945-2.008,2.008-2.008H186.995z"/>
<path fill-rule="evenodd" clip-rule="evenodd" fill="#FFBB00" d="M116.837,238.542l-2.362-0.472
	c-8.504-5.551-18.189-10.276-27.992-17.717c-19.134-14.764-34.606-37.087-39.921-60.354v-0.827
	c4.488,4.252,10.512,6.733,16.772,6.614c7.795-0.118,15-3.898,19.488-10.157l18.661-24.449c0.473-0.591,1.299-0.945,2.126-0.709
	c17.953,3.78,27.638,13.937,29.173,30.473c0,18.189,0,32.362,0,32.362c-10.748,11.339-17.126,18.189-19.37,20.433
	c-0.59,0.709-0.945,1.299-1.299,2.244C109.396,223.66,111.168,232.519,116.837,238.542L116.837,238.542z"/>
<path fill-rule="evenodd" clip-rule="evenodd" fill="#EEECDF" d="M114.121,133.897c-3.071-1.536-6.614-2.598-10.512-3.425
	c-0.827-0.236-1.653,0.118-2.126,0.709l-1.417,1.89c-2.598,4.37-2.953,9.803-0.827,14.527c2.598,5.906,8.504,9.685,15,9.449
	c6.378-0.236,12.165-4.37,14.291-10.394C125.459,141.101,120.617,136.849,114.121,133.897L114.121,133.897z"/>
<path fill-rule="evenodd" clip-rule="evenodd" fill="#452403" d="M82.349,185.865c-0.473,1.654-2.126,2.599-3.898,2.126
	c-1.653-0.354-2.598-2.126-2.126-3.78c0.354-1.654,2.126-2.598,3.78-2.244C81.758,182.44,82.821,184.212,82.349,185.865
	L82.349,185.865z"/>
<path fill-rule="evenodd" clip-rule="evenodd" fill="#452403" d="M98.176,205.59c-0.472,1.654-2.244,2.598-3.898,2.244
	c-1.654-0.473-2.598-2.244-2.244-3.898c0.473-1.654,2.244-2.599,3.898-2.126C97.585,202.164,98.53,203.936,98.176,205.59
	L98.176,205.59z"/>
<path fill="#452403" d="M112.113,133.897c0-1.181,0.945-2.126,2.008-2.126c1.181,0,2.126,0.945,2.126,2.126v12.283
	c0,1.181-0.945,2.126-2.126,2.126c-1.063,0-2.008-0.945-2.008-2.126V133.897z"/>
<path fill="#452403" d="M112.703,217.755c-1.181,0-2.008-0.945-2.008-2.008c0-1.181,0.827-2.126,2.008-2.126h14.882
	c1.063,0,2.008,0.945,2.008,2.126c0,1.063-0.945,2.008-2.008,2.008H112.703z"/>
<path fill="#452403" d="M112.703,228.857c-1.181,0-2.008-0.945-2.008-2.126c0-1.063,0.827-2.008,2.008-2.008h14.882
	c1.063,0,2.008,0.945,2.008,2.008c0,1.181-0.945,2.126-2.008,2.126H112.703z"/>
<path fill-rule="evenodd" clip-rule="evenodd" fill="#EEECDF" d="M132.546,158.7l0.236,31.181c0,2.716-0.709,3.307-0.709,3.307
	c-1.772-12.284-3.661-30.945-15.472-36.732c7.795-1.417,11.339-7.677,11.929-9.803C131.483,152.204,132.664,157.637,132.546,158.7
	L132.546,158.7z"/>
<path fill-rule="evenodd" clip-rule="evenodd" fill="#FFBB00" d="M184.278,238.542l2.244-0.472
	c8.622-5.551,18.189-10.276,27.992-17.717c19.252-14.764,34.724-37.087,40.039-60.354v-0.827c-4.606,4.252-10.63,6.733-16.89,6.614
	c-7.677-0.118-14.882-3.898-19.488-10.157l-18.543-24.449c-0.59-0.591-1.299-0.945-2.126-0.709
	c-17.953,3.78-27.756,13.937-29.291,30.473c0,18.189,0,32.362,0,32.362c10.748,11.339,17.244,18.189,19.37,20.433
	c0.59,0.709,1.063,1.299,1.299,2.244C191.719,223.66,189.947,232.519,184.278,238.542L184.278,238.542z"/>
<path fill-rule="evenodd" clip-rule="evenodd" fill="#EEECDF" d="M187.113,133.897c3.189-1.536,6.614-2.598,10.63-3.425
	c0.827-0.236,1.535,0.118,2.008,0.709l1.535,1.89c2.598,4.37,2.953,9.803,0.827,14.527c-2.598,5.906-8.622,9.685-15,9.449
	c-0.945,0-1.89-0.118-2.835-0.354c-11.457,6.024-13.346,24.449-15,36.496c0,0-0.827-0.591-0.827-3.307l0.354-31.181
	C169.868,147.597,177.073,138.503,187.113,133.897L187.113,133.897z"/>
<path fill-rule="evenodd" clip-rule="evenodd" fill="#452403" d="M224.081,185.865c0.472,1.654,2.126,2.599,3.78,2.126
	c1.772-0.354,2.716-2.126,2.244-3.78c-0.473-1.654-2.126-2.598-3.78-2.244C224.672,182.44,223.609,184.212,224.081,185.865
	L224.081,185.865z"/>
<path fill-rule="evenodd" clip-rule="evenodd" fill="#452403" d="M208.254,205.59c0.472,1.654,2.244,2.598,3.898,2.244
	c1.654-0.473,2.599-2.244,2.126-3.898c-0.354-1.654-2.126-2.599-3.779-2.126C208.845,202.164,207.782,203.936,208.254,205.59
	L208.254,205.59z"/>
<path fill="#452403" d="M184.042,134.487c0-1.181,0.945-2.008,2.008-2.008c1.181,0,2.126,0.827,2.126,2.008v11.693
	c0,1.181-0.945,2.126-2.126,2.126c-1.063,0-2.008-0.945-2.008-2.126V134.487z"/>
<path fill="#452403" d="M115.42,239.96c-1.063,0-2.008-0.945-2.008-2.126c0-1.063,0.945-2.008,2.008-2.008h12.165
	c1.063,0,2.008,0.945,2.008,2.008c0,1.181-0.945,2.126-2.008,2.126H115.42z"/>
<path fill="#452403" d="M184.278,235.826c1.181,0,2.008,0.945,2.008,2.008c0,1.181-0.827,2.126-2.008,2.126h-12.165
	c-1.063,0-2.008-0.945-2.008-2.126c0-1.063,0.945-2.008,2.008-2.008H184.278z"/>
</svg>
