<?xml version="1.0" encoding="utf-8"?>
<!-- Generator: Adobe Illustrator 24.3.0, SVG Export Plug-In . SVG Version: 6.00 Build 0)  -->
<svg version="1.1" id="Layer_1" xmlns="http://www.w3.org/2000/svg" xmlns:xlink="http://www.w3.org/1999/xlink" x="0px" y="0px"
	 viewBox="0 0 300 300" enable-background="new 0 0 300 300" xml:space="preserve">
<path fill-rule="evenodd" clip-rule="evenodd" fill="#FEC578" d="M215.754,152.145c-5.079-44.646-29.173-65.787-72.283-63.543
	c-32.953,0.709-52.677,21.85-58.228,63.661c31.417,5.433,52.677,27.283,64.961,65.669
	C165.439,176.239,187.29,154.271,215.754,152.145L215.754,152.145z"/>
<path fill-rule="evenodd" clip-rule="evenodd" fill="#F0AC54" d="M44.495,239.192h72.52c0.591-2.244,1.417-4.488,2.48-6.85
	c5.787-12.756,16.772-25.748,23.858-32.48l0,0c-2.835-6.142-6.024-11.575-9.331-16.535c-8.622-12.638-19.134-21.378-31.299-26.339
	c-5.433-2.244-11.22-3.661-17.244-4.37c-1.181,9.094-1.654,19.134-1.181,30C83.825,211.908,67.88,235.176,44.495,239.192"/>
<path fill-rule="evenodd" clip-rule="evenodd" fill="#F0AC54" d="M157.644,199.861c2.835-6.142,5.906-11.575,9.331-16.535
	c8.622-12.638,19.016-21.378,31.181-26.339c5.433-2.244,11.22-3.661,17.362-4.37c1.181,9.094,1.654,19.134,1.181,30
	c0.473,29.291,16.299,52.559,39.803,56.575h-72.638c-0.472-2.244-1.299-4.488-2.362-6.85
	C175.715,219.586,164.731,206.594,157.644,199.861L157.644,199.861z"/>
<path fill-rule="evenodd" clip-rule="evenodd" fill="#FEC578" d="M216.345,160.058c0.59,7.087,0.709,14.646,0.354,22.559
	c0.473,29.291,16.299,52.559,39.803,56.575h-72.638c-0.472-2.244-1.299-4.488-2.362-6.85c-3.543-7.677-8.74-15.236-13.937-21.614
	c-0.709-1.89-1.654-3.425-2.717-4.37c2.835-6.142,6.024-11.693,9.449-16.654c8.622-12.52,19.016-21.378,31.181-26.339
	C208.904,161.948,212.565,160.885,216.345,160.058L216.345,160.058z"/>
<path fill-rule="evenodd" clip-rule="evenodd" fill="#EC3D4A" d="M150.439,141.042c-17.126-36.26-17.126-79.724,0-115.984
	C167.684,61.318,167.684,104.782,150.439,141.042L150.439,141.042z"/>
<path fill-rule="evenodd" clip-rule="evenodd" fill="#FFFFFF" d="M187.29,165.137c4.37-3.189,8.976-5.787,14.055-7.795
	c1.772,2.48,2.126,5.787,0.709,8.504c-1.417,2.953-4.488,4.725-7.677,4.488C191.187,170.216,188.353,168.09,187.29,165.137
	L187.29,165.137z"/>
<path fill="#9E5B25" d="M202.526,155.688c1.299,1.535,2.126,3.425,2.362,5.315c0.236,1.89-0.118,3.898-0.945,5.787
	c-0.945,1.772-2.362,3.307-4.016,4.252l0,0c-1.772,0.945-3.661,1.417-5.669,1.299c-2.126-0.118-4.016-0.827-5.551-2.008
	c-1.535-1.181-2.716-2.835-3.425-4.724l3.78-1.299c0.472,1.181,1.181,2.126,2.126,2.835c0.945,0.709,2.008,1.181,3.307,1.181
	c1.181,0.118,2.362-0.236,3.425-0.709c0.945-0.709,1.89-1.535,2.362-2.598c0.59-1.181,0.709-2.362,0.59-3.543
	c-0.118-1.181-0.59-2.244-1.417-3.189L202.526,155.688z"/>
<path fill-rule="evenodd" clip-rule="evenodd" fill="#9E5B25" d="M157.644,199.861c2.835-6.142,5.906-11.575,9.331-16.535v-0.118
	c-8.15-3.307-14.173-10.512-16.535-17.598c-2.244,7.087-8.268,14.173-16.417,17.598c6.732,9.449,12.283,21.024,16.654,34.725
	c1.772-4.724,3.543-9.213,5.551-13.465c0.591-1.417,1.181-2.835,1.772-4.252C157.88,200.098,157.762,199.979,157.644,199.861
	L157.644,199.861z"/>
<path fill="#9E5B25" d="M134.849,185.097c-1.063,0.354-2.244-0.118-2.598-1.181c-0.472-0.945,0-2.126,1.063-2.599
	c3.661-1.535,6.732-3.779,9.331-6.496c2.716-2.953,4.842-6.378,5.906-9.803c0.354-1.063,1.535-1.654,2.598-1.299
	c0.591,0.236,1.063,0.709,1.299,1.299c1.063,3.425,3.189,6.969,6.024,9.921c2.598,2.717,5.906,5.079,9.567,6.496
	c1.063,0.472,1.535,1.653,1.181,2.598c-0.473,1.063-1.654,1.535-2.598,1.181c-4.37-1.654-8.031-4.37-10.984-7.559
	c-2.126-2.126-3.779-4.488-5.197-6.969c-1.181,2.362-2.953,4.725-4.842,6.851C142.644,180.609,138.983,183.326,134.849,185.097
	L134.849,185.097z"/>
<path fill="#9E5B25" d="M149.022,218.168c6.496-20.551,15.354-36.378,26.339-47.598c11.221-11.457,24.567-18.071,40.158-19.842
	l0.472,3.898c-14.646,1.772-27.284,8.031-37.677,18.661c-10.63,10.866-19.134,26.22-25.512,46.181L149.022,218.168z"/>
<path fill-rule="evenodd" clip-rule="evenodd" fill="#FEC578" d="M44.849,239.192h72.52c0.59-2.244,1.417-4.488,2.48-6.85
	c3.425-7.677,8.74-15.236,13.937-21.614c0.709-1.89,1.535-3.425,2.599-4.37c-2.835-6.142-5.906-11.693-9.331-16.654
	c-8.622-12.52-19.016-21.378-31.299-26.339c-3.425-1.417-7.087-2.48-10.748-3.307l0,0c-0.59,7.087-0.709,14.646-0.472,22.559
	C84.18,211.908,68.235,235.176,44.849,239.192"/>
<path fill-rule="evenodd" clip-rule="evenodd" fill="#FFFFFF" d="M116.306,165.137c-4.37-3.189-8.976-5.787-14.055-7.795
	c-1.772,2.48-2.126,5.787-0.709,8.504c1.417,2.953,4.488,4.725,7.677,4.488C112.408,170.216,115.243,168.09,116.306,165.137
	L116.306,165.137z"/>
<path fill="#9E5B25" d="M104.14,158.286c-0.827,0.945-1.299,2.008-1.417,3.189c-0.118,1.181,0,2.362,0.591,3.543
	c0.472,1.063,1.417,1.89,2.362,2.48c1.063,0.591,2.244,0.945,3.425,0.827c1.299,0,2.362-0.472,3.307-1.181
	c0.945-0.709,1.653-1.654,2.126-2.835l3.779,1.299c-0.709,1.89-1.89,3.543-3.425,4.724c-1.535,1.181-3.425,1.89-5.551,2.008
	c-2.008,0.118-3.898-0.354-5.669-1.299l0,0c-1.654-0.945-3.071-2.48-4.016-4.252c-0.827-1.89-1.181-3.898-0.945-5.787
	c0.236-1.89,1.063-3.779,2.362-5.315L104.14,158.286z"/>
<path fill="#9E5B25" d="M148.55,219.468c-6.378-20.079-14.882-35.433-25.63-46.299c-10.512-10.63-23.15-16.89-37.913-18.543
	l0.472-4.016c15.709,1.772,29.173,8.386,40.394,19.724c11.102,11.339,19.961,27.284,26.575,47.835L148.55,219.468z"/>
<path fill-rule="evenodd" clip-rule="evenodd" fill="#EC3D4A" d="M142.998,200.098c4.961,12.047,7.677,17.835,7.677,17.835
	c0.236,14.882-4.842,26.575-9.094,33.779c-13.11,22.323-34.134,6.732-22.205-19.37c5.197-11.575,14.764-23.386,21.732-30.473
	C141.817,201.16,142.29,200.688,142.998,200.098L142.998,200.098z"/>
<path fill-rule="evenodd" clip-rule="evenodd" fill="#E62936" d="M141.581,251.712c4.252-7.205,9.331-18.898,9.094-33.779
	c0,0-0.709-1.535-2.008-4.606c-0.945-2.126-2.244-4.961-3.661-8.504v5.787c0.236,15-4.961,26.575-9.094,33.78
	c-6.024,10.158-13.583,12.52-19.016,9.567C120.676,264.586,132.841,266.475,141.581,251.712L141.581,251.712z"/>
<path fill-rule="evenodd" clip-rule="evenodd" fill="#EC3D4A" d="M158.353,200.098c-4.961,12.047-7.677,17.835-7.677,17.835
	c-0.236,14.882,4.842,26.575,9.094,33.779c13.11,22.323,34.134,6.732,22.205-19.37c-5.197-11.575-14.764-23.386-21.732-30.473
	C159.534,201.16,159.061,200.688,158.353,200.098L158.353,200.098z"/>
<path fill-rule="evenodd" clip-rule="evenodd" fill="#E62936" d="M159.77,251.712c-4.252-7.205-9.331-18.898-9.094-33.779
	c0,0,0.709-1.535,2.008-4.606c0.945-2.126,2.244-4.961,3.779-8.504v5.787c-0.354,15,4.842,26.575,9.094,33.78
	c5.906,10.158,13.465,12.52,18.898,9.567C180.794,264.586,168.51,266.475,159.77,251.712L159.77,251.712z"/>
</svg>
