<?xml version="1.0" encoding="utf-8"?>
<!-- Generator: Adobe Illustrator 24.3.0, SVG Export Plug-In . SVG Version: 6.00 Build 0)  -->
<svg version="1.1" id="Layer_1" xmlns="http://www.w3.org/2000/svg" xmlns:xlink="http://www.w3.org/1999/xlink" x="0px" y="0px"
	 viewBox="0 0 300 300" enable-background="new 0 0 300 300" xml:space="preserve">
<path fill-rule="evenodd" clip-rule="evenodd" fill="#9E5B25" d="M184.632,81.338c8.976-18.425,30-27.992,50.079-22.441
	c21.024,5.787,34.37,26.457,31.063,48.071c-3.189,20.787-21.142,36.142-42.047,36.496c0-9.921-1.771-19.606-5.905-28.465
	c-4.606-9.921-11.102-18.071-18.898-24.449C194.553,86.889,189.711,83.818,184.632,81.338L184.632,81.338z"/>
<path fill-rule="evenodd" clip-rule="evenodd" fill="#4E2F12" d="M198.924,90.55c4.961-10.63,16.89-16.299,28.229-13.11
	c11.693,3.189,19.252,14.764,17.362,26.811c-1.772,11.575-11.693,20.079-23.15,20.315c-0.236-0.59-0.355-1.181-0.591-1.654v-0.118
	c-0.827-2.598-1.771-5.197-2.953-7.795C213.215,105.078,206.719,96.928,198.924,90.55L198.924,90.55z"/>
<path fill-rule="evenodd" clip-rule="evenodd" fill="#9E5B25" d="M135.853,176.653c-11.693,1.654-27.52-3.189-37.087-11.811
	c-17.008-15.354-5.669-38.386,14.882-36.26c9.803,0.945,21.142,8.032,30.945,24.803c1.417,1.772,3.543,2.835,5.669,2.835
	c2.126,0,4.252-1.063,5.551-2.835c8.15-13.937,17.362-21.142,25.748-23.74c22.677-7.086,39.803,18.425,19.488,35.787
	c-9.685,8.268-25.039,12.874-36.496,11.22c9.685,4.724,15.472,14.764,14.882,25.512c-2.008,33.307-56.339,33.307-58.346,0
	C120.38,191.416,126.286,181.377,135.853,176.653L135.853,176.653z M218.766,114.999c-9.921-21.496-28.937-34.724-49.961-39.567
	c3.661-6.26,9.921-10.748,17.126-12.165c-13.819-4.134-28.701,2.008-35.669,14.764c-6.968-12.756-21.85-18.898-35.787-14.764
	c7.323,1.417,13.583,5.905,17.244,12.165c-5.787,1.417-11.457,3.307-16.772,5.905c-5.197,2.48-9.921,5.551-14.409,9.213
	c-7.795,6.378-14.291,14.527-18.898,24.449c-4.016,8.858-5.906,18.543-5.906,28.465c0,29.409,16.535,60.945,39.685,79.842
	c25.866,21.378,40.748,22.441,67.323,1.89C214.868,200.275,235.538,151.259,218.766,114.999L218.766,114.999z M121.325,110.511
	c0,1.89-1.535,3.543-3.543,3.543c-1.89,0-3.425-1.654-3.425-3.543c0-1.89,1.535-3.543,3.425-3.543
	C119.79,106.967,121.325,108.621,121.325,110.511L121.325,110.511z M150.262,106.613c-2.008,0-3.543-1.536-3.543-3.425
	c0-2.008,1.535-3.543,3.543-3.543c1.89,0,3.425,1.535,3.425,3.543C153.687,105.078,152.152,106.613,150.262,106.613L150.262,106.613
	z M182.624,114.054c-1.89,0-3.425-1.654-3.425-3.543c0-1.89,1.535-3.543,3.425-3.543c2.008,0,3.543,1.654,3.543,3.543
	C186.168,112.401,184.632,114.054,182.624,114.054L182.624,114.054z"/>
<path fill-rule="evenodd" clip-rule="evenodd" fill="#1A1A1A" d="M120.38,149.369c0-3.071-2.599-5.669-5.787-5.669
	c-3.189,0-5.67,2.598-5.67,5.669c0,3.189,2.48,5.787,5.67,5.787C117.782,155.156,120.38,152.558,120.38,149.369L120.38,149.369z"/>
<path fill-rule="evenodd" clip-rule="evenodd" fill="#1A1A1A" d="M191.601,149.369c0-3.071-2.599-5.669-5.788-5.669
	c-3.189,0-5.669,2.598-5.669,5.669c0,3.189,2.48,5.787,5.669,5.787C189.002,155.156,191.601,152.558,191.601,149.369
	L191.601,149.369z"/>
<path fill-rule="evenodd" clip-rule="evenodd" fill="#E6C268" d="M144.593,153.385c-9.803-16.772-21.142-23.858-30.945-24.803
	c-20.551-2.126-31.89,20.906-14.882,36.26c9.567,8.622,25.394,13.465,37.087,11.811c-9.567,4.724-15.472,14.764-14.764,25.512
	c2.008,33.307,56.338,33.307,58.346,0c0.59-10.748-5.197-20.787-14.882-25.512c11.457,1.654,26.811-2.953,36.496-11.22
	c20.315-17.362,3.189-42.874-19.488-35.787c-8.386,2.599-17.598,9.803-25.748,23.74c-1.299,1.772-3.425,2.835-5.551,2.835
	C148.136,156.22,146.01,155.156,144.593,153.385L144.593,153.385z M180.144,149.369c0-3.071,2.48-5.669,5.669-5.669
	c3.189,0,5.788,2.598,5.788,5.669c0,3.189-2.599,5.787-5.788,5.787C182.624,155.156,180.144,152.558,180.144,149.369
	L180.144,149.369z M120.38,149.369c0,3.189-2.599,5.787-5.787,5.787c-3.189,0-5.67-2.598-5.67-5.787c0-3.071,2.48-5.669,5.67-5.669
	C117.782,143.7,120.38,146.298,120.38,149.369L120.38,149.369z M150.262,188.936c7.323,0,13.228,5.906,13.228,13.228
	s-5.906,13.228-13.228,13.228c-7.323,0-13.228-5.906-13.228-13.228S142.939,188.936,150.262,188.936L150.262,188.936z"/>
<path fill-rule="evenodd" clip-rule="evenodd" fill="#9E5B25" d="M116.364,81.338c-8.976-18.425-30-27.992-50.079-22.441
	c-21.024,5.787-34.37,26.457-31.063,48.071c3.189,20.787,21.024,36.142,41.929,36.496c0-9.921,1.89-19.606,6.024-28.465
	c4.488-9.921,11.102-18.071,18.78-24.449C106.443,86.889,111.286,83.818,116.364,81.338L116.364,81.338z"/>
<path fill-rule="evenodd" clip-rule="evenodd" d="M150.262,99.645c1.89,0,3.425,1.535,3.425,3.543c0,1.89-1.535,3.425-3.425,3.425
	c-2.008,0-3.543-1.536-3.543-3.425C146.719,101.18,148.254,99.645,150.262,99.645L150.262,99.645z"/>
<path fill-rule="evenodd" clip-rule="evenodd" d="M117.782,106.967c2.008,0,3.543,1.654,3.543,3.543c0,1.89-1.535,3.543-3.543,3.543
	c-1.89,0-3.425-1.654-3.425-3.543C114.357,108.621,115.892,106.967,117.782,106.967L117.782,106.967z"/>
<path fill-rule="evenodd" clip-rule="evenodd" d="M182.624,106.967c2.008,0,3.543,1.654,3.543,3.543c0,1.89-1.535,3.543-3.543,3.543
	c-1.89,0-3.425-1.654-3.425-3.543C179.199,108.621,180.734,106.967,182.624,106.967L182.624,106.967z"/>
<path d="M114.593,141.692c2.126,0,4.134,0.827,5.551,2.244c1.417,1.417,2.244,3.307,2.244,5.433c0,2.244-0.827,4.134-2.244,5.551
	c-1.417,1.417-3.425,2.244-5.551,2.244c-2.126,0-4.016-0.827-5.433-2.244c-1.417-1.417-2.244-3.307-2.244-5.551
	c0-2.126,0.827-4.016,2.244-5.433C110.577,142.519,112.467,141.692,114.593,141.692L114.593,141.692z M117.309,146.771
	c-0.709-0.709-1.654-1.063-2.716-1.063c-0.945,0-1.89,0.354-2.599,1.063c-0.709,0.709-1.063,1.654-1.063,2.598
	c0,1.063,0.354,2.008,1.063,2.717l0,0c0.709,0.709,1.654,1.063,2.599,1.063c1.063,0,2.008-0.354,2.716-1.063l0,0
	c0.591-0.709,1.063-1.654,1.063-2.717C118.372,148.424,117.9,147.479,117.309,146.771L117.309,146.771z"/>
<path d="M185.813,141.692c2.126,0,4.134,0.827,5.551,2.244c1.417,1.417,2.244,3.307,2.244,5.433c0,2.244-0.827,4.134-2.244,5.551
	s-3.425,2.244-5.551,2.244c-2.126,0-4.016-0.827-5.433-2.244s-2.244-3.307-2.244-5.551c0-2.126,0.827-4.016,2.244-5.433
	C181.798,142.519,183.687,141.692,185.813,141.692L185.813,141.692z M188.53,146.771c-0.709-0.709-1.654-1.063-2.717-1.063
	c-0.945,0-1.89,0.354-2.598,1.063c-0.709,0.709-1.063,1.654-1.063,2.598c0,1.063,0.354,2.008,1.063,2.717l0,0
	c0.709,0.709,1.654,1.063,2.598,1.063c1.063,0,2.008-0.354,2.717-1.063l0,0c0.591-0.709,1.063-1.654,1.063-2.717
	C189.593,148.424,189.12,147.479,188.53,146.771L188.53,146.771z"/>
<path fill-rule="evenodd" clip-rule="evenodd" fill="#4E2F12" d="M101.955,90.55c-4.842-10.63-16.772-16.299-28.11-13.11
	c-11.811,3.189-19.252,14.764-17.362,26.811c1.772,11.575,11.575,20.079,23.15,20.315c0.236-0.59,0.354-1.181,0.472-1.654v-0.118
	c0.827-2.598,1.89-5.197,3.071-7.795C87.664,105.078,94.278,96.928,101.955,90.55L101.955,90.55z"/>
<path fill-rule="evenodd" clip-rule="evenodd" fill="#4E2F12" d="M163.49,202.164c0-7.323-5.906-13.228-13.228-13.228
	c-7.323,0-13.228,5.906-13.228,13.228s5.906,13.228,13.228,13.228C157.585,215.393,163.49,209.487,163.49,202.164L163.49,202.164z"
	/>
<path fill-rule="evenodd" clip-rule="evenodd" fill="#8F4A11" d="M182.742,214.92c-26.575,20.551-41.457,19.37-67.323-1.89
	c-21.732-17.953-37.677-46.89-39.567-74.764c-0.118,1.654-0.118,3.425-0.118,5.197c0,29.409,16.535,60.945,39.685,79.842
	c25.866,21.378,40.748,22.441,67.323,1.89c25.63-19.842,43.937-55.158,41.811-86.929
	C222.664,167.086,205.656,197.086,182.742,214.92L182.742,214.92z"/>
</svg>
