<?xml version="1.0" encoding="utf-8"?>
<!-- Generator: Adobe Illustrator 24.3.0, SVG Export Plug-In . SVG Version: 6.00 Build 0)  -->
<svg version="1.1" id="Layer_1" xmlns="http://www.w3.org/2000/svg" xmlns:xlink="http://www.w3.org/1999/xlink" x="0px" y="0px"
	 viewBox="0 0 300 300" enable-background="new 0 0 300 300" xml:space="preserve">
<path fill-rule="evenodd" clip-rule="evenodd" fill="#884D3A" d="M38.058,132.42c11.811,15.236,34.252,20.079,52.913,11.929v-4.134
	C73.254,125.097,51.522,121.554,38.058,132.42L38.058,132.42z"/>
<path fill-rule="evenodd" clip-rule="evenodd" fill="#331D15" d="M91.207,128.759c-19.842-16.063-39.095-19.606-55.512-10.512
	c-2.362,1.299-3.307,4.134-2.126,6.496c1.181,2.835,2.716,5.315,4.488,7.677c13.465-10.866,35.197-7.323,52.913,7.795
	L91.207,128.759z"/>
<path fill="#331D15" d="M89.79,141.751c-8.74-7.323-18.307-11.929-27.402-13.228c-8.622-1.299-16.772,0.354-23.032,5.433
	l-2.48-3.189c7.087-5.669,16.417-7.677,26.102-6.26c9.803,1.417,20.079,6.26,29.291,14.173L89.79,141.751z"/>
<path fill-rule="evenodd" clip-rule="evenodd" fill="#884D3A" d="M263.057,132.42c-11.811,15.236-34.252,20.079-52.913,11.929
	l-0.118-4.134C227.861,125.097,249.475,121.554,263.057,132.42L263.057,132.42z"/>
<path fill-rule="evenodd" clip-rule="evenodd" fill="#331D15" d="M209.908,128.759c19.724-16.063,39.094-19.606,55.512-10.512
	c2.244,1.299,3.189,4.134,2.126,6.496c-1.181,2.835-2.717,5.315-4.488,7.677c-13.583-10.866-35.197-7.323-53.031,7.795
	L209.908,128.759z"/>
<path fill="#331D15" d="M208.727,138.68c9.331-7.913,19.606-12.756,29.291-14.173c9.803-1.417,19.134,0.59,26.221,6.26l-2.48,3.189
	c-6.26-5.079-14.41-6.732-23.15-5.433c-8.976,1.299-18.543,5.906-27.283,13.228L208.727,138.68z"/>
<path fill-rule="evenodd" clip-rule="evenodd" fill="#90806C" d="M77.27,33.798c-19.134,26.575-13.347,63.543,13.11,82.795
	c6.614,1.299,13.346-1.181,17.48-6.378c2.835-3.78,4.134-8.386,3.661-12.874c-0.236-1.89-0.709-3.898-1.654-5.669
	c-0.236-0.118-0.354-0.236-0.591-0.236C86.955,81.515,73.845,58.011,77.27,33.798L77.27,33.798z"/>
<path fill-rule="evenodd" clip-rule="evenodd" fill="#857561" d="M77.27,33.798c-0.354,0.472-0.591,0.827-0.945,1.181
	c-2.953,11.811-2.48,24.449,1.654,36.142c5.669,15.709,17.362,28.228,32.244,34.961c1.181-2.717,1.654-5.787,1.299-8.74
	c-0.236-1.89-0.709-3.898-1.654-5.669c-0.236-0.118-0.354-0.236-0.591-0.236C86.955,81.515,73.845,58.011,77.27,33.798L77.27,33.798
	z"/>
<path fill-rule="evenodd" clip-rule="evenodd" fill="#90806C" d="M191.128,91.436c0,0.118,0.118,0.118,0.236,0.236
	C191.247,91.554,191.128,91.554,191.128,91.436L191.128,91.436z M223.018,33.798c3.425,24.213-9.685,47.717-32.008,57.638
	c0,0,0,0,0.118,0l-2.008,5.669c-0.118,0.118-0.236,0.236-0.354,0.236c-0.472,4.488,0.709,9.094,3.661,12.874
	c1.063,1.417,2.48,2.599,3.898,3.661c3.898,2.598,8.74,3.661,13.583,2.717C236.247,97.342,242.152,60.373,223.018,33.798
	L223.018,33.798z"/>
<path fill-rule="evenodd" clip-rule="evenodd" fill="#85432D" d="M191.365,91.672c-3.307,5.906-2.835,13.11,1.181,18.425
	c4.016,5.433,10.748,7.913,17.362,6.496l0.709,41.693c0.59,27.047-4.252,49.961-23.504,69.803c5.197,6.26,5.551,15.118,0.945,21.732
	c-4.724,6.732-13.228,9.331-20.905,6.614c-9.094,8.858-23.504,8.858-32.717,0c-7.677,3.307-16.654,0.945-21.732-5.787
	c-5.079-6.732-4.843-16.063,0.472-22.559c-19.252-19.842-24.095-42.756-23.622-69.803l0.827-41.693
	c6.614,1.299,13.346-1.181,17.48-6.378c4.134-5.315,4.961-12.52,2.008-18.543C132.782,70.058,168.451,70.058,191.365,91.672
	L191.365,91.672z"/>
<path fill-rule="evenodd" clip-rule="evenodd" fill="#884D3A" d="M191.01,92.263c-2.953,5.669-2.362,12.638,1.536,17.835
	c2.244,3.189,5.551,5.315,9.094,6.26l0.472,43.464c0.236,23.268-3.661,42.992-20.197,60c4.488,5.315,4.724,12.992,0.827,18.662
	c-4.016,5.787-11.339,8.031-17.953,5.669c-7.795,7.559-20.315,7.559-28.11,0c-6.614,2.835-14.409,0.827-18.661-4.961
	c-4.37-5.787-4.252-13.819,0.354-19.37c-16.535-17.008-20.433-36.732-20.197-60l0.354-43.464c3.661-0.945,6.968-3.071,9.331-6.142
	c4.134-5.315,4.961-12.402,2.126-18.425c1.417-0.945,2.717-2.126,3.78-3.543h0.118c20.906-16.535,50.433-17.008,71.811-1.299
	c0.236,0.473,0.59,0.945,0.827,1.299C187.821,89.901,189.357,91.2,191.01,92.263L191.01,92.263z"/>
<path fill="#331D15" d="M135.617,255.137c4.252,3.898,9.685,5.906,15.118,5.906c5.433,0,10.866-2.008,15.118-5.906l2.717,2.953
	c-5.079,4.606-11.457,6.968-17.835,6.968c-6.378,0-12.756-2.362-17.835-6.968L135.617,255.137z"/>
<path fill-rule="evenodd" clip-rule="evenodd" fill="#331D15" d="M109.514,238.483c-0.118,4.252,1.181,8.386,3.661,11.929
	c4.37,6.142,12.402,9.213,21.85,6.142c4.134-4.606,10.039-7.323,16.299-7.323c6.378,0,12.283,2.717,15.827,7.323
	c8.74,3.071,16.772,0,21.26-6.142c2.008-2.953,3.307-6.378,3.543-9.921C193.963,210.373,110.813,210.137,109.514,238.483
	L109.514,238.483z"/>
<path fill="#331D15" d="M132.782,255.255c2.362-2.48,5.079-4.488,8.15-5.906c3.071-1.417,6.378-2.126,9.803-2.126
	c3.425,0,6.732,0.709,9.803,2.126c3.071,1.417,5.905,3.425,8.15,5.906l-2.953,2.716c-1.89-2.126-4.252-3.779-6.85-4.961
	c-2.48-1.181-5.315-1.772-8.15-1.772c-2.835,0-5.669,0.591-8.15,1.772c-2.598,1.181-4.842,2.835-6.732,4.961L132.782,255.255z"/>
<path fill-rule="evenodd" clip-rule="evenodd" fill="#331D15" d="M111.522,97.342c-0.236-1.89-0.709-3.898-1.654-5.669
	c22.795-21.496,58.346-21.614,81.26-0.236l-2.008,5.669C164.79,109.743,135.853,109.861,111.522,97.342L111.522,97.342z"/>
<path fill="#331D15" d="M131.601,158.759c-1.417,6.614-1.654,13.346-0.945,19.961c0.709,6.614,2.362,13.11,5.079,19.016
	l-3.661,1.654c-2.835-6.378-4.724-13.228-5.433-20.315c-0.709-6.968-0.473-14.173,1.063-21.142L131.601,158.759z"/>
<path fill="#331D15" d="M173.766,157.932c1.536,6.969,1.89,14.173,1.063,21.142c-0.709,7.087-2.48,13.937-5.433,20.315l-3.661-1.654
	c2.717-5.906,4.488-12.402,5.197-19.016c0.59-6.614,0.354-13.346-1.063-19.961L173.766,157.932z"/>
<path fill-rule="evenodd" clip-rule="evenodd" fill="#FFF2C2" d="M89.908,139.861l-0.118,8.74c2.48,2.244,5.787,3.425,9.094,3.425
	c2.598,0,5.197-0.709,7.323-2.008C102.428,144.822,96.64,141.042,89.908,139.861L89.908,139.861z"/>
<path fill="#331D15" d="M89.908,137.853c5.197,0.827,9.803,3.071,13.583,6.26c3.898,3.307,6.732,7.677,8.386,12.638l-3.78,1.181
	c-1.417-4.252-3.898-7.913-7.205-10.748c-3.071-2.716-6.85-4.488-10.984-5.315V137.853z"/>
<path fill="#331D15" d="M90.498,146.594c1.181,1.063,2.48,2.008,3.898,2.598c1.417,0.59,2.953,0.827,4.488,0.827
	c1.181,0,2.362-0.118,3.425-0.472c1.063-0.236,2.126-0.827,3.071-1.417l2.126,3.425c-1.181,0.827-2.598,1.417-4.134,1.89
	c-1.417,0.473-2.953,0.591-4.488,0.591c-2.126,0-4.134-0.354-6.024-1.181c-1.181-0.472-2.244-1.063-3.189-1.772v-3.661v-1.772
	L90.498,146.594z"/>
<path fill-rule="evenodd" clip-rule="evenodd" fill="#FFF2C2" d="M210.617,140.097l0.118,8.74c-2.48,2.244-5.669,3.425-9.094,3.425
	c-2.598,0-5.079-0.709-7.323-2.126C198.215,145.058,203.884,141.279,210.617,140.097L210.617,140.097z"/>
<path fill="#331D15" d="M211.443,141.987c-4.488,0.591-8.504,2.598-11.693,5.315c-3.307,2.835-5.905,6.614-7.205,10.866
	l-3.898-1.299c1.654-4.843,4.606-9.213,8.504-12.638c3.78-3.189,8.504-5.433,13.701-6.26L211.443,141.987z"/>
<path fill="#331D15" d="M210.499,151.554c-0.827,0.591-1.772,1.181-2.717,1.535c-2.008,0.827-4.016,1.181-6.142,1.181
	c-1.535,0-3.071-0.236-4.488-0.591c-1.417-0.472-2.835-1.181-4.134-2.008l2.244-3.307c0.945,0.59,1.89,1.063,3.071,1.417
	c1.063,0.354,2.126,0.473,3.307,0.473c1.654,0,3.189-0.236,4.606-0.827s2.717-1.536,3.779-2.599l0.473-0.59V151.554z"/>
<path fill-rule="evenodd" clip-rule="evenodd" fill="#857561" d="M223.372,33.798c0.236,0.472,0.591,0.827,0.827,1.181
	c3.071,11.811,2.598,24.449-1.654,36.142c-5.669,15.709-17.362,28.228-32.244,34.961c-1.063-2.717-1.535-5.787-1.181-8.74
	c0.118-1.89,0.709-3.898,1.536-5.669c0.236-0.118,0.472-0.236,0.709-0.236C213.569,81.515,226.68,58.011,223.372,33.798
	L223.372,33.798z"/>
<path fill="#331D15" d="M166.561,254.546c4.134,1.417,7.913,1.535,11.221,0.59c3.543-0.945,6.378-3.071,8.386-5.905
	c1.417-2.008,2.48-4.252,2.953-6.614c0.472-2.362,0.472-4.725-0.118-6.969c-2.008-8.268-14.527-13.347-28.937-15
	c-6.732-0.709-13.819-0.709-20.551,0.118c-6.614,0.827-12.874,2.362-17.717,4.843c-6.968,3.425-11.339,8.386-10.748,15.118
	c0.118,1.535,0.472,2.953,0.945,4.37c0.591,1.417,1.299,2.835,2.126,4.134c2.126,2.835,4.961,4.961,8.386,5.905
	c3.307,0.945,7.205,0.827,11.339-0.59l1.299,3.78c-4.961,1.654-9.567,1.772-13.701,0.708c-4.37-1.299-8.032-3.898-10.512-7.559
	c-1.181-1.536-2.008-3.189-2.717-4.961c-0.59-1.772-1.063-3.543-1.181-5.433c-0.827-8.622,4.606-15,12.992-19.134
	c5.315-2.599,11.929-4.37,19.016-5.197c6.968-0.827,14.409-0.827,21.496-0.118c15.945,1.89,29.882,8.032,32.362,18.071
	c0.709,2.835,0.709,5.787,0.118,8.74c-0.59,2.835-1.772,5.669-3.543,8.032c-2.598,3.661-6.26,6.26-10.63,7.559
	c-4.016,1.063-8.622,0.945-13.583-0.708L166.561,254.546z"/>
<path fill-rule="evenodd" clip-rule="evenodd" fill="#85432D" d="M127.821,230.688c3.78,0,6.85,3.071,6.85,6.732
	c0,3.779-3.071,6.85-6.85,6.85c-3.661,0-6.732-3.071-6.732-6.85C121.089,233.759,124.16,230.688,127.821,230.688L127.821,230.688z"
	/>
<path fill="#331D15" d="M127.821,228.68c2.48,0,4.724,0.945,6.26,2.599c1.653,1.535,2.598,3.779,2.598,6.142
	c0,2.48-0.945,4.724-2.598,6.26c-1.536,1.654-3.78,2.598-6.26,2.598c-2.362,0-4.606-0.945-6.142-2.598
	c-1.654-1.535-2.598-3.779-2.598-6.26c0-2.362,0.945-4.606,2.598-6.142l0,0C123.215,229.625,125.459,228.68,127.821,228.68
	L127.821,228.68z M131.247,234.113c-0.827-0.827-2.008-1.417-3.425-1.417c-1.299,0-2.48,0.59-3.307,1.417l0,0
	c-0.945,0.827-1.417,2.008-1.417,3.307c0,1.417,0.472,2.598,1.417,3.425l0,0c0.827,0.827,2.008,1.417,3.307,1.417
	c1.417,0,2.598-0.591,3.425-1.417c0.827-0.827,1.417-2.008,1.417-3.425C132.664,236.121,132.073,234.94,131.247,234.113
	L131.247,234.113z"/>
<path fill-rule="evenodd" clip-rule="evenodd" fill="#85432D" d="M172.349,230.688c-3.661,0-6.732,3.071-6.732,6.732
	c0,3.779,3.071,6.85,6.732,6.85c3.78,0,6.85-3.071,6.85-6.85C179.199,233.759,176.128,230.688,172.349,230.688L172.349,230.688z"/>
<path fill="#331D15" d="M172.349,232.696c-1.299,0-2.48,0.59-3.307,1.417l0,0c-0.827,0.827-1.417,2.008-1.417,3.307
	c0,1.417,0.59,2.598,1.417,3.425c0.827,0.827,2.008,1.417,3.307,1.417c1.417,0,2.598-0.591,3.425-1.417l0,0
	c0.827-0.827,1.417-2.008,1.417-3.425c0-1.299-0.59-2.48-1.417-3.307l0,0C174.947,233.286,173.766,232.696,172.349,232.696
	L172.349,232.696z M166.207,231.279c1.535-1.654,3.78-2.599,6.142-2.599c2.48,0,4.724,0.945,6.26,2.599l0,0
	c1.654,1.535,2.598,3.779,2.598,6.142c0,2.48-0.945,4.724-2.598,6.26c-1.536,1.654-3.78,2.598-6.26,2.598
	c-2.362,0-4.606-0.945-6.142-2.598l0,0c-1.654-1.535-2.598-3.779-2.598-6.26C163.609,235.058,164.554,232.814,166.207,231.279
	L166.207,231.279z"/>
<path fill-rule="evenodd" clip-rule="evenodd" fill="#331D15" d="M97.231,142.578c1.535,0,2.717,1.181,2.717,2.716
	c0,1.417-1.181,2.598-2.717,2.598c-1.417,0-2.598-1.181-2.598-2.598C94.632,143.759,95.813,142.578,97.231,142.578L97.231,142.578z"
	/>
<path fill-rule="evenodd" clip-rule="evenodd" fill="#331D15" d="M203.884,142.578c1.535,0,2.717,1.181,2.717,2.716
	c0,1.417-1.181,2.598-2.717,2.598c-1.417,0-2.598-1.181-2.598-2.598C201.286,143.759,202.467,142.578,203.884,142.578
	L203.884,142.578z"/>
</svg>
