<?xml version="1.0" encoding="utf-8"?>
<!-- Generator: Adobe Illustrator 24.3.0, SVG Export Plug-In . SVG Version: 6.00 Build 0)  -->
<svg version="1.1" id="Layer_1" xmlns="http://www.w3.org/2000/svg" xmlns:xlink="http://www.w3.org/1999/xlink" x="0px" y="0px"
	 viewBox="0 0 300 300" enable-background="new 0 0 300 300" xml:space="preserve">
<path fill-rule="evenodd" clip-rule="evenodd" fill="#9E5B25" d="M185.872,175.176c-0.236-6.378-0.827-12.992-2.008-19.606
	c20.669,10.157,44.882,4.961,58.11-14.41c0.472-0.709,0.827-1.654,1.063-2.48c0.709-4.252-2.126-8.031-6.85-8.031h-47.48h-0.827
	c0,0.118,0,0.236,0,0.354c-0.118,0.354-0.118,0.59-0.118,0.945c-10.63,7.323-8.622,10.039-14.528,3.307
	c-2.48-2.835-10.984-0.354-10.512-4.606h-12.165h-12.284c0.472,4.252-2.244,2.953-4.725,5.787
	c-5.905,6.732-17.362,11.102-18.543-4.725c0-0.236-1.772-0.354-1.772-0.708c0-0.118-0.118-0.236-0.118-0.354H64.809
	c-4.724,0-7.559,3.779-6.85,8.031c0.236,0.827,0.59,1.772,1.063,2.48c13.228,19.37,37.559,24.567,58.11,14.41
	c-1.063,6.614-1.772,13.228-2.008,19.606l10.63,16.063c-1.417,1.772-3.661,2.598-5.905,2.126c-2.126-0.591-3.661-2.126-4.252-4.134
	c1.417,16.063,6.024,31.417,14.055,46.063c0.236,3.898,0.827,7.323,1.772,10.512c5.433,0,7.323,6.024,10.984,10.039
	c3.661,4.134,8.622,5.906,8.031,11.339c0,0,0,0,0.118,0c0,0,0,0,0.118,0c-0.591-5.433,3.071-9.449,6.732-13.465
	c3.543-4.134,6.732-7.913,12.165-7.913c0.945-3.189,1.535-6.614,1.89-10.512c7.795-14.291,12.402-29.409,13.937-45.236
	c0-0.236-0.118-0.591,0-0.945c-0.591,2.008-2.126,3.661-4.252,4.252c-2.126,0.472-4.488-0.354-5.906-2.126L185.872,175.176z"/>
<path fill-rule="evenodd" clip-rule="evenodd" fill="#8F4A11" d="M184.455,159.704c-0.118-1.417-0.354-2.717-0.591-4.134
	c2.008,0.945,4.134,1.89,6.142,2.598c17.835-5.197,36.732-10.748,50.315-14.764c0.59-0.709,1.063-1.417,1.654-2.244
	c0.472-0.709,0.827-1.654,1.063-2.48c0.354-2.008,0-3.779-1.063-5.197c-29.646,10.039-59.764,19.724-59.764,19.724
	c1.89,4.134,1.181,6.85,1.181,6.85L184.455,159.704z"/>
<path fill="#4E2F12" d="M129.534,191.83L129.534,191.83l17.48,28.11v15.945h-4.016v-14.764l-16.536-26.693
	c-0.354,0.236-0.827,0.354-1.181,0.473c-0.945,0.236-1.89,0.354-2.835,0.354c-1.063,0-2.126-0.236-3.071-0.59
	c-1.654-0.709-3.071-2.008-3.661-4.252v-0.236c-0.236-7.205-0.472-14.528-0.709-21.732l14.528,23.268V191.83z M124.219,191.003
	h0.118l-4.843-7.795l0.118,6.26c0.354,0.827,0.827,1.299,1.299,1.536c0.472,0.118,1.063,0.236,1.535,0.236
	C123.038,191.239,123.628,191.121,124.219,191.003L124.219,191.003z"/>
<path fill-rule="evenodd" clip-rule="evenodd" fill="#8F4A11" d="M116.542,159.704c0.236-1.417,0.354-2.717,0.59-4.134
	c-2.008,0.945-4.016,1.89-6.142,2.598c-17.835-5.197-36.732-10.748-50.315-14.764c-0.591-0.709-1.063-1.417-1.654-2.244
	c-0.472-0.709-0.827-1.654-1.063-2.48c-0.354-2.008,0.118-3.779,1.063-5.197c29.764,10.039,59.882,19.724,59.882,19.724
	c-2.008,4.134-1.299,6.85-1.299,6.85L116.542,159.704z"/>
<path fill-rule="evenodd" clip-rule="evenodd" fill="#4E2F12" d="M128.589,115.294c-7.205-5.669-17.598-18.307-31.063-38.15
	c-7.677-13.583-5.315-32.598,4.37-45.236C82.88,41.476,75.203,63.09,82.054,82.696c5.197,14.882,18.071,25.512,25.63,35.906
	c2.835,4.016,4.961,7.913,5.433,12.047l0.118,0.354l0,0c0,0.354,0,0.59,0,0.945c1.181,15.709,16.063,16.299,21.968,9.567
	c2.48-2.717,3.543-6.614,3.071-10.866c-0.591-4.842-3.307-9.921-8.386-14.291C129.534,116.003,129.061,115.649,128.589,115.294
	L128.589,115.294z"/>
<path fill-rule="evenodd" clip-rule="evenodd" fill="#4E2F12" d="M172.526,115.294c-0.472,0.354-0.945,0.709-1.417,1.063
	c-5.079,4.37-7.795,9.449-8.386,14.291c-0.472,4.252,0.59,8.15,3.071,10.866c5.906,6.732,20.787,6.142,21.969-9.567
	c0-0.354,0-0.59,0.118-0.945v-0.354c0.59-4.134,2.716-8.268,5.669-12.283c7.559-10.276,20.315-20.906,25.394-35.669
	c6.85-19.606-0.827-41.22-19.843-50.787c9.803,12.638,12.165,31.654,4.488,45.236C190.006,96.987,179.731,109.625,172.526,115.294
	L172.526,115.294z"/>
<path fill="#4E2F12" d="M176.66,191.003h0.118c0.59,0.118,1.181,0.236,1.772,0.236c0.472,0,1.063-0.118,1.535-0.236
	c0.472-0.236,0.945-0.709,1.299-1.536l0.118-6.26L176.66,191.003z M175.715,194.901c-0.354-0.118-0.827-0.236-1.181-0.473
	l-16.535,26.693v14.764h-4.016V219.94l17.48-28.11l0,0v-0.118l14.528-23.268l-0.709,21.732v0.236
	c-0.591,2.244-2.008,3.543-3.661,4.252c-0.945,0.354-2.008,0.59-3.071,0.59C177.605,195.255,176.66,195.137,175.715,194.901
	L175.715,194.901z"/>
<path fill-rule="evenodd" clip-rule="evenodd" fill="#4E2F12" d="M145.597,252.184c-3.543-4.016-8.74-6.378-14.173-6.378
	c3.779,13.465,12.283,20.551,19.016,21.378C151.03,261.751,149.258,256.318,145.597,252.184L145.597,252.184z"/>
<path fill-rule="evenodd" clip-rule="evenodd" fill="#4E2F12" d="M150.676,267.184c6.614-0.827,15.118-7.913,18.898-21.378
	c-5.433,0-10.512,2.362-14.173,6.378C151.739,256.318,150.085,261.751,150.676,267.184L150.676,267.184z"/>
</svg>
