<?xml version="1.0" encoding="utf-8"?>
<!-- Generator: Adobe Illustrator 24.3.0, SVG Export Plug-In . SVG Version: 6.00 Build 0)  -->
<svg version="1.1" id="Layer_1" xmlns="http://www.w3.org/2000/svg" xmlns:xlink="http://www.w3.org/1999/xlink" x="0px" y="0px"
	 viewBox="0 0 300 300" enable-background="new 0 0 300 300" xml:space="preserve">
<path fill-rule="evenodd" clip-rule="evenodd" fill="#8F4A11" d="M197.624,128.464c23.15,4.37,45.827-9.567,52.441-32.244
	c-1.772-1.063-3.543-2.126-5.433-3.071C230.105,91.731,214.75,104.133,197.624,128.464L197.624,128.464z"/>
<path fill-rule="evenodd" clip-rule="evenodd" fill="#8F4A11" d="M103.963,128.464c-23.15,4.37-45.827-9.567-52.441-32.244
	c1.772-1.063,3.543-2.126,5.433-3.071C71.483,91.731,86.837,104.133,103.963,128.464L103.963,128.464z"/>
<path fill-rule="evenodd" clip-rule="evenodd" fill="#9E5B25" d="M197.624,128.464c16.89-20.669,32.48-36.732,47.008-35.315
	c-17.835-9.213-39.331-6.968-55.157,8.15l-8.74-14.646l30.472-50.787c-18.898-3.543-37.205,18.189-60.709,60
	c-0.354-0.59-0.709-1.181-1.063-1.772c-23.15-40.63-41.102-61.772-59.646-58.228l30.472,50.787l-8.74,14.646
	C93.924,84.645,69.593,83.7,50.932,96.22c5.787,19.961,24.094,33.189,44.291,33.071l0,0c-19.961-0.118-37.913-13.228-43.701-33.071
	c1.772-1.063,3.543-2.126,5.433-3.071c0.709-0.118,0.354-0.118,0.945-0.118c14.055-0.118,29.764,12.283,46.063,35.433
	c-0.118,0-0.236,0.118-0.354,0.118c-0.118,0-0.236,0-0.354,0v21.26c0,13.465,1.063,11.339,6.968,23.031
	c7.913,15.945,14.055,32.953,18.189,51.024c13.11,11.929,31.535,11.693,44.055,0c4.252-18.071,10.276-35.079,18.307-51.024
	c5.787-11.693,6.851-9.567,6.851-23.031v-6.024c-3.78,2.244-8.386,2.48-12.284,0.59
	C188.294,137.204,192.309,131.889,197.624,128.464L197.624,128.464z"/>
<path fill-rule="evenodd" clip-rule="evenodd" fill="#8F4A11" d="M150.617,266.771l12.992-28.465
	c-7.677,4.488-18.307,4.252-26.102,0L150.617,266.771z"/>
<path fill-rule="evenodd" clip-rule="evenodd" fill="#4E2F12" d="M171.64,227.794c0.236-1.299,0.59-2.598,0.827-3.898
	c-12.756,10.63-31.299,10.63-44.055,0c0.354,1.299,0.59,2.598,0.827,3.898c1.772,4.606,4.724,8.15,8.268,10.512
	c7.795,5.197,18.425,5.315,26.102,0C167.152,235.944,169.987,232.401,171.64,227.794L171.64,227.794z"/>
<path fill-rule="evenodd" clip-rule="evenodd" fill="#8F4A11" d="M149.435,94.094c-23.15-40.63-41.102-61.772-59.646-58.228
	l9.567,15.945c11.22,3.071,22.677,14.764,35.551,34.016l1.063,1.063L147.9,92.44l2.598,9.449c0-0.118,0-0.118,0.118-0.236
	l0.472-5.433l4.724-7.087l10.158-3.307c12.874-19.252,24.331-30.945,35.551-34.016l9.685-15.945
	c-18.898-3.543-37.205,18.189-60.709,60L149.435,94.094z"/>
<path fill="#4E2F12" d="M136.68,209.015c-0.591-0.945-0.354-2.126,0.59-2.717s2.126-0.354,2.717,0.59
	c0.945,1.417,1.89,2.835,2.835,4.134c1.063,1.299,2.126,2.598,3.189,3.78c0.827,0.827,0.709,2.126-0.118,2.835
	c-0.709,0.827-2.008,0.709-2.835-0.118c-1.181-1.299-2.244-2.598-3.425-4.016C138.569,212.086,137.624,210.55,136.68,209.015
	L136.68,209.015z"/>
<path fill="#4E2F12" d="M160.892,206.889c0.59-0.945,1.89-1.181,2.835-0.59c0.827,0.59,1.181,1.772,0.591,2.717
	c-0.945,1.535-2.008,3.071-3.071,4.488c-1.063,1.417-2.244,2.717-3.425,4.016c-0.709,0.827-2.008,0.945-2.835,0.118
	c-0.827-0.709-0.827-2.008-0.118-2.835c1.063-1.181,2.244-2.48,3.189-3.78C159.12,209.723,160.065,208.306,160.892,206.889
	L160.892,206.889z"/>
<path fill="#4E2F12" d="M148.491,221.889c0-1.063,0.827-2.008,2.008-2.008c1.063,0,2.008,0.945,2.008,2.008v7.795
	c0,1.063-0.945,2.008-2.008,2.008c-1.181,0-2.008-0.945-2.008-2.008V221.889z"/>
<path fill-rule="evenodd" clip-rule="evenodd" fill="#FFFFFF" d="M197.624,142.164c0.118-9.449,0.118-13.937,0-13.701
	c-6.024,4.134-10.512,10.157-12.756,17.126C189.357,148.07,195.026,146.535,197.624,142.164L197.624,142.164z"/>
<path fill="#4E2F12" d="M196.561,126.81c0.945-0.591,2.126-0.354,2.717,0.59c0.59,0.945,0.354,2.244-0.591,2.835
	c-3.189,2.008-5.905,4.843-8.15,8.386c-2.362,3.661-4.134,8.15-5.551,13.346c-0.236,1.063-1.299,1.772-2.362,1.417
	c-1.063-0.236-1.772-1.299-1.417-2.362c1.417-5.669,3.425-10.512,5.906-14.527C189.711,132.361,192.9,129.172,196.561,126.81
	L196.561,126.81z"/>
<path fill="#4E2F12" d="M196.561,142.046c0.945-0.591,2.244-0.236,2.835,0.709c0.472,0.945,0.236,2.126-0.709,2.717
	c-2.126,1.299-4.606,2.008-6.969,2.126c-2.48,0.118-4.961-0.354-7.205-1.417c-0.945-0.472-1.417-1.654-0.945-2.717
	c0.473-0.945,1.654-1.417,2.717-0.945c1.654,0.827,3.425,1.181,5.197,1.063C193.254,143.582,195.026,142.991,196.561,142.046
	L196.561,142.046z"/>
<path fill-rule="evenodd" clip-rule="evenodd" fill="#FFFFFF" d="M104.317,142.164c-0.118-9.449-0.118-13.937,0-13.701
	c6.142,4.134,10.63,10.157,12.756,17.126C112.585,148.07,106.916,146.535,104.317,142.164L104.317,142.164z"/>
<path fill="#4E2F12" d="M103.254,130.235c-0.945-0.59-1.181-1.89-0.591-2.835c0.591-0.945,1.772-1.181,2.717-0.59
	c3.78,2.362,6.85,5.551,9.449,9.685c2.598,4.016,4.488,8.858,6.024,14.527c0.236,1.063-0.354,2.126-1.417,2.362
	c-1.063,0.354-2.244-0.354-2.48-1.417c-1.417-5.197-3.189-9.685-5.551-13.346C109.16,135.078,106.443,132.243,103.254,130.235
	L103.254,130.235z"/>
<path fill="#4E2F12" d="M103.254,145.472c-0.945-0.59-1.181-1.772-0.591-2.717c0.591-0.945,1.772-1.299,2.717-0.709
	c1.535,0.945,3.307,1.535,5.079,1.535c1.772,0.118,3.661-0.236,5.315-1.063c0.945-0.473,2.126,0,2.599,0.945
	c0.472,1.063,0.118,2.244-0.945,2.717c-2.244,1.063-4.724,1.535-7.087,1.417C107.861,147.479,105.498,146.771,103.254,145.472
	L103.254,145.472z"/>
</svg>
