<?xml version="1.0" encoding="utf-8"?>
<!-- Generator: Adobe Illustrator 24.3.0, SVG Export Plug-In . SVG Version: 6.00 Build 0)  -->
<svg version="1.1" id="Layer_1" xmlns="http://www.w3.org/2000/svg" xmlns:xlink="http://www.w3.org/1999/xlink" x="0px" y="0px"
	 viewBox="0 0 300 300" enable-background="new 0 0 300 300" xml:space="preserve">
<path fill-rule="evenodd" clip-rule="evenodd" fill="#99AAB2" d="M150.498,260.865c-8.386-0.118-16.772-2.48-23.976-7.323
	c-9.213,7.441-22.323,7.914-32.008,1.063c-9.567-6.969-13.465-19.37-9.449-30.591c-69.921-80.197-0.709-186.378,65.433-147.756
	c66.142-38.622,135.354,67.559,65.433,147.756c4.134,11.22,0.236,23.622-9.449,30.591c-9.685,6.85-22.795,6.378-32.008-1.063
	C167.27,258.385,158.884,260.747,150.498,260.865L150.498,260.865z"/>
<path fill-rule="evenodd" clip-rule="evenodd" fill="#D8DDD7" d="M150.498,198.149c-8.031-2.126-15.827-7.913-21.614-18.307
	c-25.275,9.33-40.157,27.756-43.346,44.527l-0.827,0.59c-3.543,10.866,0.472,22.913,9.803,29.646
	c9.685,6.85,22.795,6.378,32.008-1.063c7.205,4.842,15.591,7.205,23.976,7.323c8.386-0.118,16.772-2.48,23.976-7.323
	c9.213,7.441,22.323,7.914,32.008,1.063c9.449-6.85,13.347-19.016,9.685-30l-0.591-0.236c-3.307-16.772-18.189-35.197-43.464-44.527
	C166.325,190.235,158.648,196.141,150.498,198.149L150.498,198.149z"/>
<path fill-rule="evenodd" clip-rule="evenodd" fill="#ADB8AA" d="M130.42,243.621c-1.299-0.709-2.599-1.417-3.898-2.244
	c-9.213,7.441-22.323,7.913-32.008,0.945c-5.315-3.78-8.858-9.331-10.394-15.354c-2.362,10.394,1.654,21.26,10.394,27.638
	c9.685,6.85,22.795,6.378,32.008-1.063c7.205,4.842,15.591,7.205,23.976,7.323c8.386-0.118,16.772-2.48,23.976-7.323
	c9.213,7.441,22.323,7.914,32.008,1.063c8.858-6.378,12.874-17.244,10.394-27.638c-1.535,6.024-5.079,11.575-10.394,15.354
	c-9.685,6.968-22.795,6.496-32.008-0.945c-1.181,0.827-2.48,1.535-3.898,2.244c-6.26,3.307-13.11,4.961-20.079,4.961
	C143.648,248.582,136.68,246.928,130.42,243.621L130.42,243.621z"/>
<path fill-rule="evenodd" clip-rule="evenodd" fill="#4E575E" d="M89.672,77.794l-4.37,10.512l-18.307,16.89
	c2.362-14.409-10.512-17.598-14.764-14.055c-11.102,8.268-24.803-0.591-18.189-7.205c0,0,5.906-7.087,21.496-23.15
	c5.197-5.906,10.984-5.551,17.362,0.827C72.9,61.613,78.451,67.046,89.672,77.794L89.672,77.794z"/>
<path fill-rule="evenodd" clip-rule="evenodd" fill="#99AAB2" d="M89.672,77.794L72.9,61.613
	c-6.378-6.378-12.165-6.732-17.362-0.827c-15.59,16.063-21.496,23.15-21.496,23.15c-3.307,3.307-1.535,7.205,2.48,9.213
	c3.071-3.425,9.094-10.039,19.016-20.433c5.197-5.787,10.984-5.551,17.362,0.945l10.512,10.158c1.89-1.653,3.78-3.189,5.669-4.606
	L89.672,77.794z"/>
<path fill-rule="evenodd" clip-rule="evenodd" fill="#4E575E" d="M211.207,77.794l4.488,10.512l18.189,16.89
	c-2.362-14.409,10.512-17.598,14.764-14.055c11.103,8.268,24.921-0.591,18.189-7.205c0,0-5.905-7.087-21.496-23.15
	c-5.079-5.906-10.866-5.551-17.244,0.827C228.097,61.613,222.428,67.046,211.207,77.794L211.207,77.794z"/>
<path fill-rule="evenodd" clip-rule="evenodd" fill="#99AAB2" d="M211.207,77.794l16.89-16.181
	c6.378-6.378,12.165-6.732,17.244-0.827c15.591,16.063,21.496,23.15,21.496,23.15c3.307,3.307,1.536,7.205-2.48,9.213
	c-2.953-3.425-8.976-10.039-19.016-20.433c-5.079-5.787-10.866-5.551-17.244,0.945l-10.63,10.158
	c-1.772-1.653-3.661-3.189-5.669-4.606L211.207,77.794z"/>
<path fill="#4E575E" d="M123.687,252.952c2.835-8.386,7.323-14.41,12.756-18.189c4.37-3.071,9.213-4.606,14.055-4.606
	s9.803,1.536,14.173,4.606c5.315,3.779,9.921,9.803,12.638,18.189l-3.779,1.181c-2.48-7.441-6.496-12.874-11.221-16.063
	c-3.661-2.599-7.677-3.898-11.811-3.898c-4.016,0-8.149,1.299-11.811,3.898c-4.606,3.189-8.622,8.622-11.102,16.063L123.687,252.952
	z"/>
<path fill="#4E575E" d="M59.199,181.259c4.961-9.094,11.457-17.244,19.016-24.331c7.795-7.086,16.772-13.11,26.339-17.48
	l1.653,3.661c-9.213,4.252-17.716,9.921-25.275,16.772c-7.323,6.732-13.465,14.646-18.189,23.268L59.199,181.259z"/>
<path fill="#4E575E" d="M132.546,143.109c0.354,1.063-0.236,2.244-1.299,2.48c-1.063,0.355-2.126-0.236-2.48-1.299
	c-1.417-4.843-4.016-9.094-7.441-12.52c-3.543-3.425-7.795-5.905-12.638-7.323c-4.842-1.299-9.803-1.417-14.527-0.354
	c-4.724,1.181-9.213,3.425-12.874,6.732c-0.827,0.827-2.126,0.709-2.835-0.118c-0.827-0.827-0.709-2.126,0.118-2.835
	c4.252-3.78,9.331-6.378,14.646-7.677c5.433-1.181,11.102-1.181,16.535,0.354c5.551,1.653,10.394,4.488,14.291,8.386
	C128.057,132.834,131.01,137.676,132.546,143.109L132.546,143.109z"/>
<path fill="#4E575E" d="M238.372,183.149c-4.724-8.622-10.984-16.535-18.307-23.268c-7.441-6.85-16.063-12.52-25.276-16.772
	l1.654-3.661c9.567,4.37,18.543,10.394,26.339,17.48c7.677,7.087,14.173,15.236,19.134,24.331L238.372,183.149z"/>
<path fill="#4E575E" d="M172.349,144.29c-0.354,1.063-1.535,1.654-2.598,1.299c-1.063-0.236-1.654-1.417-1.299-2.48
	c1.654-5.433,4.606-10.275,8.504-14.173c3.898-3.898,8.858-6.732,14.291-8.386c5.551-1.535,11.221-1.535,16.535-0.354
	c5.433,1.299,10.512,3.898,14.646,7.677c0.827,0.709,0.945,2.008,0.236,2.835c-0.827,0.827-2.008,0.945-2.834,0.118
	c-3.78-3.307-8.15-5.551-12.992-6.732c-4.724-1.063-9.685-0.945-14.528,0.354c-4.842,1.417-9.094,3.898-12.52,7.323
	C176.365,135.196,173.766,139.448,172.349,144.29L172.349,144.29z"/>
<path fill-rule="evenodd" clip-rule="evenodd" fill="#B4C2C7" d="M150.498,76.259c-21.85-12.756-44.055-9.685-61.417,2.953
	c-1.89,1.417-3.779,2.953-5.669,4.606c0,0,0,0,0,0.118c-6.496,5.787-12.047,12.992-16.417,21.26
	c-7.559,14.055-11.693,30.945-11.102,49.134c2.126-54.921,49.134-96.969,94.606-70.276c45.472-26.693,92.48,15.354,94.606,70.276
	c0.709-18.189-3.543-35.197-11.102-49.252h-0.118c0-0.118,0-0.118,0-0.118c-4.37-8.15-9.921-15.354-16.181-21.023
	c-0.118-0.118-0.118-0.118-0.236-0.118l0,0c-1.772-1.653-3.661-3.071-5.551-4.488c0-0.118-0.118-0.118-0.118-0.118v-0.118
	C194.436,66.456,172.231,63.503,150.498,76.259L150.498,76.259z"/>
<path fill-rule="evenodd" clip-rule="evenodd" fill="#FFFFFF" d="M108.806,140.629c4.724,0,8.504,3.78,8.504,8.386
	c0,4.724-3.779,8.504-8.504,8.504c-4.606,0-8.386-3.78-8.386-8.504C100.42,144.408,104.199,140.629,108.806,140.629L108.806,140.629
	z"/>
<path fill="#4E575E" d="M108.806,138.621c2.953,0,5.551,1.181,7.441,3.071l0,0c1.89,1.89,3.071,4.488,3.071,7.323
	c0,2.953-1.181,5.551-3.071,7.441l0,0c-1.89,1.89-4.488,3.071-7.441,3.071c-2.835,0-5.433-1.181-7.323-3.071l0,0
	c-1.89-1.89-3.071-4.488-3.071-7.441c0-2.835,1.181-5.433,3.071-7.323l0,0C103.372,139.802,105.971,138.621,108.806,138.621
	L108.806,138.621z M113.412,144.527c-1.181-1.181-2.835-1.89-4.606-1.89c-1.772,0-3.307,0.708-4.488,1.89l0,0
	c-1.181,1.063-1.89,2.716-1.89,4.488c0,1.772,0.709,3.425,1.89,4.606l0,0c1.181,1.181,2.717,1.89,4.488,1.89
	c1.772,0,3.425-0.708,4.606-1.89l0,0c1.181-1.181,1.89-2.835,1.89-4.606C115.302,147.243,114.593,145.59,113.412,144.527
	L113.412,144.527z"/>
<path fill-rule="evenodd" clip-rule="evenodd" fill="#4E575E" d="M108.806,146.771c1.299,0,2.362,0.945,2.362,2.244
	c0,1.299-1.063,2.362-2.362,2.362s-2.244-1.063-2.244-2.362C106.561,147.716,107.506,146.771,108.806,146.771L108.806,146.771z"/>
<path fill-rule="evenodd" clip-rule="evenodd" fill="#FFFFFF" d="M192.309,140.629c4.606,0,8.386,3.78,8.386,8.386
	c0,4.724-3.779,8.504-8.386,8.504c-4.724,0-8.504-3.78-8.504-8.504C183.805,144.408,187.585,140.629,192.309,140.629
	L192.309,140.629z"/>
<path fill="#4E575E" d="M192.309,138.621c2.835,0,5.433,1.181,7.323,3.071l0,0c1.889,1.89,3.071,4.488,3.071,7.323
	c0,2.953-1.181,5.551-3.071,7.441l0,0c-1.89,1.89-4.488,3.071-7.323,3.071c-2.953,0-5.551-1.181-7.441-3.071l0,0
	c-1.89-1.89-3.071-4.488-3.071-7.441c0-2.835,1.181-5.433,3.071-7.323l0,0C186.758,139.802,189.357,138.621,192.309,138.621
	L192.309,138.621z M196.798,144.527c-1.063-1.181-2.717-1.89-4.488-1.89s-3.425,0.708-4.606,1.89l0,0
	c-1.181,1.063-1.89,2.716-1.89,4.488c0,1.772,0.709,3.425,1.89,4.606l0,0c1.181,1.181,2.835,1.89,4.606,1.89s3.425-0.708,4.488-1.89
	l0,0c1.181-1.181,1.89-2.835,1.89-4.606C198.687,147.243,197.979,145.59,196.798,144.527L196.798,144.527z"/>
<path fill-rule="evenodd" clip-rule="evenodd" fill="#4E575E" d="M192.309,146.771c1.299,0,2.244,0.945,2.244,2.244
	c0,1.299-0.945,2.362-2.244,2.362c-1.299,0-2.362-1.063-2.362-2.362C189.947,147.716,191.01,146.771,192.309,146.771
	L192.309,146.771z"/>
<path fill-rule="evenodd" clip-rule="evenodd" fill="#83949C" d="M228.215,207.597c-10.63,11.693-10.984,19.961-10.984,19.961
	c-6.26-32.008-34.252-55.039-66.85-55.039c-31.299,0-58.346,21.26-66.024,51.378c-0.118,0.355-13.228-19.488-12.874-20.079
	c16.417-27.874,46.417-45.236,79.134-45.236c32.953,0,63.071,17.48,79.488,45.709C231.168,206.062,227.27,205.59,228.215,207.597
	L228.215,207.597z"/>
<path fill="#4E575E" d="M73.254,205.944c-0.354,1.063-1.535,1.654-2.598,1.181c-1.063-0.354-1.535-1.535-1.181-2.48
	c2.244-6.142,5.551-11.811,9.685-16.654c4.016-4.961,8.976-9.212,14.528-12.52c0.945-0.59,2.244-0.236,2.716,0.708
	c0.591,0.945,0.354,2.126-0.59,2.717c-5.197,3.071-9.803,7.087-13.583,11.575C78.333,195.078,75.38,200.275,73.254,205.944
	L73.254,205.944z"/>
<path fill="#4E575E" d="M217.113,225.55l-3.307-1.299l-0.236-1.063c-1.654-8.504-6.378-17.362-14.055-25.276
	c-6.968-7.205-16.417-13.465-27.992-17.835l-0.236-0.118l-0.473-0.236l1.89-3.543l0.236,0.118
	c12.283,4.606,22.087,11.22,29.528,18.779c7.913,8.149,12.874,17.362,14.882,26.22l1.181,0.472L217.113,225.55z"/>
<path fill="#4E575E" d="M81.994,222.716l1.654-1.299c1.89-8.976,6.968-18.307,15-26.575c7.323-7.559,17.244-14.173,29.527-18.779
	l0.945-0.118l1.063,0.118l-0.354,4.016h-0.709c-11.457,4.252-20.669,10.512-27.638,17.599c-7.677,7.913-12.402,16.772-14.055,25.276
	l-0.709,1.181l-2.244,1.772L81.994,222.716z"/>
<rect x="148.491" y="198.149" fill="#4E575E" width="4.016" height="32.953"/>
<path fill="#4E575E" d="M110.695,241.849c-0.591,1.063-1.772,1.418-2.717,0.945c-1.063-0.473-1.417-1.654-0.945-2.717
	c4.134-8.268,10.394-14.882,17.953-19.606c7.559-4.724,16.299-7.323,25.512-7.323c9.213,0,18.071,2.599,25.63,7.323
	c7.441,4.724,13.701,11.339,17.835,19.606c0.473,1.063,0.118,2.244-0.827,2.717c-1.063,0.473-2.244,0.118-2.717-0.945
	c-3.779-7.559-9.567-13.701-16.417-17.953c-6.968-4.252-15-6.732-23.504-6.732c-8.386,0-16.535,2.48-23.386,6.732
	C120.144,228.149,114.475,234.29,110.695,241.849L110.695,241.849z"/>
<path fill="#4E575E" d="M231.522,204.645c0.473,0.945-0.118,2.126-1.181,2.48c-1.063,0.473-2.126-0.118-2.598-1.181
	c-2.008-5.669-5.079-10.866-8.858-15.472c-3.779-4.488-8.386-8.504-13.583-11.575c-0.945-0.59-1.299-1.771-0.708-2.717
	c0.59-0.945,1.772-1.299,2.716-0.708c5.551,3.307,10.512,7.559,14.646,12.52C226.089,192.834,229.278,198.503,231.522,204.645
	L231.522,204.645z"/>
<path fill-rule="evenodd" clip-rule="evenodd" fill="#394854" d="M170.459,173.346c-12.284-7.323-27.638-7.323-39.921,0
	c-2.126,1.417-2.953,4.252-1.654,6.496c5.787,10.393,13.583,16.181,21.614,18.307c8.15-2.008,15.827-7.913,21.614-18.307
	C173.412,177.597,172.703,174.763,170.459,173.346L170.459,173.346z"/>
<path fill-rule="evenodd" clip-rule="evenodd" fill="#586269" d="M170.459,171.81c-12.284-7.323-27.638-7.323-39.921,0
	c-0.827,0.591-1.535,1.299-1.89,2.244c6.142,9.449,13.937,15,21.85,17.126c8.15-2.126,15.827-7.677,21.85-17.126
	C171.995,173.109,171.286,172.401,170.459,171.81L170.459,171.81z"/>
<path fill="#4E575E" d="M150.026,200.156c-4.488-1.181-8.858-3.425-12.874-6.968c-3.661-3.071-7.087-7.205-10.039-12.402
	c-0.827-1.654-1.063-3.425-0.59-5.079c0.354-1.654,1.417-3.071,3.071-4.016l0,0c6.378-3.898,13.701-5.905,20.906-5.905
	c7.323,0,14.528,2.008,21.024,5.905l0,0c1.535,0.945,2.598,2.362,3.071,4.016c0.354,1.654,0.236,3.425-0.709,5.079
	c-2.953,5.197-6.26,9.449-10.039,12.52c-4.016,3.425-8.386,5.669-12.874,6.85H150.026z M139.75,190.117
	c3.425,2.953,7.087,4.842,10.748,6.024c3.78-1.063,7.441-2.953,10.748-5.787c3.425-2.953,6.496-6.732,9.213-11.575
	c0.354-0.59,0.354-1.299,0.236-2.008c-0.236-0.708-0.59-1.299-1.299-1.654l0,0c-5.787-3.543-12.283-5.315-18.898-5.315
	c-6.496,0-13.11,1.772-18.898,5.315l0,0c-0.591,0.355-1.063,0.945-1.181,1.654c-0.236,0.709-0.118,1.418,0.236,2.008
	C133.254,183.621,136.325,187.283,139.75,190.117L139.75,190.117z"/>
</svg>
