<?xml version="1.0" encoding="utf-8"?>
<!-- Generator: Adobe Illustrator 24.3.0, SVG Export Plug-In . SVG Version: 6.00 Build 0)  -->
<svg version="1.1" id="Layer_1" xmlns="http://www.w3.org/2000/svg" xmlns:xlink="http://www.w3.org/1999/xlink" x="0px" y="0px"
	 viewBox="0 0 300 300" enable-background="new 0 0 300 300" xml:space="preserve">
<path fill-rule="evenodd" clip-rule="evenodd" fill="#FBDBCD" d="M107.683,188.877l86.575-0.473
	c18.071-8.504,30.473-25.984,32.598-45.945c2.008-19.961-6.496-39.449-22.559-51.496c-6.378-27.402-30.59-52.087-53.74-52.323
	c-22.677-0.354-49.488,22.913-53.74,52.323c-16.063,12.047-24.685,31.535-22.559,51.496
	C76.266,162.42,89.495,180.373,107.683,188.877L107.683,188.877z"/>
<path fill-rule="evenodd" clip-rule="evenodd" fill="#C45525" d="M102.605,116.83c2.717,2.48,6.732,3.78,11.929,3.307
	c-0.236-4.724-1.535-8.386-3.661-10.748C103.55,101.593,94.337,108.916,102.605,116.83L102.605,116.83z"/>
<path fill-rule="evenodd" clip-rule="evenodd" fill="#C45525" d="M198.392,116.83c-2.598,2.48-6.732,3.78-11.929,3.307
	c0.236-4.724,1.535-8.386,3.779-10.748C197.565,101.593,206.778,108.916,198.392,116.83L198.392,116.83z"/>
<path fill-rule="evenodd" clip-rule="evenodd" fill="#FBE8DF" d="M204.298,90.964c-6.378-27.402-30.59-52.087-53.74-52.323
	c-22.677-0.354-49.488,22.913-53.74,52.323c-16.063,12.047-24.685,31.535-22.559,51.496c0,0.118,0,0.236,0,0.354
	c1.654-15.591,9.685-30,22.559-39.567c4.252-29.409,31.063-52.559,53.74-52.323c23.15,0.236,47.362,24.921,53.74,52.323
	c10.158,7.559,17.244,18.189,20.669,30c0.118-2.717,0.472-5.315,0.945-7.913C223.195,111.751,215.636,99.468,204.298,90.964
	L204.298,90.964z"/>
<path fill-rule="evenodd" clip-rule="evenodd" fill="#FCA883" d="M126.581,127.814c-11.575,36.732-48.898,119.055,11.693,131.811
	c5.551,1.181,20.197,1.181,25.748,0c60.473-12.756,23.15-95.079,11.575-131.811C154.573,156.633,148.55,157.932,126.581,127.814
	L126.581,127.814z"/>
<path fill-rule="evenodd" clip-rule="evenodd" fill="#FF9466" d="M114.18,188.877c4.252-19.134,11.929-38.504,15.945-51.378
	c0.59-0.945,1.181-1.89,1.654-2.716c-1.535-2.126-3.307-4.37-5.197-6.968c-4.724,15.236-14.055,38.386-18.898,61.063
	c-6.85,32.008-4.842,63.307,30.591,70.748c0.709,0.118,1.535,0.236,2.48,0.354c0.473,0.118,1.063,0.118,1.535,0.118l0,0
	c4.961,0.473,10.039,0.591,15.118,0.236c1.417-0.118,2.835-0.236,4.016-0.354l0,0c0.945-0.118,1.89-0.236,2.598-0.354
	c35.551-7.559,37.323-39.094,30.354-71.339c-4.842-22.559-13.937-45.354-18.78-60.472c-2.008,2.716-3.779,5.197-5.551,7.441
	c0.709,0.709,1.299,1.535,2.008,2.244c4.016,12.756,11.693,31.89,15.827,50.906c6.142,27.756,4.961,55.157-25.748,61.654
	c-0.236,0-0.473,0.118-0.709,0.118c-4.961,0.827-15.709,0.827-20.669,0c-0.236,0-0.472-0.118-0.709-0.118
	C109.573,243.562,108.156,216.397,114.18,188.877L114.18,188.877z"/>
<path fill="#C45525" d="M133.668,168.208c0.236-1.063,1.181-1.772,2.362-1.654c1.063,0.118,1.772,1.181,1.654,2.244l-2.48,17.244
	c-0.118,1.181-1.181,1.89-2.244,1.772c-1.181-0.236-1.89-1.181-1.772-2.244L133.668,168.208z"/>
<path fill="#C45525" d="M164.495,168.798c-0.118-1.063,0.59-2.126,1.772-2.244c1.063-0.118,2.126,0.591,2.244,1.654l2.48,17.362
	c0.236,1.063-0.591,2.008-1.654,2.244c-1.181,0.118-2.126-0.591-2.244-1.772L164.495,168.798z"/>
<path fill-rule="evenodd" clip-rule="evenodd" fill="#FFFFFF" d="M140.754,259.979c6.85,0.709,13.819,0.709,20.669,0v-14.882
	c0-5.669-4.606-10.276-10.276-10.276s-10.394,4.606-10.394,10.276V259.979z"/>
</svg>
