<?xml version="1.0" encoding="utf-8"?>
<!-- Generator: Adobe Illustrator 24.3.0, SVG Export Plug-In . SVG Version: 6.00 Build 0)  -->
<svg version="1.1" id="Layer_1" xmlns="http://www.w3.org/2000/svg" xmlns:xlink="http://www.w3.org/1999/xlink" x="0px" y="0px"
	 viewBox="0 0 300 300" enable-background="new 0 0 300 300" xml:space="preserve">
<path fill-rule="evenodd" clip-rule="evenodd" fill="#999999" d="M86.246,83.109c-6.496,12.52-10.984,27.992-14.291,45.945
	c-8.032,44.764,0.236,86.339-34.606,122.126c13.346-0.827,27.047-9.331,41.102-25.512c2.953,10.394,10.512,21.378,22.913,26.693
	c12.165-4.724,19.252-14.764,24.803-26.22c4.016,16.181,14.764,25.394,24.331,27.756c9.567-2.362,20.433-11.575,24.449-27.756
	c5.551,11.457,12.52,21.496,24.685,26.22c12.52-5.315,19.96-16.299,23.031-26.693c13.937,16.181,27.638,24.685,40.984,25.512
	c-34.724-35.787-26.575-77.362-34.606-122.126c-3.189-17.598-7.559-32.835-13.937-45.236
	c-12.165-23.622-31.654-37.087-64.606-38.622C117.9,46.731,98.412,59.96,86.246,83.109L86.246,83.109z"/>
<path fill-rule="evenodd" clip-rule="evenodd" fill="#B8B8B8" d="M82.703,131.889c2.598-14.528,6.142-27.047,11.22-37.559
	c-2.717-3.543-5.315-7.323-7.677-11.221c-6.496,12.52-10.984,27.992-14.291,45.945c-6.024,33.779-2.835,65.787-15.945,94.843
	c4.134-2.362,8.386-5.433,12.52-9.213C80.223,189.409,77.388,161.416,82.703,131.889L82.703,131.889z"/>
<path fill-rule="evenodd" clip-rule="evenodd" fill="#B8B8B8" d="M229.042,129.054c-3.189-17.598-7.559-32.835-13.937-45.236
	c-2.362,3.898-4.961,7.559-7.677,11.102c4.843,10.394,8.386,22.677,10.866,36.969c5.433,29.527,2.48,57.52,14.173,82.795
	c4.252,3.78,8.386,6.85,12.52,9.213C231.994,194.842,235.184,162.834,229.042,129.054L229.042,129.054z"/>
<path fill-rule="evenodd" clip-rule="evenodd" fill="#B8B8B8" d="M215.105,83.818c-12.165-23.622-31.654-37.087-64.606-38.622
	C117.9,46.731,98.412,59.96,86.246,83.109c2.362,3.898,4.961,7.677,7.677,11.221c0.354-0.709,0.709-1.417,1.181-2.126
	c10.512-19.96,27.283-31.535,55.394-32.835c28.465,1.299,45.354,13.11,55.748,33.425c0.473,0.709,0.827,1.418,1.181,2.126
	C210.144,91.377,212.742,87.716,215.105,83.818L215.105,83.818z"/>
<path fill-rule="evenodd" clip-rule="evenodd" fill="#FC9628" d="M139.868,129.172c-6.26,24.095-14.764,32.598-33.189,38.976
	c-0.236,0.118-0.354,0.354-0.236,0.472c0,0.236,0.118,0.473,0.354,0.473c26.575,2.835,39.213,18.543,43.347,42.992
	c0,0.236,0.118,0.354,0.354,0.354c0.236,0,0.473-0.118,0.473-0.354c4.016-24.449,16.771-40.158,43.346-42.992
	c0.118,0,0.354-0.236,0.354-0.473c0-0.118-0.118-0.354-0.354-0.472c-18.307-6.378-26.929-14.882-33.189-38.976
	c-1.299-5.905-5.787-10.512-10.63-10.512c-5.787,0-8.858,5.079-10.512,10.394C139.987,129.172,139.987,129.172,139.868,129.172
	L139.868,129.172z"/>
<path fill-rule="evenodd" clip-rule="evenodd" fill="#FDBC2A" d="M135.971,141.456c-2.126,15.118-0.709,29.409,4.134,44.882
	c4.842,6.496,8.031,14.646,9.685,24.213c0.236,0.59,0.473,1.063,0.709,1.535c0.236-0.59,0.473-1.063,0.709-1.535
	c1.772-9.331,4.725-17.244,9.331-23.622c4.961-15.827,6.614-30.473,4.252-46.063c-1.299-3.425-2.48-7.323-3.661-11.693
	c-1.299-5.905-5.787-10.512-10.63-10.512c-5.787,0-8.858,5.079-10.512,10.394c0,0.118,0,0.118-0.118,0.118
	C138.687,133.779,137.388,137.794,135.971,141.456L135.971,141.456z"/>
<path fill-rule="evenodd" clip-rule="evenodd" fill="#FAC957" d="M144.829,141.456c-0.827,15.118-0.236,29.409,1.654,44.882
	c1.772,6.496,3.071,14.646,3.661,24.213c0.118,0.59,0.236,1.063,0.354,1.535c0-0.59,0.118-1.063,0.236-1.535
	c0.709-9.331,1.772-17.244,3.543-23.622c2.008-15.827,2.598-30.473,1.654-46.063c-0.473-3.425-0.945-7.323-1.417-11.693
	c-0.472-5.905-2.244-10.512-4.016-10.512c-2.244,0-3.425,5.079-4.134,10.394c0,0.118,0,0.118,0,0.118
	C145.892,133.779,145.42,137.794,144.829,141.456L144.829,141.456z"/>
<path fill="#424242" d="M88.018,82.164c6.142,10.157,13.819,19.37,22.795,26.929c8.977,7.677,19.134,13.819,30.236,18.307
	l-1.535,3.661c-11.457-4.606-22.087-10.984-31.299-18.898c-8.977-7.677-16.772-16.772-23.032-26.929
	c0.59-1.063,1.299-2.48,2.244-4.252L88.018,82.164z"/>
<path fill="#424242" d="M132.9,124.448c0.236,1.063-0.354,2.244-1.535,2.48c-1.063,0.236-2.126-0.354-2.362-1.417
	c-2.008-8.032-5.433-15.354-10.039-21.85c-4.725-6.732-10.866-12.638-17.953-17.717c-0.945-0.591-1.181-1.89-0.472-2.716
	c0.59-0.945,1.89-1.181,2.716-0.472c7.559,5.315,13.937,11.457,19.016,18.543C127.113,108.267,130.774,115.944,132.9,124.448
	L132.9,124.448z"/>
<path fill="#424242" d="M172.821,125.511c-0.236,1.063-1.417,1.653-2.48,1.417c-1.063-0.236-1.654-1.417-1.417-2.48
	c2.126-8.504,5.787-16.181,10.63-23.15c5.079-7.087,11.457-13.228,19.016-18.543c0.827-0.709,2.126-0.472,2.716,0.472
	c0.709,0.827,0.473,2.126-0.472,2.716c-7.205,5.079-13.228,10.984-17.953,17.717C178.254,110.156,174.829,117.479,172.821,125.511
	L172.821,125.511z"/>
<path fill-rule="evenodd" clip-rule="evenodd" fill="#FFFFFF" d="M103.727,105.432c5.315,5.551,11.339,10.394,17.953,14.291
	c-1.535,5.079-6.26,8.622-11.693,8.622c-5.905,0.118-11.102-4.134-12.165-10.039C96.876,113.109,99.239,108.03,103.727,105.432
	L103.727,105.432z"/>
<path fill="#424242" d="M105.144,104.015c2.598,2.717,5.433,5.315,8.268,7.559c2.953,2.362,6.024,4.488,9.331,6.378l1.299,0.827
	l-0.472,1.535c-0.827,2.953-2.717,5.433-5.079,7.205c-2.362,1.772-5.315,2.835-8.504,2.835c-3.425,0-6.614-1.181-9.213-3.307
	c-2.48-2.008-4.252-4.961-4.961-8.386c-0.591-2.953-0.118-5.905,1.063-8.622c1.181-2.598,3.189-4.843,5.787-6.378l1.417-0.827
	L105.144,104.015z M110.931,114.763c-2.598-2.126-5.079-4.37-7.441-6.732c-1.299,0.945-2.244,2.244-2.953,3.779
	c-0.827,1.772-1.181,4.016-0.709,6.142c0.472,2.48,1.772,4.606,3.543,6.024c1.772,1.535,4.134,2.362,6.614,2.362
	c2.244,0,4.37-0.709,6.024-2.008c1.417-0.945,2.48-2.244,3.189-3.78C116.365,118.779,113.53,116.889,110.931,114.763
	L110.931,114.763z"/>
<path fill-rule="evenodd" clip-rule="evenodd" fill="#424242" d="M108.806,111.338l6.496,5.315
	c-0.354,2.362-2.362,4.016-4.724,4.134c-2.362,0-4.488-1.654-4.842-4.016C105.262,114.409,106.561,112.164,108.806,111.338
	L108.806,111.338z"/>
<path fill="#424242" d="M216.168,85.944c-6.142,9.921-13.819,18.779-22.559,26.22c-9.331,7.913-19.842,14.291-31.417,18.898
	l-1.417-3.661c11.102-4.488,21.26-10.63,30.236-18.307c8.976-7.559,16.653-16.772,22.795-26.929l0.118-0.472
	C214.868,83.464,215.577,84.881,216.168,85.944L216.168,85.944z"/>
<path fill-rule="evenodd" clip-rule="evenodd" fill="#FFFFFF" d="M198.569,105.432c-5.315,5.551-11.221,10.394-17.953,14.291
	c1.535,5.079,6.26,8.622,11.693,8.622c5.906,0.118,11.103-4.134,12.165-10.039C205.538,113.109,203.057,108.03,198.569,105.432
	L198.569,105.432z"/>
<path fill="#424242" d="M198.924,108.03c-2.48,2.362-4.961,4.606-7.559,6.732c-2.599,2.126-5.315,4.016-8.268,5.787
	c0.709,1.535,1.89,2.835,3.189,3.78c1.654,1.299,3.78,2.008,6.023,2.008c2.48,0,4.843-0.827,6.614-2.362
	c1.89-1.418,3.189-3.543,3.662-6.024c0.354-2.126,0-4.37-0.827-6.142C201.168,110.275,200.105,108.975,198.924,108.03
	L198.924,108.03z M188.884,111.574c2.953-2.244,5.669-4.842,8.268-7.559l1.063-1.181l1.417,0.827
	c2.598,1.535,4.606,3.78,5.787,6.378c1.181,2.716,1.653,5.669,1.063,8.622c-0.59,3.425-2.48,6.378-4.961,8.386
	c-2.599,2.126-5.787,3.307-9.213,3.307c-3.189,0-6.023-1.063-8.504-2.835c-2.362-1.772-4.134-4.252-5.079-7.205l-0.472-1.535
	l1.299-0.827C182.861,116.062,185.931,113.936,188.884,111.574L188.884,111.574z"/>
<path fill-rule="evenodd" clip-rule="evenodd" fill="#424242" d="M193.491,111.338l-6.496,5.315
	c0.354,2.362,2.362,4.016,4.724,4.134c2.48,0,4.488-1.654,4.961-4.016C197.034,114.409,195.735,112.164,193.491,111.338
	L193.491,111.338z"/>
<path fill-rule="evenodd" clip-rule="evenodd" fill="#424242" d="M101.365,231.219c-12.401-5.315-19.961-16.417-22.913-26.693
	c-7.559,8.622-15,15.118-22.441,19.37c-4.134,9.449-10.158,18.543-18.661,27.283c13.346-0.827,27.047-9.331,41.102-25.512
	c2.953,10.394,10.512,21.378,22.913,26.693c12.165-4.724,19.252-14.764,24.803-26.22c4.016,16.181,14.764,25.394,24.331,27.756
	c9.567-2.362,20.433-11.575,24.449-27.756c5.551,11.457,12.52,21.496,24.685,26.22c12.52-5.315,19.96-16.299,23.031-26.693
	c13.937,16.181,27.638,24.685,40.984,25.512c-8.504-8.74-14.409-17.835-18.662-27.283c-7.323-4.252-14.764-10.748-22.323-19.37
	c-3.071,10.276-10.512,21.378-23.031,26.693c-12.166-4.842-19.134-14.882-24.685-26.338c-4.016,16.299-14.882,25.394-24.449,27.756
	c-9.567-2.362-20.315-11.457-24.331-27.756C120.617,216.337,113.53,226.377,101.365,231.219L101.365,231.219z"/>
</svg>
