<?xml version="1.0" encoding="utf-8"?>
<!-- Generator: Adobe Illustrator 24.3.0, SVG Export Plug-In . SVG Version: 6.00 Build 0)  -->
<svg version="1.1" id="Layer_1" xmlns="http://www.w3.org/2000/svg" xmlns:xlink="http://www.w3.org/1999/xlink" x="0px" y="0px"
	 viewBox="0 0 300 300" enable-background="new 0 0 300 300" xml:space="preserve">
<path fill-rule="evenodd" clip-rule="evenodd" fill="#99AAB2" d="M190.774,180.846c93.898-28.701,75.118-136.654-4.961-132.047
	c-21.614-17.953-51.024-17.953-72.52,0c-77.126-7.205-96.968,101.102-3.898,132.756C129.475,186.633,160.42,190.176,190.774,180.846
	L190.774,180.846z"/>
<path fill="#668796" d="M117.9,96.16c2.126,0,4.016,0.827,5.433,2.244c1.417,1.417,2.244,3.307,2.244,5.433
	c0,2.126-0.827,4.134-2.244,5.551c-1.417,1.299-3.307,2.244-5.433,2.244c-2.126,0-4.016-0.945-5.433-2.244
	c-1.417-1.417-2.244-3.425-2.244-5.551c0-2.126,0.827-4.016,2.244-5.433C113.884,96.987,115.774,96.16,117.9,96.16L117.9,96.16z
	 M120.498,101.239c-0.591-0.59-1.535-1.063-2.598-1.063c-1.063,0-1.89,0.473-2.598,1.063c-0.709,0.709-1.063,1.654-1.063,2.598
	c0,1.063,0.354,2.008,1.063,2.716c0.709,0.591,1.535,1.063,2.598,1.063c1.063,0,2.008-0.472,2.598-1.063
	c0.709-0.708,1.063-1.653,1.063-2.716C121.561,102.893,121.207,101.948,120.498,101.239L120.498,101.239z"/>
<path fill="#668796" d="M181.207,100.176c-1.063,0-2.008,0.473-2.717,1.063c-0.59,0.709-1.063,1.654-1.063,2.598
	c0,1.063,0.473,2.008,1.063,2.716c0.709,0.591,1.653,1.063,2.717,1.063c0.945,0,1.89-0.472,2.598-1.063
	c0.709-0.708,1.063-1.653,1.063-2.716c0-0.945-0.354-1.89-1.063-2.598C183.097,100.531,182.152,100.176,181.207,100.176
	L181.207,100.176z M175.656,98.405c1.417-1.417,3.425-2.244,5.551-2.244c2.126,0,4.016,0.827,5.433,2.244l0,0
	c1.417,1.417,2.244,3.307,2.244,5.433c0,2.126-0.827,4.134-2.244,5.551l0,0c-1.417,1.299-3.307,2.244-5.433,2.244
	c-2.126,0-4.134-0.945-5.551-2.244l0,0c-1.299-1.417-2.244-3.425-2.244-5.551C173.412,101.712,174.357,99.822,175.656,98.405
	L175.656,98.405z"/>
<path fill-rule="evenodd" clip-rule="evenodd" fill="#668796" d="M112.585,48.68c-19.724-1.654-35.669,4.252-46.89,14.528
	c-12.756,11.693-19.37,29.055-18.425,47.244c0.118,0.945,0.236,1.772,0.354,2.716c3.307-29.764,27.402-54.567,65.669-51.024
	c21.496-17.835,50.905-17.835,72.52,0c36.142-2.008,59.764,18.779,66.26,45c0.59,2.599,1.063,5.315,1.417,8.032
	c1.417-13.346-1.417-26.575-8.15-37.677c-4.488-7.559-10.748-14.173-18.543-19.134l0,0c-10.63-6.614-23.976-10.394-39.921-9.685
	c-0.354,0.118-0.709,0.118-1.063,0.118c-21.614-17.953-51.024-17.953-72.52,0C113.058,48.798,112.821,48.798,112.585,48.68
	L112.585,48.68z"/>
<path fill="#668796" d="M192.191,65.688c6.614,5.433,11.811,12.165,15.354,19.724c3.543,7.559,5.433,15.945,5.433,24.449
	c0,8.504-1.89,16.89-5.433,24.449c-3.543,7.559-8.74,14.291-15.354,19.724l-2.48-3.071c6.024-5.079,10.866-11.339,14.173-18.425
	c3.307-6.969,5.079-14.764,5.079-22.677c0-7.913-1.772-15.709-5.079-22.677c-3.307-7.087-8.15-13.346-14.173-18.425L192.191,65.688z
	"/>
<path fill-rule="evenodd" clip-rule="evenodd" fill="#99AAB2" d="M129.357,148.719c11.693-9.803,28.701-9.803,40.394,0
	c-4.252,33.543-4.606,69.567-0.945,108.071c-4.252,11.457-15.354,11.339-19.252-2.953c-3.898,14.291-15.118,14.41-19.252,2.953
	C133.845,218.286,133.491,182.263,129.357,148.719L129.357,148.719z"/>
<path fill="#668796" d="M130.774,163.956c5.551-4.724,12.165-6.969,18.779-6.969c6.614,0,13.228,2.362,18.898,7.087
	c-0.118,1.771-0.236,3.425-0.354,5.197c-0.236-0.354-0.473-0.591-0.709-0.827c-5.197-4.961-11.575-7.441-17.835-7.441
	c-6.26,0-12.638,2.48-17.835,7.441c-0.236,0.236-0.354,0.472-0.59,0.59C131.01,167.381,130.892,165.727,130.774,163.956
	L130.774,163.956z"/>
<path fill="#668796" d="M131.955,182.971c5.197-4.134,11.22-6.142,17.244-6.024c6.378,0,12.638,2.362,18.071,7.087
	c-0.118,1.299-0.118,2.599-0.236,3.898l-0.709,0.827l-0.473-0.472c-4.842-4.843-10.748-7.323-16.653-7.323
	c-5.906-0.118-11.929,2.244-16.772,6.968l-0.236,0.236C132.073,186.515,132.073,184.743,131.955,182.971L131.955,182.971z"/>
<path fill="#668796" d="M132.546,202.696c5.079-4.016,10.866-6.024,16.654-6.024c6.142,0,12.283,2.244,17.48,6.732
	c0,1.417,0,2.835,0,4.252l-0.709,0.591c-0.236-0.236-0.472-0.472-0.709-0.709c-4.724-4.606-10.394-6.85-16.063-6.85
	s-11.457,2.244-16.181,6.85c-0.118,0.118-0.236,0.236-0.354,0.472C132.546,206.239,132.546,204.468,132.546,202.696L132.546,202.696
	z"/>
<path fill="#668796" d="M132.428,222.184c5.079-3.898,10.866-5.906,16.772-5.906c6.142,0,12.283,2.244,17.598,6.614
	c0,1.536,0,3.071,0.118,4.606l-0.59,0.473c-0.236-0.236-0.473-0.473-0.827-0.709c-4.724-4.606-10.512-6.968-16.299-6.968
	s-11.575,2.362-16.417,6.968c-0.118,0.118-0.354,0.236-0.473,0.473C132.428,225.963,132.428,224.074,132.428,222.184
	L132.428,222.184z"/>
<path fill="#668796" d="M131.601,241.908c5.315-4.134,11.457-6.142,17.598-6.142c6.496,0,12.992,2.244,18.543,6.85
	c0,1.654,0.118,3.307,0.354,4.842l-0.591,0.473c-0.236-0.236-0.59-0.473-0.827-0.827c-5.197-4.842-11.339-7.323-17.48-7.323
	c-6.26,0-12.402,2.48-17.48,7.323c-0.236,0.236-0.354,0.354-0.59,0.473C131.365,245.806,131.483,243.916,131.601,241.908
	L131.601,241.908z"/>
<path fill="#668796" d="M109.396,68.759c-6.142,5.079-10.866,11.339-14.173,18.425c-3.307,6.968-5.079,14.764-5.079,22.677
	c0,7.913,1.772,15.709,5.079,22.677c3.307,7.087,8.031,13.346,14.173,18.425l-2.598,3.071c-6.496-5.433-11.693-12.165-15.236-19.724
	c-3.543-7.559-5.433-15.945-5.433-24.449c0-8.504,1.89-16.89,5.433-24.449c3.543-7.559,8.74-14.291,15.236-19.724L109.396,68.759z"
	/>
<path fill-rule="evenodd" clip-rule="evenodd" fill="#CCCCCC" d="M131.719,178.365l-2.362-29.646
	c-4.37-8.268-19.252-5.669-21.26,3.78c4.961,34.252-1.299,62.126-19.016,83.504c-1.299,2.244-2.126,4.606,2.008,3.425
	C115.065,224.074,128.648,203.641,131.719,178.365L131.719,178.365z"/>
<path fill-rule="evenodd" clip-rule="evenodd" fill="#DDDDDD" d="M88.491,237.066c26.457-23.149,37.087-59.291,27.874-92.717
	c-3.898,1.063-7.323,4.016-8.268,8.15c4.961,34.252-1.299,62.126-19.016,83.504C88.845,236.357,88.727,236.712,88.491,237.066
	L88.491,237.066z"/>
<path fill-rule="evenodd" clip-rule="evenodd" fill="#CCCCCC" d="M167.979,178.365l2.362-29.646c4.37-8.268,19.252-5.669,21.26,3.78
	c-4.961,34.252,1.299,62.126,19.016,83.504c1.299,2.244,2.126,4.606-2.008,3.425C184.632,224.074,171.049,203.641,167.979,178.365
	L167.979,178.365z"/>
<path fill-rule="evenodd" clip-rule="evenodd" fill="#DDDDDD" d="M211.207,237.066c-26.457-23.149-37.087-59.291-27.874-92.717
	c3.898,1.063,7.323,4.016,8.268,8.15c-4.961,34.252,1.299,62.126,19.016,83.504C210.853,236.357,210.971,236.712,211.207,237.066
	L211.207,237.066z"/>
</svg>
