<?xml version="1.0" encoding="utf-8"?>
<!-- Generator: Adobe Illustrator 24.3.0, SVG Export Plug-In . SVG Version: 6.00 Build 0)  -->
<svg version="1.1" id="Layer_1" xmlns="http://www.w3.org/2000/svg" xmlns:xlink="http://www.w3.org/1999/xlink" x="0px" y="0px"
	 viewBox="0 0 300 300" enable-background="new 0 0 300 300" xml:space="preserve">
<path fill-rule="evenodd" clip-rule="evenodd" fill="#F24D1F" d="M151.03,247.637c3.071,0.354,6.378-0.591,10.512-3.071
	l99.213-74.055c1.299-1.063,2.126-2.362,2.362-4.016c0.118-1.772-0.236-3.189-1.417-4.488l-41.457-49.724l18.425-50.315
	c0.827-2.834,0.118-5.905-2.008-8.031c-2.126-2.126-5.197-2.835-8.032-2.008l-47.126,21.85c-21.614-8.15-39.449-8.15-61.063,0
	l-47.126-21.85c-2.835-0.827-5.906-0.118-8.032,2.008c-2.008,2.126-2.835,5.197-2.008,8.031l18.543,50.315l-41.575,49.724
	c-1.063,1.299-1.535,2.717-1.299,4.488c0.118,1.654,0.945,2.953,2.244,4.016l99.213,74.055
	C144.534,247.046,147.841,247.991,151.03,247.637L151.03,247.637z"/>
<path fill-rule="evenodd" clip-rule="evenodd" fill="#E6E6E6" d="M38.943,166.968c21.024-32.008,57.756-52.913,96.142-52.441
	c-0.827,36.614-1.181,55.039-1.181,55.039c-24.921,28.11-37.441,42.165-37.441,42.165l-56.339-42.165
	C40.124,169.566,37.762,168.621,38.943,166.968L38.943,166.968z"/>
<polygon fill="#E63909" points="138.746,207.834 125.164,178.07 128.825,176.416 142.408,206.18 "/>
<polygon fill="#E63909" points="159.534,206.18 173.116,176.416 176.778,178.07 163.195,207.834 "/>
<path fill-rule="evenodd" clip-rule="evenodd" fill="#F18F62" d="M108.392,80.747c-6.85,5.551-13.228,11.929-18.78,18.779
	L80.636,74.96c-0.472-1.299-0.118-2.835,0.945-3.78c1.063-1.063,2.48-1.417,3.898-1.063L108.392,80.747z"/>
<path fill="#F18F62" d="M109.691,82.283c-3.425,2.834-6.614,5.669-9.803,8.74c-3.071,3.071-6.024,6.378-8.74,9.803l-2.244,2.717
	L78.746,75.668l-0.118-0.118c-0.236-1.063-0.236-2.126,0-3.071c0.236-1.063,0.709-2.008,1.535-2.835
	c0.709-0.709,1.654-1.181,2.716-1.535c1.063-0.236,2.126-0.236,3.189,0.118l0.236,0.118l25.866,11.929L109.691,82.283z
	 M97.054,88.188c2.48-2.362,4.961-4.724,7.677-6.968L84.77,72.007c-0.236,0-0.59,0-0.945,0c-0.236,0.118-0.59,0.236-0.827,0.591
	c-0.236,0.236-0.473,0.472-0.473,0.827c-0.118,0.354-0.118,0.59,0,0.945l7.795,21.142C92.447,93.031,94.691,90.55,97.054,88.188
	L97.054,88.188z"/>
<path fill-rule="evenodd" clip-rule="evenodd" fill="#F18F62" d="M193.55,80.747c6.968,5.551,13.228,11.929,18.898,18.779
	l8.976-24.567c0.354-1.299,0-2.835-1.063-3.78c-0.945-1.063-2.48-1.417-3.898-1.063L193.55,80.747z"/>
<path fill="#F18F62" d="M197.329,81.219c2.598,2.244,5.079,4.606,7.559,6.968c2.362,2.362,4.606,4.843,6.85,7.323l7.795-21.142
	c0-0.354,0-0.591,0-0.945c-0.118-0.354-0.354-0.591-0.591-0.827c-0.236-0.355-0.472-0.473-0.827-0.591c-0.354,0-0.591,0-0.945,0
	L197.329,81.219z M202.053,91.023c-3.071-3.071-6.378-5.906-9.685-8.74l-2.598-2.008l25.866-11.929l0.354-0.118
	c1.063-0.354,2.126-0.354,3.071-0.118c1.063,0.354,2.008,0.827,2.717,1.535c0.827,0.827,1.299,1.772,1.653,2.835
	c0.236,0.945,0.236,2.008-0.118,3.071v0.118l-10.276,27.874l-2.244-2.717C208.077,97.401,205.124,94.093,202.053,91.023
	L202.053,91.023z"/>
<path fill-rule="evenodd" clip-rule="evenodd" fill="#CCCCCC" d="M135.085,114.527v23.15c-31.654-0.945-61.417,17.598-78.071,44.527
	c0,0-6.378-4.016-18.425-14.527C62.447,132.952,95.636,114.999,135.085,114.527L135.085,114.527z"/>
<path fill-rule="evenodd" clip-rule="evenodd" fill="#F24D1F" d="M116.069,150.55c4.134,0,7.441,3.307,7.441,7.323
	c0,4.016-3.307,7.323-7.441,7.323c-4.016,0-7.323-3.307-7.323-7.323C108.746,153.857,112.054,150.55,116.069,150.55L116.069,150.55z
	"/>
<path fill="#CCCCCC" d="M116.069,148.542c2.598,0,4.961,1.063,6.614,2.717c1.772,1.771,2.835,4.016,2.835,6.614
	c0,2.598-1.063,4.961-2.835,6.614c-1.654,1.654-4.016,2.717-6.614,2.717c-2.48,0-4.843-1.063-6.496-2.717
	c-1.772-1.654-2.835-4.016-2.835-6.614c0-2.598,1.063-4.843,2.835-6.614C111.227,149.605,113.589,148.542,116.069,148.542
	L116.069,148.542z M119.849,154.093c-0.945-0.945-2.244-1.535-3.78-1.535c-1.417,0-2.717,0.59-3.661,1.535
	c-1.063,0.945-1.653,2.362-1.653,3.78c0,1.535,0.59,2.835,1.653,3.779c0.945,0.945,2.244,1.535,3.661,1.535
	c1.535,0,2.835-0.59,3.78-1.535c0.945-0.945,1.535-2.244,1.535-3.779C121.384,156.456,120.794,155.038,119.849,154.093
	L119.849,154.093z"/>
<path fill-rule="evenodd" clip-rule="evenodd" fill="#E6E6E6" d="M262.762,166.495c-20.906-32.716-57.284-52.441-96.142-51.968
	c0.827,36.614,1.181,55.039,1.181,55.039c24.921,28.11,37.441,42.165,37.441,42.165
	C242.093,184.212,262.762,166.495,262.762,166.495L262.762,166.495z"/>
<path fill-rule="evenodd" clip-rule="evenodd" fill="#CCCCCC" d="M166.62,114.527v23.15c31.653-0.945,61.417,17.598,78.189,44.527
	c0,0,6.024-5.197,17.953-15.709C239.022,131.771,206.069,114.999,166.62,114.527L166.62,114.527z"/>
<path fill="#CCCCCC" d="M166.502,135.668c16.063-0.236,30.945,3.543,44.41,11.22c13.464,7.677,25.394,19.134,35.551,34.252
	l-3.425,2.244c-9.685-14.646-21.26-25.63-34.016-32.953c-12.874-7.323-27.165-10.984-42.402-10.748L166.502,135.668z"/>
<path fill-rule="evenodd" clip-rule="evenodd" fill="#F24D1F" d="M185.636,150.55c-4.134,0-7.323,3.307-7.323,7.323
	c0,4.016,3.189,7.323,7.323,7.323c4.016,0,7.323-3.307,7.323-7.323C192.959,153.857,189.652,150.55,185.636,150.55L185.636,150.55z"
	/>
<path fill="#CCCCCC" d="M185.636,152.558c-1.535,0-2.835,0.59-3.78,1.535c-0.945,0.945-1.535,2.362-1.535,3.78
	c0,1.535,0.591,2.835,1.535,3.779c0.945,0.945,2.244,1.535,3.78,1.535c1.417,0,2.717-0.59,3.779-1.535
	c0.945-0.945,1.535-2.244,1.535-3.779c0-1.417-0.59-2.835-1.535-3.78C188.353,153.149,187.053,152.558,185.636,152.558
	L185.636,152.558z M179.022,151.259c1.654-1.654,4.016-2.717,6.614-2.717c2.48,0,4.842,1.063,6.614,2.717
	c1.654,1.771,2.716,4.016,2.716,6.614c0,2.598-1.063,4.961-2.716,6.614c-1.772,1.654-4.134,2.717-6.614,2.717
	c-2.598,0-4.961-1.063-6.614-2.717c-1.772-1.654-2.717-4.016-2.717-6.614C176.305,155.275,177.25,153.03,179.022,151.259
	L179.022,151.259z"/>
<path fill-rule="evenodd" clip-rule="evenodd" fill="#1A1A1A" d="M151.03,201.338c8.149,0,14.882,6.614,14.882,14.882
	s-6.732,14.882-14.882,14.882c-8.268,0-14.882-6.614-14.882-14.882S142.762,201.338,151.03,201.338L151.03,201.338z"/>
<path fill-rule="evenodd" clip-rule="evenodd" fill="#0F0E0E" d="M136.148,216.219c0,8.268,6.614,14.882,14.882,14.882
	c8.149,0,14.882-6.614,14.882-14.882c0-1.89-0.354-3.78-1.063-5.433c-2.126,5.551-7.559,9.449-13.819,9.449
	c-6.378,0-11.693-3.898-13.937-9.449C136.502,212.44,136.148,214.33,136.148,216.219L136.148,216.219z"/>
</svg>
