<?xml version="1.0" encoding="utf-8"?>
<!-- Generator: Adobe Illustrator 24.3.0, SVG Export Plug-In . SVG Version: 6.00 Build 0)  -->
<svg version="1.1" id="Layer_1" xmlns="http://www.w3.org/2000/svg" xmlns:xlink="http://www.w3.org/1999/xlink" x="0px" y="0px"
	 viewBox="0 0 300 300" enable-background="new 0 0 300 300" xml:space="preserve">
<path fill-rule="evenodd" clip-rule="evenodd" fill="#FBCB43" d="M203.825,129.113c45.354-8.74,69.567-33.543,60.827-64.724
	c-12.874-4.843-30.472,0.472-51.85,20.433c-4.016,3.78-8.622,8.504-12.992,2.244c-3.425-4.843-4.961-32.362-5.787-40.512
	c-2.244,0.945-4.725,1.181-7.087,0.473c-0.827,8.858-2.362,35.315-5.787,40.039c-1.535,2.244-3.779,3.425-6.85,3.661
	c-6.732-1.063-11.457-9.213-14.528-24.331c-2.126-8.74-16.535-8.74-18.543,0c-3.071,15.118-7.795,23.268-14.528,24.331
	c-3.071-0.236-5.315-1.417-6.85-3.661c-3.425-4.724-4.961-31.181-5.905-40.039c-2.244,0.709-4.725,0.472-6.969-0.473
	c-0.827,8.15-2.362,35.669-5.787,40.512c-4.37,6.26-8.976,1.535-12.992-2.244c-21.378-19.961-39.095-25.276-51.85-20.433
	c-8.74,31.181,15.472,55.984,60.827,64.724c-0.827,28.11,7.795,55.748,24.685,78.543c-10.512,63.543,67.677,63.543,57.284,0
	C196.03,184.861,204.652,157.223,203.825,129.113L203.825,129.113z"/>
<path fill-rule="evenodd" clip-rule="evenodd" fill="#DEAA1D" d="M121.857,207.657c-10.512,63.543,67.677,63.543,57.284,0
	c16.535-22.323,25.157-49.488,24.685-77.008l-1.535-12.047l-7.205,3.898c0.236,6.26,0.591,12.52,0.354,18.78
	c-1.181,20.669-8.268,40.63-20.787,57.52c8.858,53.622-57.165,53.622-48.307,0c-14.291-19.252-21.496-42.52-20.906-66.26
	l0.59-10.512l-8.149-3.307l-0.827,11.929C96.699,158.168,105.321,185.334,121.857,207.657L121.857,207.657z"/>
<path fill-rule="evenodd" clip-rule="evenodd" fill="#DEAA1D" d="M94.455,89.664c-1.535,8.386-2.362,12.638-2.362,12.638
	C69.534,80.806,50.4,70.885,34.81,72.42c0,0,0.945-2.834,2.953-8.504C54.061,59.901,72.959,68.523,94.455,89.664L94.455,89.664z"/>
<path fill-rule="evenodd" clip-rule="evenodd" fill="#DEAA1D" d="M206.66,89.664c1.535,8.386,2.244,12.638,2.244,12.638
	c22.559-21.496,41.693-31.417,57.283-29.882c0,0-0.945-2.834-2.953-8.504C246.935,59.901,228.038,68.523,206.66,89.664
	L206.66,89.664z"/>
<path fill-rule="evenodd" clip-rule="evenodd" fill="#8A6B17" d="M134.376,234.113c2.48,2.008,6.614,2.362,11.457,0.827
	c-1.417-5.551-3.898-8.622-6.85-9.567C132.368,223.483,129.534,230.215,134.376,234.113L134.376,234.113z"/>
<path fill-rule="evenodd" clip-rule="evenodd" fill="#F14112" d="M126.463,116.593c2.716,0,4.961,2.126,4.961,4.843
	s-2.244,4.961-4.961,4.961c-2.717,0-4.843-2.244-4.843-4.961S123.747,116.593,126.463,116.593L126.463,116.593z"/>
<path fill-rule="evenodd" clip-rule="evenodd" fill="#FBCB43" d="M111.345,27.893c5.315,0,9.685,4.37,9.685,9.803
	c0,5.315-4.37,9.685-9.685,9.685c-5.433,0-9.803-4.37-9.803-9.685C101.542,32.263,105.912,27.893,111.345,27.893L111.345,27.893z"/>
<path fill-rule="evenodd" clip-rule="evenodd" fill="#FBCB43" d="M189.652,27.893c-5.315,0-9.803,4.37-9.803,9.803
	c0,5.315,4.488,9.685,9.803,9.685c5.433,0,9.803-4.37,9.803-9.685C199.455,32.263,195.085,27.893,189.652,27.893L189.652,27.893z"/>
<path fill-rule="evenodd" clip-rule="evenodd" fill="#8A6B17" d="M166.621,234.113c-2.48,2.008-6.732,2.362-11.457,0.827
	c1.417-5.551,3.898-8.622,6.85-9.567C168.628,223.483,171.463,230.215,166.621,234.113L166.621,234.113z"/>
<path fill-rule="evenodd" clip-rule="evenodd" fill="#F14112" d="M174.534,116.593c-2.717,0-4.961,2.126-4.961,4.843
	s2.244,4.961,4.961,4.961c2.717,0,4.842-2.244,4.842-4.961S177.251,116.593,174.534,116.593L174.534,116.593z"/>
<path fill-rule="evenodd" clip-rule="evenodd" fill="#F14112" d="M150.321,108.798c2.716,0,4.843,2.244,4.843,4.961
	c0,2.717-2.126,4.961-4.843,4.961c-2.717,0-4.961-2.244-4.961-4.961C145.361,111.042,147.605,108.798,150.321,108.798
	L150.321,108.798z"/>
<path fill="#DEAA1D" d="M129.416,138.798c-0.118-1.181,0.709-2.126,1.89-2.244c1.063,0,2.008,0.827,2.126,1.89
	c0.945,10.748,2.244,20.669,3.898,29.409c1.654,8.858,3.543,16.654,5.788,23.386c0.354,1.063-0.118,2.244-1.181,2.598
	c-1.063,0.354-2.244-0.236-2.598-1.299c-2.362-6.969-4.252-14.882-5.906-23.858C131.778,159.704,130.361,149.782,129.416,138.798
	L129.416,138.798z"/>
<path fill="#DEAA1D" d="M167.566,138.444c0.118-1.063,1.063-1.89,2.126-1.89c1.181,0.118,1.89,1.063,1.89,2.244
	c-1.063,10.984-2.362,20.905-4.016,29.882c-1.654,8.977-3.661,16.89-5.906,23.858c-0.354,1.063-1.535,1.654-2.598,1.299
	c-1.063-0.354-1.535-1.535-1.181-2.598c2.244-6.732,4.134-14.528,5.787-23.386C165.321,159.113,166.621,149.192,167.566,138.444
	L167.566,138.444z"/>
<path fill="#DEAA1D" d="M105.676,94.389c1.063-0.354,2.126,0.236,2.48,1.299c0.354,1.063-0.236,2.126-1.299,2.48
	c-4.606,1.535-8.504,3.898-11.102,6.496c-1.535,1.654-2.598,3.307-2.953,5.079c-0.354,1.535-0.118,3.189,0.827,4.606
	c0.945,1.535,2.598,2.953,4.961,4.134c0.827,0.472,1.181,1.299,1.063,2.126c-1.417,15.236-0.118,30.59,3.898,45.118
	c4.016,14.528,10.748,28.346,19.843,40.748c0.354,0.473,0.472,0.945,0.354,1.536c-3.189,20.079,2.598,33.425,11.457,40.158
	c4.488,3.425,9.921,5.197,15.236,5.197c5.433,0,10.748-1.771,15.354-5.197c8.858-6.732,14.646-20.079,11.457-40.158
	c-0.118-0.59,0-1.181,0.354-1.536c9.094-12.402,15.827-26.22,19.842-40.748c4.016-14.646,5.315-29.882,3.898-45.236
	c-0.118-0.827,0.354-1.535,1.063-2.008c2.362-1.181,4.016-2.598,4.961-4.134c0.945-1.417,1.181-3.071,0.827-4.606
	c-0.354-1.772-1.417-3.425-2.953-5.079c-2.598-2.598-6.496-4.961-11.102-6.496c-1.063-0.354-1.654-1.417-1.299-2.48
	c0.236-1.063,1.417-1.654,2.48-1.299c5.315,1.654,9.685,4.37,12.756,7.441c2.126,2.244,3.543,4.606,4.134,7.087
	c0.472,2.599,0.118,5.197-1.536,7.677c-1.063,1.772-2.835,3.425-5.315,4.843c1.417,15.354,0,30.709-4.016,45.354
	c-4.134,14.764-10.866,28.819-20.079,41.339c3.307,21.378-3.189,35.788-13.11,43.228c-5.197,4.016-11.457,6.024-17.717,6.024
	c-6.142,0-12.402-2.008-17.717-6.024c-9.803-7.441-16.299-21.85-12.992-43.228c-9.213-12.52-15.945-26.575-20.079-41.339
	c-4.016-14.646-5.433-30-4.134-45.354c-2.362-1.417-4.134-3.071-5.197-4.843c-1.654-2.48-2.126-5.079-1.535-7.677
	c0.591-2.48,2.008-4.842,4.134-7.087C95.873,98.759,100.361,96.042,105.676,94.389L105.676,94.389z"/>
<path fill-rule="evenodd" clip-rule="evenodd" fill="#FFFFFF" d="M97.408,141.042c0.709,6.732,1.063,10.039,1.063,10.039
	c3.898,6.142,11.811,8.268,18.307,4.961C113.235,148.129,105.912,142.46,97.408,141.042L97.408,141.042z"/>
<path d="M104.613,144.586c0-1.063,0.945-2.008,2.008-2.008c1.181,0,2.008,0.945,2.008,2.008v6.142c0,1.063-0.827,2.008-2.008,2.008
	c-1.063,0-2.008-0.945-2.008-2.008V144.586z"/>
<path fill="#DEAA1D" d="M96.936,143.05c-1.063-0.354-1.772-1.417-1.535-2.48c0.236-1.063,1.299-1.771,2.362-1.535
	c6.732,1.535,11.811,4.37,15.709,8.386c3.78,4.134,6.496,9.331,8.504,16.063c0.354,1.063-0.236,2.126-1.299,2.48
	c-1.063,0.354-2.126-0.236-2.48-1.299c-1.89-6.142-4.252-10.866-7.677-14.409C107.211,146.712,102.841,144.349,96.936,143.05
	L96.936,143.05z"/>
<path fill="#DEAA1D" d="M115.951,154.153c0.945-0.472,2.126,0,2.599,0.945c0.472,1.063,0.118,2.244-0.945,2.717
	c-3.78,1.772-8.15,2.244-12.047,1.181c-3.78-1.063-7.087-3.307-8.858-6.968c-0.591-0.945-0.118-2.244,0.827-2.717
	c0.945-0.473,2.244-0.118,2.716,0.945c1.299,2.48,3.661,4.134,6.378,4.842C109.573,155.924,112.999,155.57,115.951,154.153
	L115.951,154.153z"/>
<path fill="#DEAA1D" d="M104.613,144.586c0-1.063,0.945-2.008,2.008-2.008c1.181,0,2.008,0.945,2.008,2.008v6.142
	c0,1.063-0.827,2.008-2.008,2.008c-1.063,0-2.008-0.945-2.008-2.008V144.586z"/>
<path fill-rule="evenodd" clip-rule="evenodd" fill="#FFFFFF" d="M203.353,141.042c-0.709,6.732-1.063,10.039-1.063,10.039
	c-4.016,6.142-11.929,8.268-18.425,4.961C187.526,148.129,194.731,142.46,203.353,141.042L203.353,141.042z"/>
<path d="M192.014,144.586c0-1.063,0.945-2.008,2.008-2.008c1.063,0,2.008,0.945,2.008,2.008v6.142c0,1.063-0.945,2.008-2.008,2.008
	c-1.063,0-2.008-0.945-2.008-2.008V144.586z"/>
<path fill="#DEAA1D" d="M202.88,139.034c1.063-0.236,2.126,0.473,2.362,1.535c0.236,1.063-0.354,2.126-1.417,2.48
	c-6.024,1.299-10.394,3.661-13.701,7.205s-5.669,8.268-7.677,14.409c-0.236,1.063-1.417,1.654-2.48,1.299
	c-1.063-0.354-1.653-1.417-1.299-2.48c2.126-6.732,4.725-11.929,8.622-16.063C191.188,143.405,196.148,140.57,202.88,139.034
	L202.88,139.034z"/>
<path fill="#DEAA1D" d="M183.038,157.814c-0.945-0.472-1.417-1.653-0.945-2.717c0.473-0.945,1.654-1.417,2.717-0.945
	c2.953,1.417,6.26,1.772,9.331,0.945c2.717-0.709,5.079-2.362,6.378-4.842c0.472-1.063,1.654-1.417,2.598-0.945
	c1.063,0.472,1.417,1.772,0.945,2.717c-1.89,3.661-5.197,5.905-8.976,6.968C191.188,160.058,186.817,159.586,183.038,157.814
	L183.038,157.814z"/>
<path fill="#DEAA1D" d="M192.014,144.586c0-1.063,0.945-2.008,2.008-2.008c1.063,0,2.008,0.945,2.008,2.008v6.142
	c0,1.063-0.945,2.008-2.008,2.008c-1.063,0-2.008-0.945-2.008-2.008V144.586z"/>
</svg>
