<?xml version="1.0" encoding="utf-8"?>
<!-- Generator: Adobe Illustrator 24.3.0, SVG Export Plug-In . SVG Version: 6.00 Build 0)  -->
<svg version="1.1" id="Layer_1" xmlns="http://www.w3.org/2000/svg" xmlns:xlink="http://www.w3.org/1999/xlink" x="0px" y="0px"
	 viewBox="0 0 300 300" enable-background="new 0 0 300 300" xml:space="preserve">
<path fill-rule="evenodd" clip-rule="evenodd" fill="#99AAB2" d="M108.51,237.716c23.386,22.559,60.472,22.559,83.976,0
	c24.213,4.961,47.953-1.299,48.898-16.299c0.473-23.504-2.244-48.661-7.086-71.221c5.669-6.496,4.134-18.071-4.961-21.968
	c-1.772-9.213-3.78-18.78-7.087-27.638c-13.701-37.441-44.528-60.945-71.811-61.772c-27.283,0.827-57.992,24.331-71.811,61.772
	c-3.189,8.858-5.315,18.425-6.969,27.638c-9.094,2.953-11.575,14.409-4.961,21.968c-4.961,22.559-7.559,47.717-7.086,71.221
	C60.439,236.416,84.18,242.676,108.51,237.716L108.51,237.716z"/>
<path fill-rule="evenodd" clip-rule="evenodd" fill="#B4C2C7" d="M222.25,100.59c-13.701-37.441-44.528-60.945-71.811-61.772
	c-27.283,0.827-57.992,24.331-71.811,61.772c-3.189,8.858-5.315,18.425-6.969,27.638c0.827-0.354,1.654-0.591,2.48-0.709
	c1.181-5.315,2.716-10.512,4.488-15.473c13.819-37.441,44.528-60.945,71.811-61.772c27.284,0.827,58.11,24.331,71.811,61.772
	c1.89,4.961,3.307,10.158,4.606,15.473c0.827,0.118,1.653,0.354,2.48,0.709C227.565,119.015,225.558,109.448,222.25,100.59
	L222.25,100.59z"/>
<path fill="#4E575E" d="M77.802,154.802c-2.008,12.165-1.417,24.567,1.772,36.26c3.189,11.693,8.858,22.677,16.772,32.244
	c4.252,5.079,8.74,9.567,13.228,13.346c12.992,10.748,26.929,16.181,40.866,16.181c13.937,0,27.874-5.433,40.866-16.181
	c4.606-3.779,8.976-8.268,13.228-13.346c7.913-9.567,13.583-20.551,16.771-32.244c3.189-11.693,3.898-24.094,1.772-36.26
	l4.016-0.709c2.126,12.874,1.417,25.748-1.89,38.032c-3.307,12.283-9.213,23.74-17.598,33.78c-4.37,5.197-8.976,9.803-13.701,13.819
	c-13.701,11.457-28.583,17.126-43.465,17.126c-14.882,0-29.646-5.669-43.465-17.126c-4.724-4.016-9.213-8.622-13.701-13.819
	c-8.268-10.039-14.173-21.496-17.598-33.78c-3.307-12.283-4.016-25.157-1.772-38.032L77.802,154.802z"/>
<path fill="#4E575E" d="M127.998,201.338c-5.079,6.732-9.213,13.11-12.52,19.016c-3.307,5.787-5.669,11.22-7.205,16.181
	l-3.898-1.181c1.654-5.197,4.134-10.866,7.559-17.008c3.425-6.023,7.677-12.52,12.756-19.488L127.998,201.338z"/>
<path fill="#4E575E" d="M151.739,221.889c-7.795,0.709-14.882,2.598-21.26,5.906c-6.378,3.189-12.047,7.795-17.126,13.701
	l-3.071-2.598c5.433-6.26,11.575-11.221,18.425-14.646c6.85-3.543,14.41-5.669,22.677-6.378L151.739,221.889z"/>
<path fill="#221F20" d="M180.439,182.558c7.795-6.378,13.347-12.992,16.772-19.724c3.661-6.969,4.961-13.937,4.134-20.197
	c-1.535-10.512-10.039-18.071-21.496-22.677c-8.386-3.189-18.189-4.961-28.11-4.961c-9.921-0.118-19.961,1.417-28.465,4.488
	c-11.929,4.37-21.024,11.929-22.677,22.559c-0.945,6.378,0.236,13.346,3.78,20.551c3.425,6.732,9.095,13.583,17.008,19.961
	l-2.598,3.071c-8.386-6.732-14.291-14.055-17.953-21.26c-4.016-7.914-5.315-15.827-4.134-22.913
	c1.89-12.283,11.929-20.787,25.276-25.748c8.858-3.189,19.37-4.842,29.764-4.724c10.394,0,20.787,1.771,29.527,5.315
	c12.874,4.961,22.323,13.583,23.976,25.866c0.945,6.968-0.472,14.764-4.488,22.559c-3.661,7.087-9.449,14.291-17.717,20.906
	L180.439,182.558z"/>
<path fill="#4E575E" d="M176.187,198.857c5.079,6.969,9.331,13.465,12.756,19.488c3.425,6.142,5.905,11.811,7.559,17.008
	l-3.779,1.181c-1.654-4.961-4.016-10.394-7.323-16.181c-3.189-5.906-7.441-12.283-12.402-19.016L176.187,198.857z"/>
<path fill="#4E575E" d="M149.494,217.873c8.268,0.709,15.945,2.835,22.795,6.378c6.85,3.425,12.992,8.386,18.307,14.646
	l-3.071,2.598c-4.961-5.906-10.748-10.512-17.126-13.701c-6.378-3.307-13.465-5.197-21.26-5.906L149.494,217.873z"/>
<path fill-rule="evenodd" clip-rule="evenodd" fill="#B4C2C7" d="M120.085,184.094c40.866-0.59,61.417-0.59,61.654,0
	c16.653-13.465,23.268-28.819,21.496-41.693c-5.315-39.213-98.504-39.094-104.646-0.591
	C96.581,154.802,103.195,170.393,120.085,184.094L120.085,184.094z"/>
<path fill="#4E575E" d="M120.794,182.086c32.598-0.472,52.441-0.354,59.764,0.473h-0.118c7.795-6.378,13.347-12.992,16.772-19.724
	c3.661-6.969,4.961-13.937,4.134-20.197c-1.535-10.512-10.039-18.071-21.496-22.677c-8.386-3.189-18.189-4.961-28.11-4.961
	c-9.921-0.118-19.961,1.417-28.465,4.488c-11.929,4.37-21.024,11.929-22.677,22.559c-0.945,6.378,0.236,13.346,3.78,20.551
	C107.802,169.094,113.235,175.826,120.794,182.086L120.794,182.086z M179.849,184.802c-0.118-0.236-19.843,0.709-59.764,1.299
	l-1.299-0.472c-8.386-6.732-14.291-14.055-17.953-21.26c-4.016-7.914-5.315-15.827-4.134-22.913
	c1.89-12.283,11.929-20.787,25.276-25.748c8.858-3.189,19.37-4.842,29.764-4.724c10.394,0,20.787,1.771,29.527,5.315
	c12.874,4.961,22.323,13.583,23.976,25.866c0.945,6.968-0.472,14.764-4.488,22.559c-3.661,7.087-9.449,14.291-17.717,20.906
	l-2.244,1.772L179.849,184.802z"/>
<path fill-rule="evenodd" clip-rule="evenodd" fill="#4E575E" d="M150.912,181.613c-29.291-16.181-46.654,10.866-11.22,27.047
	c8.268,3.071,14.882,2.598,22.441,0C197.565,192.479,180.321,165.432,150.912,181.613L150.912,181.613z"/>
<path fill="#4E575E" d="M149.967,183.385c-9.921-5.433-18.071-5.787-23.15-3.189c-1.89,0.945-3.307,2.244-4.134,3.898
	c-0.709,1.535-0.945,3.425-0.591,5.433c1.063,5.433,6.614,11.929,18.307,17.244c3.898,1.417,7.323,2.008,10.748,2.008
	s6.732-0.709,10.275-2.008c11.693-5.315,17.244-11.811,18.307-17.244c0.473-2.008,0.118-3.898-0.59-5.433
	c-0.827-1.654-2.244-2.953-4.134-3.898c-4.961-2.599-13.228-2.244-23.15,3.189l-0.945,0.472L149.967,183.385z M125.046,176.535
	c5.905-2.953,15.118-2.835,25.866,2.717c10.748-5.551,19.961-5.669,25.866-2.717c2.717,1.417,4.724,3.307,5.906,5.669
	c1.181,2.362,1.654,5.197,1.063,8.15c-1.299,6.496-7.677,14.173-20.669,20.079l-0.236,0.118c-4.016,1.417-7.795,2.126-11.693,2.244
	c-3.78,0-7.795-0.709-12.165-2.244l-0.118-0.118c-13.11-5.906-19.37-13.583-20.669-20.079c-0.59-2.953-0.236-5.787,0.945-8.15
	S122.329,177.952,125.046,176.535L125.046,176.535z"/>
<path fill-rule="evenodd" clip-rule="evenodd" fill="#B4C2C7" d="M133.786,195.668c2.126,1.299,4.724,2.598,7.913,4.016
	c0.709,0.236,1.536,0.118,2.008-0.472c0.472-0.591,0.472-1.299,0-2.008l-4.134-6.26C132.25,180.078,120.912,188.109,133.786,195.668
	L133.786,195.668z"/>
<path fill="#B4C2C7" d="M134.731,194.015c1.063,0.472,2.244,1.181,3.543,1.772c0.945,0.59,2.008,1.063,3.071,1.535l-3.425-5.197
	c-2.126-3.307-4.606-4.488-6.378-4.488c-0.591,0-1.063,0.118-1.299,0.472c-0.236,0.118-0.354,0.472-0.354,0.827
	C130.124,190.235,131.424,192.007,134.731,194.015L134.731,194.015z M136.502,199.448c-1.299-0.709-2.599-1.299-3.78-2.008
	c-4.488-2.717-6.496-5.669-6.732-8.032c-0.236-1.772,0.354-3.189,1.417-4.252c1.063-0.945,2.48-1.536,4.134-1.536
	c2.953,0,6.732,1.772,9.685,6.26l4.252,6.26c0.354,0.709,0.59,1.417,0.59,2.244c-0.118,0.709-0.354,1.535-0.827,2.126
	c-0.591,0.59-1.299,1.063-2.008,1.181c-0.709,0.236-1.536,0.118-2.244-0.236C139.219,200.747,137.802,200.039,136.502,199.448
	L136.502,199.448z"/>
<path fill-rule="evenodd" clip-rule="evenodd" fill="#B4C2C7" d="M168.038,195.668c-2.008,1.299-4.724,2.598-7.913,4.016
	c-0.709,0.236-1.417,0.118-1.89-0.472c-0.472-0.591-0.591-1.299-0.118-2.008l4.134-6.26
	C169.573,180.078,181.03,188.109,168.038,195.668L168.038,195.668z"/>
<path fill="#B4C2C7" d="M169.101,197.44c-1.181,0.709-2.362,1.299-3.779,2.008c-1.299,0.591-2.717,1.299-4.37,2.008
	c-0.827,0.354-1.535,0.472-2.362,0.236c-0.709-0.118-1.417-0.591-1.89-1.181c-0.59-0.59-0.827-1.417-0.945-2.126
	c0-0.827,0.236-1.536,0.709-2.244l4.134-6.26c2.953-4.488,6.732-6.26,9.685-6.26c1.654,0,3.071,0.591,4.134,1.536
	c1.063,1.063,1.654,2.48,1.535,4.252C175.597,191.771,173.707,194.724,169.101,197.44L169.101,197.44z M163.55,195.787
	c1.417-0.591,2.48-1.299,3.543-1.772c3.307-2.008,4.724-3.78,4.842-5.079c0-0.354-0.118-0.709-0.236-0.827
	c-0.354-0.354-0.827-0.472-1.417-0.472c-1.772,0-4.252,1.181-6.378,4.488l-3.425,5.197
	C161.542,196.849,162.605,196.377,163.55,195.787L163.55,195.787z"/>
<path fill="#4E575E" d="M86.069,134.133c-1.772-2.48-4.488-4.134-7.323-4.606c-2.835-0.59-5.906-0.118-8.504,1.654
	c-2.599,1.654-4.252,4.252-4.961,7.087c-0.59,2.835-0.236,5.905,1.417,8.622c1.654,2.717,4.134,4.488,6.969,5.197
	c2.835,0.709,5.905,0.472,8.622-1.063l2.008,3.425c-3.661,2.126-7.913,2.48-11.693,1.535c-3.779-0.945-7.205-3.425-9.331-6.968
	c-2.244-3.661-2.716-7.795-1.89-11.575c0.827-3.78,3.189-7.323,6.614-9.685c3.543-2.244,7.677-2.953,11.575-2.244
	c3.78,0.709,7.323,2.953,9.803,6.378L86.069,134.133z"/>
<path fill="#4E575E" d="M100.479,154.802c6.024,2.598,12.52,3.425,18.78,2.48c6.26-0.945,12.283-3.543,17.362-7.795
	c3.543-3.071,6.496-6.732,8.622-10.866c2.008-4.134,3.307-8.622,3.661-13.346l4.016,0.354c-0.354,5.197-1.772,10.276-4.134,14.882
	c-2.362,4.488-5.551,8.622-9.685,12.047c-5.551,4.724-12.284,7.677-19.252,8.622c-6.969,1.063-14.173,0.236-20.906-2.716
	L100.479,154.802z"/>
<path fill="#4E575E" d="M120.321,158.7c0.354,0.827,0.827,1.535,1.535,2.126c0.591,0.591,1.417,0.945,2.244,1.181
	c0.945,0.236,1.89,0.236,2.835,0c0.827-0.236,1.654-0.827,2.362-1.417c0.709-0.709,1.181-1.535,1.299-2.48
	c0.236-0.945,0.236-1.89,0-2.835l3.898-1.063c0.473,1.653,0.473,3.307,0,4.842c-0.354,1.654-1.181,3.071-2.362,4.252
	c-1.181,1.299-2.598,2.126-4.134,2.48c-1.535,0.473-3.307,0.59-4.842,0.118c-1.535-0.354-2.835-1.063-4.016-2.126
	c-1.063-0.945-2.008-2.244-2.48-3.661L120.321,158.7z"/>
<path fill="#4E575E" d="M211.502,131.889c2.48-3.425,6.024-5.669,9.921-6.378c3.78-0.709,7.914,0,11.457,2.244
	c3.543,2.362,5.787,5.905,6.614,9.685c0.945,3.779,0.355,7.913-1.889,11.575c-2.126,3.543-5.551,6.024-9.331,6.968
	c-3.78,0.945-7.913,0.591-11.575-1.535l1.89-3.425c2.716,1.535,5.905,1.772,8.622,1.063c2.835-0.709,5.433-2.48,6.968-5.197
	c1.654-2.716,2.126-5.787,1.417-8.622c-0.59-2.835-2.362-5.433-4.961-7.087c-2.598-1.772-5.669-2.244-8.504-1.654
	c-2.835,0.473-5.551,2.126-7.323,4.606L211.502,131.889z"/>
<path fill="#4E575E" d="M202.88,158.464c-6.732,2.953-13.937,3.779-20.906,2.716c-6.969-0.945-13.701-3.898-19.252-8.622
	c-4.016-3.307-7.087-7.323-9.449-11.693c-2.362-4.37-3.78-9.331-4.252-14.291l-0.118-0.945v-0.945l4.016-0.236v0.827l0.118,0.945
	c0.354,4.488,1.771,8.858,3.779,12.874c2.126,3.898,4.961,7.441,8.386,10.394c5.079,4.252,11.102,6.85,17.362,7.795
	c6.26,0.945,12.756,0.118,18.779-2.48L202.88,158.464z"/>
<path fill="#4E575E" d="M185.164,160.117c-0.473,1.417-1.417,2.717-2.48,3.661c-1.063,1.063-2.48,1.771-4.016,2.126
	c-1.536,0.472-3.307,0.354-4.843-0.118c-1.535-0.354-2.953-1.181-4.134-2.48c-1.181-1.181-2.008-2.598-2.362-4.252
	c-0.472-1.535-0.472-3.189,0-4.842l3.898,1.063c-0.236,0.945-0.236,1.89,0,2.835c0.236,0.945,0.709,1.772,1.299,2.48
	c0.709,0.591,1.535,1.181,2.362,1.417c0.945,0.236,1.89,0.236,2.835,0c0.827-0.236,1.654-0.591,2.244-1.181
	c0.709-0.59,1.181-1.299,1.535-2.126L185.164,160.117z"/>
<rect x="148.904" y="112.991" fill="#4E575E" width="4.016" height="13.347"/>
</svg>
