<?xml version="1.0" encoding="utf-8"?>
<!-- Generator: Adobe Illustrator 24.3.0, SVG Export Plug-In . SVG Version: 6.00 Build 0)  -->
<svg version="1.1" id="Layer_1" xmlns="http://www.w3.org/2000/svg" xmlns:xlink="http://www.w3.org/1999/xlink" x="0px" y="0px"
	 viewBox="0 0 300 300" enable-background="new 0 0 300 300" xml:space="preserve">
<path fill-rule="evenodd" clip-rule="evenodd" fill="#9E5B25" d="M176.896,249.467c-7.205,7.323-16.417,12.52-26.339,15.118
	c-10.039-2.48-19.134-7.677-26.457-15.118c-32.835-4.134-62.362-25.039-76.654-54.921c-10.866-22.795-12.402-48.543-4.843-71.929
	c3.071-9.567,7.087-17.598,12.992-25.63L43.431,80.688c-7.086-9.449-6.142-22.795,2.244-31.063
	c8.386-8.386,21.614-9.449,31.063-2.362l15.236,11.22c27.401-25.984,89.764-25.984,117.165,0l15.118-11.22
	c9.567-7.087,22.795-6.024,31.181,2.362c8.386,8.268,9.331,21.614,2.244,31.063L245.4,96.987c6.023,8.032,9.921,16.063,13.11,25.63
	c7.441,23.386,6.023,49.134-4.843,71.929C239.258,224.428,209.849,245.334,176.896,249.467L176.896,249.467z"/>
<path fill-rule="evenodd" clip-rule="evenodd" fill="#8F4A11" d="M124.101,230.452c-32.835-4.134-62.362-25.039-76.654-54.921
	c-4.961-10.394-7.914-21.378-9.095-32.598c-1.653,17.48,1.299,35.315,9.095,51.614c14.291,29.882,43.819,50.787,76.654,54.921
	c7.323,7.441,16.417,12.638,26.457,15.118c9.921-2.598,19.134-7.795,26.339-15.118c32.953-4.134,62.362-25.039,76.772-54.921
	c7.677-16.299,10.748-34.134,8.976-51.614c-1.063,11.22-4.016,22.205-8.976,32.598c-14.409,29.882-43.819,50.787-76.772,54.921
	c-7.205,7.323-16.417,12.52-26.339,15.118C140.518,243.09,131.424,237.893,124.101,230.452L124.101,230.452z"/>
<path fill-rule="evenodd" clip-rule="evenodd" fill="#F4D17C" d="M150.557,164.782c-42.992,1.772-60.472,80.669-1.654,99.567
	c1.063,0.354,2.126,0.354,3.189,0C210.912,245.452,193.55,166.554,150.557,164.782L150.557,164.782z M129.534,231.633
	c6.26-15.472,36.142-15.472,42.283,0c-1.89,10.512-10.512,18.307-21.142,19.37C140.164,249.94,131.542,242.145,129.534,231.633
	L129.534,231.633z"/>
<path fill-rule="evenodd" clip-rule="evenodd" fill="#4E2F12" d="M82.526,69.586L65.99,88.601L55.833,76.436
	c-3.425-4.606-2.953-10.866,1.063-14.882c4.016-4.016,10.394-4.488,14.882-1.063L82.526,69.586z"/>
<path fill-rule="evenodd" clip-rule="evenodd" fill="#4E2F12" d="M218.589,69.586l16.535,19.016l10.157-12.165
	c3.307-4.606,2.835-10.866-1.063-14.882c-4.016-4.016-10.394-4.488-14.882-1.063L218.589,69.586z"/>
<path fill-rule="evenodd" clip-rule="evenodd" fill="#1A1A1A" d="M110.4,136.436c5.669,0,10.157,4.488,10.157,10.157
	c0,5.551-4.488,10.158-10.157,10.158c-5.551,0-10.157-4.606-10.157-10.158C100.243,140.924,104.849,136.436,110.4,136.436
	L110.4,136.436z"/>
<path fill="#1A1A1A" d="M110.4,134.428c3.425,0,6.378,1.299,8.622,3.543l0,0c2.244,2.244,3.543,5.197,3.543,8.622
	c0,3.307-1.299,6.378-3.543,8.622l0,0c-2.244,2.126-5.197,3.543-8.622,3.543c-3.307,0-6.378-1.417-8.622-3.543l0,0
	c-2.126-2.244-3.543-5.315-3.543-8.622c0-3.425,1.417-6.378,3.543-8.622l0,0C104.022,135.727,107.093,134.428,110.4,134.428
	L110.4,134.428z M116.187,140.806c-1.417-1.417-3.543-2.362-5.787-2.362c-2.244,0-4.252,0.945-5.669,2.362h-0.118
	c-1.417,1.417-2.362,3.543-2.362,5.787c0,2.244,0.945,4.252,2.362,5.787h0.118c1.417,1.417,3.425,2.362,5.669,2.362
	c2.244,0,4.37-0.945,5.787-2.362l0,0c1.535-1.535,2.362-3.543,2.362-5.787C118.55,144.349,117.723,142.223,116.187,140.806
	L116.187,140.806z"/>
<path fill-rule="evenodd" clip-rule="evenodd" fill="#1A1A1A" d="M190.597,136.436c5.669,0,10.158,4.488,10.158,10.157
	c0,5.551-4.488,10.158-10.158,10.158c-5.551,0-10.158-4.606-10.158-10.158C180.439,140.924,185.046,136.436,190.597,136.436
	L190.597,136.436z"/>
<path fill="#1A1A1A" d="M190.597,134.428c3.425,0,6.378,1.299,8.622,3.543l0,0c2.244,2.244,3.543,5.197,3.543,8.622
	c0,3.307-1.299,6.378-3.543,8.622l0,0c-2.244,2.126-5.197,3.543-8.622,3.543c-3.307,0-6.378-1.417-8.504-3.543h-0.118
	c-2.126-2.244-3.543-5.315-3.543-8.622c0-3.425,1.417-6.378,3.543-8.622h0.118C184.219,135.727,187.29,134.428,190.597,134.428
	L190.597,134.428z M196.384,140.806c-1.417-1.417-3.543-2.362-5.787-2.362c-2.244,0-4.252,0.945-5.669,2.362h-0.118
	c-1.417,1.417-2.362,3.543-2.362,5.787c0,2.244,0.945,4.252,2.362,5.787h0.118c1.417,1.417,3.425,2.362,5.669,2.362
	c2.244,0,4.37-0.945,5.787-2.362l0,0c1.535-1.535,2.362-3.543,2.362-5.787C198.746,144.349,197.92,142.223,196.384,140.806
	L196.384,140.806z"/>
<path fill="#8F4A11" d="M176.66,247.46c16.181-2.008,31.535-8.15,44.527-17.48c12.992-9.331,23.622-21.732,30.591-36.26
	c5.315-11.102,8.386-22.913,9.095-34.842c0.827-12.047-0.591-24.094-4.37-35.669c-1.417-4.725-3.189-8.976-5.315-13.11
	c-2.008-4.134-4.488-8.031-7.323-11.929l-0.945-1.181l13.11-17.48c3.307-4.37,4.724-9.567,4.252-14.646
	c-0.354-5.079-2.48-10.039-6.26-13.819c-3.898-3.898-8.858-6.024-13.937-6.378c-5.079-0.354-10.276,1.063-14.646,4.252
	c-3.78,3.543-11.811,8.74-16.535,12.165l-1.181-1.181c-13.346-12.638-35.197-18.898-57.165-18.898s-43.937,6.26-57.165,18.898
	l-1.299,1.181c-4.606-3.425-12.638-8.622-16.535-12.165c-4.37-3.189-9.567-4.606-14.646-4.252
	c-5.079,0.354-10.039,2.48-13.819,6.378c-3.898,3.78-6.024,8.74-6.378,13.819c-0.354,5.079,1.063,10.276,4.252,14.646l13.228,17.48
	l-0.945,1.181c-2.953,3.898-5.315,7.795-7.441,11.929c-2.008,4.134-3.78,8.386-5.315,13.11c-3.661,11.575-5.197,23.622-4.37,35.669
	c0.827,11.929,3.898,23.74,9.095,34.842c6.969,14.528,17.717,26.929,30.591,36.26c13.11,9.331,28.465,15.473,44.646,17.48
	l-0.59,4.016c-16.772-2.126-32.835-8.504-46.299-18.307c-13.465-9.567-24.685-22.559-31.89-37.795
	c-5.551-11.457-8.74-23.858-9.567-36.142c-0.827-12.52,0.709-25.157,4.606-37.205c1.535-4.961,3.425-9.449,5.551-13.701
	c2.008-3.898,4.252-7.677,6.851-11.339L41.778,81.869c-3.779-5.079-5.433-11.339-5.079-17.244
	c0.472-6.024,2.953-11.929,7.559-16.417c4.488-4.606,10.394-7.087,16.417-7.559c6.024-0.472,12.165,1.181,17.244,5.079
	l13.937,10.157c14.173-12.638,36.496-18.897,58.701-18.897s44.528,6.26,58.701,18.897l13.819-10.157
	c5.197-3.898,11.339-5.551,17.362-5.079c6.024,0.473,11.811,2.953,16.417,7.559c4.488,4.488,7.087,10.394,7.441,16.417
	c0.472,5.906-1.181,12.165-4.961,17.244L247.88,96.987c2.716,3.661,4.96,7.441,6.968,11.339c2.126,4.252,3.898,8.74,5.551,13.701
	c3.898,12.047,5.433,24.685,4.488,37.205c-0.827,12.283-3.898,24.685-9.449,36.142c-7.323,15.236-18.425,28.228-31.89,37.795
	c-13.583,9.803-29.527,16.181-46.417,18.307L176.66,247.46z"/>
<path fill-rule="evenodd" clip-rule="evenodd" fill="#F7DEA0" d="M189.534,219.704c2.598-26.338-13.819-53.858-38.976-54.921
	c-25.276,1.063-41.693,28.583-39.094,54.921c2.244-22.441,17.362-42.992,39.094-43.819
	C172.29,176.712,187.408,197.263,189.534,219.704L189.534,219.704z"/>
<path fill="#8F4A11" d="M148.313,266.239c-19.134-6.142-30.591-18.543-35.787-32.716c-3.189-8.622-4.016-17.953-2.835-26.929
	c1.181-8.977,4.37-17.598,9.094-24.685c7.205-10.984,18.307-18.543,31.654-19.134h0.118c13.465,0.59,24.449,8.15,31.772,19.134
	c4.724,7.087,7.913,15.709,8.976,24.685c1.181,8.976,0.354,18.307-2.835,26.929c-5.197,14.173-16.535,26.575-35.787,32.716
	c-0.709,0.236-1.417,0.354-2.126,0.354C149.849,266.594,149.14,266.475,148.313,266.239L148.313,266.239z M116.305,232.224
	c4.842,12.992,15.354,24.449,33.307,30.118c0.236,0.118,0.591,0.236,0.945,0.236c0.354,0,0.591-0.118,0.945-0.236
	c17.835-5.669,28.465-17.126,33.189-30.118c2.953-8.15,3.78-16.772,2.717-25.158c-1.063-8.386-4.016-16.299-8.386-22.913
	c-6.614-9.921-16.535-16.89-28.465-17.362c-12.047,0.472-21.85,7.441-28.465,17.362c-4.37,6.614-7.323,14.527-8.386,22.913
	C112.644,215.452,113.353,224.074,116.305,232.224L116.305,232.224z"/>
<path fill-rule="evenodd" clip-rule="evenodd" fill="#1A1A1A" d="M150.675,251.003c10.63-1.063,19.252-8.858,21.142-19.37
	c-6.142-15.472-36.024-15.472-42.283,0C131.542,242.145,140.164,249.94,150.675,251.003L150.675,251.003z"/>
<path fill-rule="evenodd" clip-rule="evenodd" fill="#333333" d="M145.479,244.153c-1.181-0.354-2.244-0.827-3.307-1.417
	c-5.315-2.717-9.567-7.323-11.575-13.11c-0.354,0.591-0.709,1.299-1.063,2.008c0.354,1.654,0.827,3.307,1.417,4.725
	c3.307,8.031,10.866,13.819,19.724,14.646c1.654-0.236,3.189-0.473,4.725-0.945c6.969-2.126,12.638-7.323,15.236-14.173
	c0.59-1.299,0.945-2.717,1.181-4.252c-0.236-0.709-0.591-1.417-0.945-2.008c-1.772,4.961-5.197,9.213-9.567,12.047
	c-2.599,1.535-5.433,2.717-8.622,3.307c-0.59,0.118-1.299,0.236-2.008,0.236c-1.063-0.118-2.244-0.236-3.307-0.591
	C146.66,244.507,146.069,244.389,145.479,244.153L145.479,244.153z"/>
<path fill="#1A1A1A" d="M150.675,248.877c4.843-0.354,9.095-2.48,12.52-5.551c3.307-2.953,5.669-6.969,6.614-11.457
	c-1.654-3.779-5.079-6.378-9.094-8.032c-3.071-1.181-6.496-1.772-10.039-1.772c-3.425,0-6.85,0.591-9.921,1.772
	c-4.016,1.654-7.441,4.252-9.094,8.032c0.945,4.488,3.307,8.504,6.614,11.457C141.581,246.397,145.951,248.523,150.675,248.877
	L150.675,248.877z M165.912,246.397c-4.016,3.661-9.213,6.024-15,6.496h-0.354c-5.787-0.473-10.984-2.835-15-6.496
	c-4.016-3.78-6.85-8.74-7.913-14.409l0.118-1.063c2.008-5.197,6.26-8.74,11.457-10.866c3.543-1.299,7.559-2.008,11.457-2.008
	c4.016,0,7.914,0.709,11.457,2.008c5.315,2.126,9.567,5.669,11.575,10.866l0.118,1.063
	C172.762,237.657,169.928,242.617,165.912,246.397L165.912,246.397z"/>
<path fill-rule="evenodd" clip-rule="evenodd" fill="#EB6426" d="M86.66,172.105c5.315,0,9.685,4.252,9.685,9.685
	c0,5.315-4.37,9.567-9.685,9.567c-5.315,0-9.567-4.252-9.567-9.567C77.093,176.357,81.345,172.105,86.66,172.105L86.66,172.105z"/>
<path fill-rule="evenodd" clip-rule="evenodd" fill="#EB6426" d="M214.337,172.105c5.315,0,9.685,4.252,9.685,9.685
	c0,5.315-4.37,9.567-9.685,9.567c-5.315,0-9.567-4.252-9.567-9.567C204.77,176.357,209.022,172.105,214.337,172.105L214.337,172.105
	z"/>
</svg>
