<?xml version="1.0" encoding="utf-8"?>
<!-- Generator: Adobe Illustrator 24.3.0, SVG Export Plug-In . SVG Version: 6.00 Build 0)  -->
<svg version="1.1" id="Layer_1" xmlns="http://www.w3.org/2000/svg" xmlns:xlink="http://www.w3.org/1999/xlink" x="0px" y="0px"
	 viewBox="0 0 300 300" enable-background="new 0 0 300 300" xml:space="preserve">
<path fill-rule="evenodd" clip-rule="evenodd" fill="#B86839" d="M222.428,87.42c8.74-5.433-7.087-14.291-13.11-15.118
	c-2.244-2.008-4.37-3.898-6.732-5.669c30.827-29.764,61.063,2.716,26.221,28.346c-1.181-2.48-3.071-4.842-5.669-6.968
	C222.9,87.775,222.664,87.657,222.428,87.42L222.428,87.42z"/>
<path fill-rule="evenodd" clip-rule="evenodd" fill="#C2835F" d="M209.317,72.302c17.835-16.654,34.252,1.417,13.11,15.118
	c-0.236-0.118-0.354-0.236-0.472-0.354C218.176,81.515,213.924,76.672,209.317,72.302L209.317,72.302z"/>
<path fill-rule="evenodd" clip-rule="evenodd" fill="#B86839" d="M78.569,87.42c-6.26-1.535,14.527-16.063,13.11-15.118
	c2.126-2.008,4.37-3.898,6.732-5.669c-30.827-29.764-61.063,2.716-26.22,28.346c1.181-2.48,3.071-4.842,5.669-6.968
	C78.097,87.775,78.333,87.657,78.569,87.42L78.569,87.42z"/>
<path fill-rule="evenodd" clip-rule="evenodd" fill="#C2835F" d="M91.68,72.302C73.727,55.649,57.31,73.72,78.569,87.42
	c0.118-0.118,0.354-0.236,0.472-0.354C82.821,81.515,87.073,76.672,91.68,72.302L91.68,72.302z"/>
<path fill-rule="evenodd" clip-rule="evenodd" fill="#BF7449" d="M186.758,247.105c-8.976-3.543-17.598-8.504-25.63-13.583
	c-6.142-3.898-14.764-3.898-20.906,0c-8.031,5.079-16.654,10.039-25.63,13.583c-6.26,2.48-12.638,4.016-19.488,3.543
	c6.85,6.968,16.535,10.039,25.748,10.275c10.866,0.236,16.063-1.772,24.331-7.913c4.37-3.307,6.614-3.307,10.984,0
	c8.268,6.142,13.464,8.15,24.331,7.913c9.213-0.236,18.898-3.307,25.748-10.275C199.396,251.121,192.9,249.586,186.758,247.105
	L186.758,247.105z"/>
<path fill-rule="evenodd" clip-rule="evenodd" fill="#C2835F" d="M230.577,180.137c7.913-6.496,7.441-16.417,5.315-25.039
	c-3.189-12.756-11.457-27.52-11.102-34.488c6.496-4.488,11.929-23.268-2.48-33.543c-34.961-51.024-108.307-51.024-143.268,0
	c-14.409,10.276-9.094,29.055-2.48,33.543c0.354,6.969-7.913,21.732-11.102,34.488c-2.244,8.622-2.598,18.543,5.433,24.921
	c-5.197,4.724-9.213,10.866-11.457,17.953c-4.724,15-0.354,31.417,11.22,42.047c6.142,5.669,13.819,9.213,21.732,10.394
	c7.913,1.063,15.236-0.59,22.205-3.307c8.976-3.543,17.599-8.504,25.63-13.583c6.142-3.898,14.764-3.898,20.906,0
	c8.031,5.079,16.654,10.039,25.63,13.583c6.968,2.717,14.291,4.37,22.205,3.307c7.913-1.181,15.472-4.724,21.732-10.394
	c11.575-10.63,15.945-27.047,11.221-42.047C239.79,191.003,235.774,184.861,230.577,180.137L230.577,180.137z"/>
<path fill="#BF7449" d="M96.522,249.231c2.953,3.071,6.614,5.433,10.512,6.968c4.488,1.772,9.213,2.599,13.819,2.716
	c5.197,0.118,9.094-0.236,12.52-1.417c3.425-1.181,6.614-3.189,10.63-6.142c2.48-1.89,4.488-2.835,6.614-2.835
	c2.244,0,4.252,0.945,6.732,2.835c4.016,2.953,7.205,4.961,10.63,6.142c3.425,1.181,7.323,1.535,12.52,1.417
	c4.606-0.118,9.331-0.945,13.701-2.716c4.016-1.535,7.559-3.898,10.63-6.968l2.834,2.835c-3.425,3.543-7.559,6.142-11.929,7.795
	c-4.842,2.008-10.157,2.953-15.118,3.071c-5.787,0.118-10.039-0.354-13.937-1.654c-3.898-1.299-7.441-3.425-11.693-6.732
	c-1.89-1.299-3.189-2.008-4.37-2.008c-1.063,0-2.362,0.709-4.252,2.008c-4.252,3.307-7.795,5.433-11.693,6.732
	c-4.016,1.299-8.15,1.772-13.937,1.654c-5.079-0.118-10.276-1.063-15.118-3.071c-4.37-1.654-8.504-4.252-12.047-7.795
	L96.522,249.231z"/>
<path fill="#BF7449" d="M137.624,115.885c1.063,7.087,0.827,13.701-0.709,19.724c-1.417,6.142-4.134,11.693-8.15,16.654l0,0
	c-4.134,5.197-8.268,9.921-11.575,13.583c-1.535,1.654-2.835,3.189-3.898,4.488l-3.071-2.599c0.945-1.181,2.362-2.716,3.898-4.488
	c3.307-3.661,7.441-8.268,11.575-13.465c3.543-4.488,6.023-9.567,7.323-15c1.417-5.551,1.535-11.693,0.59-18.307L137.624,115.885z"
	/>
<path fill="#B86839" d="M167.743,116.476c-1.063,6.614-0.827,12.756,0.472,18.307c1.417,5.433,3.898,10.512,7.441,15
	c4.134,5.197,8.268,9.803,11.457,13.465c1.653,1.772,3.071,3.307,4.016,4.488l-3.071,2.599c-1.181-1.299-2.48-2.835-3.898-4.488
	c-3.307-3.661-7.441-8.386-11.693-13.583l0,0c-3.898-4.961-6.614-10.512-8.15-16.654c-1.417-6.023-1.654-12.638-0.59-19.724
	L167.743,116.476z"/>
<rect x="148.609" y="196.791" fill="#B86839" width="4.016" height="22.323"/>
<path fill-rule="evenodd" clip-rule="evenodd" fill="#B86839" d="M83.884,208.011c-0.354,1.654-2.008,2.48-3.661,2.126
	c-1.535-0.473-2.48-2.008-2.008-3.661c0.354-1.535,2.008-2.48,3.543-2.008C83.412,204.822,84.357,206.476,83.884,208.011
	L83.884,208.011z"/>
<path fill-rule="evenodd" clip-rule="evenodd" fill="#B86839" d="M103.373,206.239c-0.473,1.536-2.126,2.48-3.661,2.008
	c-1.535-0.354-2.48-2.008-2.126-3.543c0.472-1.654,2.008-2.598,3.661-2.126C102.782,203.05,103.727,204.586,103.373,206.239
	L103.373,206.239z"/>
<path fill-rule="evenodd" clip-rule="evenodd" fill="#B86839" d="M116.955,222.184c-0.472,1.654-2.008,2.48-3.661,2.126
	c-1.535-0.472-2.48-2.008-2.008-3.661c0.354-1.535,2.008-2.48,3.543-2.008C116.483,218.995,117.428,220.649,116.955,222.184
	L116.955,222.184z"/>
<path fill-rule="evenodd" clip-rule="evenodd" fill="#B86839" d="M91.798,226.554c-0.473,1.535-2.008,2.48-3.661,2.008
	c-1.535-0.354-2.48-2.008-2.008-3.543c0.354-1.654,2.008-2.48,3.543-2.126C91.325,223.365,92.152,224.901,91.798,226.554
	L91.798,226.554z"/>
<path fill-rule="evenodd" clip-rule="evenodd" fill="#B86839" d="M217.467,208.011c0.354,1.654,2.008,2.48,3.543,2.126
	c1.654-0.473,2.598-2.008,2.126-3.661c-0.473-1.535-2.008-2.48-3.661-2.008C217.939,204.822,216.995,206.476,217.467,208.011
	L217.467,208.011z"/>
<path fill-rule="evenodd" clip-rule="evenodd" fill="#B86839" d="M197.979,206.239c0.472,1.536,2.126,2.48,3.661,2.008
	c1.535-0.354,2.48-2.008,2.126-3.543c-0.472-1.654-2.126-2.598-3.661-2.126C198.569,203.05,197.624,204.586,197.979,206.239
	L197.979,206.239z"/>
<path fill-rule="evenodd" clip-rule="evenodd" fill="#B86839" d="M184.396,222.184c0.354,1.654,2.008,2.48,3.661,2.126
	c1.535-0.472,2.48-2.008,2.008-3.661c-0.354-1.535-2.008-2.48-3.543-2.008C184.868,218.995,183.924,220.649,184.396,222.184
	L184.396,222.184z"/>
<path fill-rule="evenodd" clip-rule="evenodd" fill="#B86839" d="M209.553,226.554c0.472,1.535,2.008,2.48,3.661,2.008
	c1.535-0.354,2.48-2.008,2.008-3.543c-0.354-1.654-2.008-2.48-3.543-2.126C210.026,223.365,209.081,224.901,209.553,226.554
	L209.553,226.554z"/>
<path fill="#B86839" d="M133.372,181.909c-0.827,0.59-1.535,1.063-2.48,1.417c-0.827,0.473-1.654,0.827-2.598,1.063
	c-3.898,1.063-7.795,0.354-10.984-1.417c-3.189-1.89-5.669-4.961-6.614-8.74c-0.354-0.945-0.473-1.89-0.473-2.835
	c-0.118-0.945-0.118-1.89,0.118-2.835l3.898,0.59c-0.118,0.591-0.118,1.299,0,2.008c0,0.591,0.118,1.299,0.236,2.008
	c0.827,2.716,2.598,4.961,4.842,6.26l0,0c2.362,1.417,5.197,1.772,7.913,1.063c0.709-0.118,1.299-0.473,1.89-0.709
	c0.709-0.354,1.181-0.709,1.772-1.063L133.372,181.909z"/>
<path fill="#B86839" d="M171.05,178.72c0.472,0.354,1.063,0.709,1.654,1.063c0.59,0.236,1.299,0.591,2.008,0.709
	c2.717,0.709,5.551,0.354,7.795-1.063l0,0c2.362-1.299,4.134-3.543,4.842-6.26c0.236-0.709,0.354-1.417,0.354-2.008
	c0-0.709,0-1.417,0-2.008l3.898-0.59c0.118,0.945,0.236,1.89,0.118,2.835c-0.118,0.945-0.236,1.89-0.473,2.835
	c-1.063,3.78-3.543,6.85-6.732,8.74c-3.189,1.772-7.087,2.48-10.866,1.417c-0.945-0.236-1.89-0.59-2.717-1.063
	c-0.827-0.354-1.654-0.827-2.362-1.417L171.05,178.72z"/>
<path fill="#B86839" d="M182.388,168.917c-3.189,0-6.024,1.299-8.031,3.307c-2.008,2.126-3.307,4.961-3.307,8.031
	c0,3.189,1.299,6.024,3.307,8.032l0,0c2.008,2.008,4.842,3.307,8.031,3.307c3.071,0,5.906-1.299,8.032-3.307l0,0
	c2.008-2.008,3.307-4.842,3.307-8.032c0-3.071-1.299-5.905-3.307-8.031l0,0C188.294,170.216,185.459,168.917,182.388,168.917
	L182.388,168.917z M171.522,169.389c2.717-2.717,6.614-4.488,10.866-4.488s8.032,1.771,10.866,4.488
	c2.716,2.835,4.488,6.614,4.488,10.866s-1.772,8.15-4.488,10.866l0,0c-2.835,2.835-6.614,4.488-10.866,4.488
	s-8.15-1.654-10.866-4.488c-2.835-2.717-4.488-6.614-4.488-10.866S168.688,172.224,171.522,169.389L171.522,169.389z"/>
<path fill="#B86839" d="M118.963,164.901c4.252,0,8.15,1.771,10.866,4.488c2.834,2.835,4.488,6.614,4.488,10.866
	s-1.654,8.15-4.488,10.866l0,0c-2.835,2.835-6.614,4.488-10.866,4.488s-8.032-1.654-10.866-4.488
	c-2.716-2.717-4.488-6.614-4.488-10.866s1.772-8.031,4.488-10.866C110.932,166.672,114.711,164.901,118.963,164.901L118.963,164.901
	z M126.994,172.224c-2.008-2.008-4.842-3.307-8.031-3.307c-3.071,0-5.906,1.299-8.032,3.307c-2.008,2.126-3.307,4.961-3.307,8.031
	c0,3.189,1.299,6.024,3.307,8.032l0,0c2.126,2.008,4.961,3.307,8.032,3.307c3.189,0,6.024-1.299,8.031-3.307l0,0
	c2.008-2.008,3.307-4.842,3.307-8.032C130.302,177.184,129.002,174.35,126.994,172.224L126.994,172.224z"/>
<path fill-rule="evenodd" clip-rule="evenodd" fill="#CB8F6B" d="M222.31,87.066C192.9,44.192,136.443,37.342,98.412,66.633
	c-2.362,1.772-4.606,3.661-6.732,5.669c-4.606,4.37-8.858,9.213-12.638,14.764c3.661-2.48,8.032-3.898,12.402-3.898
	c33.307-31.653,85.157-31.653,118.465,0C214.278,83.168,218.648,84.586,222.31,87.066L222.31,87.066z"/>
<path fill="#B86839" d="M99.829,86.948c-4.252-1.89-8.74-2.244-12.874-1.299c-4.252,1.063-8.15,3.425-10.866,7.087
	c-2.835,3.543-4.252,7.913-4.252,12.165c0,4.37,1.417,8.622,4.252,12.284c2.717,3.543,6.614,5.905,10.866,6.968
	c4.134,0.945,8.622,0.59,12.874-1.299l1.654,3.661c-5.079,2.362-10.512,2.717-15.472,1.535c-5.079-1.299-9.803-4.134-13.11-8.386
	c-3.425-4.37-5.079-9.567-5.079-14.764c0-5.197,1.653-10.394,5.079-14.646c3.307-4.37,8.032-7.205,13.11-8.504
	c4.961-1.181,10.394-0.708,15.472,1.536L99.829,86.948z"/>
<path fill="#B86839" d="M199.868,83.287c5.079-2.244,10.512-2.717,15.472-1.536c5.079,1.299,9.685,4.134,13.11,8.504
	c3.425,4.252,5.079,9.449,5.079,14.646c0,5.197-1.654,10.394-5.079,14.764c-3.425,4.252-8.031,7.087-13.11,8.386
	c-4.961,1.181-10.394,0.827-15.472-1.535l1.654-3.661c4.252,1.89,8.74,2.244,12.874,1.299c4.252-1.063,8.032-3.425,10.866-6.968
	c2.835-3.661,4.252-7.913,4.252-12.284c0-4.252-1.417-8.622-4.252-12.165c-2.835-3.661-6.614-6.024-10.866-7.087
	c-4.134-0.945-8.622-0.59-12.874,1.299L199.868,83.287z"/>
<path fill-rule="evenodd" clip-rule="evenodd" fill="#333333" d="M90.498,98.523c3.543,0,6.378,2.835,6.378,6.378
	c0,3.543-2.835,6.378-6.378,6.378c-3.543,0-6.378-2.835-6.378-6.378C84.121,101.357,86.955,98.523,90.498,98.523L90.498,98.523z"/>
<path fill-rule="evenodd" clip-rule="evenodd" fill="#333333" d="M210.853,98.523c-3.543,0-6.378,2.835-6.378,6.378
	c0,3.543,2.835,6.378,6.378,6.378c3.425,0,6.378-2.835,6.378-6.378C217.231,101.357,214.278,98.523,210.853,98.523L210.853,98.523z"
	/>
<path fill-rule="evenodd" clip-rule="evenodd" fill="#B86839" d="M114.593,233.641c-6.968,2.835-14.291,4.488-22.205,3.307
	c-7.913-1.181-15.591-4.606-21.732-10.275c-6.732-6.26-11.102-14.528-12.519-23.268c-2.244,13.464,2.362,27.283,12.519,36.614
	c6.142,5.669,13.819,9.213,21.732,10.394c0.945,0.118,1.772,0.118,2.717,0.236c6.85,0.472,13.228-1.063,19.488-3.543
	c8.976-3.543,17.599-8.504,25.63-13.583c6.142-3.898,14.764-3.898,20.906,0c8.031,5.079,16.654,10.039,25.63,13.583
	c6.142,2.48,12.638,4.016,19.488,3.543c0.945-0.118,1.772-0.118,2.716-0.236c7.913-1.181,15.472-4.724,21.732-10.394
	c10.158-9.331,14.764-23.15,12.52-36.614c-1.417,8.74-5.787,17.008-12.52,23.268c-6.26,5.669-13.819,9.094-21.732,10.275
	c-7.913,1.181-15.236-0.472-22.205-3.307c-8.976-3.543-17.598-8.386-25.63-13.583c-3.071-1.89-6.732-2.953-10.512-2.953
	c-3.661,0-7.323,1.063-10.394,2.953C132.191,225.255,123.569,230.098,114.593,233.641L114.593,233.641z"/>
<path fill="#B86839" d="M92.979,171.869c-7.441,1.063-14.173,4.134-19.724,8.74c-5.433,4.725-9.685,10.866-11.929,17.953
	c-2.244,7.205-2.362,14.646-0.472,21.614c1.89,6.969,5.669,13.346,11.221,18.425c2.834,2.598,6.142,4.842,9.567,6.496
	c3.543,1.654,7.205,2.717,11.102,3.307c3.661,0.472,7.323,0.354,10.748-0.236c3.543-0.591,6.968-1.654,10.394-2.953
	c4.37-1.772,8.622-3.779,12.874-6.142c4.252-2.244,8.386-4.724,12.402-7.205c3.307-2.244,7.441-3.307,11.457-3.307
	c4.134,0,8.15,1.063,11.575,3.307c4.016,2.48,8.15,4.961,12.402,7.205c4.252,2.362,8.504,4.37,12.874,6.142
	c3.425,1.299,6.85,2.362,10.394,2.953c3.425,0.59,7.087,0.709,10.748,0.236c3.898-0.59,7.559-1.654,11.103-3.307
	c3.425-1.653,6.732-3.898,9.567-6.496c5.551-5.079,9.331-11.457,11.22-18.425c1.772-6.968,1.772-14.409-0.472-21.614
	c-2.244-7.087-6.496-13.228-11.929-17.953c-5.551-4.606-12.283-7.677-19.724-8.74l0.591-4.016c8.15,1.181,15.709,4.606,21.732,9.685
	c6.024,5.197,10.63,11.929,13.11,19.842c2.48,7.913,2.598,16.181,0.591,23.858c-2.126,7.559-6.26,14.646-12.402,20.315
	c-3.189,2.953-6.732,5.315-10.63,7.087c-3.78,1.89-7.914,3.071-12.165,3.661c-4.134,0.59-8.15,0.472-12.047-0.118
	c-3.78-0.591-7.559-1.772-11.103-3.189c-4.606-1.89-9.094-4.016-13.346-6.378c-4.37-2.244-8.504-4.843-12.638-7.441
	c-2.717-1.772-6.024-2.598-9.449-2.598c-3.307,0-6.614,0.827-9.331,2.598c-4.134,2.598-8.268,5.197-12.638,7.441
	c-4.252,2.362-8.74,4.488-13.346,6.378c-3.543,1.417-7.323,2.598-11.102,3.189c-3.898,0.59-7.913,0.709-12.047,0.118
	c-4.252-0.591-8.386-1.772-12.283-3.661c-3.779-1.772-7.323-4.134-10.512-7.087c-6.142-5.669-10.276-12.756-12.402-20.315
	c-2.008-7.677-1.89-15.945,0.59-23.858c2.48-7.913,7.087-14.646,13.11-19.842c6.024-5.079,13.583-8.504,21.732-9.685L92.979,171.869
	z"/>
</svg>
