<?xml version="1.0" encoding="utf-8"?>
<!-- Generator: Adobe Illustrator 24.3.0, SVG Export Plug-In . SVG Version: 6.00 Build 0)  -->
<svg version="1.1" id="Layer_1" xmlns="http://www.w3.org/2000/svg" xmlns:xlink="http://www.w3.org/1999/xlink" x="0px" y="0px"
	 viewBox="0 0 300 300" enable-background="new 0 0 300 300" xml:space="preserve">
<path fill-rule="evenodd" clip-rule="evenodd" fill="#FBCB43" d="M58.55,79.035c-20.433,30.354-27.402,74.527-4.252,118.819
	c1.772-13.583,2.598-20.433,2.598-20.433c11.811,27.52,29.055,52.087,50.787,71.811c-0.709-10.04-1.063-15.118-1.063-15.118
	c13.346,13.819,28.11,26.102,43.937,36.732c15.709-10.63,30.473-22.913,43.937-36.732c0,0-0.354,5.079-1.181,15.118
	c21.732-19.725,39.094-44.291,50.787-71.811c0,0,0.945,6.85,2.717,20.433c23.032-44.291,16.063-88.464-4.37-118.819l-22.323-24.449
	c-20.551-15.236-50.787-26.339-69.213-8.977c-18.425-17.362-48.661-6.26-69.213,8.977L58.55,79.035z"/>
<path fill-rule="evenodd" clip-rule="evenodd" fill="#D9AA27" d="M107.684,232.342c-21.732-19.842-38.976-44.291-50.787-71.811
	l-2.598,20.315c-8.622-16.299-12.992-32.598-14.173-48.189c-1.535,20.433,2.48,42.756,14.173,65.197l2.598-20.433
	c11.811,27.52,29.055,52.087,50.787,71.811l-1.063-15.118c13.346,13.819,28.11,26.102,43.937,36.732
	c15.709-10.63,30.473-22.913,43.937-36.732l-1.181,15.118c21.732-19.725,39.094-44.291,50.787-71.811l2.717,20.433
	c11.693-22.441,15.591-44.764,14.055-65.197c-1.063,15.591-5.551,31.89-14.055,48.189l-2.717-20.315
	c-11.693,27.52-29.055,51.969-50.787,71.811l1.181-15.236c-13.465,13.819-28.228,26.102-43.937,36.85
	c-15.827-10.748-30.59-23.032-43.937-36.85L107.684,232.342z"/>
<path fill-rule="evenodd" clip-rule="evenodd" fill="#FFEBB1" d="M89.14,126.042c-0.591-17.599,6.614-34.488,19.134-46.299
	c3.189-2.953,6.496-6.968,10.394-9.331c6.142-3.543,12.992-4.724,19.843-5.905c3.898-0.827,8.504,3.78,12.402,3.78
	c3.189,0,5.787-4.606,8.976-4.016c6.614,1.063,18.543,3.071,24.567,6.378c0.591,0.354-0.118,2.953,0.472,3.307
	c1.299,0.827-1.535-0.354-0.236,0.473c16.654,11.693,26.339,31.063,25.748,51.614c1.299,20.315-6.969,36.851-24.921,49.724
	c7.205,8.622,6.024,21.496-2.598,28.701c-8.622,7.205-21.496,6.024-28.701-2.598c-2.362-3.425-4.016-5.787-4.37-7.323
	c-0.236,1.181-2.008,3.662-4.488,7.323c-7.205,8.622-20.079,9.803-28.701,2.598c-8.622-7.205-9.803-20.079-2.717-28.701
	C96.109,162.893,87.841,146.357,89.14,126.042L89.14,126.042z"/>
<path fill="#C2910A" d="M125.872,209.428c-0.236-1.063,0.591-2.126,1.653-2.362c1.063-0.118,2.126,0.59,2.362,1.653
	c1.063,6.496,4.842,10.984,9.803,13.465c3.071,1.654,6.614,2.48,10.157,2.48s7.087-0.827,10.276-2.362
	c4.842-2.48,8.74-7.086,9.803-13.583c0.236-1.063,1.299-1.771,2.362-1.653c1.063,0.236,1.89,1.299,1.654,2.362
	c-1.417,7.913-6.142,13.347-12.047,16.417c-3.661,1.89-7.913,2.835-12.047,2.835c-4.134,0-8.386-0.945-12.047-2.835
	C131.896,222.775,127.29,217.342,125.872,209.428L125.872,209.428z"/>
<path fill="#C2910A" d="M150.676,188.405c1.417-3.543,3.307-6.378,5.906-8.74c2.362-2.244,5.315-4.016,8.622-5.433
	c0,0,0-0.118,0-0.236c0-0.236,0-0.354-0.118-0.473c-0.354-0.472-0.709-0.827-1.181-1.181c-3.543-3.189-8.504-4.843-13.346-4.843l0,0
	c-4.961,0-9.803,1.654-13.465,4.843c-0.354,0.354-0.709,0.709-1.063,1.181c-0.118,0.118-0.236,0.236-0.236,0.473
	c0,0.118,0,0.236,0.118,0.236c3.189,1.181,6.142,2.835,8.504,5.079c2.599,2.362,4.606,5.315,6.024,9.095l0,0
	C150.557,188.405,150.557,188.405,150.676,188.405L150.676,188.405z M159.298,182.617c-2.126,2.008-3.779,4.488-4.961,7.441
	c-0.472,1.063-1.299,1.772-2.244,2.126c-0.473,0.118-1.063,0.236-1.654,0.236l0,0c-0.591,0-1.063-0.118-1.654-0.354
	c-0.945-0.354-1.654-1.063-2.008-2.126c-1.181-3.189-2.835-5.787-4.961-7.677c-2.244-2.008-4.842-3.425-7.795-4.37
	c-0.354-0.118-0.591-0.354-0.709-0.473c-0.945-0.945-1.417-2.126-1.535-3.307c0-1.181,0.354-2.362,1.299-3.307
	c0.354-0.472,0.827-0.945,1.299-1.417c4.37-3.898,10.276-5.905,16.181-5.905l0,0c5.787,0,11.693,2.008,16.063,5.905
	c0.472,0.473,0.945,0.945,1.417,1.417c0.827,0.945,1.299,2.126,1.181,3.307c0,1.181-0.473,2.244-1.299,3.189
	c-0.236,0.236-0.472,0.354-0.827,0.473C164.022,178.956,161.424,180.609,159.298,182.617L159.298,182.617z"/>
<path fill-rule="evenodd" clip-rule="evenodd" fill="#FFFFFF" d="M112.054,132.539l16.299,12.165
	c-1.89,2.598-4.843,4.252-8.268,4.252c-5.669,0-10.158-4.488-10.158-10.158C109.928,136.436,110.754,134.192,112.054,132.539
	L112.054,132.539z"/>
<path fill="#C2910A" d="M127.054,143.287c0.591-0.827,1.89-1.063,2.717-0.472c0.945,0.709,1.181,1.89,0.472,2.835
	c-1.063,1.535-2.598,2.835-4.252,3.78c-1.772,0.827-3.661,1.299-5.669,1.299c-3.307,0-6.378-1.299-8.622-3.543v-0.118
	c-2.244-2.126-3.543-5.197-3.543-8.504c0-1.299,0.236-2.717,0.709-4.016c0.473-1.299,1.181-2.48,2.008-3.543
	c0.59-0.827,1.89-0.945,2.835-0.236c0.827,0.59,0.945,1.89,0.236,2.717c-0.59,0.709-0.945,1.535-1.299,2.48
	c-0.236,0.827-0.473,1.654-0.473,2.598c0,2.244,0.945,4.252,2.362,5.669l0.118,0.118c1.417,1.536,3.425,2.362,5.669,2.362
	c1.417,0,2.717-0.236,3.78-0.827C125.282,145.294,126.227,144.349,127.054,143.287L127.054,143.287z"/>
<path fill="#C2910A" d="M117.605,137.263c0-1.063,0.945-2.008,2.008-2.008c1.063,0,2.008,0.945,2.008,2.008v5.905
	c0,1.063-0.945,2.008-2.008,2.008c-1.063,0-2.008-0.945-2.008-2.008V137.263z"/>
<path fill-rule="evenodd" clip-rule="evenodd" fill="#FFFFFF" d="M188.943,132.539l-16.181,12.165
	c1.771,2.598,4.842,4.252,8.268,4.252c5.551,0,10.157-4.488,10.157-10.158C191.187,136.436,190.361,134.192,188.943,132.539
	L188.943,132.539z"/>
<path fill="#C2910A" d="M170.754,145.649c-0.59-0.945-0.354-2.126,0.472-2.835c0.945-0.59,2.126-0.354,2.835,0.472
	c0.709,1.063,1.772,2.008,2.953,2.598c1.063,0.591,2.362,0.827,3.661,0.827c2.244,0,4.37-0.827,5.787-2.362l0.118-0.118
	c1.417-1.417,2.244-3.425,2.244-5.669c0-0.945-0.118-1.772-0.354-2.598c-0.354-0.945-0.827-1.772-1.417-2.48
	c-0.59-0.827-0.472-2.126,0.354-2.717c0.827-0.709,2.126-0.59,2.835,0.236c0.827,1.063,1.535,2.244,2.008,3.543
	c0.354,1.299,0.59,2.717,0.59,4.016c0,3.307-1.299,6.378-3.425,8.504l-0.118,0.118c-2.244,2.244-5.197,3.543-8.622,3.543
	c-2.008,0-3.898-0.473-5.551-1.299C173.353,148.484,171.936,147.184,170.754,145.649L170.754,145.649z"/>
<path fill="#C2910A" d="M179.494,137.263c0-1.063,0.827-2.008,2.008-2.008c1.063,0,2.008,0.945,2.008,2.008v5.905
	c0,1.063-0.945,2.008-2.008,2.008c-1.181,0-2.008-0.945-2.008-2.008V137.263z"/>
<path fill="#C2910A" d="M103.432,127.696c-0.827-0.709-1.063-2.008-0.354-2.835c0.591-0.945,1.89-1.063,2.835-0.354l29.055,21.732
	c0.591,0.473,0.827,1.063,0.827,1.654l0,0v26.22c0,1.063-0.945,2.008-2.008,2.008c-1.063,0-2.008-0.945-2.008-2.008v-25.275
	L103.432,127.696z"/>
<path fill="#C2910A" d="M195.203,124.507c0.827-0.709,2.126-0.591,2.835,0.354c0.59,0.827,0.472,2.126-0.472,2.835l-28.228,21.142
	v25.275c0,1.063-0.945,2.008-2.008,2.008c-1.181,0-2.008-0.945-2.008-2.008v-26.22l0,0c0-0.59,0.236-1.181,0.827-1.654
	L195.203,124.507z"/>
<path fill-rule="evenodd" clip-rule="evenodd" fill="#FFDA75" d="M57.132,81.279c-9.331,14.646-15.59,32.126-17.008,51.378
	c0.118,1.653,0.354,3.307,0.473,4.961c2.244-18.189,8.74-34.724,17.953-48.543l1.772-1.771
	C58.904,85.294,57.841,83.287,57.132,81.279L57.132,81.279z"/>
<path fill-rule="evenodd" clip-rule="evenodd" fill="#FFDA75" d="M242.447,89.074c9.331,13.819,15.827,30.354,17.953,48.543
	c0.236-1.654,0.354-3.307,0.473-4.961c-1.417-19.252-7.559-36.732-16.89-51.378c-0.827,2.008-1.89,3.898-3.189,5.905L242.447,89.074
	z"/>
<path fill-rule="evenodd" clip-rule="evenodd" fill="#FFDA75" d="M150.912,45.609c-18.425-17.362-48.661-6.26-69.213,8.977
	l-0.354,0.354c2.835,0.827,5.906,2.008,8.977,3.898c19.724-11.811,44.646-18.189,60.59-3.189
	c15.827-14.882,40.512-8.74,60.236,2.953c3.189-1.89,6.26-3.071,9.213-3.78l-0.236-0.236
	C199.573,39.35,169.337,28.247,150.912,45.609L150.912,45.609z"/>
<path fill="#C2910A" d="M105.676,92.381c0.827-4.606,3.543-8.977,7.323-12.284c2.008-1.654,4.37-3.071,6.85-3.898
	c-1.89-0.354-3.78-0.354-5.669,0l-5.315,1.063l3.425-4.252c4.724-5.787,10.984-9.213,17.716-10.276
	c6.614-1.063,13.937,0,20.906,3.307c6.969-3.189,14.291-4.37,20.906-3.307c6.732,1.063,12.992,4.488,17.716,10.276l3.425,4.252
	l-5.315-1.063c-1.89-0.354-3.78-0.354-5.669,0c2.48,0.827,4.843,2.244,6.85,3.898c3.78,3.307,6.378,7.677,7.323,12.284l-3.898,0.827
	c-0.827-3.78-2.953-7.323-6.024-10.039c-2.953-2.48-6.732-4.134-10.748-4.252l-5.669-0.118l4.488-3.425
	c2.008-1.654,4.252-2.598,6.496-3.071c0.709-0.118,1.417-0.236,2.126-0.354c-3.425-2.835-7.441-4.606-11.693-5.315
	c-6.142-0.945-12.874,0.236-19.37,3.425l-0.945,0.472l-0.945-0.472c-6.496-3.189-13.228-4.37-19.37-3.425
	c-4.252,0.709-8.268,2.48-11.693,5.315c0.709,0.118,1.417,0.236,2.126,0.354c2.244,0.473,4.488,1.417,6.496,3.071l4.488,3.425
	l-5.669,0.118c-4.016,0.118-7.795,1.772-10.748,4.252c-3.071,2.716-5.315,6.26-6.024,10.039L105.676,92.381z"/>
<path fill-rule="evenodd" clip-rule="evenodd" fill="#FBCB43" d="M99.18,65.806L72.487,99.349
	C34.573,72.302,67.054,34.625,99.18,65.806L99.18,65.806z"/>
<path fill-rule="evenodd" clip-rule="evenodd" fill="#D9AA27" d="M90.321,73.365L78.038,88.72
	C60.676,76.318,75.558,59.074,90.321,73.365L90.321,73.365z"/>
<path fill-rule="evenodd" clip-rule="evenodd" fill="#FBCB43" d="M201.817,65.806l26.811,33.543
	C266.542,72.302,233.943,34.625,201.817,65.806L201.817,65.806z"/>
<path fill-rule="evenodd" clip-rule="evenodd" fill="#D9AA27" d="M210.794,73.365l12.165,15.354
	C240.439,76.318,225.557,59.074,210.794,73.365L210.794,73.365z"/>
</svg>
