<?xml version="1.0" encoding="utf-8"?>
<!-- Generator: Adobe Illustrator 24.3.0, SVG Export Plug-In . SVG Version: 6.00 Build 0)  -->
<svg version="1.1" id="Layer_1" xmlns="http://www.w3.org/2000/svg" xmlns:xlink="http://www.w3.org/1999/xlink" x="0px" y="0px"
	 viewBox="0 0 300 300" enable-background="new 0 0 300 300" xml:space="preserve">
<path fill-rule="evenodd" clip-rule="evenodd" fill="#99AAB2" d="M76.207,127.224c0.827,23.976,13.583,46.417,34.606,59.173
	c1.653-3.78,3.78-7.323,6.378-10.512c1.772-2.244,3.78-4.252,5.905-6.023c7.559-6.496,17.362-10.512,27.756-10.394
	c13.346,0,25.512,6.496,33.661,16.417c2.598,3.189,4.842,6.732,6.496,10.512c21.023-12.756,33.898-35.315,34.606-59.409
	c0.118-4.252-0.118-8.622-0.827-12.992c-0.354-2.244-0.709-4.488-1.299-6.732c-2.362-9.449-6.614-18.189-12.165-25.63
	c-0.118,0-0.118,0-0.118,0c-28.819-38.622-91.535-38.622-120.59-0.118c0,0-0.118,0.118-0.236,0.236
	c-5.551,7.441-9.685,16.063-12.047,25.512C76.68,113.995,75.971,120.609,76.207,127.224L76.207,127.224z"/>
<path fill-rule="evenodd" clip-rule="evenodd" fill="#99AAB2" d="M110.813,186.397c-2.362,5.197-3.661,10.866-3.78,16.654
	c10.275,13.937,26.457,22.323,43.819,22.559v-16.89c-1.063-5.079-3.189-9.921-6.142-14.41c-6.378-9.567-16.299-16.181-27.52-18.425
	C114.593,179.074,112.467,182.617,110.813,186.397L110.813,186.397z"/>
<path fill-rule="evenodd" clip-rule="evenodd" fill="#99AAB2" d="M184.514,175.885c-11.221,2.244-21.024,8.858-27.402,18.425
	c-2.953,4.488-5.079,9.331-6.26,14.41v16.89c0.236,0,0.59,0,0.827,0c16.772,0,32.598-7.677,43.11-20.551
	c0.118-6.496-1.181-12.874-3.779-18.661C189.357,182.617,187.113,179.074,184.514,175.885L184.514,175.885z"/>
<path fill-rule="evenodd" clip-rule="evenodd" fill="#4E575E" d="M107.034,203.05c-0.118,6.614,1.299,13.346,4.606,19.842
	c16.535,33.189,62.008,33.189,78.543,0c2.953-5.906,4.37-11.929,4.606-17.835c-10.512,12.874-26.339,20.551-43.11,20.551
	c-0.236,0-0.591,0-0.827,0C133.491,225.373,117.309,216.987,107.034,203.05L107.034,203.05z"/>
<path fill-rule="evenodd" clip-rule="evenodd" fill="#4E575E" d="M80.577,76.318c-11.22-6.378-25.512-2.244-31.772,8.858
	c-6.26,11.22-2.244,25.512,8.976,31.772l18.425,10.276c-0.118-4.252,0.118-8.622,0.709-12.992l-10.63-6.023
	c-5.433-3.071-7.441-10.158-4.37-15.709c3.071-5.551,10.157-7.559,15.709-4.37l6.496,3.661c1.89-3.543,3.898-6.85,6.26-10.039
	L80.577,76.318z"/>
<path fill-rule="evenodd" clip-rule="evenodd" fill="#99AAB2" d="M61.916,92.499c-3.071,5.551-1.063,12.638,4.37,15.709l10.63,6.023
	c0.354-2.362,0.827-4.606,1.417-6.969c1.299-5.433,3.307-10.63,5.787-15.472l-6.496-3.661C72.073,84.94,64.987,86.948,61.916,92.499
	L61.916,92.499z"/>
<path fill="#4E575E" d="M108.687,201.869c4.961,6.851,11.457,12.284,18.898,15.945c7.323,3.78,15.59,5.787,24.094,5.787
	c8.031,0,15.945-1.89,22.913-5.197c7.205-3.425,13.583-8.386,18.543-14.646l3.189,2.598c-5.433,6.614-12.284,12.047-19.961,15.709
	c-7.559,3.543-16.063,5.551-24.685,5.551c-9.213,0-17.953-2.244-25.866-6.142c-8.032-4.016-15-9.921-20.433-17.244L108.687,201.869z
	"/>
<path fill="#4E575E" d="M178.372,168.562l26.811-31.299c3.425-4.606,4.961-10.039,4.842-15.354
	c-0.236-5.433-2.244-10.748-5.906-15.118c-3.779-4.37-8.74-7.087-14.055-8.15c-5.315-0.945-10.984-0.118-15.945,2.48l-22.677,13.937
	l-22.559-13.937c-5.079-2.599-10.63-3.425-15.945-2.48c-5.315,1.063-10.394,3.78-14.055,8.15c-3.78,4.37-5.669,9.685-5.906,15.118
	c-0.118,5.315,1.417,10.748,4.842,15.354l26.811,31.299l-3.071,2.598L94.75,139.861l-0.118-0.118
	c-4.016-5.315-5.906-11.693-5.669-17.953c0.236-6.378,2.48-12.52,6.85-17.598c4.37-5.079,10.158-8.268,16.299-9.449
	c6.26-1.181,12.874-0.236,18.661,2.953l20.669,12.756l20.669-12.756c5.906-3.189,12.52-4.134,18.661-2.953
	c6.26,1.181,12.047,4.37,16.417,9.449c4.252,5.079,6.614,11.221,6.732,17.598c0.236,6.26-1.654,12.638-5.669,17.953v0.118
	l-26.811,31.299L178.372,168.562z"/>
<rect x="143.766" y="169.979" width="4.016" height="8.858"/>
<rect x="154.042" y="169.979" width="4.016" height="8.858"/>
<path fill-rule="evenodd" clip-rule="evenodd" fill="#FFFFFF" d="M118.963,111.042c-8.268,0-15,6.732-15,15.118
	c0,8.268,6.732,15.118,15,15.118c8.386,0,15.118-6.851,15.118-15.118C134.081,117.775,127.349,111.042,118.963,111.042
	L118.963,111.042z M118.963,122.145c2.244,0,4.016,1.772,4.016,4.016c0,2.126-1.772,3.898-4.016,3.898
	c-2.126,0-3.898-1.772-3.898-3.898C115.065,123.916,116.837,122.145,118.963,122.145L118.963,122.145z"/>
<path fill="#221F20" d="M118.963,111.515c-4.016,0-7.677,1.653-10.276,4.252c-2.716,2.717-4.252,6.378-4.252,10.394
	c0,4.016,1.535,7.677,4.252,10.276c2.598,2.717,6.26,4.37,10.276,4.37c4.134,0,7.677-1.654,10.394-4.37
	c2.598-2.598,4.252-6.26,4.252-10.276c0-4.016-1.654-7.677-4.252-10.394C126.64,113.168,123.097,111.515,118.963,111.515
	L118.963,111.515z M107.979,115.176c2.835-2.835,6.732-4.606,10.984-4.606c4.37,0,8.268,1.772,10.984,4.606
	c2.835,2.835,4.606,6.732,4.606,10.984c0,4.252-1.771,8.15-4.606,10.984c-2.717,2.835-6.614,4.488-10.984,4.488
	c-4.252,0-8.15-1.654-10.984-4.488c-2.835-2.835-4.488-6.732-4.488-10.984C103.49,121.909,105.144,118.011,107.979,115.176
	L107.979,115.176z M118.963,121.79c1.299,0,2.362,0.473,3.189,1.181c0.827,0.827,1.299,2.008,1.299,3.189
	c0,1.181-0.472,2.362-1.299,3.071c-0.827,0.827-1.89,1.299-3.189,1.299c-1.181,0-2.244-0.472-3.071-1.299
	c-0.827-0.709-1.299-1.89-1.299-3.071c0-1.181,0.472-2.362,1.299-3.189C116.719,122.263,117.782,121.79,118.963,121.79
	L118.963,121.79z M121.443,123.68c-0.59-0.59-1.535-1.063-2.48-1.063c-0.945,0-1.772,0.472-2.362,1.063
	c-0.709,0.59-1.063,1.535-1.063,2.48c0,0.945,0.354,1.771,1.063,2.48c0.591,0.59,1.417,0.945,2.362,0.945
	c0.945,0,1.89-0.354,2.48-0.945c0.709-0.709,1.063-1.535,1.063-2.48C122.506,125.216,122.152,124.271,121.443,123.68L121.443,123.68
	z"/>
<path fill-rule="evenodd" clip-rule="evenodd" fill="#FFFFFF" d="M183.924,111.042c-8.268,0-15,6.732-15,15.118
	c0,8.268,6.732,15.118,15,15.118c8.386,0,15.118-6.851,15.118-15.118C199.042,117.775,192.309,111.042,183.924,111.042
	L183.924,111.042z M183.924,122.145c2.244,0,4.016,1.772,4.016,4.016c0,2.126-1.772,3.898-4.016,3.898
	c-2.126,0-3.898-1.772-3.898-3.898C180.026,123.916,181.798,122.145,183.924,122.145L183.924,122.145z"/>
<path fill="#221F20" d="M183.924,111.515c-4.016,0-7.677,1.653-10.276,4.252c-2.716,2.717-4.252,6.378-4.252,10.394
	c0,4.016,1.535,7.677,4.252,10.276c2.599,2.717,6.26,4.37,10.276,4.37c4.016,0,7.677-1.654,10.394-4.37
	c2.599-2.598,4.252-6.26,4.252-10.276c0-4.016-1.654-7.677-4.252-10.394C191.601,113.168,187.939,111.515,183.924,111.515
	L183.924,111.515z M172.939,115.176c2.835-2.835,6.732-4.606,10.984-4.606c4.37,0,8.268,1.772,10.984,4.606
	c2.835,2.835,4.606,6.732,4.606,10.984c0,4.252-1.772,8.15-4.606,10.984c-2.717,2.835-6.614,4.488-10.984,4.488
	c-4.252,0-8.15-1.654-10.984-4.488c-2.835-2.835-4.488-6.732-4.488-10.984C168.451,121.909,170.105,118.011,172.939,115.176
	L172.939,115.176z M183.924,121.79c1.299,0,2.362,0.473,3.189,1.181c0.709,0.827,1.299,2.008,1.299,3.189
	c0,1.181-0.59,2.362-1.299,3.071c-0.827,0.827-1.89,1.299-3.189,1.299c-1.181,0-2.244-0.472-3.071-1.299
	c-0.827-0.709-1.299-1.89-1.299-3.071c0-1.181,0.472-2.362,1.299-3.189C181.679,122.263,182.742,121.79,183.924,121.79
	L183.924,121.79z M186.404,123.68c-0.591-0.59-1.535-1.063-2.48-1.063c-0.945,0-1.772,0.472-2.362,1.063
	c-0.709,0.59-1.063,1.535-1.063,2.48c0,0.945,0.354,1.771,1.063,2.48c0.591,0.59,1.417,0.945,2.362,0.945
	c0.945,0,1.89-0.354,2.48-0.945c0.59-0.709,1.063-1.535,1.063-2.48C187.467,125.216,186.994,124.271,186.404,123.68L186.404,123.68z
	"/>
<path fill-rule="evenodd" clip-rule="evenodd" fill="#4E575E" d="M220.42,76.318c11.221-6.378,25.394-2.244,31.654,8.858
	c6.378,11.22,2.362,25.512-8.858,31.772l-18.425,10.276c0.118-4.252-0.118-8.622-0.709-12.992l10.512-6.023
	c5.551-3.071,7.559-10.158,4.488-15.709c-3.071-5.551-10.158-7.559-15.709-4.37l-6.496,3.661c-1.89-3.543-4.016-6.85-6.26-10.039
	L220.42,76.318z"/>
<path fill-rule="evenodd" clip-rule="evenodd" fill="#99AAB2" d="M239.081,92.499c3.071,5.551,1.063,12.638-4.488,15.709
	l-10.512,6.023c-0.354-2.362-0.827-4.606-1.417-6.969c-1.417-5.433-3.307-10.63-5.787-15.472l6.496-3.661
	C228.924,84.94,236.01,86.948,239.081,92.499L239.081,92.499z"/>
<path fill-rule="evenodd" clip-rule="evenodd" fill="#FFFFFF" d="M118.963,111.042c8.386,0,15.118,6.732,15.118,15.118
	c0,8.268-6.732,15.118-15.118,15.118c-8.268,0-15-6.851-15-15.118C103.963,117.775,110.695,111.042,118.963,111.042L118.963,111.042
	z"/>
<path fill="#4E575E" d="M118.963,109.035c4.725,0,8.976,1.89,12.165,5.079c3.071,3.071,4.961,7.323,4.961,12.047
	s-1.89,8.976-4.961,12.047c-3.189,3.071-7.441,5.079-12.165,5.079c-4.724,0-8.976-2.008-12.047-5.079
	c-3.071-3.071-4.961-7.323-4.961-12.047s1.89-8.977,4.961-12.047C109.987,110.924,114.239,109.035,118.963,109.035L118.963,109.035z
	 M128.294,116.948c-2.362-2.362-5.669-3.898-9.331-3.898c-3.543,0-6.85,1.536-9.213,3.898c-2.362,2.362-3.78,5.551-3.78,9.213
	c0,3.543,1.417,6.85,3.78,9.213c2.362,2.362,5.669,3.78,9.213,3.78c3.661,0,6.968-1.417,9.331-3.78
	c2.362-2.362,3.779-5.669,3.779-9.213C132.073,122.499,130.656,119.31,128.294,116.948L128.294,116.948z"/>
<path fill-rule="evenodd" clip-rule="evenodd" fill="#4E575E" d="M118.963,122.145c2.244,0,4.016,1.772,4.016,4.016
	c0,2.126-1.772,3.898-4.016,3.898c-2.126,0-3.898-1.772-3.898-3.898C115.065,123.916,116.837,122.145,118.963,122.145
	L118.963,122.145z"/>
<path fill-rule="evenodd" clip-rule="evenodd" fill="#FFFFFF" d="M183.924,111.042c8.386,0,15.118,6.732,15.118,15.118
	c0,8.268-6.732,15.118-15.118,15.118c-8.268,0-15-6.851-15-15.118C168.924,117.775,175.656,111.042,183.924,111.042L183.924,111.042
	z"/>
<path fill="#4E575E" d="M183.924,109.035c4.724,0,8.976,1.89,12.165,5.079c3.071,3.071,4.961,7.323,4.961,12.047
	s-1.89,8.976-4.961,12.047c-3.189,3.071-7.441,5.079-12.165,5.079c-4.724,0-8.976-2.008-12.047-5.079
	c-3.071-3.071-4.961-7.323-4.961-12.047s1.89-8.977,4.961-12.047C174.947,110.924,179.199,109.035,183.924,109.035L183.924,109.035z
	 M193.254,116.948c-2.362-2.362-5.669-3.898-9.331-3.898c-3.543,0-6.85,1.536-9.213,3.898c-2.362,2.362-3.78,5.551-3.78,9.213
	c0,3.543,1.417,6.85,3.78,9.213c2.362,2.362,5.669,3.78,9.213,3.78c3.661,0,6.968-1.417,9.331-3.78
	c2.362-2.362,3.78-5.669,3.78-9.213C197.034,122.499,195.616,119.31,193.254,116.948L193.254,116.948z"/>
<path fill-rule="evenodd" clip-rule="evenodd" fill="#4E575E" d="M183.924,122.145c2.244,0,4.016,1.772,4.016,4.016
	c0,2.126-1.772,3.898-4.016,3.898c-2.126,0-3.898-1.772-3.898-3.898C180.026,123.916,181.798,122.145,183.924,122.145
	L183.924,122.145z"/>
<path fill-rule="evenodd" clip-rule="evenodd" fill="#B4C2C7" d="M211.089,81.515c-28.937-38.504-91.535-38.504-120.472,0
	l-0.236,0.236c-2.362,3.189-4.37,6.496-6.26,10.039c-2.48,4.843-4.488,10.039-5.787,15.472c-0.591,2.362-1.063,4.606-1.417,6.969
	c-0.59,4.37-0.827,8.74-0.709,12.992c0,0.945,0.118,2.008,0.118,2.953c0.354-4.134,0.945-8.15,2.008-12.283
	c2.362-9.449,6.496-18.071,12.047-25.512l0.236-0.236c29.055-38.504,91.771-38.504,120.59,0.118h0.118
	c5.551,7.441,9.803,16.181,12.165,25.63c0.59,2.244,0.945,4.488,1.299,6.732c0,0,0,0,0,0.118c0-3.543-0.236-7.087-0.709-10.512
	c-0.354-2.362-0.827-4.606-1.417-6.969c-1.417-5.433-3.307-10.63-5.787-15.472c-1.89-3.543-4.016-6.85-6.26-10.039L211.089,81.515z"
	/>
<path fill-rule="evenodd" clip-rule="evenodd" fill="#3B454D" d="M107.742,203.995c-0.236-0.236-0.472-0.59-0.709-0.945
	C107.27,203.405,107.506,203.759,107.742,203.995L107.742,203.995z M190.183,215.334c-16.536,33.189-62.008,33.189-78.543,0
	c-1.89-3.661-3.189-7.559-3.898-11.339c-0.236-1.299-0.472-2.598-0.59-3.898c0,0.945-0.118,2.008-0.118,2.953
	c-0.118,6.614,1.299,13.346,4.606,19.842c16.535,33.189,62.008,33.189,78.543,0c2.953-5.906,4.37-11.929,4.606-17.835
	c-0.472,0.472-0.827,0.945-1.299,1.535C192.782,209.546,191.601,212.499,190.183,215.334L190.183,215.334z"/>
<path fill-rule="evenodd" clip-rule="evenodd" fill="#B4C2C7" d="M123.097,169.861c-2.126,1.772-4.134,3.779-5.905,6.023
	c11.22,2.244,21.142,8.858,27.52,18.425c2.953,4.488,5.079,9.331,6.142,14.41c1.181-5.079,3.307-9.921,6.26-14.41
	c6.378-9.567,16.181-16.181,27.402-18.425c-8.15-9.921-20.315-16.417-33.661-16.417
	C140.459,159.349,130.656,163.365,123.097,169.861L123.097,169.861z"/>
<path fill="#4E575E" d="M188.412,222.066c3.071-6.142,4.37-12.283,4.37-18.425c-0.118-8.032-2.598-15.709-6.85-22.323
	c-4.252-6.614-10.275-12.165-17.244-15.591c-5.433-2.717-11.457-4.252-17.835-4.252l0,0c-6.378-0.118-12.402,1.417-17.835,4.134
	c-6.968,3.543-12.874,8.858-17.126,15.472c-4.252,6.496-6.732,14.173-6.85,22.205c-0.118,6.142,1.299,12.52,4.37,18.78
	c4.488,9.094,11.339,15.473,19.016,19.37c5.787,2.953,12.165,4.37,18.425,4.37c6.378,0,12.638-1.417,18.425-4.37
	C177.073,237.539,183.806,231.16,188.412,222.066L188.412,222.066z M196.798,203.641c0,6.614-1.536,13.465-4.842,20.197
	c-4.961,9.921-12.402,17.008-20.906,21.142c-6.26,3.189-13.228,4.842-20.197,4.842c-6.85,0-13.819-1.654-20.197-4.842
	c-8.504-4.134-15.945-11.221-20.905-21.142c-3.307-6.85-4.843-13.819-4.724-20.551c0.118-8.858,2.835-17.244,7.441-24.331
	c4.725-7.205,11.102-13.11,18.78-16.89c5.906-2.953,12.638-4.724,19.606-4.606c6.968,0,13.701,1.654,19.606,4.724
	c7.677,3.779,14.291,9.685,18.898,16.89C193.963,186.397,196.679,194.782,196.798,203.641L196.798,203.641z"/>
<path fill="#4E575E" d="M148.963,209.192c-0.59-2.362-1.299-4.842-2.362-7.087c-0.945-2.362-2.126-4.606-3.543-6.614
	c-3.071-4.606-6.968-8.504-11.339-11.457c-4.488-2.953-9.567-5.079-14.882-6.26l0.827-3.898c5.787,1.181,11.339,3.543,16.299,6.85
	c4.842,3.307,9.094,7.441,12.402,12.52c1.535,2.244,2.835,4.725,3.898,7.205c1.063,2.598,2.008,5.197,2.598,7.913L148.963,209.192z"
	/>
<path fill="#4E575E" d="M148.963,208.365c0.59-2.717,1.417-5.315,2.48-7.913c1.181-2.48,2.48-4.961,4.016-7.205
	c3.307-4.961,7.559-9.213,12.402-12.52s10.394-5.669,16.181-6.85l0.827,3.898c-5.315,1.181-10.276,3.307-14.764,6.26
	c-4.488,3.071-8.268,6.85-11.339,11.457c-1.417,2.008-2.598,4.252-3.543,6.614c-1.063,2.244-1.771,4.724-2.362,7.087
	L148.963,208.365z"/>
<rect x="148.845" y="208.72" fill="#4E575E" width="4.016" height="16.89"/>
</svg>
