<?xml version="1.0" encoding="utf-8"?>
<!-- Generator: Adobe Illustrator 24.3.0, SVG Export Plug-In . SVG Version: 6.00 Build 0)  -->
<svg version="1.1" id="Layer_1" xmlns="http://www.w3.org/2000/svg" xmlns:xlink="http://www.w3.org/1999/xlink" x="0px" y="0px"
	 viewBox="0 0 300 300" enable-background="new 0 0 300 300" xml:space="preserve">
<path fill-rule="evenodd" clip-rule="evenodd" d="M208.136,67.401c14.291,9.094,25.984,22.323,35.197,39.803l13.11-11.811
	c22.913-21.496-10.866-58.819-35.906-38.386L208.136,67.401z"/>
<path fill-rule="evenodd" clip-rule="evenodd" fill="#1A1A1A" d="M215.813,74.133c8.858,5.551,16.181,13.819,21.85,24.567
	l8.031-7.323c14.291-13.346-6.614-36.378-22.205-23.74L215.813,74.133z"/>
<path fill-rule="evenodd" clip-rule="evenodd" d="M92.861,67.401c-14.291,9.094-25.984,22.323-35.197,39.803L44.672,95.393
	C21.64,73.897,55.42,36.574,80.459,57.007L92.861,67.401z"/>
<path fill-rule="evenodd" clip-rule="evenodd" fill="#1A1A1A" d="M85.183,74.133c-8.858,5.551-16.181,13.819-21.85,24.567
	l-8.031-7.323c-14.291-13.346,6.614-36.378,22.205-23.74L85.183,74.133z"/>
<path fill-rule="evenodd" clip-rule="evenodd" fill="#B9C2D7" d="M119.081,248.936c8.15,8.74,19.488,13.583,31.417,13.583
	c11.929,0,23.268-4.842,31.417-13.583c114.921-36.85,83.858-197.48-31.417-197.835C35.223,51.456,4.16,212.086,119.081,248.936
	L119.081,248.936z"/>
<path fill-rule="evenodd" clip-rule="evenodd" fill="#DEDEDE" d="M253.845,147.243c-3.307-48.898-40.984-96.024-103.347-96.142
	C88.254,51.22,50.459,98.346,47.152,147.243c2.598,36.85,25.276,72.283,71.929,87.165c8.15,8.74,19.488,13.583,31.417,13.583
	c11.929,0,23.268-4.843,31.417-13.583C228.569,219.527,251.246,184.094,253.845,147.243L253.845,147.243z"/>
<path fill-rule="evenodd" clip-rule="evenodd" fill="#0B0B0B" d="M145.42,239.369c0.709,2.362,2.953,3.898,5.315,3.898
	c2.48,0,4.606-1.535,5.315-3.898c2.008-7.677,8.031-12.638,15.827-18.307c2.835-1.89,6.614-5.197-1.535-10.866
	c-8.622-5.906-30.827-5.906-39.449,0c-8.15,5.669-4.37,8.858-1.654,10.866C137.152,226.731,143.412,231.692,145.42,239.369
	L145.42,239.369z"/>
<path d="M147.309,238.779c0.236,0.709,0.709,1.299,1.299,1.772c0.59,0.472,1.299,0.709,2.126,0.709s1.535-0.236,2.126-0.709
	c0.591-0.473,1.063-1.063,1.299-1.772c1.063-4.134,3.307-7.559,6.142-10.63c2.835-3.071,6.378-5.787,10.512-8.74
	c1.063-0.709,2.244-1.654,2.48-2.717c0.118-1.063-0.827-2.48-4.134-4.842c-3.898-2.717-11.221-4.016-18.543-4.016
	s-14.646,1.299-18.543,4.016c-3.307,2.362-4.252,3.779-4.134,4.842c0.236,1.063,1.417,2.008,2.48,2.717
	c4.016,2.953,7.677,5.669,10.63,8.74C144.002,231.22,146.246,234.645,147.309,238.779L147.309,238.779z M146.246,243.739
	c-1.181-0.827-2.244-2.126-2.716-3.661l-0.118-0.236c-0.827-3.425-2.717-6.26-5.315-8.976c-2.716-2.835-6.142-5.433-9.921-8.15
	c-1.772-1.181-3.78-2.835-4.134-5.433c-0.354-2.362,0.827-5.315,5.787-8.74c4.606-3.189,12.756-4.725,20.787-4.725
	s16.181,1.535,20.787,4.725c4.961,3.425,6.142,6.378,5.787,8.74c-0.354,2.599-2.362,4.252-4.134,5.433
	c-3.78,2.717-7.205,5.315-9.803,8.15c-2.48,2.598-4.252,5.551-5.197,8.976l-0.118,0.236c-0.472,1.536-1.417,2.835-2.716,3.661
	c-1.299,0.945-2.835,1.535-4.488,1.535C149.081,245.275,147.546,244.684,146.246,243.739L146.246,243.739z"/>
<path fill-rule="evenodd" clip-rule="evenodd" d="M105.026,196.613c-18.307-15.709-19.016-52.677,5.433-64.134
	c15.354-7.087,31.417,4.37,30.472,21.142c-1.063,17.362-23.74,21.024-31.063,41.811c-0.354,0.945-1.063,1.536-2.126,1.89
	C106.798,197.558,105.853,197.322,105.026,196.613L105.026,196.613z"/>
<path fill-rule="evenodd" clip-rule="evenodd" d="M199.042,196.613c18.307-15.709,19.134-52.677-5.433-64.134
	c-15.354-7.087-31.417,4.37-30.354,21.142c1.063,17.362,23.622,21.024,30.945,41.811c0.354,0.945,1.181,1.536,2.126,1.89
	C197.27,197.558,198.333,197.322,199.042,196.613L199.042,196.613z"/>
<path fill-rule="evenodd" clip-rule="evenodd" fill="#FFFFFF" d="M117.191,147.597c3.543,0,6.496,2.953,6.496,6.496
	c0,3.661-2.953,6.496-6.496,6.496c-3.662,0-6.496-2.835-6.496-6.496C110.695,150.55,113.53,147.597,117.191,147.597L117.191,147.597
	z"/>
<path fill-rule="evenodd" clip-rule="evenodd" fill="#FFFFFF" d="M186.995,147.597c-3.661,0-6.496,2.953-6.496,6.496
	c0,3.661,2.835,6.496,6.496,6.496c3.543,0,6.496-2.835,6.496-6.496C193.491,150.55,190.538,147.597,186.995,147.597L186.995,147.597
	z"/>
<path fill-rule="evenodd" clip-rule="evenodd" fill="#0B0B0B" d="M145.42,239.369c0.709,2.362,2.953,3.898,5.315,3.898
	c2.48,0,4.606-1.535,5.315-3.898c2.008-7.677,8.031-12.638,15.827-18.307c2.835-1.89,6.614-5.197-1.535-10.866
	c-8.622-5.906-30.827-5.906-39.449,0c-8.15,5.669-4.37,8.858-1.654,10.866C137.152,226.731,143.412,231.692,145.42,239.369
	L145.42,239.369z"/>
<path fill-rule="evenodd" clip-rule="evenodd" d="M145.42,239.369c0.709,2.362,2.953,3.898,5.315,3.898
	c2.48,0,4.606-1.535,5.315-3.898c2.008-7.677,8.031-12.638,15.827-18.307c0.473-0.354,0.945-0.709,1.417-1.063
	c-0.709-0.827-1.654-1.654-2.953-2.48c-8.622-5.905-30.827-5.905-39.449,0c-1.299,0.827-2.244,1.654-2.953,2.48
	c0.472,0.354,0.945,0.709,1.299,1.063C137.152,226.731,143.412,231.692,145.42,239.369L145.42,239.369z"/>
<path d="M133.491,249.527c-1.063,0.472-2.244-0.118-2.598-1.063c-0.472-1.063,0.118-2.244,1.063-2.598
	c6.142-2.48,12.52-3.661,18.898-3.661c6.378,0,12.756,1.181,18.898,3.661c0.945,0.354,1.417,1.536,1.063,2.598
	c-0.354,0.945-1.535,1.535-2.598,1.063c-5.551-2.244-11.457-3.307-17.362-3.307C144.947,246.219,139.042,247.282,133.491,249.527
	L133.491,249.527z"/>
</svg>
