<?xml version="1.0" encoding="utf-8"?>
<!-- Generator: Adobe Illustrator 24.3.0, SVG Export Plug-In . SVG Version: 6.00 Build 0)  -->
<svg version="1.1" id="Layer_1" xmlns="http://www.w3.org/2000/svg" xmlns:xlink="http://www.w3.org/1999/xlink" x="0px" y="0px"
	 viewBox="0 0 300 300" enable-background="new 0 0 300 300" xml:space="preserve">
<path fill-rule="evenodd" clip-rule="evenodd" fill="#FBC1A9" d="M187.88,70.944c54.921,29.646,64.842,100.866,30,145.984
	c-38.031,49.134-101.575,47.244-137.244-3.307c-31.89-45.236-21.024-113.74,32.48-142.677
	C134.022,59.723,166.975,59.723,187.88,70.944L187.88,70.944z"/>
<path fill-rule="evenodd" clip-rule="evenodd" fill="#FCA883" d="M144.652,162.007c-27.047,10.984-38.268,36.26-31.89,49.961
	c3.662,7.913,15.118,11.693,22.795,8.74c3.307-1.299,5.079-3.78,7.441-5.787c4.252-3.779,12.874-4.134,17.362-0.472
	c1.299,1.181,2.48,2.48,3.78,3.661c7.559,6.85,22.559,3.189,26.811-6.142c6.378-13.701-4.724-38.976-31.772-49.961
	C154.573,160.235,148.786,160.353,144.652,162.007L144.652,162.007z"/>
<path fill-rule="evenodd" clip-rule="evenodd" fill="#FBC1A9" d="M132.25,189.881c3.661,0,6.614,2.953,6.614,6.614
	c0,3.78-2.953,6.732-6.614,6.732c-3.779,0-6.732-2.953-6.732-6.732C125.518,192.834,128.471,189.881,132.25,189.881L132.25,189.881z
	"/>
<path fill-rule="evenodd" clip-rule="evenodd" fill="#FBC1A9" d="M171.581,189.881c3.661,0,6.732,2.953,6.732,6.614
	c0,3.78-3.071,6.732-6.732,6.732c-3.661,0-6.732-2.953-6.732-6.732C164.849,192.834,167.92,189.881,171.581,189.881L171.581,189.881
	z"/>
<path fill-rule="evenodd" clip-rule="evenodd" fill="#FFFFFF" d="M111.227,142.164c4.37,0,7.913,3.543,7.913,7.913
	c0,4.37-3.543,8.032-7.913,8.032c-4.37,0-7.913-3.661-7.913-8.032C103.313,145.708,106.857,142.164,111.227,142.164L111.227,142.164
	z"/>
<path fill-rule="evenodd" clip-rule="evenodd" fill="#FFFFFF" d="M194.613,142.164c4.37,0,7.913,3.543,7.913,7.913
	c0,4.37-3.543,8.032-7.913,8.032c-4.37,0-8.032-3.661-8.032-8.032C186.581,145.708,190.243,142.164,194.613,142.164L194.613,142.164
	z"/>
<path fill-rule="evenodd" clip-rule="evenodd" fill="#FCA883" d="M245.518,54.645c0.945,17.598-5.669,34.842-19.724,51.614
	l-0.354,0.59c-2.835-4.842-6.142-9.449-9.803-13.819l0.709-0.591c11.811-11.811,18.189-27.874,17.48-44.528l-0.236-0.472
	c0.827-0.827,3.071-3.779,8.386-11.457c2.362-2.598,6.378-2.953,9.213-0.827c2.953,2.008,3.898,5.906,2.244,8.976
	C253.432,44.133,252.014,45.55,245.518,54.645L245.518,54.645z"/>
<path fill-rule="evenodd" clip-rule="evenodd" fill="#FBC1A9" d="M233.825,47.913c0.709,16.653-5.669,32.717-17.48,44.528
	l-0.709,0.591c-6.378-7.441-14.055-14.055-23.031-19.488l0.236-0.236c12.047-15.591,26.22-23.622,40.512-25.394
	c0,0,0-0.118,0.236-0.472L233.825,47.913z"/>
<path fill-rule="evenodd" clip-rule="evenodd" fill="#FCA883" d="M55.479,54.645c-0.945,17.598,5.669,34.842,19.724,51.614
	l0.472,0.59c2.717-4.842,6.024-9.449,9.685-13.819l-0.709-0.591c-11.811-11.811-18.071-27.874-17.48-44.528l0.236-0.472
	c-0.827-0.827-2.953-3.779-8.386-11.457c-2.362-2.598-6.378-2.953-9.213-0.827c-2.953,2.008-3.898,5.906-2.244,8.976
	C47.565,44.133,48.983,45.55,55.479,54.645L55.479,54.645z"/>
<path fill-rule="evenodd" clip-rule="evenodd" fill="#FBC1A9" d="M67.172,47.913c-0.59,16.653,5.669,32.717,17.48,44.528
	l0.709,0.591c6.378-7.441,14.055-14.055,23.032-19.488l-0.236-0.236C96.109,57.716,81.935,49.684,67.762,47.913
	c0,0-0.118-0.118-0.354-0.472L67.172,47.913z"/>
<path fill-rule="evenodd" clip-rule="evenodd" fill="#FCA883" d="M187.88,244.212c-20.906,11.22-53.858,11.22-74.764,0
	c-35.551-19.134-52.323-55.866-50.079-91.654c1.89,31.654,18.543,62.362,50.079,79.37c20.906,11.221,53.858,11.221,74.764,0
	c31.535-17.008,48.189-47.717,50.079-79.37C240.203,188.346,223.432,225.078,187.88,244.212L187.88,244.212z"/>
</svg>
