<?xml version="1.0" encoding="utf-8"?>
<!-- Generator: Adobe Illustrator 24.3.0, SVG Export Plug-In . SVG Version: 6.00 Build 0)  -->
<svg version="1.1" id="Layer_1" xmlns="http://www.w3.org/2000/svg" xmlns:xlink="http://www.w3.org/1999/xlink" x="0px" y="0px"
	 viewBox="0 0 300 300" enable-background="new 0 0 300 300" xml:space="preserve">
<path d="M133.668,133.129c-0.827,0.709-2.126,0.709-2.835-0.118c-0.709-0.945-0.591-2.126,0.236-2.835
	c5.669-5.079,12.756-7.559,19.842-7.559c7.087,0,14.173,2.48,19.843,7.559c0.827,0.709,0.945,1.89,0.236,2.835
	c-0.709,0.827-2.008,0.827-2.835,0.118c-4.961-4.37-11.102-6.496-17.244-6.496C144.77,126.633,138.628,128.759,133.668,133.129
	L133.668,133.129z"/>
<path fill-rule="evenodd" clip-rule="evenodd" fill="#E89C52" d="M105.203,124.743C94.455,93.562,67.762,70.176,34.809,63.916
	c8.268,33.425,34.488,61.181,65.433,74.173c0.709-2.48,1.417-5.079,2.362-7.559C103.313,128.523,104.258,126.633,105.203,124.743
	L105.203,124.743z"/>
<path fill-rule="evenodd" clip-rule="evenodd" fill="#FFBE69" d="M116.896,111.042C105.794,73.72,76.502,42.184,39.652,30.491
	c-1.653-0.472-3.307-0.236-4.842,0.709c-1.417,0.945-2.244,2.48-2.362,4.252c-0.709,9.685,0.118,19.252,2.362,28.465
	c32.953,6.26,59.646,29.646,70.394,60.827C108.156,119.31,112.29,114.704,116.896,111.042L116.896,111.042z"/>
<path fill-rule="evenodd" clip-rule="evenodd" fill="#E89C52" d="M195.675,124.743c10.748-31.181,37.441-54.567,70.394-60.827
	c-8.15,33.425-34.488,61.181-65.433,74.173c-0.591-2.48-1.299-5.079-2.244-7.559C197.565,128.523,196.739,126.633,195.675,124.743
	L195.675,124.743z"/>
<path fill-rule="evenodd" clip-rule="evenodd" fill="#FEC578" d="M183.983,111.042c11.102-37.323,40.394-68.858,77.362-80.551
	c1.654-0.472,3.307-0.236,4.724,0.709c1.417,0.945,2.244,2.48,2.362,4.252c0.827,9.685-0.118,19.252-2.362,28.465
	c-32.953,6.26-59.646,29.646-70.394,60.827C192.723,119.31,188.707,114.704,183.983,111.042L183.983,111.042z"/>
<path fill-rule="evenodd" clip-rule="evenodd" fill="#FFBE69" d="M102.132,130.531c-4.606,12.283-3.543,23.74-11.22,38.858
	c-2.598,5.197-5.787,10.158-9.567,14.764c-13.347,17.717-13.819,42.047-1.181,60.354c7.913,11.457,19.488,19.016,32.362,21.614
	c14.646,2.953,33.425,0.354,37.205-16.89c0.354-1.535,0.472-3.071,0.472-4.724c0-7.087-3.425-13.583-8.858-17.717
	c-0.473-3.425,1.181-6.85,4.252-8.74c2.953-1.89,6.732-1.89,9.803,0c2.953,1.89,4.606,5.315,4.252,8.74
	c-5.551,4.134-8.977,10.63-8.977,17.717c0,1.654,0.236,3.189,0.591,4.724c3.661,17.244,22.441,19.843,37.205,16.89
	c12.756-2.598,24.331-10.158,32.244-21.614c12.638-18.307,12.165-42.638-1.181-60.354c-3.78-4.606-6.968-9.567-9.567-14.764
	c-7.677-15.118-5.787-26.929-11.22-38.858C180.085,89.192,117.132,90.846,102.132,130.531L102.132,130.531z"/>
<path fill-rule="evenodd" clip-rule="evenodd" fill="#FFCE8F" d="M198.747,130.531c-14.882-32.953-57.756-38.622-82.205-19.488
	c-4.724,3.661-8.74,8.268-11.811,13.701c-0.945,1.89-1.89,3.78-2.598,5.787c-0.945,2.48-1.654,5.079-2.244,7.559
	c-2.126,9.094-2.835,18.189-7.913,29.291c2.598,0.236,5.197,0.708,7.677,1.417c2.598-8.977,2.953-16.772,6.024-24.921
	c13.937-36.732,72.283-38.268,89.528,0c3.661,7.913,3.779,15.709,6.142,24.685c0.945,3.543,2.244,7.323,4.252,11.339
	c2.48,4.843,5.433,9.449,8.858,13.701c7.913,10.512,10.984,23.622,9.095,36.024c1.417-0.118,2.834-0.118,4.252-0.118
	c4.488-15.354,1.654-32.126-8.268-45.354c-3.78-4.606-6.968-9.567-9.567-14.764C202.29,154.271,204.179,142.46,198.747,130.531
	L198.747,130.531z"/>
<path fill-rule="evenodd" clip-rule="evenodd" fill="#FFCE8F" d="M86.424,193.602c3.425-4.252,6.496-8.858,8.858-13.701
	c2.008-3.898,3.425-7.559,4.37-11.102c-2.48-0.709-5.079-1.181-7.677-1.417c-0.354,0.59-0.709,1.299-1.063,2.008
	c-2.598,5.197-5.787,10.158-9.567,14.764c-9.921,13.228-12.638,30.118-8.268,45.473c1.417-0.118,2.834-0.118,4.37-0.118
	C75.558,217.105,78.51,204.113,86.424,193.602L86.424,193.602z"/>
<path fill="#C26936" d="M91.739,169.389c-0.236-0.118-0.472-0.118-0.709-0.236c0.709-1.181,1.299-2.48,1.772-3.779
	c8.976,1.063,17.244,4.724,23.74,10.394c6.732,5.788,11.693,13.701,13.819,22.677c0.354,1.063-0.354,2.126-1.417,2.48
	c-1.063,0.236-2.126-0.472-2.48-1.535c-2.008-8.15-6.496-15.354-12.52-20.551C107.802,173.523,100.124,170.098,91.739,169.389
	L91.739,169.389z"/>
<path fill-rule="evenodd" clip-rule="evenodd" fill="#FFFFFF" d="M108.628,172.578c5.315,3.071,10.039,7.323,13.465,12.638
	c-1.653,2.835-4.724,4.842-8.268,4.842c-5.315,0-9.567-4.252-9.567-9.567c0-2.953,1.417-5.551,3.543-7.323
	C108.038,172.932,108.274,172.814,108.628,172.578L108.628,172.578z"/>
<path fill="#C26936" d="M109.573,170.806c2.835,1.654,5.551,3.661,8.032,5.906l0,0c2.362,2.244,4.37,4.725,6.142,7.441l0.709,0.945
	l-0.59,1.063c-1.063,1.772-2.48,3.307-4.252,4.252c-1.772,1.063-3.779,1.654-5.787,1.654c-3.189,0-6.024-1.299-8.15-3.425
	c-2.126-2.008-3.425-4.961-3.425-8.15c0-1.653,0.473-3.307,1.181-4.842c0.709-1.536,1.772-2.953,3.071-4.016
	c0.118-0.118,0.354-0.236,0.472-0.354c0.118-0.118,0.354-0.236,0.591-0.354l0.945-0.709L109.573,170.806z M114.888,179.664
	L114.888,179.664c-1.89-1.771-4.016-3.307-6.142-4.606c-0.709,0.591-1.299,1.417-1.772,2.244c-0.354,1.063-0.709,2.126-0.709,3.189
	c0,2.126,0.827,4.016,2.244,5.315l0,0c1.299,1.418,3.189,2.244,5.315,2.244c1.299,0,2.599-0.354,3.78-1.063
	c0.709-0.472,1.417-1.063,2.008-1.772C118.195,183.208,116.66,181.318,114.888,179.664L114.888,179.664z"/>
<path fill="#C26936" d="M111.109,176.357c0-1.181,0.945-2.008,2.008-2.008c1.181,0,2.008,0.827,2.008,2.008v6.024
	c0,1.063-0.827,2.008-2.008,2.008c-1.063,0-2.008-0.945-2.008-2.008V176.357z"/>
<path fill="#C26936" d="M194.731,227.853c-0.827-0.709-0.945-1.89-0.354-2.835c0.708-0.827,2.008-0.945,2.835-0.354
	c4.252,3.425,7.205,7.913,8.504,12.874c1.417,4.961,1.299,10.276-0.59,15.354c-1.417,3.661-3.662,6.968-6.378,9.567
	c-0.354,0.236-0.591,0.472-0.945,0.827c-3.661,1.535-7.559,2.598-11.575,3.189c-0.236-0.945,0.354-2.008,1.417-2.244
	c3.071-0.945,6.023-2.598,8.386-4.724c2.362-2.244,4.134-4.961,5.315-8.031c1.536-4.252,1.654-8.74,0.59-12.874
	C200.754,234.468,198.274,230.688,194.731,227.853L194.731,227.853z"/>
<path fill-rule="evenodd" clip-rule="evenodd" fill="#C26936" d="M179.967,241.436c1.299,0,2.244,1.063,2.244,2.244
	c0,1.299-0.945,2.244-2.244,2.244c-1.299,0-2.244-0.945-2.244-2.244C177.723,242.499,178.668,241.436,179.967,241.436
	L179.967,241.436z"/>
<path fill-rule="evenodd" clip-rule="evenodd" fill="#C26936" d="M180.676,251.83c1.299,0,2.244,1.063,2.244,2.244
	c0,1.299-0.945,2.362-2.244,2.362c-1.181,0-2.244-1.063-2.244-2.362C178.432,252.893,179.495,251.83,180.676,251.83L180.676,251.83z
	"/>
<path fill-rule="evenodd" clip-rule="evenodd" fill="#C26936" d="M172.526,248.05c1.299,0,2.244,0.945,2.244,2.244
	c0,1.181-0.945,2.244-2.244,2.244c-1.299,0-2.244-1.063-2.244-2.244C170.282,248.995,171.227,248.05,172.526,248.05L172.526,248.05z
	"/>
<path fill-rule="evenodd" clip-rule="evenodd" fill="#FFCE8F" d="M220.715,244.507c3.189-4.725,5.669-9.803,7.087-15
	c-1.417,0-2.835,0-4.252,0.118c-1.063,6.614-3.543,13.11-7.323,19.016c0.473,0,0.827,0,1.299,0.118
	C218.707,247.342,219.77,245.924,220.715,244.507L220.715,244.507z"/>
<path fill="#C26936" d="M209.731,169.035c-0.236,0.118-0.59,0.236-0.945,0.354c-8.386,0.709-16.063,4.134-22.087,9.449
	c-6.142,5.197-10.63,12.402-12.638,20.551c-0.236,1.063-1.299,1.771-2.362,1.535c-1.063-0.354-1.772-1.417-1.535-2.48
	c2.244-8.976,7.205-16.89,13.819-22.677c6.732-5.669,15-9.449,24.213-10.394C208.668,166.554,209.258,167.853,209.731,169.035
	L209.731,169.035z"/>
<path fill-rule="evenodd" clip-rule="evenodd" fill="#FFFFFF" d="M192.014,172.578c-5.433,3.071-10.157,7.323-13.465,12.638
	c1.654,2.835,4.724,4.842,8.268,4.842c5.197,0,9.449-4.252,9.449-9.567c0-2.953-1.299-5.551-3.425-7.323
	C192.487,172.932,192.368,172.814,192.014,172.578L192.014,172.578z"/>
<path fill="#C26936" d="M191.896,175.058c-2.244,1.299-4.252,2.835-6.142,4.606l0,0c-1.772,1.654-3.425,3.543-4.842,5.551
	c0.59,0.709,1.299,1.299,2.126,1.772c1.063,0.709,2.362,1.063,3.78,1.063c2.008,0,3.898-0.827,5.315-2.244l0,0
	c1.299-1.299,2.126-3.189,2.126-5.315c0-1.063-0.236-2.126-0.708-3.189C193.195,176.476,192.605,175.649,191.896,175.058
	L191.896,175.058z M183.038,176.712c2.362-2.244,5.079-4.252,7.913-5.906l1.063-0.59l1.063,0.709
	c0.236,0.118,0.354,0.236,0.59,0.354c0.118,0.118,0.354,0.236,0.473,0.354c1.299,1.063,2.362,2.48,3.071,4.016
	c0.709,1.535,1.063,3.189,1.063,4.842c0,3.189-1.299,6.142-3.307,8.15c-2.126,2.126-4.961,3.425-8.15,3.425
	c-2.126,0-4.134-0.59-5.787-1.654c-1.772-0.945-3.307-2.48-4.252-4.252l-0.59-1.063l0.709-0.945
	C178.55,181.436,180.676,178.956,183.038,176.712L183.038,176.712z"/>
<path fill="#C26936" d="M185.4,176.357c0-1.181,0.945-2.008,2.008-2.008c1.181,0,2.008,0.827,2.008,2.008v6.024
	c0,1.063-0.827,2.008-2.008,2.008c-1.063,0-2.008-0.945-2.008-2.008V176.357z"/>
<path fill="#C26936" d="M188.117,254.192c-1.063,0.236-2.126-0.354-2.48-1.417c-0.354-1.063,0.354-2.126,1.417-2.48
	c11.102-3.189,22.559-4.37,33.898-3.425c11.339,0.945,22.559,4.016,32.953,8.976c1.063,0.472,1.417,1.772,0.945,2.717
	c-0.473,0.945-1.654,1.417-2.598,0.945c-10.04-4.843-20.669-7.677-31.536-8.622C209.731,250.058,198.747,251.121,188.117,254.192
	L188.117,254.192z"/>
<path fill="#C26936" d="M188.589,242.263c-0.945,0.591-2.244,0.236-2.717-0.709c-0.59-0.945-0.236-2.244,0.709-2.717
	c11.102-6.614,23.386-10.276,35.906-11.102c12.52-0.945,25.275,1.063,37.205,6.024c0.945,0.472,1.417,1.654,1.063,2.717
	c-0.472,0.945-1.654,1.417-2.598,1.063c-11.339-4.724-23.504-6.614-35.315-5.905C210.912,232.46,199.101,236.003,188.589,242.263
	L188.589,242.263z"/>
<path fill-rule="evenodd" clip-rule="evenodd" fill="#C26936" d="M132.369,248.05c-1.181,0-2.244,0.945-2.244,2.244
	c0,1.181,1.063,2.244,2.244,2.244c1.299,0,2.362-1.063,2.362-2.244C134.731,248.995,133.668,248.05,132.369,248.05L132.369,248.05z"
	/>
<path fill-rule="evenodd" clip-rule="evenodd" fill="#FFCE8F" d="M84.888,248.877c-4.016-6.023-6.496-12.638-7.441-19.37
	c-1.535,0-2.953,0-4.37,0.118c1.535,5.197,3.898,10.276,7.086,14.882c1.063,1.535,2.244,3.071,3.425,4.488
	C84.061,248.877,84.416,248.877,84.888,248.877L84.888,248.877z"/>
<path fill-rule="evenodd" clip-rule="evenodd" fill="#C26936" d="M150.439,216.279c-5.551,0-10.039,4.37-10.276,9.921
	c4.961,4.134,9.094,12.52,10.276,18.779c1.181-6.26,5.315-14.646,10.276-18.779C160.479,220.649,155.991,216.279,150.439,216.279
	L150.439,216.279z"/>
<path fill="#C26936" d="M103.668,224.664c0.945-0.591,2.126-0.472,2.835,0.354c0.709,0.945,0.59,2.126-0.354,2.835
	c-3.543,2.835-5.905,6.614-7.086,10.748c-1.181,4.134-1.063,8.622,0.472,12.874c1.181,3.071,3.071,5.787,5.433,8.031
	c2.362,2.126,5.197,3.78,8.386,4.724c1.063,0.354,1.654,1.417,1.299,2.48c-3.78-0.591-7.441-1.654-10.984-3.071
	c-0.472-0.354-1.063-0.827-1.417-1.181c-2.835-2.598-5.079-5.906-6.378-9.567c-1.89-5.079-2.126-10.394-0.709-15.354
	C96.581,232.578,99.416,228.09,103.668,224.664L103.668,224.664z"/>
<path fill-rule="evenodd" clip-rule="evenodd" fill="#C26936" d="M124.219,251.83c-1.181,0-2.244,1.063-2.244,2.244
	c0,1.299,1.063,2.362,2.244,2.362c1.299,0,2.244-1.063,2.244-2.362C126.463,252.893,125.518,251.83,124.219,251.83L124.219,251.83z"
	/>
<path fill="#C26936" d="M117.25,250.058c1.063,0.354,1.772,1.417,1.417,2.48c-0.236,1.063-1.417,1.772-2.48,1.417
	c-10.512-2.953-21.496-3.898-32.244-2.953c-10.748,0.827-21.378,3.78-31.181,8.504c-1.063,0.472-2.244,0-2.716-0.945
	c-0.472-0.945,0-2.244,0.945-2.717c10.394-4.961,21.378-7.913,32.598-8.858C94.809,245.924,106.266,246.987,117.25,250.058
	L117.25,250.058z"/>
<path fill-rule="evenodd" clip-rule="evenodd" fill="#C26936" d="M125.046,241.436c-1.299,0-2.362,1.063-2.362,2.244
	c0,1.299,1.063,2.244,2.362,2.244c1.181,0,2.244-0.945,2.244-2.244C127.29,242.499,126.227,241.436,125.046,241.436L125.046,241.436
	z"/>
<path fill="#C26936" d="M117.723,238.365c0.945,0.59,1.299,1.772,0.709,2.835c-0.472,0.945-1.772,1.181-2.717,0.709
	c-10.512-6.024-22.087-9.449-33.898-10.275c-11.811-0.709-23.74,1.181-34.961,5.905c-1.063,0.354-2.244-0.118-2.598-1.063
	c-0.472-1.063,0-2.244,1.063-2.717c11.811-4.842,24.331-6.85,36.732-6.142C94.455,228.444,106.739,232.105,117.723,238.365
	L117.723,238.365z"/>
</svg>
