<?xml version="1.0" encoding="utf-8"?>
<!-- Generator: Adobe Illustrator 24.3.0, SVG Export Plug-In . SVG Version: 6.00 Build 0)  -->
<svg version="1.1" id="Layer_1" xmlns="http://www.w3.org/2000/svg" xmlns:xlink="http://www.w3.org/1999/xlink" x="0px" y="0px"
	 viewBox="0 0 300 300" enable-background="new 0 0 300 300" xml:space="preserve">
<path fill-rule="evenodd" clip-rule="evenodd" fill="#FBCB43" d="M179.081,222.007c9.331-9.685,14.055-29.646,14.173-59.764
	c15.591-0.118,28.819-4.37,38.74-11.457c8.268-5.905,16.181-15.59,13.701-21.85c-3.78-9.803-21.969-5.079-28.819-1.299
	c-8.976,5.079-16.063,14.528-26.575,12.756c-2.008-1.299-3.425-3.425-3.543-5.787c-0.236-2.362,0.709-4.724,2.48-6.378
	l67.559-59.173c1.299-1.181,2.008-2.716,2.008-4.488l-0.473-17.008c-1.181-3.898-5.079-6.614-9.213-6.142
	c-4.134,0.354-7.441,3.662-7.795,7.795l0.473,21.614c-6.142,5.079-9.331,7.205-12.52,9.921v-12.52
	c-0.118-4.016-3.425-7.205-7.441-7.205s-7.323,3.189-7.441,7.205v25.394l-6.614,6.496V85.235c-0.236-3.071-2.835-5.315-5.787-5.315
	c-3.071,0-5.551,2.244-5.787,5.315v21.969l-23.622,22.323c-4.488,4.842-9.331,3.307-10.984-2.598c-1.772-8.15-20.433-8.15-22.087,0
	c-1.654,5.905-6.496,7.441-11.102,2.598l-23.504-22.323V85.235c-0.236-3.071-2.835-5.315-5.787-5.315
	c-3.071,0-5.551,2.244-5.906,5.315v14.882l-6.496-6.496V68.227c-0.118-4.016-3.425-7.205-7.441-7.205
	c-4.016,0-7.323,3.189-7.441,7.205v12.52c-3.307-2.717-6.378-4.842-12.638-9.921l0.59-21.614c-0.472-4.134-3.779-7.441-7.913-7.795
	c-4.134-0.472-8.031,2.244-9.094,6.142l-0.472,17.008c-0.118,1.772,0.591,3.307,2.008,4.488l67.559,59.173
	c1.772,1.654,2.717,4.016,2.48,6.378c-0.236,2.362-1.535,4.488-3.661,5.787c-10.394,1.772-17.599-7.677-26.575-12.756
	c-6.85-3.78-24.921-8.504-28.819,1.299c-2.48,6.26,5.433,15.945,13.701,21.85c9.921,7.087,23.268,11.339,38.858,11.457
	c0,30.118,4.724,50.079,14.173,59.764c-2.598,11.339,2.008,23.031,11.575,29.528c9.685,6.614,24.213,6.614,33.898,0
	C176.955,245.038,181.561,233.346,179.081,222.007L179.081,222.007z M137.979,233.227h25.158c1.299,0,2.362,0.59,2.953,1.772
	c0.591,1.063,0.591,2.362-0.118,3.425c-4.488,6.85-9.685,10.276-15.473,10.276s-10.866-3.425-15.354-10.276
	c-0.709-1.063-0.827-2.362-0.118-3.425C135.616,233.818,136.68,233.227,137.979,233.227L137.979,233.227z"/>
<path fill-rule="evenodd" clip-rule="evenodd" fill="#DEAA1D" d="M56.483,126.81c-3.543,4.488-0.709,9.921,2.126,13.937
	c2.716,3.661,6.496,7.323,10.394,10.039c9.921,7.087,23.268,11.339,38.858,11.457c-24.213-8.15-25.984-35.551-50.433-36.024
	L56.483,126.81z"/>
<path fill-rule="evenodd" clip-rule="evenodd" fill="#DEAA1D" d="M167.506,242.322c-2.717,1.772-5.787,3.071-8.976,3.898
	c-2.598,1.654-5.197,2.48-8.032,2.48c-2.835,0-5.433-0.827-7.913-2.48c-3.189-0.827-6.26-2.126-8.976-3.898
	c-6.496-4.488-10.63-11.221-11.929-18.661c-1.772,10.748,2.835,21.614,11.929,27.874c9.685,6.614,24.213,6.614,33.898,0
	c9.094-6.26,13.701-17.126,11.811-27.874C178.136,231.101,173.884,237.834,167.506,242.322L167.506,242.322z"/>
<path fill-rule="evenodd" clip-rule="evenodd" fill="#333333" d="M150.498,248.7c-5.787,0-10.866-3.425-15.354-10.276
	c-0.709-1.063-0.827-2.362-0.118-3.425c0.59-1.181,1.654-1.772,2.953-1.772h25.158c1.299,0,2.362,0.59,2.953,1.772
	c0.591,1.063,0.591,2.362-0.118,3.425C161.483,245.275,156.286,248.7,150.498,248.7L150.498,248.7z"/>
<path fill-rule="evenodd" clip-rule="evenodd" fill="#262020" d="M150.498,244.802c-5.787,0-11.102-3.189-15.709-9.331
	c-0.354,0.945-0.236,2.008,0.354,2.953c2.244,3.543,4.724,6.142,7.441,7.795c2.48,1.654,5.079,2.48,7.913,2.48
	c2.835,0,5.433-0.827,8.032-2.48c2.598-1.654,5.079-4.252,7.441-7.795c0.591-0.945,0.709-2.008,0.354-2.953
	C161.601,241.613,156.404,244.802,150.498,244.802L150.498,244.802z"/>
<path fill-rule="evenodd" clip-rule="evenodd" fill="#DEAA1D" d="M179.553,221.416c8.976-9.921,13.465-29.646,13.583-58.937
	c-0.118,0-0.118,0-0.236,0c-0.118,2.835-0.236,5.551-0.473,8.15c0.118,0,0.236,0,0.236,0h0.118
	c-0.118,3.779-0.236,7.323-0.59,10.748l-0.236,0.118c-0.236,0.354-0.59,0.591-0.827,0.827c-2.244,14.173-6.26,24.331-12.165,30.473
	C179.553,215.629,179.79,218.582,179.553,221.416L179.553,221.416z"/>
<path fill-rule="evenodd" clip-rule="evenodd" fill="#DEAA1D" d="M121.443,221.416c-8.858-9.921-13.464-29.646-13.464-58.937h0.118
	c0.118,2.835,0.236,5.551,0.472,8.15c-0.118,0-0.118,0-0.236,0h-0.118c0.118,3.779,0.354,7.323,0.59,10.748l0.236,0.118
	c0.354,0.354,0.591,0.591,0.827,0.827c2.244,14.173,6.378,24.331,12.284,30.473C121.443,215.629,121.207,218.582,121.443,221.416
	L121.443,221.416z"/>
<path fill-rule="evenodd" clip-rule="evenodd" fill="#C99810" d="M107.861,162.243c-24.213-8.15-25.984-35.551-50.433-36.024
	l-0.945,0.591c-0.118,0.236-0.354,0.472-0.472,0.827c-0.118,0.118-0.236,0.354-0.354,0.59c-0.709,1.299-0.827,2.717-0.709,4.134
	l0.118-0.118c19.134,0.354,24.331,17.244,37.323,28.465C97.231,161.653,102.428,162.243,107.861,162.243L107.861,162.243z"/>
<path fill-rule="evenodd" clip-rule="evenodd" fill="#DEAA1D" d="M245.341,126.81c3.543,4.488,0.709,9.921-2.126,13.937
	c-2.717,3.661-6.496,7.323-10.394,10.039c-9.921,7.087-23.15,11.339-38.858,11.457c24.331-8.15,25.984-35.551,50.433-36.024
	L245.341,126.81z"/>
<path fill-rule="evenodd" clip-rule="evenodd" fill="#C99810" d="M193.963,162.243c24.331-8.15,25.984-35.551,50.433-36.024
	l0.945,0.591c0.236,0.236,0.354,0.472,0.591,0.827c0.118,0.118,0.236,0.354,0.354,0.59c0.59,1.299,0.827,2.717,0.709,4.134
	l-0.236-0.118c-19.016,0.354-24.331,17.244-37.205,28.465C204.711,161.653,199.514,162.243,193.963,162.243L193.963,162.243z"/>
<path fill-rule="evenodd" clip-rule="evenodd" fill="#FFFFFF" d="M108.097,170.629c0.118,3.779,0.354,7.323,0.709,10.748
	l0.236,0.118c3.307,3.425,8.74,5.433,13.228,3.425c-0.591-7.913-6.26-14.291-14.055-14.291H108.097z"/>
<path fill-rule="evenodd" clip-rule="evenodd" fill="#1A1A1A" d="M117.31,174.29c-1.063-1.063-2.244-1.89-3.543-2.48v7.323
	c0,0.945,0.827,1.772,1.772,1.772c1.063,0,1.772-0.827,1.772-1.772V174.29z"/>
<path fill-rule="evenodd" clip-rule="evenodd" fill="#FFFFFF" d="M192.9,170.629c-0.118,3.779-0.354,7.323-0.59,10.748l-0.236,0.118
	c-3.425,3.425-8.858,5.433-13.228,3.425c0.472-7.913,6.26-14.291,13.937-14.291H192.9z"/>
<path fill-rule="evenodd" clip-rule="evenodd" fill="#1A1A1A" d="M183.687,174.29c1.063-1.063,2.244-1.89,3.543-2.48v7.323
	c0,0.945-0.709,1.772-1.772,1.772c-0.945,0-1.772-0.827-1.772-1.772V174.29z"/>
</svg>
