<?xml version="1.0" encoding="utf-8"?>
<!-- Generator: Adobe Illustrator 24.3.0, SVG Export Plug-In . SVG Version: 6.00 Build 0)  -->
<svg version="1.1" id="Layer_1" xmlns="http://www.w3.org/2000/svg" xmlns:xlink="http://www.w3.org/1999/xlink" x="0px" y="0px"
	 viewBox="0 0 300 300" enable-background="new 0 0 300 300" xml:space="preserve">
<path fill-rule="evenodd" clip-rule="evenodd" fill="#F14112" d="M58.431,90.964c-9.803-8.858,3.425-24.921,14.764-16.181
	l3.898,3.543c3.071-2.717,6.378-5.197,9.685-7.441L76.739,61.79c-22.913-17.834-50.197,15.118-30,33.189l9.331,8.386
	c0.709-1.063,1.299-2.126,2.008-3.189v-0.118c1.181-1.654,2.244-3.307,3.425-4.961c0.118,0,0.118,0,0.118,0
	c0.118-0.236,0.354-0.59,0.591-0.827L58.431,90.964z"/>
<path fill-rule="evenodd" clip-rule="evenodd" fill="#F14112" d="M254.258,94.98c20.197-18.071-6.969-51.024-30-33.189
	l-10.039,9.095c3.425,2.244,6.614,4.724,9.803,7.441l3.898-3.543c11.22-8.74,24.567,7.323,14.646,16.181l-3.661,3.307
	c0.118,0.354,0.354,0.59,0.591,0.827c0.945,1.299,2.244,3.307,3.425,5.079c0.709,1.063,1.417,2.126,2.008,3.189L254.258,94.98z"/>
<path fill-rule="evenodd" clip-rule="evenodd" fill="#F14112" d="M126.935,229.979c10.512-0.827,19.488-8.15,23.622-18.307
	c4.016,10.157,12.992,17.48,23.504,18.307c2.48,0.236,4.842,0,7.205-0.473c-0.59,10.866-8.268,18.307-17.835,20.669
	c29.409,4.961,60.945-4.606,73.465-33.779l0.236,14.173c10.748-15.118,15.945-33.543,14.528-51.968l6.024,13.937
	c8.504-29.291,3.189-62.835-12.756-89.173c-1.89-3.189-3.898-6.142-6.024-9.094c-2.953-3.78-6.023-7.441-9.331-10.748
	c-1.063-1.063-2.126-2.008-3.189-3.071c-0.709-0.709-1.536-1.417-2.362-2.126c-3.189-2.717-6.378-5.197-9.803-7.441
	c-18.543-12.165-40.984-17.716-63.661-17.48c-22.795-0.236-45.118,5.315-63.779,17.48c-3.307,2.244-6.614,4.724-9.685,7.441
	c-0.827,0.709-1.653,1.417-2.48,2.126c-1.063,1.063-2.126,2.008-3.071,3.071c-3.425,3.307-6.496,6.968-9.331,10.748
	c-2.244,2.953-4.252,5.905-6.142,9.094c-15.945,26.338-21.26,59.882-12.756,89.173l6.023-13.937
	c-1.417,18.425,3.78,36.85,14.646,51.968l0.118-14.173c12.52,29.173,44.173,38.74,73.465,33.779
	c-9.449-2.362-17.244-9.803-17.716-20.669C122.093,229.979,124.573,230.216,126.935,229.979L126.935,229.979z M150.676,209.901
	c-10.748-2.716-17.953-8.858-22.087-17.008c0,0-0.118-0.118-0.118-0.236l0,0c0.118-3.898,5.906-7.323,13.346-7.323h8.858h8.74
	c7.559,0,13.464,3.425,13.346,7.323l0,0C168.746,200.924,161.542,207.066,150.676,209.901L150.676,209.901z"/>
<path fill-rule="evenodd" clip-rule="evenodd" fill="#F3653F" d="M244.691,103.011c-1.772-3.071-3.779-5.906-5.787-8.74
	c-2.953-3.78-6.023-7.441-9.331-10.748c-1.063-1.063-2.126-2.008-3.189-3.071c-0.709-0.709-1.536-1.417-2.362-2.126
	c-3.189-2.717-6.378-5.197-9.803-7.441c-18.543-12.165-40.984-17.716-63.661-17.48c-22.795-0.236-45.118,5.315-63.779,17.48
	c-3.307,2.244-6.614,4.724-9.685,7.441c-0.827,0.709-1.653,1.417-2.48,2.126c-1.063,1.063-2.126,2.008-3.071,3.071
	c-3.425,3.307-6.496,6.968-9.331,10.748c-2.126,2.835-4.134,5.669-5.905,8.74l1.772,9.685l7.441-9.803
	C85.479,76.2,117.487,61.2,150.676,61.2c33.189,0,65.315,15,85.276,41.693l3.307,4.37L244.691,103.011z"/>
<path fill="#F14112" d="M244.455,102.893c-0.827-1.417-1.772-2.835-2.717-4.252c-0.945-1.417-2.008-2.835-3.071-4.252
	c-1.417-1.889-2.953-3.779-4.488-5.551c-1.535-1.772-3.071-3.543-4.724-5.197c-0.591-0.472-1.063-0.945-1.535-1.535
	c-0.591-0.472-1.063-0.945-1.654-1.417c-0.354-0.472-0.827-0.827-1.181-1.181c-0.472-0.354-0.827-0.709-1.299-1.063
	c-1.535-1.299-3.071-2.598-4.725-3.898c-1.654-1.181-3.307-2.362-4.961-3.425c-8.976-6.024-19.016-10.394-29.409-13.228
	c-10.984-3.071-22.559-4.37-34.134-4.252c-11.693-0.118-23.149,1.181-34.134,4.252c-10.512,2.835-20.433,7.205-29.527,13.228
	c-1.654,1.063-3.307,2.244-4.961,3.425c-1.654,1.299-3.189,2.599-4.725,3.898c-0.472,0.354-0.827,0.709-1.181,1.063l-1.299,1.181
	c-0.472,0.472-1.063,0.945-1.535,1.417c-0.472,0.473-1.063,1.063-1.535,1.535c-1.654,1.654-3.307,3.425-4.842,5.197
	c-1.535,1.772-3.071,3.662-4.488,5.551c-1.063,1.418-2.008,2.835-2.953,4.252c-1.063,1.417-2.008,2.953-2.835,4.37l1.654,9.213
	l7.205-9.449c9.803-13.228,22.677-23.622,37.205-30.709c14.764-7.323,31.299-11.102,48.071-11.102
	c16.772,0,33.307,3.78,48.071,11.102c14.527,7.087,27.402,17.48,37.323,30.709l3.189,4.252L244.455,102.893z M242.093,98.405
	c0.945,1.535,1.89,2.953,2.835,4.488l0.118,0.118l-5.906,4.606l-3.425-4.606c-9.803-13.228-22.677-23.504-37.087-30.59
	c-14.764-7.205-31.181-11.103-47.953-11.103c-16.653,0-33.189,3.898-47.835,11.103c-14.528,7.086-27.284,17.362-37.205,30.59
	l-7.677,10.276l-1.89-10.276l0.118-0.118c0.827-1.535,1.772-3.071,2.834-4.488c0.945-1.417,2.008-2.835,2.953-4.252
	c1.535-1.89,2.953-3.78,4.606-5.551c1.535-1.771,3.071-3.543,4.724-5.197c0.59-0.473,1.063-1.063,1.535-1.536
	c0.59-0.472,1.063-1.063,1.654-1.535l1.181-1.063l1.299-1.181c1.535-1.299,3.071-2.598,4.724-3.779
	c1.654-1.299,3.307-2.48,5.079-3.543c8.976-6.024,19.016-10.394,29.528-13.228c10.984-3.071,22.559-4.488,34.252-4.37
	c11.575-0.118,23.15,1.299,34.252,4.37c10.394,2.834,20.433,7.205,29.528,13.228c1.654,1.063,3.425,2.244,4.961,3.543
	c1.654,1.181,3.189,2.48,4.842,3.779l1.181,1.181l1.299,1.063c0.473,0.473,1.063,1.063,1.535,1.535
	c0.473,0.473,1.063,0.945,1.535,1.536c1.654,1.654,3.307,3.425,4.843,5.197c1.535,1.772,3.071,3.662,4.488,5.551
	C240.085,95.57,241.03,96.987,242.093,98.405L242.093,98.405z"/>
<path fill-rule="evenodd" clip-rule="evenodd" fill="#CF2D00" d="M163.432,250.176c9.567-2.362,17.244-9.803,17.835-20.669
	c-0.118,0.118-0.354,0.118-0.472,0.118c-4.724,0.945-9.213,0.473-13.465-1.063c0,0,0,0,0-0.118
	c-7.441-2.717-13.583-8.74-16.772-16.535c0-0.118,0-0.118,0-0.236c-4.134,10.157-13.11,17.48-23.622,18.307
	c-2.362,0.236-4.843,0-7.087-0.473c0.472,10.866,8.268,18.307,17.716,20.669c4.134,0.945,8.622,1.063,12.992,0
	C154.928,251.239,159.298,251.121,163.432,250.176L163.432,250.176z"/>
<path fill-rule="evenodd" clip-rule="evenodd" fill="#F14112" d="M174.534,230.098c-2.48-0.236-4.961-0.709-7.205-1.536
	c0,0,0,0,0-0.118c-7.441-2.717-13.465-8.859-16.654-16.654v-0.118c-4.134,10.157-13.228,17.48-23.74,18.307
	c-0.118,0-0.236,0-0.472,0c1.653,6.85,7.205,11.575,13.701,13.11c3.307,0.827,6.85,0.945,10.394,0.118
	c3.425,0.827,6.969,0.709,10.276-0.118C167.329,241.554,172.88,236.83,174.534,230.098L174.534,230.098z"/>
<path fill-rule="evenodd" clip-rule="evenodd" fill="#D6D6D6" d="M126.935,229.979c7.677-0.59,14.41-4.606,19.134-10.63
	c0.827-0.827,4.134-6.614,4.488-7.677c0.473,1.063,3.898,6.968,4.488,7.677c4.724,6.024,11.575,10.039,19.252,10.63
	c2.362,0.236,4.842,0,7.087-0.473c-0.472,10.866-8.268,18.307-17.716,20.669c29.291,4.961,60.945-4.606,73.464-33.779l0.118,14.173
	c10.866-15.118,16.063-33.543,14.646-51.968l6.023,13.937c8.504-29.291,3.189-62.835-12.756-89.173
	c-1.535-2.48-10.748-14.882-12.638-17.008c0.472,19.252,6.85,46.299,6.26,65.433c0.709,28.937-12.165,49.606-38.858,62.008
	c-6.732-12.874-18.071-22.087-31.417-26.457c2.598,1.299,4.252,3.189,4.252,5.315l0,0c-0.118,0.118-0.118,0.236-0.118,0.236
	c-4.134,8.15-11.339,14.173-22.087,17.008c-10.63-2.835-17.835-8.858-21.968-17.008c0,0-0.118-0.118-0.118-0.236l0,0
	c0-2.126,1.654-4.016,4.252-5.315c-13.347,4.37-24.685,13.583-31.417,26.457c-26.693-12.402-39.567-33.071-38.858-62.008
	c-0.591-19.134,5.787-46.181,6.26-65.433c-1.89,2.126-11.102,14.528-12.638,17.008c-15.945,26.338-21.26,59.882-12.756,89.173
	l6.023-13.937c-1.417,18.425,3.78,36.85,14.646,51.968l0.118-14.173c12.52,29.173,44.173,38.74,73.465,33.779
	c-9.449-2.362-17.244-9.803-17.716-20.669C122.093,229.979,124.573,230.216,126.935,229.979L126.935,229.979z M150.557,185.452
	c3.425,0,6.378,0.709,9.685,1.299c-0.473,0-0.473-1.417-0.827-1.417h-4.37h-4.37h-0.118h-4.488h-4.252
	c-0.354,0-1.181,1.181-1.654,1.181c3.307-0.591,6.85-1.063,10.158-1.063h0.118l0,0l0,0l0,0H150.557L150.557,185.452L150.557,185.452
	z"/>
<path fill-rule="evenodd" clip-rule="evenodd" fill="#C7C7C7" d="M126.935,229.979c7.677-0.59,14.41-4.606,19.134-10.63
	c0.709-0.59,4.016-6.378,4.488-7.677c4.016,9.803,13.11,17.48,23.74,18.307c0.472,0,0.945,0.118,1.417,0.118
	c10.039,0.118,19.134-5.551,23.386-14.646c0.236-0.591,0.472-1.181,0.709-1.772c-6.732-12.874-17.953-21.969-31.299-26.338
	c2.598,1.299,4.252,3.189,4.252,5.315l0,0c-0.118,0.118-0.118,0.236-0.118,0.236c-4.134,8.15-11.339,14.173-22.087,17.008
	c-10.63-2.835-17.835-8.858-21.968-17.008c0,0-0.118-0.118-0.118-0.236l0,0c0-2.126,1.654-4.016,4.252-5.315
	c-13.347,4.37-24.685,13.464-31.299,26.338c0.236,0.59,0.472,1.181,0.709,1.772c4.252,9.094,13.346,14.764,23.268,14.646
	C125.991,230.098,126.463,229.979,126.935,229.979L126.935,229.979z M150.557,185.452c3.425,0,6.378,0.709,9.685,1.299
	c-0.473,0-0.473-1.417-0.827-1.417h-4.37h-4.37h-0.118h-4.488h-4.252c-0.354,0-1.181,1.181-1.654,1.181
	c3.307-0.591,6.85-1.063,10.158-1.063h0.118l0,0l0,0l0,0H150.557L150.557,185.452L150.557,185.452z"/>
<path fill-rule="evenodd" clip-rule="evenodd" fill="#FFFCFF" d="M197.329,209.428c-6.496-10.158-16.063-17.599-27.165-21.496
	l-0.236,0.236c1.772,1.299,2.835,2.835,2.835,4.488l0,0c-0.118,0.118-0.118,0.236-0.118,0.236
	c-3.661,7.205-9.803,12.874-18.661,15.945c0.354,0.472,0.709,0.945,1.063,1.417l0,0c4.724,6.023,11.575,10.039,19.252,10.63
	c0.472,0,0.945,0,1.417,0C184.455,221.003,192.605,216.633,197.329,209.428L197.329,209.428z M147.25,208.838
	c-8.976-3.071-15-8.74-18.661-15.945c0,0-0.118-0.118-0.118-0.236l0,0c0-1.654,1.063-3.189,2.835-4.488l-0.236-0.236
	c-11.102,3.898-20.669,11.339-27.165,21.496c4.724,7.205,12.756,11.575,21.496,11.456c0.59,0,1.063,0,1.535,0
	c7.677-0.59,14.41-4.606,19.134-10.63l0,0C146.542,209.783,146.896,209.31,147.25,208.838L147.25,208.838z"/>
<path fill-rule="evenodd" clip-rule="evenodd" fill="#ACACAC" d="M39.888,174.349c0,0.591,0.118,1.181,0.118,1.772
	c0.59,4.606,1.417,9.213,2.598,13.701c0.118,0.709,0.354,1.299,0.591,2.008c0,0.236,0.118,0.473,0.118,0.709
	C41.66,186.633,40.479,180.491,39.888,174.349L39.888,174.349z M48.038,181.672c-6.378-27.992-0.827-58.819,14.173-83.622
	c0.709-1.299,3.543-5.197,6.378-8.976c0.118-0.945,0.118-1.772,0.118-2.717c-0.118,0.118-0.118,0.236-0.236,0.355
	c-2.362,2.716-10.63,13.701-12.283,16.417c0,0.118-0.118,0.118-0.118,0.236c-1.181,1.89-2.244,3.898-3.307,5.905
	c0,0.118-0.118,0.118-0.118,0.118c-9.921,19.016-14.646,41.102-12.992,62.48c0,0.827,0.118,1.654,0.236,2.48
	c0.59,6.142,1.772,12.284,3.425,18.189L48.038,181.672z"/>
<path fill-rule="evenodd" clip-rule="evenodd" fill="#ACACAC" d="M70.006,225.373c-10.748-15.118-15.945-33.543-14.528-52.087
	l-6.024,14.055c-0.118-0.354-0.236-0.709-0.354-1.063c0.354,15.827,5.551,31.299,14.882,44.291l0.118-14.173
	c12.52,29.173,44.173,38.74,73.465,33.779c-3.189-0.827-7.559-3.307-10.157-5.197c-24.567,0-46.772-9.567-57.165-33.898
	L70.006,225.373z"/>
<path fill-rule="evenodd" clip-rule="evenodd" fill="#ACACAC" d="M261.227,174.349c-0.118,0.591-0.118,1.181-0.236,1.772
	c-0.473,4.606-1.418,9.213-2.599,13.701c-0.118,0.709-0.354,1.299-0.473,2.008c-0.118,0.236-0.118,0.473-0.236,0.709
	C259.455,186.633,260.518,180.491,261.227,174.349L261.227,174.349z M253.077,181.672c6.378-27.992,0.709-58.819-14.173-83.622
	c-0.827-1.299-3.661-5.197-6.496-8.976c0-0.945-0.118-1.772-0.118-2.717c0.118,0.118,0.236,0.236,0.354,0.355
	c2.362,2.716,10.512,13.701,12.165,16.417c0.118,0.118,0.118,0.118,0.118,0.236c1.181,1.89,2.362,3.898,3.425,5.905
	c0,0.118,0,0.118,0,0.118c9.921,19.016,14.646,41.102,13.11,62.48c-0.118,0.827-0.236,1.654-0.236,2.48
	c-0.709,6.142-1.772,12.284-3.543,18.189L253.077,181.672z"/>
<path fill-rule="evenodd" clip-rule="evenodd" fill="#ACACAC" d="M230.991,225.373c10.866-15.118,15.945-33.543,14.646-52.087
	l5.906,14.055c0.118-0.354,0.236-0.709,0.354-1.063c-0.354,15.827-5.433,31.299-14.764,44.291l-0.236-14.173
	c-12.52,29.173-44.055,38.74-73.465,33.779c3.189-0.827,7.087-2.716,9.685-4.606c24.567,0,47.244-10.158,57.638-34.488
	L230.991,225.373z"/>
<path fill-rule="evenodd" clip-rule="evenodd" fill="#BD2900" d="M172.644,192.657c0.118-3.898-5.787-7.323-13.346-7.323h-8.74
	h-8.858c-7.441,0-13.346,3.425-13.346,7.323c0,0,0.118,0.118,0.118,0.236c4.134,8.15,11.339,14.291,22.087,17.008
	C161.424,207.066,168.628,200.924,172.644,192.657L172.644,192.657L172.644,192.657z"/>
<path fill-rule="evenodd" clip-rule="evenodd" fill="#CF2D00" d="M169.691,188.05c-2.362-1.654-6.142-2.717-10.394-2.717h-8.74
	h-8.858c-4.252,0-7.913,1.063-10.394,2.717c3.661,6.85,10.039,12.047,19.252,14.409C159.77,200.098,166.03,194.901,169.691,188.05
	L169.691,188.05z"/>
<path fill-rule="evenodd" clip-rule="evenodd" fill="#FFFCFF" d="M56.187,103.129L56.187,103.129L56.187,103.129L56.187,103.129z
	 M73.195,74.782c-11.339-8.74-24.567,7.323-14.764,16.181l3.78,3.307c1.89-2.598,4.016-5.079,6.26-7.559l0,0
	c0.118-0.118,0.118-0.236,0.236-0.355c1.89-2.008,3.898-4.016,5.906-5.905c0.827-0.709,1.653-1.417,2.48-2.126L73.195,74.782z"/>
<path fill-rule="evenodd" clip-rule="evenodd" fill="#CF2D00" d="M51.227,89.783c-9.095-8.031-8.622-19.016-3.307-27.283
	c-8.976,8.031-12.283,22.559-1.181,32.48l9.331,8.386c0-0.118,0.118-0.118,0.118-0.236l0,0l0.118-0.118
	c0.59-0.945,1.181-1.89,1.772-2.835v-0.118c0.59-0.827,1.181-1.654,1.771-2.48L51.227,89.783z"/>
<path fill-rule="evenodd" clip-rule="evenodd" fill="#CF2D00" d="M249.77,89.783c8.976-8.031,8.504-19.016,3.189-27.283
	c9.095,8.031,12.402,22.559,1.299,32.48l-9.331,8.386c-0.118-0.118-0.118-0.118-0.118-0.236l0,0c-0.118,0-0.118-0.118-0.118-0.118
	c-0.591-0.945-1.181-1.89-1.772-2.835l-0.118-0.118c-0.473-0.827-1.063-1.654-1.654-2.48L249.77,89.783z"/>
<path fill-rule="evenodd" clip-rule="evenodd" fill="#FFFFFF" d="M192.25,132.184c-4.016,1.535-7.677,4.134-6.378,7.677
	c1.299,3.425,5.669,4.961,9.685,3.425c4.016-1.417,7.205-6.85,6.024-10.276C200.282,129.586,196.266,130.649,192.25,132.184
	L192.25,132.184z"/>
<path fill-rule="evenodd" clip-rule="evenodd" fill="#FFFFFF" d="M109.219,132.184c4.016,1.535,7.559,4.134,6.26,7.677
	c-1.181,3.425-5.551,4.961-9.567,3.425c-4.134-1.417-7.323-6.85-6.024-10.276C101.187,129.586,105.085,130.649,109.219,132.184
	L109.219,132.184z"/>
<path fill-rule="evenodd" clip-rule="evenodd" fill="#221F20" d="M178.432,206.121c-1.181,0-2.244,0.945-2.244,2.244
	c0,1.181,1.063,2.244,2.244,2.244c1.181,0,2.244-1.063,2.244-2.244C180.676,207.066,179.613,206.121,178.432,206.121
	L178.432,206.121z"/>
<path fill-rule="evenodd" clip-rule="evenodd" fill="#221F20" d="M177.723,216.278c-1.299,0-2.244,1.063-2.244,2.244
	c0,1.299,0.945,2.244,2.244,2.244c1.181,0,2.244-0.945,2.244-2.244C179.967,217.342,178.904,216.278,177.723,216.278
	L177.723,216.278z"/>
<path fill-rule="evenodd" clip-rule="evenodd" fill="#221F20" d="M185.754,212.617c-1.299,0-2.244,0.945-2.244,2.126
	c0,1.299,0.945,2.244,2.244,2.244c1.181,0,2.244-0.945,2.244-2.244C187.998,213.562,186.935,212.617,185.754,212.617
	L185.754,212.617z"/>
<path fill-rule="evenodd" clip-rule="evenodd" fill="#942000" d="M126.345,206.121c1.181,0,2.126,0.945,2.126,2.244
	c0,1.181-0.945,2.244-2.126,2.244c-1.299,0-2.244-1.063-2.244-2.244C124.101,207.066,125.046,206.121,126.345,206.121
	L126.345,206.121z"/>
<path fill-rule="evenodd" clip-rule="evenodd" fill="#942000" d="M127.054,216.278c1.181,0,2.244,1.063,2.244,2.244
	c0,1.299-1.063,2.244-2.244,2.244c-1.181,0-2.244-0.945-2.244-2.244C124.809,217.342,125.872,216.278,127.054,216.278
	L127.054,216.278z"/>
<path fill-rule="evenodd" clip-rule="evenodd" fill="#942000" d="M119.022,212.617c1.181,0,2.244,0.945,2.244,2.126
	c0,1.299-1.063,2.244-2.244,2.244c-1.181,0-2.244-0.945-2.244-2.244C116.778,213.562,117.841,212.617,119.022,212.617
	L119.022,212.617z"/>
<path fill="#942000" d="M93.51,135.964c0.472,0.827,0.118,2.008-0.827,2.362c-0.827,0.473-1.89,0.118-2.362-0.709
	c-1.654-3.189-1.654-6.024-1.654-6.142c0-0.827,0.59-1.536,1.417-1.654l0.354-0.118c6.378-2.126,12.874-1.89,18.189,0.236
	c5.433,2.244,9.803,6.614,11.811,12.756l0.118,0.354c0.118,0.236,0.118,0.354,0.118,0.591c-0.236,10.158-0.591,21.26-0.591,21.378
	c0,0.945-0.827,1.654-1.771,1.654c-1.063,0-1.772-0.827-1.772-1.772c0-0.118,0.354-10.984,0.59-21.024v-0.118
	c-1.772-5.079-5.315-8.622-9.921-10.512c-4.252-1.772-9.567-2.008-14.764-0.472C92.565,133.602,92.802,134.783,93.51,135.964
	L93.51,135.964z"/>
<path fill="#942000" d="M121.621,229.507c0,1.418,0.236,2.717,0.59,4.016l0,0c1.299,5.079,4.488,9.094,8.622,11.811
	c4.134,2.717,9.331,4.016,14.646,3.78c1.654-0.118,3.307-0.355,4.961-0.709l0.945,3.425c-1.89,0.473-3.779,0.827-5.787,0.827
	c-6.023,0.354-11.929-1.181-16.771-4.37c-4.843-3.071-8.622-7.795-10.158-13.819c-0.354-1.535-0.591-3.189-0.709-4.842
	L121.621,229.507z"/>
<path fill="#942000" d="M102.605,131.357c-0.709,1.063-1.181,2.244-1.181,3.543c0,1.299,0.236,2.599,0.945,3.662
	c0.59,1.181,1.535,2.008,2.716,2.598c1.063,0.591,2.362,0.945,3.661,0.827c1.299-0.118,2.598-0.59,3.543-1.417
	c1.063-0.709,1.89-1.771,2.362-2.953l3.307,1.299c-0.709,1.89-1.89,3.425-3.425,4.606c-1.654,1.181-3.425,1.89-5.433,2.008
	c-2.008,0.118-4.016-0.236-5.669-1.181c-1.772-0.827-3.189-2.244-4.252-4.016c-0.945-1.654-1.417-3.661-1.299-5.551
	c0-1.89,0.591-3.78,1.772-5.433L102.605,131.357z"/>
<rect x="105.912" y="131.475" fill="#942000" width="3.543" height="6.614"/>
<path fill="#942000" d="M107.093,85.531c-0.709,0.827-2.008,0.827-2.834,0c-0.709-0.827-0.709-2.126,0.118-2.835
	c6.142-5.905,13.465-10.275,21.378-12.756c7.913-2.48,16.299-3.189,24.803-2.008c8.386-1.181,16.772-0.472,24.685,2.008
	c7.913,2.48,15.354,6.85,21.496,12.756c0.709,0.709,0.827,2.008,0,2.835c-0.709,0.827-2.008,0.827-2.835,0
	c-5.669-5.433-12.52-9.449-19.842-11.811c-7.323-2.244-15.236-2.953-23.268-1.771c-0.118,0-0.354,0-0.59,0
	c-7.913-1.181-15.827-0.473-23.15,1.771C119.613,76.082,112.88,80.098,107.093,85.531L107.093,85.531z"/>
<path fill="#942000" d="M210.676,137.617c-0.354,0.827-1.536,1.181-2.362,0.709c-0.945-0.355-1.181-1.536-0.827-2.362
	c0.709-1.181,0.945-2.362,1.181-3.189c-5.315-1.535-10.512-1.299-14.882,0.472c-4.488,1.89-8.15,5.433-9.803,10.512v0.118
	c0.236,10.039,0.472,20.906,0.472,21.024c0.118,0.945-0.709,1.772-1.653,1.772c-1.063,0.118-1.89-0.709-1.89-1.654
	c0-0.118-0.354-11.221-0.591-21.378c0-0.236,0-0.473,0.118-0.591l0.118-0.354c2.126-6.142,6.378-10.512,11.811-12.756
	c5.433-2.126,11.811-2.362,18.307-0.236l0.354,0.118c0.709,0.118,1.299,0.827,1.299,1.654
	C212.329,131.593,212.447,134.428,210.676,137.617L210.676,137.617z"/>
<path fill="#942000" d="M183.038,229.625c-0.118,1.654-0.354,3.307-0.709,4.842c-1.535,6.024-5.315,10.748-10.158,13.819
	c-4.842,3.189-10.748,4.725-16.772,4.37c-1.89,0-3.78-0.354-5.669-0.827l0.827-3.425c1.654,0.354,3.307,0.59,5.079,0.709
	c5.197,0.236,10.394-1.063,14.646-3.78c4.134-2.717,7.205-6.732,8.504-11.811l0,0c0.354-1.299,0.591-2.598,0.709-4.016
	L183.038,229.625z"/>
<path fill="#942000" d="M198.392,131.357c-0.472-0.826-0.236-2.008,0.472-2.598c0.827-0.473,2.008-0.236,2.599,0.59
	c1.063,1.654,1.653,3.543,1.772,5.433c0,1.89-0.473,3.898-1.418,5.551c-1.063,1.772-2.48,3.189-4.134,4.016
	c-1.772,0.945-3.78,1.299-5.669,1.181c-2.008-0.118-3.898-0.827-5.433-2.008c-1.535-1.181-2.835-2.717-3.543-4.606
	c-0.354-0.945,0.118-2.008,1.063-2.362c0.945-0.354,2.008,0.118,2.362,1.063c0.472,1.181,1.181,2.244,2.244,2.953
	c1.063,0.827,2.244,1.299,3.543,1.417c1.299,0.118,2.598-0.236,3.661-0.827c1.181-0.59,2.126-1.417,2.835-2.598
	c0.59-1.063,0.945-2.362,0.827-3.662C199.573,133.602,199.219,132.42,198.392,131.357L198.392,131.357z"/>
<rect x="191.542" y="131.475" fill="#942000" width="3.543" height="6.614"/>
<path fill="#942000" d="M182.447,95.57c0.827,0.709,0.827,2.008,0,2.835c-0.709,0.827-2.008,0.827-2.835,0
	c-3.779-3.543-8.268-6.26-13.228-7.795c-4.961-1.536-10.276-2.008-15.591-1.299c-0.236,0-0.354,0-0.59,0
	c-5.315-0.709-10.63-0.236-15.472,1.299c-4.961,1.535-9.567,4.252-13.347,7.795c-0.827,0.827-2.008,0.827-2.835,0
	c-0.709-0.827-0.709-2.126,0.118-2.835c4.252-4.134,9.331-7.087,14.764-8.858c5.433-1.654,11.221-2.244,17.126-1.418
	c5.787-0.827,11.575-0.236,17.008,1.418C173.117,88.483,178.195,91.436,182.447,95.57L182.447,95.57z"/>
<path fill="#942000" d="M171.345,110.452c0.827,0.708,0.827,2.008,0.118,2.835c-0.827,0.827-2.008,0.827-2.835,0
	c-2.362-2.244-5.197-3.898-8.15-4.843c-3.071-0.945-6.378-1.181-9.685-0.708c-0.236,0-0.354,0-0.59,0
	c-3.307-0.473-6.614-0.236-9.567,0.708c-3.071,0.945-5.905,2.599-8.15,4.843c-0.827,0.827-2.126,0.827-2.835,0
	c-0.827-0.827-0.827-2.126,0-2.835c2.835-2.717,6.142-4.606,9.803-5.787c3.425-1.063,7.205-1.417,11.102-0.945
	c3.78-0.472,7.559-0.118,11.102,0.945C165.203,105.846,168.628,107.735,171.345,110.452L171.345,110.452z"/>
<path fill="#942000" d="M148.55,69.94c0-1.181,0.827-2.008,2.008-2.008c1.063,0,2.008,0.827,2.008,2.008v35.551
	c0,1.181-0.945,2.008-2.008,2.008c-1.181,0-2.008-0.827-2.008-2.008V69.94z"/>
<path fill="#942000" d="M150.203,211.672c-5.551-1.417-10.158-3.78-13.937-6.732c-4.134-3.071-7.205-6.968-9.449-11.457
	l-0.118-0.354v-0.472c0-2.599,1.772-4.961,4.724-6.614c2.599-1.536,6.142-2.48,10.157-2.48h18.071c4.016,0,7.677,0.945,10.276,2.48
	c2.953,1.654,4.724,4.016,4.724,6.614v0.472l-0.236,0.354c-2.244,4.488-5.315,8.386-9.331,11.457
	c-3.78,2.953-8.504,5.315-13.937,6.732l-0.473,0.118L150.203,211.672z M138.392,202.105c3.425,2.598,7.441,4.606,12.283,5.905
	c4.842-1.299,8.858-3.307,12.165-5.905c3.543-2.717,6.142-6.024,8.15-9.803c-0.236-1.181-1.181-2.244-2.835-3.189
	c-2.126-1.181-5.079-2.008-8.504-2.008c-6.024,0-12.047,0-17.953,0c-3.425,0-6.378,0.827-8.504,2.008
	c-1.654,0.945-2.717,2.008-2.835,3.189C132.25,196.082,134.967,199.389,138.392,202.105L138.392,202.105z"/>
<path fill="#942000" d="M78.747,167.853c-0.236-1.063,0.354-2.008,1.417-2.126c0.945-0.236,1.89,0.354,2.126,1.299
	c1.181,5.787,3.662,11.102,7.087,15.709c3.425,4.606,7.795,8.386,12.874,11.221c0.827,0.472,1.181,1.417,0.827,2.244
	c-1.181,2.953-1.654,6.142-1.535,9.331c0,3.071,0.709,6.142,2.126,9.094c2.008,4.488,5.433,8.032,9.449,10.394
	c4.016,2.362,8.858,3.543,13.701,3.189c4.843-0.354,9.331-2.244,13.11-5.197c3.898-2.953,6.969-7.087,8.976-11.929
	c0.354-0.945,1.417-1.418,2.244-1.063c0.472,0.236,0.827,0.59,1.063,1.063c1.89,4.842,5.079,8.976,8.977,11.929
	c3.779,2.953,8.15,4.842,12.992,5.197c4.961,0.354,9.685-0.827,13.701-3.189c4.134-2.362,7.441-5.905,9.449-10.394
	c1.417-2.953,2.126-6.023,2.244-9.094c0.118-3.189-0.472-6.378-1.654-9.331c-0.354-0.945,0.118-1.89,0.945-2.244
	c5.079-2.835,9.449-6.733,12.874-11.221c3.425-4.606,5.787-9.921,7.087-15.709c0.118-0.945,1.063-1.536,2.126-1.299
	c0.945,0.118,1.535,1.063,1.299,2.126c-1.299,6.142-3.898,12.047-7.677,17.008c-3.425,4.606-7.677,8.504-12.756,11.457
	c0.945,2.953,1.418,6.142,1.299,9.331c-0.118,3.543-0.945,7.205-2.48,10.512c-2.362,5.197-6.26,9.331-10.866,12.047
	c-4.724,2.717-10.158,4.016-15.827,3.543c-5.551-0.355-10.748-2.48-15-5.906c-3.425-2.598-6.26-6.024-8.386-9.921
	c-2.126,3.898-5.079,7.323-8.504,9.921c-4.252,3.425-9.331,5.551-15,5.906c-5.551,0.472-11.102-0.827-15.709-3.543
	c-4.724-2.717-8.504-6.85-10.984-12.047c-1.535-3.307-2.362-6.968-2.48-10.512c-0.118-3.189,0.354-6.378,1.299-9.331
	c-4.961-2.953-9.331-6.85-12.756-11.457C82.762,179.901,80.046,173.995,78.747,167.853L78.747,167.853z"/>
</svg>
