<?xml version="1.0" encoding="utf-8"?>
<!-- Generator: Adobe Illustrator 24.3.0, SVG Export Plug-In . SVG Version: 6.00 Build 0)  -->
<svg version="1.1" id="Layer_1" xmlns="http://www.w3.org/2000/svg" xmlns:xlink="http://www.w3.org/1999/xlink" x="0px" y="0px"
	 viewBox="0 0 300 300" enable-background="new 0 0 300 300" xml:space="preserve">
<path fill-rule="evenodd" clip-rule="evenodd" fill="#E03607" d="M182.742,86.357c18.543,11.575,35.315,29.291,50.197,53.386
	c0,0,6.496-27.52,19.606-82.441c1.772-14.055-11.811-21.142-22.441-12.402L182.742,86.357z"/>
<path fill-rule="evenodd" clip-rule="evenodd" fill="#EB6426" d="M182.388,86.239c4.724,2.835,8.976,5.906,12.638,8.858
	l38.74-34.252c6.26-5.197,13.583-4.843,18.189-0.827c2.599-5.906,0.709-12.874-4.606-16.654c-5.433-3.661-12.638-3.071-17.244,1.535
	C198.569,72.539,182.742,86.357,182.388,86.239L182.388,86.239z"/>
<path fill-rule="evenodd" clip-rule="evenodd" fill="#E03607" d="M118.372,86.357c-18.661,11.575-35.433,29.291-50.197,53.386
	c0,0-6.614-27.52-19.724-82.441C46.798,43.247,60.38,36.161,70.892,44.901L118.372,86.357z"/>
<path fill-rule="evenodd" clip-rule="evenodd" fill="#EB6426" d="M118.727,86.239c-4.725,2.835-9.094,5.906-12.756,8.858
	l-38.74-34.252c-6.26-5.197-13.583-4.843-18.071-0.827c-2.717-5.906-0.709-12.874,4.606-16.654
	c5.315-3.661,12.52-3.071,17.126,1.535C102.546,72.539,118.372,86.357,118.727,86.239L118.727,86.239z"/>
<path fill-rule="evenodd" clip-rule="evenodd" fill="#F24D1F" d="M150.262,77.027c11.575-1.417,28.583,4.488,45.118,17.953
	c23.15,18.779,43.701,48.543,49.37,70.748c1.299,6.142,2.48,11.457-3.661,17.598l-54.567,56.339
	c-6.496,5.905-15.236,14.764-24.449,19.37c-7.205,3.543-14.527,3.898-21.968,0.709c-9.803-4.252-19.134-13.819-25.984-20.079
	l-54.685-56.339c-6.142-6.142-4.842-11.457-3.543-17.598c5.669-22.205,26.22-51.969,49.37-70.748
	C121.798,81.515,138.805,75.609,150.262,77.027L150.262,77.027z"/>
<path fill-rule="evenodd" clip-rule="evenodd" fill="#CCCCCC" d="M170.931,253.247c5.787-4.37,11.102-9.685,15.354-13.583
	l54.685-56.339c6.142-6.142,4.961-11.457,3.543-17.598l-46.299-10.63c-4.488-1.063-8.74,0.473-11.575,4.134
	c-13.346,16.772-18.425,46.417-19.37,63.307C175.42,230.097,176.601,241.554,170.931,253.247L170.931,253.247z"/>
<path fill-rule="evenodd" clip-rule="evenodd" fill="#B3B3B3" d="M158.766,239.074c3.78,1.181,5.669,1.771,5.669,1.771
	c16.772-20.079,34.724-31.89,53.977-35.315c0.354-0.118,0.709,0,0.945-0.236l13.346-13.464
	C195.735,199.153,171.05,214.979,158.766,239.074L158.766,239.074z"/>
<path fill-rule="evenodd" clip-rule="evenodd" fill="#CCCCCC" d="M129.475,253.247c-5.787-4.37-10.984-9.685-15.354-13.583
	l-54.685-56.339c-6.142-6.142-4.842-11.457-3.543-17.598l46.299-10.63c4.488-1.063,8.858,0.473,11.693,4.134
	c13.346,16.772,18.307,46.417,19.252,63.307C124.987,230.097,123.924,241.554,129.475,253.247L129.475,253.247z"/>
<path fill-rule="evenodd" clip-rule="evenodd" fill="#B3B3B3" d="M141.64,239.074c-3.779,1.181-5.669,1.771-5.669,1.771
	c-16.654-20.079-34.724-31.89-53.976-35.315c-0.236-0.118-0.709,0-0.945-0.236L67.703,191.83
	C104.672,199.153,129.357,214.979,141.64,239.074L141.64,239.074z"/>
<path fill-rule="evenodd" clip-rule="evenodd" fill="#E63909" d="M67.113,139.743c-5.197,8.976-9.213,17.953-11.22,25.984
	l3.898-0.945c8.622-20.197,26.102-43.583,45.472-59.173c16.535-13.465,33.543-19.37,45-18.071
	c11.575-1.299,28.583,4.606,45.118,18.071c19.37,15.59,36.85,38.976,45.354,59.173l4.016,0.945
	c-2.008-8.032-6.024-17.008-11.339-25.984c-9.331-16.181-23.031-32.599-37.795-44.646c-0.118,0-0.118,0-0.236-0.118
	c-30-24.331-60.118-24.331-90.118,0c-0.118,0.118-0.118,0.118-0.236,0.118C90.262,107.145,76.561,123.562,67.113,139.743
	L67.113,139.743z"/>
<path fill-rule="evenodd" clip-rule="evenodd" fill="#B3B3B3" d="M59.79,164.782l-3.898,0.945
	c-0.827,4.016-1.772,7.795-0.354,11.693c0.118-0.59,0.236-1.181,0.354-1.654l44.528-10.157c-1.181-1.417-1.89-3.307-1.89-5.197
	c0-1.772,0.59-3.425,1.535-4.842L59.79,164.782z"/>
<path fill-rule="evenodd" clip-rule="evenodd" fill="#CCCCCC" d="M111.522,167.027c0.827,0.59,1.654,1.299,2.362,2.244
	c11.102,14.055,16.417,36.85,18.425,53.858c0,0.118,0,0.118,0,0.236c0.236-0.236,0.591-0.59,0.827-0.827
	c-0.945-16.89-5.906-46.535-19.252-63.307c-2.835-3.661-7.205-5.197-11.693-4.134l-2.126,0.473
	c-0.945,1.417-1.535,3.071-1.535,4.842c0,1.89,0.709,3.779,1.89,5.197l1.772-0.472C105.617,164.428,108.924,165.137,111.522,167.027
	L111.522,167.027z"/>
<path fill-rule="evenodd" clip-rule="evenodd" fill="#FFFFFF" d="M100.065,155.57c6.378-1.89,11.339-0.236,14.882,5.079
	c-0.118,4.37-3.779,7.913-8.15,7.913c-4.606,0-8.268-3.661-8.268-8.15C98.53,158.641,99.12,156.987,100.065,155.57L100.065,155.57z"
	/>
<path fill="#E63909" d="M99.475,153.68c7.323-2.244,12.992-0.354,17.126,5.906l0.354,1.181c-0.118,2.717-1.299,5.197-3.071,6.968
	c-1.89,1.772-4.37,2.835-7.087,2.835c-2.835,0-5.433-1.063-7.323-2.953c-1.772-1.89-2.953-4.488-2.953-7.205
	c0-1.063,0.118-2.126,0.472-3.189c0.354-1.063,0.827-2.008,1.417-2.835L99.475,153.68z M112.939,161.239
	c-2.835-3.898-6.732-5.197-11.575-3.898c-0.236,0.354-0.354,0.709-0.473,1.181c-0.236,0.472-0.354,1.181-0.354,1.89
	c0,1.654,0.709,3.189,1.772,4.37l0,0c1.181,1.063,2.716,1.772,4.488,1.772c1.654,0,3.189-0.591,4.252-1.772
	C111.994,163.956,112.703,162.657,112.939,161.239L112.939,161.239z"/>
<path fill-rule="evenodd" clip-rule="evenodd" fill="#B3B3B3" d="M240.617,164.782l3.898,0.945
	c0.945,4.016,1.772,7.795,0.354,11.693c-0.118-0.59-0.236-1.181-0.354-1.654l-44.409-10.157c1.063-1.417,1.772-3.307,1.772-5.197
	c0-1.772-0.473-3.425-1.535-4.842L240.617,164.782z"/>
<path fill-rule="evenodd" clip-rule="evenodd" fill="#B3B3B3" d="M188.884,167.027c-0.827,0.59-1.653,1.299-2.244,2.244
	c-11.102,14.055-16.535,36.85-18.543,53.858c0,0.118,0,0.118,0,0.236c-0.236-0.236-0.472-0.59-0.827-0.827
	c0.945-16.89,6.024-46.535,19.37-63.307c2.835-3.661,7.087-5.197,11.575-4.134l2.126,0.473c1.063,1.417,1.535,3.071,1.535,4.842
	c0,1.89-0.709,3.779-1.772,5.197l-1.89-0.472C194.79,164.428,191.483,165.137,188.884,167.027L188.884,167.027z"/>
<path fill-rule="evenodd" clip-rule="evenodd" fill="#FFFFFF" d="M200.341,155.57c-6.378-1.89-11.339-0.236-14.882,5.079
	c0.236,4.37,3.78,7.913,8.268,7.913c4.488,0,8.15-3.661,8.15-8.15C201.876,158.641,201.404,156.987,200.341,155.57L200.341,155.57z"
	/>
<path fill="#E63909" d="M199.16,157.342c-4.961-1.299-8.74,0-11.575,3.898c0.118,1.417,0.827,2.716,1.772,3.543
	c1.181,1.181,2.717,1.772,4.37,1.772c1.654,0,3.189-0.709,4.37-1.772l0,0c1.063-1.181,1.772-2.716,1.772-4.37
	c0-0.709-0.118-1.417-0.236-1.89C199.514,158.05,199.278,157.696,199.16,157.342L199.16,157.342z M183.806,159.586
	c4.134-6.26,9.803-8.15,17.126-5.906l1.063,0.709c0.59,0.827,1.063,1.771,1.417,2.835c0.354,1.063,0.472,2.126,0.472,3.189
	c0,2.717-1.063,5.315-2.953,7.205c-1.89,1.89-4.37,2.953-7.205,2.953c-2.716,0-5.315-1.063-7.087-2.835
	c-1.89-1.772-3.071-4.252-3.189-6.968L183.806,159.586z"/>
<path fill-rule="evenodd" clip-rule="evenodd" fill="#E6E6E6" d="M133.018,222.538c-0.236,0.236-0.472,0.591-0.709,0.827
	L133.018,222.538z M127.703,249.113c0.472,1.417,1.063,2.716,1.772,4.134c3.425,2.599,6.968,4.961,10.63,6.496
	c7.323,3.189,14.764,2.835,21.968-0.709c2.835-1.417,5.551-3.189,8.268-5.197c0.354-0.59,0.709-1.181,1.063-1.771
	c4.843-10.748,3.78-21.26-3.189-28.583c0,0,0,0,0,0.118c0.709,1.299,0.59,2.835-0.354,4.016l-14.527,18.78
	c-0.709,0.945-1.772,1.535-3.071,1.535c-1.181,0-2.244-0.59-2.953-1.535l-14.527-18.78c-0.945-1.181-1.063-2.717-0.354-4.016
	c0.118-0.355,0.354-0.709,0.59-1.063c-0.945,0.945-1.772,1.89-2.598,3.071c-2.48,3.543-4.016,7.559-4.37,11.693
	C125.813,241.082,126.404,244.979,127.703,249.113L127.703,249.113z"/>
<path fill-rule="evenodd" clip-rule="evenodd" fill="#1A1A1A" d="M153.333,246.397l14.527-18.78
	c0.945-1.181,1.063-2.717,0.354-4.016c-0.591-1.417-1.89-2.126-3.425-2.126h-29.055c-1.417,0-2.717,0.709-3.307,2.126
	c-0.709,1.299-0.59,2.835,0.354,4.016l14.527,18.78c0.709,0.945,1.772,1.535,2.953,1.535
	C151.561,247.932,152.624,247.342,153.333,246.397L153.333,246.397z"/>
<path fill-rule="evenodd" clip-rule="evenodd" fill="#171414" d="M133.136,222.538L133.136,222.538L133.136,222.538L133.136,222.538
	z M164.79,221.475h-29.055c-0.945,0-1.89,0.354-2.598,1.063l0,0l0,0l-0.354,0.354l0,0c-0.118,0.236-0.236,0.473-0.354,0.709
	c-0.236,0.354-0.354,0.708-0.354,1.063c-0.236,0.945,0,2.008,0.709,2.953l4.606,5.906h1.181h24.685l4.606-5.906
	c0.945-1.181,1.063-2.717,0.354-4.016c0-0.118,0-0.118,0-0.118s0-0.118-0.118-0.118l0,0l0,0c-0.236-0.354-0.472-0.709-0.709-0.945
	l-0.118-0.118C166.68,221.712,165.735,221.475,164.79,221.475L164.79,221.475z"/>
<path fill="#171414" d="M151.798,245.216l14.409-18.898c0.236-0.236,0.354-0.591,0.473-0.945c0-0.236-0.118-0.59-0.236-0.945l0,0
	c-0.118-0.354-0.354-0.591-0.709-0.709c-0.236-0.118-0.591-0.236-0.945-0.236h-29.055c-0.354,0-0.591,0.118-0.945,0.236
	c-0.236,0.118-0.472,0.354-0.591,0.709l0,0c-0.236,0.354-0.236,0.709-0.236,0.945c0,0.354,0.236,0.709,0.354,0.945l14.527,18.898
	c0.236,0.236,0.473,0.354,0.709,0.472c0.236,0.118,0.473,0.236,0.709,0.236c0.354,0,0.591-0.118,0.827-0.236
	C151.325,245.57,151.561,245.452,151.798,245.216L151.798,245.216z M169.396,228.798l-14.528,18.779
	c-0.473,0.827-1.181,1.299-2.008,1.772c-0.827,0.354-1.654,0.59-2.598,0.59c-0.827,0-1.772-0.236-2.48-0.59l0,0
	c-0.827-0.473-1.535-0.945-2.126-1.772l-14.409-18.779c-0.709-0.945-1.181-1.89-1.299-2.953c0-1.063,0.118-2.126,0.59-3.189
	c0.591-0.945,1.299-1.772,2.126-2.362c0.945-0.591,2.008-0.827,3.071-0.827h29.055c1.181,0,2.244,0.236,3.071,0.827
	c0.945,0.59,1.654,1.417,2.126,2.362c0.59,1.063,0.709,2.126,0.59,3.189C170.577,226.909,170.105,227.853,169.396,228.798
	L169.396,228.798z"/>
</svg>
