<?xml version="1.0" encoding="utf-8"?>
<!-- Generator: Adobe Illustrator 24.3.0, SVG Export Plug-In . SVG Version: 6.00 Build 0)  -->
<svg version="1.1" id="Layer_1" xmlns="http://www.w3.org/2000/svg" xmlns:xlink="http://www.w3.org/1999/xlink" x="0px" y="0px"
	 viewBox="0 0 300 300" enable-background="new 0 0 300 300" xml:space="preserve">
<path fill-rule="evenodd" clip-rule="evenodd" fill="#4E575E" d="M230.459,41.062l-27.992,30l0,0
	c9.567,7.441,19.016,17.48,27.165,29.291c9.331-17.244,13.346-40.63,8.032-60.472c-0.591-0.355-1.181-0.472-1.772-0.59
	C233.884,38.818,231.876,39.526,230.459,41.062L230.459,41.062z"/>
<path fill-rule="evenodd" clip-rule="evenodd" fill="#99AAB2" d="M235.301,33.975c0.827,1.89,1.417,3.898,2.008,5.906
	c-0.59-0.355-1.063-0.472-1.772-0.59c-2.008-0.473-4.016,0.236-5.433,1.772l-27.992,30c-2.598-2.008-5.197-3.78-7.795-5.433
	l31.181-33.543c1.417-1.535,3.425-2.126,5.433-1.772C233.057,30.668,234.593,31.968,235.301,33.975L235.301,33.975z"/>
<path fill-rule="evenodd" clip-rule="evenodd" fill="#4E575E" d="M63.333,39.881c-5.315,19.843-1.299,43.228,8.031,60.472
	c8.15-11.811,17.599-21.85,27.165-29.291l-27.992-30c-1.417-1.536-3.425-2.244-5.433-1.772
	C64.514,39.408,63.924,39.526,63.333,39.881L63.333,39.881z"/>
<path fill-rule="evenodd" clip-rule="evenodd" fill="#99AAB2" d="M65.341,33.975c-0.709,1.89-1.417,3.898-2.008,5.906
	c0.591-0.355,1.181-0.472,1.772-0.59c2.008-0.473,4.016,0.236,5.433,1.772l27.992,30c2.598-2.008,5.197-3.78,7.795-5.433
	L75.144,32.086c-1.417-1.535-3.425-2.126-5.433-1.772C67.703,30.668,66.05,31.968,65.341,33.975L65.341,33.975z"/>
<path fill-rule="evenodd" clip-rule="evenodd" fill="#99AAB2" d="M71.365,100.353c-10.748,15.472-19.134,34.016-22.677,53.74
	l13.465-7.205c-10.512,24.685-3.779,53.268,16.654,70.866l1.89-13.701c16.89,23.858,38.858,48.071,64.37,62.953
	c3.425,2.126,7.441,2.126,10.984,0c25.394-14.882,47.362-39.095,64.252-62.953l1.89,13.701
	c20.433-17.598,27.165-46.181,16.654-70.866l13.465,7.205c-3.543-19.725-11.929-38.268-22.677-53.74
	c-25.157-36.496-63.071-55.984-79.134-36.26c-9.449-11.693-26.575-9.567-44.173,1.536c-2.599,1.654-5.197,3.425-7.795,5.433
	C88.963,78.503,79.514,88.542,71.365,100.353L71.365,100.353z M111.522,126.456c2.598,0.236,5.315,0.709,7.795,1.535
	c3.543,1.063,6.969,2.835,9.921,4.961c0,4.488-2.953,8.386-7.205,9.567c-4.37,1.181-8.976-0.591-11.339-4.37
	C108.451,134.487,108.806,129.763,111.522,126.456L111.522,126.456z M150.498,227.794l-15-19.606
	c-0.945-1.299-1.181-2.953-0.472-4.37c0.709-1.417,2.126-2.244,3.661-2.244h9.921h13.701c1.535,0,2.953,0.827,3.661,2.244
	c0.709,1.417,0.472,3.071-0.472,4.37L150.498,227.794z M171.758,132.952c2.953-2.126,6.378-3.898,9.921-4.961
	c2.48-0.827,5.197-1.299,7.795-1.535c2.835,3.307,3.071,8.032,0.827,11.693c-2.362,3.78-6.968,5.551-11.22,4.37
	C174.711,141.338,171.758,137.44,171.758,132.952L171.758,132.952z M150.498,230.865c-0.118-0.827-0.236-1.771-0.236-2.598
	l0.236-0.472l0.236,0.472C150.735,229.094,150.617,230.038,150.498,230.865L150.498,230.865z"/>
<rect x="148.372" y="64.093" fill="#4E575E" width="4.252" height="29.882"/>
<path fill="#4E575E" d="M120.853,73.188c5.433-2.48,10.984-3.425,16.417-2.716c5.197,0.709,10.158,3.071,14.646,7.086l-2.835,3.071
	c-3.779-3.425-8.031-5.433-12.402-6.023c-4.606-0.591-9.331,0.236-14.055,2.362L120.853,73.188z"/>
<path fill="#4E575E" d="M178.372,76.967c-4.724-2.126-9.449-2.953-14.055-2.362c-4.37,0.59-8.622,2.598-12.401,6.023l-2.835-3.071
	c4.488-4.016,9.449-6.378,14.646-7.086c5.433-0.709,10.984,0.236,16.417,2.716L178.372,76.967z"/>
<path fill-rule="evenodd" clip-rule="evenodd" fill="#C3CAC1" d="M71.365,100.353c-10.748,15.472-19.134,34.016-22.677,53.74
	l9.095-4.843c0.118-0.354,0.118-0.59,0.236-0.945l0.709-2.835c11.929-47.362,50.787-85.276,78.307-88.937
	c-8.858-1.299-19.724,2.126-30.709,9.094c-2.599,1.654-5.197,3.425-7.795,5.433C88.963,78.503,79.514,88.542,71.365,100.353
	L71.365,100.353z"/>
<path fill-rule="evenodd" clip-rule="evenodd" fill="#C3CAC1" d="M59.435,148.306c-6.378,23.15-1.772,53.504,19.37,69.449
	l0.945-7.205c-15.591-16.417-20.315-44.173-8.976-68.74L59.435,148.306z"/>
<path fill-rule="evenodd" clip-rule="evenodd" fill="#C3CAC1" d="M229.632,100.353c10.748,15.472,19.134,34.016,22.677,53.74
	l-9.094-4.843c-10.748-49.134-51.024-89.055-79.252-92.716c8.858-1.299,19.724,2.126,30.709,9.094
	c2.598,1.654,5.197,3.425,7.795,5.433C212.034,78.503,221.483,88.542,229.632,100.353L229.632,100.353z"/>
<path fill-rule="evenodd" clip-rule="evenodd" fill="#C3CAC1" d="M241.561,148.306c6.378,23.15,1.772,53.504-19.252,69.449
	l-1.063-7.205c15.591-16.417,20.315-44.173,8.977-68.622L241.561,148.306z"/>
<path fill-rule="evenodd" clip-rule="evenodd" fill="#E3E6E2" d="M97.703,108.031c0,0.59,0,1.181,0,1.771
	c31.181-0.945,40.63,18.779,42.047,43.819c0.945,14.528-6.614,33.78-23.15,56.457c-18.543-9.449-26.102-20.551-28.465-36.024
	c0,0-0.709,3.662-2.126,11.221c-8.031-14.764-9.567-31.89-4.606-47.599c2.244-7.441,5.669-14.173,9.921-20.551
	c-4.488-1.063-9.213,0.236-12.874,2.008C81.404,113.345,90.617,108.739,97.703,108.031L97.703,108.031z"/>
<path fill-rule="evenodd" clip-rule="evenodd" fill="#E3E6E2" d="M202.939,108.031c0,0.59,0,1.181,0,1.771
	c-31.181-0.945-40.63,18.779-42.165,43.819c-0.827,14.528,6.614,33.78,23.268,56.457c18.543-9.449,26.102-20.551,28.464-36.024
	c0,0,0.709,3.662,2.126,11.221c8.032-14.764,9.567-31.89,4.606-47.599c-2.244-7.441-5.669-14.173-9.921-20.551
	c4.488-1.063,9.213,0.236,12.874,2.008C219.239,113.345,210.026,108.739,202.939,108.031L202.939,108.031z"/>
<path fill="#4E575E" d="M190.892,124.802c1.772,2.008,2.716,4.488,2.953,7.086c0.236,2.48-0.354,5.079-1.772,7.441
	c-1.535,2.244-3.543,3.898-6.024,4.843c-2.362,0.945-4.961,1.063-7.559,0.354c-2.599-0.709-4.843-2.244-6.378-4.37
	c-1.536-2.008-2.48-4.488-2.48-7.205h4.134c0,1.772,0.59,3.425,1.654,4.724c1.063,1.418,2.48,2.362,4.134,2.835
	c1.772,0.472,3.543,0.354,5.079-0.236s2.953-1.654,3.898-3.189c0.945-1.535,1.299-3.189,1.181-4.842
	c-0.118-1.772-0.827-3.307-2.008-4.724L190.892,124.802z"/>
<rect x="179.553" y="127.991" fill="#4E575E" width="4.252" height="10.04"/>
<rect x="117.31" y="127.991" fill="#4E575E" width="4.134" height="10.04"/>
<path fill-rule="evenodd" clip-rule="evenodd" fill="#4E575E" d="M150.498,227.794l15-19.606c0.945-1.299,1.181-2.953,0.472-4.37
	c-0.709-1.417-2.126-2.244-3.661-2.244h-11.811h-11.811c-1.536,0-2.953,0.827-3.661,2.244c-0.709,1.417-0.472,3.071,0.472,4.37
	L150.498,227.794z"/>
<path fill-rule="evenodd" clip-rule="evenodd" fill="#221F20" d="M138.451,222.243c-0.236,1.063-1.299,1.654-2.362,1.299
	c-0.945-0.236-1.535-1.299-1.299-2.244c0.236-1.063,1.299-1.654,2.362-1.418C138.097,220.235,138.687,221.18,138.451,222.243
	L138.451,222.243z"/>
<path fill-rule="evenodd" clip-rule="evenodd" fill="#221F20" d="M143.176,231.928c-0.236,1.063-1.299,1.654-2.244,1.417
	c-1.063-0.354-1.654-1.299-1.417-2.362c0.354-1.063,1.417-1.654,2.362-1.299C142.939,229.92,143.53,230.983,143.176,231.928
	L143.176,231.928z"/>
<path fill-rule="evenodd" clip-rule="evenodd" fill="#221F20" d="M135.38,229.566c-0.354,0.945-1.417,1.535-2.362,1.299
	c-1.063-0.236-1.654-1.299-1.299-2.362c0.236-0.945,1.299-1.536,2.244-1.299C135.026,227.44,135.617,228.503,135.38,229.566
	L135.38,229.566z"/>
<path fill-rule="evenodd" clip-rule="evenodd" fill="#221F20" d="M162.546,222.243c0.354,1.063,1.299,1.654,2.362,1.299
	c0.945-0.236,1.654-1.299,1.299-2.244c-0.236-1.063-1.299-1.654-2.244-1.418C162.9,220.235,162.309,221.18,162.546,222.243
	L162.546,222.243z"/>
<path fill-rule="evenodd" clip-rule="evenodd" fill="#221F20" d="M157.821,231.928c0.236,1.063,1.299,1.654,2.244,1.417
	c1.063-0.354,1.654-1.299,1.417-2.362c-0.354-1.063-1.299-1.654-2.362-1.299C158.176,229.92,157.467,230.983,157.821,231.928
	L157.821,231.928z"/>
<path fill-rule="evenodd" clip-rule="evenodd" fill="#221F20" d="M165.735,229.566c0.236,0.945,1.299,1.535,2.244,1.299
	c1.063-0.236,1.654-1.299,1.417-2.362c-0.354-0.945-1.417-1.536-2.362-1.299C165.971,227.44,165.38,228.503,165.735,229.566
	L165.735,229.566z"/>
<path fill-rule="evenodd" clip-rule="evenodd" fill="#C3CAC1" d="M117.073,209.369c26.339-32.126,29.291-63.897,13.819-75.236
	c4.488,26.339-3.661,50.905-21.85,69.685C113.53,207.834,111.64,207.007,117.073,209.369L117.073,209.369z"/>
<path fill="#C9CFC7" d="M117.073,209.133c1.654-2.008,3.189-4.016,4.724-6.024c10.63-14.646,16.417-28.937,17.953-40.984
	c1.417-11.929-1.417-21.614-8.15-27.047l-0.472-0.473c2.126,12.874,1.299,25.394-2.362,36.969
	c-3.661,11.811-10.276,22.795-19.37,32.244c1.063,0.945,1.772,1.654,2.244,2.126C113.176,207.361,113.176,207.479,117.073,209.133
	L117.073,209.133z M122.034,203.345c-1.418,2.008-3.071,4.134-4.724,6.142l-0.118,0.118h-0.118c-4.134-1.89-4.134-1.89-5.669-3.425
	c-0.591-0.473-1.299-1.181-2.48-2.126l-0.118-0.236l0.118-0.118c9.095-9.449,15.709-20.433,19.488-32.244
	c3.661-11.693,4.488-24.213,2.244-37.205l0.354-0.236c0.236,0.236,0.59,0.473,0.827,0.709c6.85,5.551,9.803,15.354,8.268,27.519
	C138.569,174.29,132.782,188.582,122.034,203.345L122.034,203.345z"/>
<path fill="#4E575E" d="M137.743,145.59c-3.898-6.968-9.921-12.165-16.89-14.882c-7.087-2.717-15-3.189-22.559-0.59l-1.299-4.016
	c8.504-2.716,17.48-2.362,25.276,0.709c7.913,3.189,14.764,8.858,19.134,16.772L137.743,145.59z"/>
<path fill="#4E575E" d="M113.294,127.519c-1.181,1.417-1.89,2.952-2.008,4.724c-0.118,1.654,0.236,3.307,1.181,4.842
	c0.945,1.536,2.362,2.599,3.898,3.189s3.307,0.708,5.079,0.236c1.654-0.473,3.071-1.417,4.134-2.835
	c1.063-1.299,1.654-2.952,1.654-4.724h4.134c0,2.716-0.945,5.197-2.48,7.205c-1.535,2.126-3.779,3.662-6.378,4.37
	c-2.598,0.709-5.197,0.59-7.559-0.354c-2.48-0.945-4.488-2.599-5.905-4.843c-1.536-2.362-2.126-4.961-1.89-7.441
	c0.236-2.598,1.181-5.079,3.071-7.086L113.294,127.519z"/>
<path fill="#4E575E" d="M96.286,107.794c4.488-0.827,9.094-0.354,13.228,1.063c2.126,0.708,4.134,1.771,6.024,3.071l-1.299-5.551
	l4.016,2.126c4.725,2.362,8.858,5.669,12.283,9.449c3.425,3.898,6.142,8.268,7.913,12.992v0.236l0,0v-0.236v0.236l0,0h0.118
	c3.661,10.748,4.606,21.496,2.716,32.48c-1.89,10.866-6.496,21.732-13.819,32.598l-3.425-2.362
	c6.969-10.393,11.339-20.669,13.11-30.945c1.772-10.276,0.945-20.433-2.48-30.354c-1.654-4.37-4.134-8.386-7.205-11.811
	c-2.008-2.362-4.37-4.37-6.968-6.142l2.598,10.748l-5.551-6.26c-2.598-2.953-5.787-5.079-9.331-6.378
	c-3.543-1.181-7.441-1.536-11.339-0.945L96.286,107.794z"/>
<path fill-rule="evenodd" clip-rule="evenodd" fill="#C9CFC7" d="M183.924,209.369c-26.22-32.126-29.291-63.897-13.701-75.236
	c-4.488,26.339,3.661,50.905,21.85,69.685C187.585,207.834,189.475,207.007,183.924,209.369L183.924,209.369z"/>
<path fill="#4E575E" d="M204.12,111.81c-3.898-0.591-7.677-0.236-11.339,0.945c-3.543,1.299-6.732,3.425-9.331,6.378l-5.433,6.26
	l2.598-10.748c-2.598,1.771-4.961,3.779-7.087,6.142c-3.071,3.425-5.551,7.441-7.087,11.811c-3.543,9.921-4.37,20.079-2.598,30.354
	c1.772,10.275,6.142,20.551,13.11,30.945l-3.425,2.362c-7.323-10.866-11.929-21.732-13.819-32.598
	c-1.772-10.984-0.945-21.732,2.835-32.48v-0.236v0.236v-0.236c1.771-4.724,4.488-9.094,7.913-12.992
	c3.425-3.78,7.559-7.087,12.284-9.449l4.016-2.126l-1.299,5.551c1.89-1.299,3.898-2.362,6.024-3.071
	c4.134-1.417,8.74-1.89,13.346-1.063L204.12,111.81z"/>
<path fill="#4E575E" d="M159.711,143.582c4.252-7.913,11.102-13.583,19.016-16.772c7.795-3.071,16.772-3.425,25.276-0.709
	l-1.299,4.016c-7.559-2.598-15.472-2.126-22.559,0.59c-6.968,2.717-12.992,7.913-16.89,14.882L159.711,143.582z"/>
<path fill="#4E575E" d="M216.286,124.92c5.433,9.449,8.15,19.961,8.268,30.591c0.118,10.512-2.48,21.142-7.677,30.708l-2.953,5.197
	l-1.181-7.205c-2.598,5.433-6.024,10.394-10.039,14.646c-5.315,5.787-11.693,10.63-19.016,14.055c0,4.016-0.827,8.031-2.362,11.693
	c-1.772,4.016-4.252,7.795-7.559,10.866c-4.016,3.78-8.622,5.669-12.874,5.787c-1.772,0-3.425-0.354-5.079-0.945
	c-1.535-0.591-3.071-1.535-4.252-2.835c-0.354-0.354-0.709-0.827-1.063-1.299c-0.354,0.472-0.709,0.945-1.063,1.299
	c-1.181,1.299-2.717,2.244-4.252,2.835c-1.535,0.59-3.307,0.945-5.079,0.945c-4.252-0.118-8.858-2.008-12.874-5.787
	c-3.307-3.071-5.787-6.85-7.559-10.866c-1.417-3.662-2.362-7.677-2.362-11.693c-7.205-3.425-13.701-8.268-19.016-14.055
	c-4.016-4.252-7.441-9.212-10.039-14.646l-1.181,7.205l-2.953-5.197c-5.197-9.567-7.677-20.197-7.677-30.708
	c0.118-10.63,2.835-21.142,8.268-30.591l3.543,2.008c-4.961,8.858-7.559,18.661-7.677,28.583c0,7.795,1.417,15.591,4.488,22.913
	l1.654-9.803l2.598,7.559c2.717,7.441,6.732,14.173,12.047,19.96c5.197,5.669,11.575,10.276,18.898,13.583l1.181,0.472v1.417
	c-0.118,4.016,0.591,7.795,2.126,11.339c1.417,3.661,3.661,6.85,6.496,9.567c3.189,3.071,6.85,4.488,10.039,4.606
	c1.299,0,2.48-0.236,3.543-0.59c1.063-0.472,2.008-1.063,2.716-1.89c0.945-0.945,1.654-2.244,2.008-3.78
	c-0.118-0.827-0.236-1.771-0.236-2.598v-0.118l-14.291-18.78c-0.709-0.945-1.181-2.008-1.299-3.071
	c-0.118-1.181,0.118-2.244,0.709-3.307c0.473-1.063,1.299-1.89,2.244-2.48l0,0c0.945-0.59,2.008-0.945,3.189-0.945h23.622
	c1.181,0,2.244,0.354,3.189,0.945l0,0c0.945,0.59,1.772,1.417,2.362,2.48c0.473,1.063,0.709,2.126,0.59,3.307
	c-0.118,1.063-0.59,2.126-1.299,3.071l-14.291,18.78v0.118c0,0.827-0.118,1.771-0.236,2.598c0.354,1.536,1.063,2.835,2.008,3.78
	c0.709,0.827,1.654,1.417,2.717,1.89c1.063,0.354,2.244,0.59,3.543,0.59c3.189-0.118,6.85-1.535,10.039-4.606
	c2.835-2.717,5.079-5.905,6.496-9.567c1.535-3.543,2.244-7.323,2.126-11.339v-1.417l1.181-0.472
	c7.323-3.307,13.701-7.913,18.898-13.583c5.315-5.787,9.449-12.52,12.047-19.96l2.598-7.559l1.654,9.803
	c3.071-7.323,4.488-15.118,4.488-22.913c-0.118-9.921-2.598-19.724-7.677-28.583L216.286,124.92z M150.498,224.487l13.346-17.599
	c0.236-0.354,0.472-0.708,0.472-1.063c0-0.355,0-0.709-0.236-1.063c-0.118-0.355-0.354-0.59-0.709-0.827
	c-0.236-0.118-0.709-0.236-1.063-0.236h-23.622c-0.354,0-0.709,0.118-1.063,0.236c-0.236,0.236-0.59,0.472-0.709,0.827
	c-0.118,0.354-0.236,0.708-0.236,1.063c0,0.354,0.236,0.709,0.472,1.063L150.498,224.487z"/>
</svg>
