<svg xmlns="http://www.w3.org/2000/svg" viewBox="0 0 16 16" width="128" height="128" aria-hidden="true" focusable="false">
  <defs>
    <mask id="wheel-mask">
      <rect x="0" y="0" width="16" height="16" fill="black" />
      <circle cx="8" cy="8" r="7.5" fill="white" />
    </mask>
    <filter id="soften" x="-20%" y="-20%" width="140%" height="140%" color-interpolation-filters="sRGB">
      <feGaussianBlur stdDeviation="0.12" />
    </filter>
    <radialGradient id="sphere-vignette" cx="50%" cy="50%" r="65%">
      <stop offset="0%" stop-color="#000" stop-opacity="0" />
      <stop offset="72%" stop-color="#000" stop-opacity="0" />
      <stop offset="100%" stop-color="#000" stop-opacity="0.26" />
    </radialGradient>
    <radialGradient id="sphere-highlight" cx="30%" cy="25%" r="55%">
      <stop offset="0%" stop-color="#fff" stop-opacity="0.62" />
      <stop offset="42%" stop-color="#fff" stop-opacity="0.12" />
      <stop offset="70%" stop-color="#fff" stop-opacity="0" />
    </radialGradient>
  </defs>

  <g mask="url(#wheel-mask)">
  <g transform="rotate(195 8 8)" filter="url(#soften)" shape-rendering="geometricPrecision">
  <path d="M8 8 L8.0000 0.5000 A7.5 7.5 0 0 1 8.1963 0.5026 Z" fill="#0080ff" />
  <path d="M8 8 L8.1963 0.5026 A7.5 7.5 0 0 1 8.3925 0.5103 Z" fill="#0079ff" />
  <path d="M8 8 L8.3925 0.5103 A7.5 7.5 0 0 1 8.5884 0.5231 Z" fill="#0073ff" />
  <path d="M8 8 L8.5884 0.5231 A7.5 7.5 0 0 1 8.7840 0.5411 Z" fill="#006cff" />
  <path d="M8 8 L8.7840 0.5411 A7.5 7.5 0 0 1 8.9789 0.5642 Z" fill="#0066ff" />
  <path d="M8 8 L8.9789 0.5642 A7.5 7.5 0 0 1 9.1733 0.5923 Z" fill="#0060ff" />
  <path d="M8 8 L9.1733 0.5923 A7.5 7.5 0 0 1 9.3668 0.6256 Z" fill="#0059ff" />
  <path d="M8 8 L9.3668 0.6256 A7.5 7.5 0 0 1 9.5593 0.6639 Z" fill="#0053ff" />
  <path d="M8 8 L9.5593 0.6639 A7.5 7.5 0 0 1 9.7508 0.7072 Z" fill="#004cff" />
  <path d="M8 8 L9.7508 0.7072 A7.5 7.5 0 0 1 9.9411 0.7556 Z" fill="#0046ff" />
  <path d="M8 8 L9.9411 0.7556 A7.5 7.5 0 0 1 10.1301 0.8089 Z" fill="#0040ff" />
  <path d="M8 8 L10.1301 0.8089 A7.5 7.5 0 0 1 10.3176 0.8671 Z" fill="#0039ff" />
  <path d="M8 8 L10.3176 0.8671 A7.5 7.5 0 0 1 10.5036 0.9302 Z" fill="#0033ff" />
  <path d="M8 8 L10.5036 0.9302 A7.5 7.5 0 0 1 10.6878 0.9981 Z" fill="#002dff" />
  <path d="M8 8 L10.6878 0.9981 A7.5 7.5 0 0 1 10.8701 1.0709 Z" fill="#0026ff" />
  <path d="M8 8 L10.8701 1.0709 A7.5 7.5 0 0 1 11.0505 1.1484 Z" fill="#0020ff" />
  <path d="M8 8 L11.0505 1.1484 A7.5 7.5 0 0 1 11.2288 1.2306 Z" fill="#001aff" />
  <path d="M8 8 L11.2288 1.2306 A7.5 7.5 0 0 1 11.4049 1.3175 Z" fill="#0013ff" />
  <path d="M8 8 L11.4049 1.3175 A7.5 7.5 0 0 1 11.5787 1.4089 Z" fill="#000dff" />
  <path d="M8 8 L11.5787 1.4089 A7.5 7.5 0 0 1 11.7500 1.5048 Z" fill="#0006ff" />
  <path d="M8 8 L11.7500 1.5048 A7.5 7.5 0 0 1 11.9187 1.6052 Z" fill="#0000ff" />
  <path d="M8 8 L11.9187 1.6052 A7.5 7.5 0 0 1 12.0848 1.7100 Z" fill="#0600ff" />
  <path d="M8 8 L12.0848 1.7100 A7.5 7.5 0 0 1 12.2480 1.8191 Z" fill="#0d00ff" />
  <path d="M8 8 L12.2480 1.8191 A7.5 7.5 0 0 1 12.4084 1.9324 Z" fill="#1300ff" />
  <path d="M8 8 L12.4084 1.9324 A7.5 7.5 0 0 1 12.5657 2.0498 Z" fill="#1900ff" />
  <path d="M8 8 L12.5657 2.0498 A7.5 7.5 0 0 1 12.7199 2.1714 Z" fill="#2000ff" />
  <path d="M8 8 L12.7199 2.1714 A7.5 7.5 0 0 1 12.8709 2.2970 Z" fill="#2600ff" />
  <path d="M8 8 L12.8709 2.2970 A7.5 7.5 0 0 1 13.0185 2.4264 Z" fill="#2d00ff" />
  <path d="M8 8 L13.0185 2.4264 A7.5 7.5 0 0 1 13.1627 2.5597 Z" fill="#3300ff" />
  <path d="M8 8 L13.1627 2.5597 A7.5 7.5 0 0 1 13.3033 2.6967 Z" fill="#3900ff" />
  <path d="M8 8 L13.3033 2.6967 A7.5 7.5 0 0 1 13.4403 2.8373 Z" fill="#4000ff" />
  <path d="M8 8 L13.4403 2.8373 A7.5 7.5 0 0 1 13.5736 2.9815 Z" fill="#4600ff" />
  <path d="M8 8 L13.5736 2.9815 A7.5 7.5 0 0 1 13.7030 3.1291 Z" fill="#4c00ff" />
  <path d="M8 8 L13.7030 3.1291 A7.5 7.5 0 0 1 13.8286 3.2801 Z" fill="#5300ff" />
  <path d="M8 8 L13.8286 3.2801 A7.5 7.5 0 0 1 13.9502 3.4343 Z" fill="#5900ff" />
  <path d="M8 8 L13.9502 3.4343 A7.5 7.5 0 0 1 14.0676 3.5916 Z" fill="#6000ff" />
  <path d="M8 8 L14.0676 3.5916 A7.5 7.5 0 0 1 14.1809 3.7520 Z" fill="#6600ff" />
  <path d="M8 8 L14.1809 3.7520 A7.5 7.5 0 0 1 14.2900 3.9152 Z" fill="#6c00ff" />
  <path d="M8 8 L14.2900 3.9152 A7.5 7.5 0 0 1 14.3948 4.0813 Z" fill="#7300ff" />
  <path d="M8 8 L14.3948 4.0813 A7.5 7.5 0 0 1 14.4952 4.2500 Z" fill="#7900ff" />
  <path d="M8 8 L14.4952 4.2500 A7.5 7.5 0 0 1 14.5911 4.4213 Z" fill="#8000ff" />
  <path d="M8 8 L14.5911 4.4213 A7.5 7.5 0 0 1 14.6825 4.5951 Z" fill="#8600ff" />
  <path d="M8 8 L14.6825 4.5951 A7.5 7.5 0 0 1 14.7694 4.7712 Z" fill="#8c00ff" />
  <path d="M8 8 L14.7694 4.7712 A7.5 7.5 0 0 1 14.8516 4.9495 Z" fill="#9300ff" />
  <path d="M8 8 L14.8516 4.9495 A7.5 7.5 0 0 1 14.9291 5.1299 Z" fill="#9900ff" />
  <path d="M8 8 L14.9291 5.1299 A7.5 7.5 0 0 1 15.0019 5.3122 Z" fill="#9f00ff" />
  <path d="M8 8 L15.0019 5.3122 A7.5 7.5 0 0 1 15.0698 5.4964 Z" fill="#a600ff" />
  <path d="M8 8 L15.0698 5.4964 A7.5 7.5 0 0 1 15.1329 5.6824 Z" fill="#ac00ff" />
  <path d="M8 8 L15.1329 5.6824 A7.5 7.5 0 0 1 15.1911 5.8699 Z" fill="#b300ff" />
  <path d="M8 8 L15.1911 5.8699 A7.5 7.5 0 0 1 15.2444 6.0589 Z" fill="#b900ff" />
  <path d="M8 8 L15.2444 6.0589 A7.5 7.5 0 0 1 15.2928 6.2492 Z" fill="#bf00ff" />
  <path d="M8 8 L15.2928 6.2492 A7.5 7.5 0 0 1 15.3361 6.4407 Z" fill="#c600ff" />
  <path d="M8 8 L15.3361 6.4407 A7.5 7.5 0 0 1 15.3744 6.6332 Z" fill="#cc00ff" />
  <path d="M8 8 L15.3744 6.6332 A7.5 7.5 0 0 1 15.4077 6.8267 Z" fill="#d200ff" />
  <path d="M8 8 L15.4077 6.8267 A7.5 7.5 0 0 1 15.4358 7.0211 Z" fill="#d900ff" />
  <path d="M8 8 L15.4358 7.0211 A7.5 7.5 0 0 1 15.4589 7.2160 Z" fill="#df00ff" />
  <path d="M8 8 L15.4589 7.2160 A7.5 7.5 0 0 1 15.4769 7.4116 Z" fill="#e600ff" />
  <path d="M8 8 L15.4769 7.4116 A7.5 7.5 0 0 1 15.4897 7.6075 Z" fill="#ec00ff" />
  <path d="M8 8 L15.4897 7.6075 A7.5 7.5 0 0 1 15.4974 7.8037 Z" fill="#f200ff" />
  <path d="M8 8 L15.4974 7.8037 A7.5 7.5 0 0 1 15.5000 8.0000 Z" fill="#f900ff" />
  <path d="M8 8 L15.5000 8.0000 A7.5 7.5 0 0 1 15.4974 8.1963 Z" fill="#ff00ff" />
  <path d="M8 8 L15.4974 8.1963 A7.5 7.5 0 0 1 15.4897 8.3925 Z" fill="#ff00f9" />
  <path d="M8 8 L15.4897 8.3925 A7.5 7.5 0 0 1 15.4769 8.5884 Z" fill="#ff00f2" />
  <path d="M8 8 L15.4769 8.5884 A7.5 7.5 0 0 1 15.4589 8.7840 Z" fill="#ff00ec" />
  <path d="M8 8 L15.4589 8.7840 A7.5 7.5 0 0 1 15.4358 8.9789 Z" fill="#ff00e6" />
  <path d="M8 8 L15.4358 8.9789 A7.5 7.5 0 0 1 15.4077 9.1733 Z" fill="#ff00df" />
  <path d="M8 8 L15.4077 9.1733 A7.5 7.5 0 0 1 15.3744 9.3668 Z" fill="#ff00d9" />
  <path d="M8 8 L15.3744 9.3668 A7.5 7.5 0 0 1 15.3361 9.5593 Z" fill="#ff00d2" />
  <path d="M8 8 L15.3361 9.5593 A7.5 7.5 0 0 1 15.2928 9.7508 Z" fill="#ff00cc" />
  <path d="M8 8 L15.2928 9.7508 A7.5 7.5 0 0 1 15.2444 9.9411 Z" fill="#ff00c6" />
  <path d="M8 8 L15.2444 9.9411 A7.5 7.5 0 0 1 15.1911 10.1301 Z" fill="#ff00bf" />
  <path d="M8 8 L15.1911 10.1301 A7.5 7.5 0 0 1 15.1329 10.3176 Z" fill="#ff00b9" />
  <path d="M8 8 L15.1329 10.3176 A7.5 7.5 0 0 1 15.0698 10.5036 Z" fill="#ff00b3" />
  <path d="M8 8 L15.0698 10.5036 A7.5 7.5 0 0 1 15.0019 10.6878 Z" fill="#ff00ac" />
  <path d="M8 8 L15.0019 10.6878 A7.5 7.5 0 0 1 14.9291 10.8701 Z" fill="#ff00a6" />
  <path d="M8 8 L14.9291 10.8701 A7.5 7.5 0 0 1 14.8516 11.0505 Z" fill="#ff009f" />
  <path d="M8 8 L14.8516 11.0505 A7.5 7.5 0 0 1 14.7694 11.2288 Z" fill="#ff0099" />
  <path d="M8 8 L14.7694 11.2288 A7.5 7.5 0 0 1 14.6825 11.4049 Z" fill="#ff0093" />
  <path d="M8 8 L14.6825 11.4049 A7.5 7.5 0 0 1 14.5911 11.5787 Z" fill="#ff008c" />
  <path d="M8 8 L14.5911 11.5787 A7.5 7.5 0 0 1 14.4952 11.7500 Z" fill="#ff0086" />
  <path d="M8 8 L14.4952 11.7500 A7.5 7.5 0 0 1 14.3948 11.9187 Z" fill="#ff0080" />
  <path d="M8 8 L14.3948 11.9187 A7.5 7.5 0 0 1 14.2900 12.0848 Z" fill="#ff0079" />
  <path d="M8 8 L14.2900 12.0848 A7.5 7.5 0 0 1 14.1809 12.2480 Z" fill="#ff0073" />
  <path d="M8 8 L14.1809 12.2480 A7.5 7.5 0 0 1 14.0676 12.4084 Z" fill="#ff006c" />
  <path d="M8 8 L14.0676 12.4084 A7.5 7.5 0 0 1 13.9502 12.5657 Z" fill="#ff0066" />
  <path d="M8 8 L13.9502 12.5657 A7.5 7.5 0 0 1 13.8286 12.7199 Z" fill="#ff0060" />
  <path d="M8 8 L13.8286 12.7199 A7.5 7.5 0 0 1 13.7030 12.8709 Z" fill="#ff0059" />
  <path d="M8 8 L13.7030 12.8709 A7.5 7.5 0 0 1 13.5736 13.0185 Z" fill="#ff0053" />
  <path d="M8 8 L13.5736 13.0185 A7.5 7.5 0 0 1 13.4403 13.1627 Z" fill="#ff004c" />
  <path d="M8 8 L13.4403 13.1627 A7.5 7.5 0 0 1 13.3033 13.3033 Z" fill="#ff0046" />
  <path d="M8 8 L13.3033 13.3033 A7.5 7.5 0 0 1 13.1627 13.4403 Z" fill="#ff0040" />
  <path d="M8 8 L13.1627 13.4403 A7.5 7.5 0 0 1 13.0185 13.5736 Z" fill="#ff0039" />
  <path d="M8 8 L13.0185 13.5736 A7.5 7.5 0 0 1 12.8709 13.7030 Z" fill="#ff0033" />
  <path d="M8 8 L12.8709 13.7030 A7.5 7.5 0 0 1 12.7199 13.8286 Z" fill="#ff002d" />
  <path d="M8 8 L12.7199 13.8286 A7.5 7.5 0 0 1 12.5657 13.9502 Z" fill="#ff0026" />
  <path d="M8 8 L12.5657 13.9502 A7.5 7.5 0 0 1 12.4084 14.0676 Z" fill="#ff0020" />
  <path d="M8 8 L12.4084 14.0676 A7.5 7.5 0 0 1 12.2480 14.1809 Z" fill="#ff0019" />
  <path d="M8 8 L12.2480 14.1809 A7.5 7.5 0 0 1 12.0848 14.2900 Z" fill="#ff0013" />
  <path d="M8 8 L12.0848 14.2900 A7.5 7.5 0 0 1 11.9187 14.3948 Z" fill="#ff000d" />
  <path d="M8 8 L11.9187 14.3948 A7.5 7.5 0 0 1 11.7500 14.4952 Z" fill="#ff0006" />
  <path d="M8 8 L11.7500 14.4952 A7.5 7.5 0 0 1 11.5787 14.5911 Z" fill="#ff0000" />
  <path d="M8 8 L11.5787 14.5911 A7.5 7.5 0 0 1 11.4049 14.6825 Z" fill="#ff0600" />
  <path d="M8 8 L11.4049 14.6825 A7.5 7.5 0 0 1 11.2288 14.7694 Z" fill="#ff0d00" />
  <path d="M8 8 L11.2288 14.7694 A7.5 7.5 0 0 1 11.0505 14.8516 Z" fill="#ff1300" />
  <path d="M8 8 L11.0505 14.8516 A7.5 7.5 0 0 1 10.8701 14.9291 Z" fill="#ff1900" />
  <path d="M8 8 L10.8701 14.9291 A7.5 7.5 0 0 1 10.6878 15.0019 Z" fill="#ff2000" />
  <path d="M8 8 L10.6878 15.0019 A7.5 7.5 0 0 1 10.5036 15.0698 Z" fill="#ff2600" />
  <path d="M8 8 L10.5036 15.0698 A7.5 7.5 0 0 1 10.3176 15.1329 Z" fill="#ff2d00" />
  <path d="M8 8 L10.3176 15.1329 A7.5 7.5 0 0 1 10.1301 15.1911 Z" fill="#ff3300" />
  <path d="M8 8 L10.1301 15.1911 A7.5 7.5 0 0 1 9.9411 15.2444 Z" fill="#ff3900" />
  <path d="M8 8 L9.9411 15.2444 A7.5 7.5 0 0 1 9.7508 15.2928 Z" fill="#ff4000" />
  <path d="M8 8 L9.7508 15.2928 A7.5 7.5 0 0 1 9.5593 15.3361 Z" fill="#ff4600" />
  <path d="M8 8 L9.5593 15.3361 A7.5 7.5 0 0 1 9.3668 15.3744 Z" fill="#ff4d00" />
  <path d="M8 8 L9.3668 15.3744 A7.5 7.5 0 0 1 9.1733 15.4077 Z" fill="#ff5300" />
  <path d="M8 8 L9.1733 15.4077 A7.5 7.5 0 0 1 8.9789 15.4358 Z" fill="#ff5900" />
  <path d="M8 8 L8.9789 15.4358 A7.5 7.5 0 0 1 8.7840 15.4589 Z" fill="#ff6000" />
  <path d="M8 8 L8.7840 15.4589 A7.5 7.5 0 0 1 8.5884 15.4769 Z" fill="#ff6600" />
  <path d="M8 8 L8.5884 15.4769 A7.5 7.5 0 0 1 8.3925 15.4897 Z" fill="#ff6c00" />
  <path d="M8 8 L8.3925 15.4897 A7.5 7.5 0 0 1 8.1963 15.4974 Z" fill="#ff7300" />
  <path d="M8 8 L8.1963 15.4974 A7.5 7.5 0 0 1 8.0000 15.5000 Z" fill="#ff7900" />
  <path d="M8 8 L8.0000 15.5000 A7.5 7.5 0 0 1 7.8037 15.4974 Z" fill="#ff8000" />
  <path d="M8 8 L7.8037 15.4974 A7.5 7.5 0 0 1 7.6075 15.4897 Z" fill="#ff8600" />
  <path d="M8 8 L7.6075 15.4897 A7.5 7.5 0 0 1 7.4116 15.4769 Z" fill="#ff8c00" />
  <path d="M8 8 L7.4116 15.4769 A7.5 7.5 0 0 1 7.2160 15.4589 Z" fill="#ff9300" />
  <path d="M8 8 L7.2160 15.4589 A7.5 7.5 0 0 1 7.0211 15.4358 Z" fill="#ff9900" />
  <path d="M8 8 L7.0211 15.4358 A7.5 7.5 0 0 1 6.8267 15.4077 Z" fill="#ff9f00" />
  <path d="M8 8 L6.8267 15.4077 A7.5 7.5 0 0 1 6.6332 15.3744 Z" fill="#ffa600" />
  <path d="M8 8 L6.6332 15.3744 A7.5 7.5 0 0 1 6.4407 15.3361 Z" fill="#ffac00" />
  <path d="M8 8 L6.4407 15.3361 A7.5 7.5 0 0 1 6.2492 15.2928 Z" fill="#ffb300" />
  <path d="M8 8 L6.2492 15.2928 A7.5 7.5 0 0 1 6.0589 15.2444 Z" fill="#ffb900" />
  <path d="M8 8 L6.0589 15.2444 A7.5 7.5 0 0 1 5.8699 15.1911 Z" fill="#ffbf00" />
  <path d="M8 8 L5.8699 15.1911 A7.5 7.5 0 0 1 5.6824 15.1329 Z" fill="#ffc600" />
  <path d="M8 8 L5.6824 15.1329 A7.5 7.5 0 0 1 5.4964 15.0698 Z" fill="#ffcc00" />
  <path d="M8 8 L5.4964 15.0698 A7.5 7.5 0 0 1 5.3122 15.0019 Z" fill="#ffd200" />
  <path d="M8 8 L5.3122 15.0019 A7.5 7.5 0 0 1 5.1299 14.9291 Z" fill="#ffd900" />
  <path d="M8 8 L5.1299 14.9291 A7.5 7.5 0 0 1 4.9495 14.8516 Z" fill="#ffdf00" />
  <path d="M8 8 L4.9495 14.8516 A7.5 7.5 0 0 1 4.7712 14.7694 Z" fill="#ffe600" />
  <path d="M8 8 L4.7712 14.7694 A7.5 7.5 0 0 1 4.5951 14.6825 Z" fill="#ffec00" />
  <path d="M8 8 L4.5951 14.6825 A7.5 7.5 0 0 1 4.4213 14.5911 Z" fill="#fff200" />
  <path d="M8 8 L4.4213 14.5911 A7.5 7.5 0 0 1 4.2500 14.4952 Z" fill="#fff900" />
  <path d="M8 8 L4.2500 14.4952 A7.5 7.5 0 0 1 4.0813 14.3948 Z" fill="#ffff00" />
  <path d="M8 8 L4.0813 14.3948 A7.5 7.5 0 0 1 3.9152 14.2900 Z" fill="#f9ff00" />
  <path d="M8 8 L3.9152 14.2900 A7.5 7.5 0 0 1 3.7520 14.1809 Z" fill="#f2ff00" />
  <path d="M8 8 L3.7520 14.1809 A7.5 7.5 0 0 1 3.5916 14.0676 Z" fill="#ecff00" />
  <path d="M8 8 L3.5916 14.0676 A7.5 7.5 0 0 1 3.4343 13.9502 Z" fill="#e5ff00" />
  <path d="M8 8 L3.4343 13.9502 A7.5 7.5 0 0 1 3.2801 13.8286 Z" fill="#dfff00" />
  <path d="M8 8 L3.2801 13.8286 A7.5 7.5 0 0 1 3.1291 13.7030 Z" fill="#d9ff00" />
  <path d="M8 8 L3.1291 13.7030 A7.5 7.5 0 0 1 2.9815 13.5736 Z" fill="#d2ff00" />
  <path d="M8 8 L2.9815 13.5736 A7.5 7.5 0 0 1 2.8373 13.4403 Z" fill="#ccff00" />
  <path d="M8 8 L2.8373 13.4403 A7.5 7.5 0 0 1 2.6967 13.3033 Z" fill="#c6ff00" />
  <path d="M8 8 L2.6967 13.3033 A7.5 7.5 0 0 1 2.5597 13.1627 Z" fill="#bfff00" />
  <path d="M8 8 L2.5597 13.1627 A7.5 7.5 0 0 1 2.4264 13.0185 Z" fill="#b9ff00" />
  <path d="M8 8 L2.4264 13.0185 A7.5 7.5 0 0 1 2.2970 12.8709 Z" fill="#b3ff00" />
  <path d="M8 8 L2.2970 12.8709 A7.5 7.5 0 0 1 2.1714 12.7199 Z" fill="#acff00" />
  <path d="M8 8 L2.1714 12.7199 A7.5 7.5 0 0 1 2.0498 12.5657 Z" fill="#a6ff00" />
  <path d="M8 8 L2.0498 12.5657 A7.5 7.5 0 0 1 1.9324 12.4084 Z" fill="#9fff00" />
  <path d="M8 8 L1.9324 12.4084 A7.5 7.5 0 0 1 1.8191 12.2480 Z" fill="#99ff00" />
  <path d="M8 8 L1.8191 12.2480 A7.5 7.5 0 0 1 1.7100 12.0848 Z" fill="#93ff00" />
  <path d="M8 8 L1.7100 12.0848 A7.5 7.5 0 0 1 1.6052 11.9187 Z" fill="#8cff00" />
  <path d="M8 8 L1.6052 11.9187 A7.5 7.5 0 0 1 1.5048 11.7500 Z" fill="#86ff00" />
  <path d="M8 8 L1.5048 11.7500 A7.5 7.5 0 0 1 1.4089 11.5787 Z" fill="#80ff00" />
  <path d="M8 8 L1.4089 11.5787 A7.5 7.5 0 0 1 1.3175 11.4049 Z" fill="#79ff00" />
  <path d="M8 8 L1.3175 11.4049 A7.5 7.5 0 0 1 1.2306 11.2288 Z" fill="#73ff00" />
  <path d="M8 8 L1.2306 11.2288 A7.5 7.5 0 0 1 1.1484 11.0505 Z" fill="#6cff00" />
  <path d="M8 8 L1.1484 11.0505 A7.5 7.5 0 0 1 1.0709 10.8701 Z" fill="#66ff00" />
  <path d="M8 8 L1.0709 10.8701 A7.5 7.5 0 0 1 0.9981 10.6878 Z" fill="#60ff00" />
  <path d="M8 8 L0.9981 10.6878 A7.5 7.5 0 0 1 0.9302 10.5036 Z" fill="#59ff00" />
  <path d="M8 8 L0.9302 10.5036 A7.5 7.5 0 0 1 0.8671 10.3176 Z" fill="#53ff00" />
  <path d="M8 8 L0.8671 10.3176 A7.5 7.5 0 0 1 0.8089 10.1301 Z" fill="#4dff00" />
  <path d="M8 8 L0.8089 10.1301 A7.5 7.5 0 0 1 0.7556 9.9411 Z" fill="#46ff00" />
  <path d="M8 8 L0.7556 9.9411 A7.5 7.5 0 0 1 0.7072 9.7508 Z" fill="#40ff00" />
  <path d="M8 8 L0.7072 9.7508 A7.5 7.5 0 0 1 0.6639 9.5593 Z" fill="#39ff00" />
  <path d="M8 8 L0.6639 9.5593 A7.5 7.5 0 0 1 0.6256 9.3668 Z" fill="#33ff00" />
  <path d="M8 8 L0.6256 9.3668 A7.5 7.5 0 0 1 0.5923 9.1733 Z" fill="#2dff00" />
  <path d="M8 8 L0.5923 9.1733 A7.5 7.5 0 0 1 0.5642 8.9789 Z" fill="#26ff00" />
  <path d="M8 8 L0.5642 8.9789 A7.5 7.5 0 0 1 0.5411 8.7840 Z" fill="#20ff00" />
  <path d="M8 8 L0.5411 8.7840 A7.5 7.5 0 0 1 0.5231 8.5884 Z" fill="#1aff00" />
  <path d="M8 8 L0.5231 8.5884 A7.5 7.5 0 0 1 0.5103 8.3925 Z" fill="#13ff00" />
  <path d="M8 8 L0.5103 8.3925 A7.5 7.5 0 0 1 0.5026 8.1963 Z" fill="#0dff00" />
  <path d="M8 8 L0.5026 8.1963 A7.5 7.5 0 0 1 0.5000 8.0000 Z" fill="#06ff00" />
  <path d="M8 8 L0.5000 8.0000 A7.5 7.5 0 0 1 0.5026 7.8037 Z" fill="#00ff00" />
  <path d="M8 8 L0.5026 7.8037 A7.5 7.5 0 0 1 0.5103 7.6075 Z" fill="#00ff06" />
  <path d="M8 8 L0.5103 7.6075 A7.5 7.5 0 0 1 0.5231 7.4116 Z" fill="#00ff0d" />
  <path d="M8 8 L0.5231 7.4116 A7.5 7.5 0 0 1 0.5411 7.2160 Z" fill="#00ff13" />
  <path d="M8 8 L0.5411 7.2160 A7.5 7.5 0 0 1 0.5642 7.0211 Z" fill="#00ff1a" />
  <path d="M8 8 L0.5642 7.0211 A7.5 7.5 0 0 1 0.5923 6.8267 Z" fill="#00ff20" />
  <path d="M8 8 L0.5923 6.8267 A7.5 7.5 0 0 1 0.6256 6.6332 Z" fill="#00ff26" />
  <path d="M8 8 L0.6256 6.6332 A7.5 7.5 0 0 1 0.6639 6.4407 Z" fill="#00ff2d" />
  <path d="M8 8 L0.6639 6.4407 A7.5 7.5 0 0 1 0.7072 6.2492 Z" fill="#00ff33" />
  <path d="M8 8 L0.7072 6.2492 A7.5 7.5 0 0 1 0.7556 6.0589 Z" fill="#00ff39" />
  <path d="M8 8 L0.7556 6.0589 A7.5 7.5 0 0 1 0.8089 5.8699 Z" fill="#00ff40" />
  <path d="M8 8 L0.8089 5.8699 A7.5 7.5 0 0 1 0.8671 5.6824 Z" fill="#00ff46" />
  <path d="M8 8 L0.8671 5.6824 A7.5 7.5 0 0 1 0.9302 5.4964 Z" fill="#00ff4c" />
  <path d="M8 8 L0.9302 5.4964 A7.5 7.5 0 0 1 0.9981 5.3122 Z" fill="#00ff53" />
  <path d="M8 8 L0.9981 5.3122 A7.5 7.5 0 0 1 1.0709 5.1299 Z" fill="#00ff59" />
  <path d="M8 8 L1.0709 5.1299 A7.5 7.5 0 0 1 1.1484 4.9495 Z" fill="#00ff60" />
  <path d="M8 8 L1.1484 4.9495 A7.5 7.5 0 0 1 1.2306 4.7712 Z" fill="#00ff66" />
  <path d="M8 8 L1.2306 4.7712 A7.5 7.5 0 0 1 1.3175 4.5951 Z" fill="#00ff6c" />
  <path d="M8 8 L1.3175 4.5951 A7.5 7.5 0 0 1 1.4089 4.4213 Z" fill="#00ff73" />
  <path d="M8 8 L1.4089 4.4213 A7.5 7.5 0 0 1 1.5048 4.2500 Z" fill="#00ff79" />
  <path d="M8 8 L1.5048 4.2500 A7.5 7.5 0 0 1 1.6052 4.0813 Z" fill="#00ff80" />
  <path d="M8 8 L1.6052 4.0813 A7.5 7.5 0 0 1 1.7100 3.9152 Z" fill="#00ff86" />
  <path d="M8 8 L1.7100 3.9152 A7.5 7.5 0 0 1 1.8191 3.7520 Z" fill="#00ff8c" />
  <path d="M8 8 L1.8191 3.7520 A7.5 7.5 0 0 1 1.9324 3.5916 Z" fill="#00ff93" />
  <path d="M8 8 L1.9324 3.5916 A7.5 7.5 0 0 1 2.0498 3.4343 Z" fill="#00ff99" />
  <path d="M8 8 L2.0498 3.4343 A7.5 7.5 0 0 1 2.1714 3.2801 Z" fill="#00ff9f" />
  <path d="M8 8 L2.1714 3.2801 A7.5 7.5 0 0 1 2.2970 3.1291 Z" fill="#00ffa6" />
  <path d="M8 8 L2.2970 3.1291 A7.5 7.5 0 0 1 2.4264 2.9815 Z" fill="#00ffac" />
  <path d="M8 8 L2.4264 2.9815 A7.5 7.5 0 0 1 2.5597 2.8373 Z" fill="#00ffb3" />
  <path d="M8 8 L2.5597 2.8373 A7.5 7.5 0 0 1 2.6967 2.6967 Z" fill="#00ffb9" />
  <path d="M8 8 L2.6967 2.6967 A7.5 7.5 0 0 1 2.8373 2.5597 Z" fill="#00ffbf" />
  <path d="M8 8 L2.8373 2.5597 A7.5 7.5 0 0 1 2.9815 2.4264 Z" fill="#00ffc6" />
  <path d="M8 8 L2.9815 2.4264 A7.5 7.5 0 0 1 3.1291 2.2970 Z" fill="#00ffcc" />
  <path d="M8 8 L3.1291 2.2970 A7.5 7.5 0 0 1 3.2801 2.1714 Z" fill="#00ffd2" />
  <path d="M8 8 L3.2801 2.1714 A7.5 7.5 0 0 1 3.4343 2.0498 Z" fill="#00ffd9" />
  <path d="M8 8 L3.4343 2.0498 A7.5 7.5 0 0 1 3.5916 1.9324 Z" fill="#00ffdf" />
  <path d="M8 8 L3.5916 1.9324 A7.5 7.5 0 0 1 3.7520 1.8191 Z" fill="#00ffe5" />
  <path d="M8 8 L3.7520 1.8191 A7.5 7.5 0 0 1 3.9152 1.7100 Z" fill="#00ffec" />
  <path d="M8 8 L3.9152 1.7100 A7.5 7.5 0 0 1 4.0813 1.6052 Z" fill="#00fff2" />
  <path d="M8 8 L4.0813 1.6052 A7.5 7.5 0 0 1 4.2500 1.5048 Z" fill="#00fff9" />
  <path d="M8 8 L4.2500 1.5048 A7.5 7.5 0 0 1 4.4213 1.4089 Z" fill="#00ffff" />
  <path d="M8 8 L4.4213 1.4089 A7.5 7.5 0 0 1 4.5951 1.3175 Z" fill="#00f9ff" />
  <path d="M8 8 L4.5951 1.3175 A7.5 7.5 0 0 1 4.7712 1.2306 Z" fill="#00f2ff" />
  <path d="M8 8 L4.7712 1.2306 A7.5 7.5 0 0 1 4.9495 1.1484 Z" fill="#00ecff" />
  <path d="M8 8 L4.9495 1.1484 A7.5 7.5 0 0 1 5.1299 1.0709 Z" fill="#00e5ff" />
  <path d="M8 8 L5.1299 1.0709 A7.5 7.5 0 0 1 5.3122 0.9981 Z" fill="#00dfff" />
  <path d="M8 8 L5.3122 0.9981 A7.5 7.5 0 0 1 5.4964 0.9302 Z" fill="#00d9ff" />
  <path d="M8 8 L5.4964 0.9302 A7.5 7.5 0 0 1 5.6824 0.8671 Z" fill="#00d2ff" />
  <path d="M8 8 L5.6824 0.8671 A7.5 7.5 0 0 1 5.8699 0.8089 Z" fill="#00ccff" />
  <path d="M8 8 L5.8699 0.8089 A7.5 7.5 0 0 1 6.0589 0.7556 Z" fill="#00c6ff" />
  <path d="M8 8 L6.0589 0.7556 A7.5 7.5 0 0 1 6.2492 0.7072 Z" fill="#00bfff" />
  <path d="M8 8 L6.2492 0.7072 A7.5 7.5 0 0 1 6.4407 0.6639 Z" fill="#00b9ff" />
  <path d="M8 8 L6.4407 0.6639 A7.5 7.5 0 0 1 6.6332 0.6256 Z" fill="#00b3ff" />
  <path d="M8 8 L6.6332 0.6256 A7.5 7.5 0 0 1 6.8267 0.5923 Z" fill="#00acff" />
  <path d="M8 8 L6.8267 0.5923 A7.5 7.5 0 0 1 7.0211 0.5642 Z" fill="#00a6ff" />
  <path d="M8 8 L7.0211 0.5642 A7.5 7.5 0 0 1 7.2160 0.5411 Z" fill="#009fff" />
  <path d="M8 8 L7.2160 0.5411 A7.5 7.5 0 0 1 7.4116 0.5231 Z" fill="#0099ff" />
  <path d="M8 8 L7.4116 0.5231 A7.5 7.5 0 0 1 7.6075 0.5103 Z" fill="#0093ff" />
  <path d="M8 8 L7.6075 0.5103 A7.5 7.5 0 0 1 7.8037 0.5026 Z" fill="#008cff" />
  <path d="M8 8 L7.8037 0.5026 A7.5 7.5 0 0 1 8.0000 0.5000 Z" fill="#0086ff" />
  </g>

  <circle cx="8" cy="8" r="7.5" fill="url(#sphere-vignette)" />
  <circle cx="8" cy="8" r="7.5" fill="url(#sphere-highlight)" />
  </g>
  <circle cx="8" cy="8" r="7.25" fill="none" stroke="rgba(0,0,0,0.18)" stroke-width="0.6" />
  <circle cx="8" cy="8" r="6.9" fill="none" stroke="rgba(255,255,255,0.25)" stroke-width="0.6" />
</svg>
