<?xml version="1.0" encoding="utf-8"?>
<!-- Generator: Adobe Illustrator 16.0.0, SVG Export Plug-In . SVG Version: 6.00 Build 0)  -->
<!DOCTYPE svg PUBLIC "-//W3C//DTD SVG 1.1//EN" "http://www.w3.org/Graphics/SVG/1.1/DTD/svg11.dtd">
<svg version="1.1" id="Bee_1_" xmlns="http://www.w3.org/2000/svg" xmlns:xlink="http://www.w3.org/1999/xlink" x="0px" y="0px"
	 width="512px" height="512px" viewBox="0 0 512 512" enable-background="new 0 0 512 512" xml:space="preserve">
<circle id="Background_8_" fill="#8DD2EF" cx="255.999" cy="255.918" r="256"/>
<path id="Shadow" opacity="0.1" d="M506.655,308.168l-83.218-83.218h-9.808L294.628,105.948c0,0-10.071,4.68-18.624,13.232
	c0,0-13.73,18.001-15.48,26.751c-1.334,6.671-0.634,87.14-0.226,125.004l-28.087-55.316l-40.024-29.75l-20.976,19.5l-20.25,44
	l45.127,18.472l-9.877,5.238l-7.75,11.54l8.555,37.549l8.815,8.815l0.63,9.783l10.08,15.103l11.159,12.79l37.42,37.88v-83.17
	l-23.688-26.966l0.029-0.034l-6.922-17.924l35.925,13.229l-5.344,114.864l89.585,89.586
	C426.498,465.908,488.624,395.115,506.655,308.168z"/>
<g id="Bee">
	<g>
		<g>
			<path fill="#160A07" d="M258.448,153.984l-0.786-0.187c0.086-0.36,8.88-36.145,35.352-47.234l0.313,0.746
				C267.229,118.241,258.533,153.628,258.448,153.984z"/>
		</g>
		<g>
			<path fill="#160A07" d="M251.791,153.984c-0.084-0.356-8.788-35.747-34.878-46.676l0.313-0.746
				c26.472,11.089,35.266,46.874,35.352,47.234L251.791,153.984z"/>
		</g>
		<circle fill="#160A07" cx="293.326" cy="106.942" r="1.645"/>
		<circle fill="#160A07" cx="216.913" cy="106.942" r="1.644"/>
	</g>
	<g>
		<polygon fill="#160A07" points="289.344,365.464 312.191,342.617 291.394,312.529 295.112,309.96 318.053,343.147 292.54,368.659 
					"/>
	</g>
	<g>
		<polygon fill="#160A07" points="220.895,365.464 198.048,342.617 218.846,312.529 215.127,309.96 192.187,343.147 217.7,368.659 
					"/>
	</g>
	<g>
		<polygon fill="#160A07" points="340.919,211.489 318.072,188.642 287.984,209.439 285.415,205.721 318.603,182.78 
			344.114,208.293 		"/>
	</g>
	<g>
		<polygon fill="#160A07" points="325.788,322.168 325.788,289.857 289.807,283.288 290.619,278.843 330.308,286.088 
			330.307,322.168 		"/>
	</g>
	<g>
		<polygon fill="#160A07" points="169.32,211.489 192.167,188.642 222.254,209.439 224.824,205.721 191.637,182.78 166.125,208.293 
					"/>
	</g>
	<g>
		<polygon fill="#160A07" points="187.016,322.168 187.016,289.857 222.997,283.288 222.185,278.843 182.496,286.088 
			182.497,322.168 		"/>
	</g>
	<circle fill="#150F00" cx="255.12" cy="169.684" r="25.336"/>
	<circle fill="#150F00" cx="255.119" cy="222.511" r="38.818"/>
	<path fill="#150F00" d="M298.57,299.314c0-23.997-19.453-43.451-43.451-43.451c-23.997,0-43.451,19.454-43.451,43.451
		c0,0-1.121,44.571,43.451,107.225C299.691,343.886,298.57,299.314,298.57,299.314z"/>
	<path fill="#F7911C" d="M255.12,255.863c-23.997,0-43.451,19.454-43.451,43.451c0,0-0.089,3.858,0.902,10.869
		c12.769,9.282,28.48,14.762,45.474,14.762c14.199,0,27.504-3.826,38.944-10.499c1.709-9.702,1.581-15.132,1.581-15.132
		C298.57,275.317,279.117,255.863,255.12,255.863z"/>
	<path fill="#F7911C" d="M255.12,232.036c14.318,0,27.632-4.272,38.762-11.594c-1.075-20.477-18.018-36.75-38.762-36.75
		s-37.687,16.273-38.762,36.75C227.487,227.763,240.802,232.036,255.12,232.036z"/>
	<path fill="#F4EED3" d="M361.486,260.815c-0.03-0.014-0.058-0.03-0.089-0.043c-0.042-0.018-0.091-0.038-0.134-0.056
		c-0.099-0.041-0.197-0.081-0.296-0.121c-15.186-6.231-86.265-30.356-86.265-30.356s7.038,60.994,63.016,82.85
		c1.763,0.844,3.637,1.521,5.609,2.003c15.408,3.762,30.948-5.68,34.71-21.088C381.414,280.176,374.15,266.246,361.486,260.815z"/>
	<path fill="#FFFCE9" d="M398.463,209.463c-0.044-0.008-0.085-0.021-0.13-0.028c-0.062-0.01-0.132-0.02-0.194-0.029
		c-0.143-0.023-0.284-0.044-0.428-0.065c-21.938-3.314-123.008-12.207-123.008-12.207s28.795,77.836,109.308,88.592
		c2.585,0.542,5.263,0.831,8.009,0.831c21.438,0,38.818-17.379,38.818-38.818C430.838,228.497,416.834,212.534,398.463,209.463z"/>
	<path fill="#F4EED3" d="M150.512,260.815c0.031-0.014,0.058-0.03,0.089-0.043c0.042-0.018,0.091-0.038,0.134-0.056
		c0.098-0.041,0.197-0.081,0.295-0.121c15.186-6.231,86.265-30.356,86.265-30.356s-7.038,60.994-63.016,82.85
		c-1.763,0.844-3.637,1.521-5.61,2.003c-15.408,3.762-30.948-5.68-34.71-21.088C130.584,280.176,137.849,266.246,150.512,260.815z"
		/>
	<path fill="#FFFCE9" d="M113.535,209.463c0.045-0.008,0.086-0.021,0.131-0.028c0.061-0.01,0.132-0.02,0.194-0.029
		c0.142-0.023,0.285-0.044,0.427-0.065c21.938-3.314,123.008-12.207,123.008-12.207s-28.795,77.836-109.308,88.592
		c-2.584,0.542-5.263,0.831-8.009,0.831c-21.438,0-38.818-17.379-38.818-38.818C81.161,228.497,95.165,212.534,113.535,209.463z"/>
	<path fill="#F7911C" d="M258.045,347.924c-14.202,0-27.5-3.838-38.941-10.513c3.373,10.301,8.271,22.379,15.393,35.849
		c7.426,2.37,15.335,3.661,23.548,3.661c5.739,0,11.329-0.635,16.713-1.821c6.804-12.63,11.659-24.068,15.132-34.019
		C280.176,345.472,269.398,347.924,258.045,347.924z"/>
</g>
</svg>
