<?xml version="1.0" encoding="utf-8"?>
<!-- Generator: Adobe Illustrator 16.0.0, SVG Export Plug-In . SVG Version: 6.00 Build 0)  -->
<!DOCTYPE svg PUBLIC "-//W3C//DTD SVG 1.1//EN" "http://www.w3.org/Graphics/SVG/1.1/DTD/svg11.dtd">
<svg version="1.1" id="Bull_1_" xmlns="http://www.w3.org/2000/svg" xmlns:xlink="http://www.w3.org/1999/xlink" x="0px" y="0px"
	 width="512px" height="512px" viewBox="0 0 512 512" enable-background="new 0 0 512 512" xml:space="preserve">
<circle id="Background_4_" fill="#1BA555" cx="256.236" cy="256.037" r="256"/>
<path id="Shadow" opacity="0.1" d="M512.236,256.037c0-42.979-10.607-83.476-29.323-119.041l-60.97-60.97V100.5L395,149.995h-73.17
	l-17.271-17.271l-18.262,97.479L120.815,64.72L96,111l24.815,43v319.305c39.284,24.537,85.691,38.732,135.421,38.732
	C397.622,512.037,512.236,397.423,512.236,256.037z"/>
<g id="Bull">
	<path fill="#894612" d="M170.89,190.722c0,0-24.522-31.322-43.987-31.322c-14.196,0-75.581,0-107.778,0
		C6.958,189.221,0.236,221.841,0.236,256.037c0,130.469,97.601,238.137,223.771,253.987l52.131-52.132L170.89,190.722z"/>
	<path opacity="0.1" d="M170.89,190.722c0,0-24.522-31.322-43.987-31.322c-14.196,0-75.581,0-107.778,0
		C6.958,189.221,0.236,221.841,0.236,256.037c0,130.469,97.601,238.137,223.771,253.987l52.131-52.132L170.89,190.722z"/>
	<polygon opacity="0.1" points="84.128,229.652 209.905,355.429 209.905,229.652 	"/>
	<path opacity="0.1" d="M258.77,413.802l-84.746,84.747c16.009,5.425,32.729,9.307,49.984,11.475l52.131-52.132L258.77,413.802z"/>
	<path fill="#894612" d="M402.464,167.822c-19.847,0-31.679,17.938-31.679,17.938l-52.287-27.098l-13.938-25.938
		c0,0-14.114-8.251-44.074-8.251c-29.961,0-44.075,8.251-44.075,8.251l-13.938,25.938l-52.288,27.098
		c0,0-11.832-17.938-31.678-17.938c-49.616,0-56.486,24.427-56.486,24.427c0,17.556,32.06,52.192,51.143,58.299
		c9.461,3.027,23.613-3.096,35.479-3.721l17.047,3.578c0,0,6.727,76.953,9.303,92.983c2.544,15.826,24.808,60.685,35.113,93.125
		c10.305,32.442,50.38,28.243,50.38,28.243s40.074,4.199,50.379-28.243c10.305-32.44,32.569-77.299,35.113-93.125
		c2.576-16.03,9.303-92.983,9.303-92.983l17.048-3.578c11.865,0.625,26.018,6.749,35.479,3.721
		c19.083-6.106,51.144-40.743,51.144-58.299C458.95,192.249,452.08,167.822,402.464,167.822z"/>
	<path opacity="0.2" fill="#FFFFFF" d="M311.97,385.232c-9.949-9.949-22.97,2.435-51.484,2.435
		c-28.516,0-41.536-12.384-51.485-2.435c-9.95,9.95,1.105,51.28,1.105,51.28c10.305,32.442,50.38,28.243,50.38,28.243
		s40.074,4.199,50.379-28.243C310.864,436.513,321.92,395.183,311.97,385.232z"/>
	<g>
		<path fill="#231F20" d="M193.645,261.712c0,6.007-5.87,10.877-11.877,10.877c-6.008,0-10.877-4.87-10.877-10.877
			c0-6.008,0.87-10.878,6.877-10.878C183.774,250.834,193.645,255.704,193.645,261.712z"/>
		<path fill="#231F20" d="M350.08,261.712c0,6.007-4.87,10.877-10.877,10.877c-6.008,0-11.878-4.87-11.878-10.877
			c0-6.008,9.87-10.878,15.878-10.878C349.21,250.834,350.08,255.704,350.08,261.712z"/>
	</g>
	<g>
		<path fill="#231F20" d="M220.993,388.232c5.725,0,2.481,9.924,5.725,13.168s13.358,8.587,13.358,16.984
			c0,8.396-2.29,11.735-13.931,11.735S216.223,388.232,220.993,388.232z"/>
		<path fill="#231F20" d="M299.977,388.232c-5.725,0-2.48,9.924-5.725,13.168s-13.358,8.587-13.358,16.984
			c0,8.396,2.29,11.735,13.931,11.735S304.747,388.232,299.977,388.232z"/>
	</g>
	<g>
		<path opacity="0.3" fill="#FFFFFF" d="M127.919,212.477c-5.438-8.874-28.892-6.584-28.892-6.584l31.182,23.759
			C130.209,229.652,133.358,221.351,127.919,212.477z"/>
		<path opacity="0.3" fill="#FFFFFF" d="M393.051,212.477c5.438-8.874,28.893-6.584,28.893-6.584l-31.183,23.759
			C390.761,229.652,387.612,221.351,393.051,212.477z"/>
	</g>
	<g>
		<path fill="#F8E2A8" d="M210.33,135.301v-0.008c0,0-0.021,0.002-0.058,0.005c-0.031,0-0.061-0.005-0.092-0.005
			c-0.924,0-1.825,0.096-2.712,0.236c-13.173,1.053-67.627,5.06-72.564-0.236c-5.62-6.029-35.518-40.549-20.206-56.975
			c15.312-16.426,2.687-22.063-17.879,0c-20.566,22.062,1.358,69.437,22.112,83.488c20.771,14.063,91.25,13.456,91.25,13.456
			c10.289,0,18.629-8.948,18.629-19.985C228.81,144.295,220.549,135.389,210.33,135.301z"/>
		<path fill="#F8E2A8" d="M310.64,135.301v-0.008c0,0,0.021,0.002,0.058,0.005c0.031,0,0.062-0.005,0.093-0.005
			c0.924,0,1.824,0.096,2.712,0.236c13.173,1.053,67.628,5.06,72.564-0.236c5.62-6.029,35.518-40.549,20.206-56.975
			c-15.312-16.426-2.688-22.063,17.879,0c20.566,22.062-1.358,69.437-22.111,83.488c-20.771,14.063-91.25,13.456-91.25,13.456
			c-10.289,0-18.63-8.948-18.63-19.985C292.16,144.295,300.421,135.389,310.64,135.301z"/>
	</g>
	<g>
		<path opacity="0.1" d="M122.046,163.625c23.89,12.189,88.134,11.637,88.134,11.637c7.051,0,13.184-4.204,16.348-10.4h-30.216
			C184.273,165.657,143.749,165.855,122.046,163.625z"/>
		<path opacity="0.1" d="M310.79,175.262c0,0,64.244,0.552,88.134-11.637c-21.702,2.23-62.227,2.032-74.267,1.237h-30.216
			C297.605,171.059,303.739,175.262,310.79,175.262z"/>
	</g>
	<path fill="none" d="M281.131,416.187c-4.315-6.857-11.945-11.418-20.646-11.418c-8.701,0-16.331,4.561-20.646,11.418
		c0.152,0.708,0.237,1.44,0.237,2.198l-0.879-1.118c-1.967,3.516-3.093,7.566-3.093,11.882c0,13.466,10.916,24.381,24.381,24.381
		c13.465,0,24.38-10.915,24.38-24.381c0-4.315-1.126-8.366-3.093-11.882l-0.879,1.118
		C280.894,417.627,280.979,416.895,281.131,416.187z"/>
	<path fill="#231F20" d="M239.839,416.187c-0.223,0.354-0.437,0.714-0.642,1.08l0.879,1.118
		C240.077,417.627,239.992,416.895,239.839,416.187z"/>
	<path fill="#231F20" d="M280.894,418.385l0.879-1.118c-0.205-0.366-0.419-0.727-0.642-1.08
		C280.979,416.895,280.894,417.627,280.894,418.385z"/>
	<path fill="#F8B607" d="M286.205,411.63c-0.466-0.684-0.962-1.345-1.479-1.988c-1.694,1.909-3.066,4.081-3.595,6.545
		c0.223,0.354,0.437,0.714,0.642,1.08c1.967,3.516,3.093,7.566,3.093,11.882c0,13.466-10.915,24.381-24.38,24.381
		c-13.465,0-24.381-10.915-24.381-24.381c0-4.315,1.125-8.366,3.093-11.882c0.205-0.366,0.419-0.727,0.642-1.08
		c-0.529-2.464-1.901-4.636-3.595-6.545c-0.518,0.644-1.014,1.305-1.48,1.988c-3.405,4.99-5.399,11.021-5.399,17.519
		c0,17.188,13.933,31.121,31.121,31.121c17.187,0,31.12-13.934,31.12-31.121C291.605,422.651,289.611,416.62,286.205,411.63z"/>
	<g opacity="0.1">
		<g>
			<path d="M284.726,409.642c-1.694,1.909-3.066,4.081-3.595,6.545c0.223,0.354,0.437,0.714,0.642,1.08
				c0.815,1.457,1.477,3.01,1.982,4.631l5.224-5.224c-0.777-1.77-1.695-3.464-2.773-5.044
				C285.739,410.946,285.243,410.285,284.726,409.642z"/>
			<path d="M239.197,417.267c0.205-0.366,0.419-0.727,0.642-1.08c-0.529-2.464-1.901-4.636-3.595-6.545
				c-0.518,0.644-1.014,1.305-1.48,1.988c-1.207,1.77-2.227,3.674-3.053,5.679l5.293,5.293
				C237.529,420.724,238.265,418.934,239.197,417.267z"/>
		</g>
	</g>
</g>
</svg>
