<?xml version="1.0" encoding="utf-8"?>
<!-- Generator: Adobe Illustrator 16.0.0, SVG Export Plug-In . SVG Version: 6.00 Build 0)  -->
<!DOCTYPE svg PUBLIC "-//W3C//DTD SVG 1.1//EN" "http://www.w3.org/Graphics/SVG/1.1/DTD/svg11.dtd">
<svg version="1.1" id="Firefly" xmlns="http://www.w3.org/2000/svg" xmlns:xlink="http://www.w3.org/1999/xlink" x="0px" y="0px"
	 width="512px" height="512px" viewBox="0 0 512 512" enable-background="new 0 0 512 512" xml:space="preserve">
<circle id="Background_9_" fill="#8DD2EF" cx="256" cy="256" r="256"/>
<path id="Shadow" opacity="0.1" d="M497.177,342.003L368.779,213.606h-0.027c-0.338-0.681-0.658-1.365-1.017-2.041
	c-21.39-40.335-71.427-55.694-111.762-34.305l19.273,36.346h-19.273l-56.981,107.325l166.515,166.516
	C426.537,458.52,474.293,406.171,497.177,342.003z"/>
<g id="Firefly_1_">
	<g>
		<circle fill="#AF2E04" cx="242.631" cy="177.317" r="13.396"/>
		<circle fill="#AF2E04" cx="269.422" cy="177.317" r="13.396"/>
	</g>
	<ellipse fill="#EF3F05" cx="256.026" cy="262.698" rx="78" ry="85.38"/>
	<g opacity="0.2">
		<g>
			<path fill="#FFFFFF" d="M256.026,334.683c-41.017,0-74.614-34.662-77.738-78.683c-0.157,2.213-0.262,4.441-0.262,6.698
				c0,47.154,34.922,85.38,78,85.38s78-38.226,78-85.38c0-2.257-0.104-4.485-0.262-6.698
				C330.641,300.021,297.043,334.683,256.026,334.683z"/>
		</g>
	</g>
	<path opacity="0.1" d="M256.026,177.317v170.761c43.078,0,78-38.226,78-85.38C334.026,215.543,299.104,177.317,256.026,177.317z"/>
	<path opacity="0.7" fill="#FFF880" d="M256.026,177.317L178.57,323.385c-40.335-21.389-55.694-71.427-34.306-111.762
		C165.654,171.288,215.691,155.928,256.026,177.317z"/>
	<path opacity="0.7" fill="#FFF880" d="M255.974,177.261l77.456,146.067c40.336-21.39,55.694-71.427,34.306-111.762
		C346.346,171.23,296.309,155.872,255.974,177.261z"/>
</g>
</svg>
