<?xml version="1.0" encoding="utf-8"?>
<!-- Generator: Adobe Illustrator 16.0.0, SVG Export Plug-In . SVG Version: 6.00 Build 0)  -->
<!DOCTYPE svg PUBLIC "-//W3C//DTD SVG 1.1//EN" "http://www.w3.org/Graphics/SVG/1.1/DTD/svg11.dtd">
<svg version="1.1" id="Ladybug" xmlns="http://www.w3.org/2000/svg" xmlns:xlink="http://www.w3.org/1999/xlink" x="0px" y="0px"
	 width="512px" height="512px" viewBox="0 0 512 512" enable-background="new 0 0 512 512" xml:space="preserve">
<circle id="Background_13_" fill="#8DD2EF" cx="256.067" cy="256" r="256"/>
<path id="Shadow" opacity="0.1" d="M505.563,313.577L308.305,116.318h-1.868c0,0-16.677,8.388-25.688,21.15
	s-16.22,26.45-17.5,32.188c-0.881,3.944-9.935,48.409-15.507,75.812l-48.226-15.613l7.212-10.241l-26.342-17.333l-26.342,30.893
	l25.311,25.31l10.665-15.144l34.536,34.536l-78.494,9.904l2.484,41.298l51.7,51.7l11.326,15.922l107.481,107.481
	C411.625,480.761,484.11,406.918,505.563,313.577z"/>
<g id="Ladybug_1_">
	<g>
		<polygon fill="#160A07" points="296.763,392.901 323.93,365.734 299.2,329.958 303.621,326.902 330.899,366.365 300.563,396.701 
					"/>
	</g>
	<g>
		<polygon fill="#160A07" points="215.371,392.901 188.204,365.734 212.934,329.958 208.513,326.902 181.234,366.365 
			211.571,396.701 		"/>
	</g>
	<circle fill="#1E1E1B" cx="256.028" cy="291.167" r="85.629"/>
	<g>
		<polygon fill="#160A07" points="358.09,233.174 330.923,206.007 295.146,230.737 292.091,226.316 331.554,199.038 361.89,229.375 
					"/>
	</g>
	<g>
		<polygon fill="#160A07" points="363.588,329.079 363.588,290.659 320.804,282.848 321.77,277.562 368.962,286.177 
			368.962,329.079 		"/>
	</g>
	<circle fill="#160A07" cx="256.028" cy="198.016" r="30.51"/>
	<g>
		<path fill="#160A07" d="M260.582,180.184l-1.076-0.256c0.117-0.493,12.15-49.456,48.371-64.629l0.428,1.02
			C272.596,131.277,260.698,179.696,260.582,180.184z"/>
	</g>
	<g>
		<path fill="#160A07" d="M251.473,180.184c-0.116-0.488-12.024-48.911-47.722-63.865l0.427-1.02
			c36.221,15.173,48.253,64.136,48.371,64.629L251.473,180.184z"/>
	</g>
	<circle fill="#1E1E1B" cx="256.028" cy="283.645" r="85.629"/>
	<g>
		<polygon fill="#160A07" points="154.044,233.174 181.211,206.007 216.987,230.737 220.043,226.316 180.581,199.038 
			150.244,229.375 		"/>
	</g>
	<g>
		<polygon fill="#160A07" points="148.546,329.079 148.546,290.659 191.33,282.848 190.365,277.562 143.172,286.177 
			143.172,329.079 		"/>
	</g>
	<path fill="#DB284E" d="M252.88,198.016v171.257c-47.292,0-85.629-38.337-85.629-85.629
		C167.251,236.354,205.588,198.016,252.88,198.016z"/>
	<circle fill="#160A07" cx="233.722" cy="215.798" r="9.674"/>
	<circle fill="#160A07" cx="233.722" cy="248.312" r="9.674"/>
	<circle fill="#160A07" cx="197.753" cy="254.403" r="12.45"/>
	<circle fill="#160A07" cx="228.855" cy="289.128" r="18.63"/>
	<circle fill="#160A07" cx="228.855" cy="341.758" r="11.779"/>
	<circle fill="#160A07" cx="197.753" cy="314.939" r="11.779"/>
	<path fill="#990D31" d="M259.254,198.016v171.257c47.292,0,85.629-38.337,85.629-85.629
		C344.883,236.354,306.546,198.016,259.254,198.016z"/>
	<circle fill="#160A07" cx="278.73" cy="215.798" r="9.674"/>
	<circle fill="#160A07" cx="278.73" cy="248.312" r="9.674"/>
	<circle fill="#160A07" cx="314.699" cy="254.403" r="12.45"/>
	<circle fill="#160A07" cx="283.598" cy="289.128" r="18.631"/>
	<circle fill="#160A07" cx="283.438" cy="341.917" r="11.779"/>
	<circle fill="#160A07" cx="314.7" cy="314.939" r="11.779"/>
</g>
</svg>
