<?xml version="1.0" encoding="utf-8"?>
<!-- Generator: Adobe Illustrator 16.0.0, SVG Export Plug-In . SVG Version: 6.00 Build 0)  -->
<!DOCTYPE svg PUBLIC "-//W3C//DTD SVG 1.1//EN" "http://www.w3.org/Graphics/SVG/1.1/DTD/svg11.dtd">
<svg version="1.1" id="Starfish_1_" xmlns="http://www.w3.org/2000/svg" xmlns:xlink="http://www.w3.org/1999/xlink" x="0px"
	 y="0px" width="512px" height="512px" viewBox="0 0 512 512" enable-background="new 0 0 512 512" xml:space="preserve">
<circle id="Background_12_" fill="#8DD2EF" cx="256" cy="256" r="256"/>
<path id="Shadow" opacity="0.1" d="M398.124,225.195h-35.496L262.109,124.677v132.975L167.496,392.2l118.088,118.089
	c102.978-11.853,187.348-84.797,215.953-181.681L398.124,225.195z"/>
<g id="Starfish">
	<g>
		<path fill="#F47E7E" d="M273.702,360.813c-9.736-5.119-25.668-5.119-35.405,0l-58.865,30.947
			c-9.736,5.118-16.181,0.437-14.322-10.405l11.242-65.548c1.859-10.842-3.064-25.994-10.941-33.672l-47.623-46.421
			c-7.877-7.678-5.415-15.254,5.471-16.836l65.813-9.563c10.886-1.582,23.775-10.947,28.643-20.811l29.433-59.637
			c4.868-9.864,12.834-9.864,17.703,0l29.433,59.637c4.868,9.864,17.758,19.229,28.644,20.811l65.813,9.563
			c10.886,1.582,13.347,9.158,5.47,16.836l-47.623,46.421c-7.877,7.678-12.8,22.83-10.94,33.672l11.242,65.548
			c1.859,10.842-4.585,15.523-14.321,10.405L273.702,360.813z"/>
	</g>
	<path opacity="0.2" fill="#FFFFFF" d="M256.064,121.472c-3.23-0.033-6.465,2.43-8.915,7.395l-29.433,59.637
		c-4.869,9.864-17.758,19.229-28.644,20.811l-65.813,9.563c-4.88,0.709-8.061,2.625-9.382,5.212L256.064,256V121.472z"/>
	<path opacity="0.1" d="M256.064,256l88.446,136.196c2.287-1.992,3.256-5.732,2.38-10.841l-11.242-65.548
		c-1.859-10.842,3.063-25.994,10.94-33.672l47.623-46.421c4.346-4.235,5.538-8.438,3.913-11.622L256.064,256z"/>
	<path opacity="0.1" d="M167.496,392.2c2.567,2.231,6.792,2.266,11.937-0.439l58.865-30.947c4.884-2.568,11.328-3.847,17.767-3.838
		V256L167.496,392.2z"/>
	<path opacity="0.2" d="M256.064,356.976c6.396,0.009,12.787,1.287,17.638,3.838l58.866,30.947
		c5.147,2.706,9.375,2.671,11.941,0.436L256.064,256V356.976z"/>
</g>
</svg>
