<?xml version="1.0" encoding="utf-8"?>
<!-- Generator: Adobe Illustrator 16.0.0, SVG Export Plug-In . SVG Version: 6.00 Build 0)  -->
<!DOCTYPE svg PUBLIC "-//W3C//DTD SVG 1.1//EN" "http://www.w3.org/Graphics/SVG/1.1/DTD/svg11.dtd">
<svg version="1.1" id="Tiger_1_" xmlns="http://www.w3.org/2000/svg" xmlns:xlink="http://www.w3.org/1999/xlink" x="0px" y="0px"
	 width="512px" height="512px" viewBox="0 0 512 512" enable-background="new 0 0 512 512" xml:space="preserve">
<circle id="Background_10_" fill="#1BA555" cx="255.936" cy="256" r="256"/>
<path id="Shadow" opacity="0.1" d="M326.087,139.921h-70.151V512c141.386,0,256-114.614,256-256c0-15.832-1.447-31.324-4.198-46.361
	L374.879,76.78L326.087,139.921z"/>
<g id="Tiger">
	<path fill="#FBA90B" d="M-0.064,256c0,141.386,114.615,256,256,256c24.326,0,47.858-3.394,70.151-9.731V255.421H-0.057
		C-0.057,255.615-0.064,255.807-0.064,256z"/>
	<g>
		<path fill="#231F20" d="M58,255.421v162.93c5.951,7.247,12.3,14.152,19,20.702V255.421H58z"/>
		<path fill="#231F20" d="M98,255.421v202.066c6.114,4.799,12.457,9.317,19,13.554v-215.62H98z"/>
		<path fill="#231F20" d="M138,255.421V483.26c6.191,3.22,12.526,6.198,19,8.913V255.421H138z"/>
		<path fill="#231F20" d="M178,255.421v244.482c6.234,1.99,12.569,3.752,19,5.268v-249.75H178z"/>
		<path fill="#231F20" d="M218,255.421v253.776c6.263,0.931,12.598,1.637,19,2.104v-255.88H218z"/>
		<path fill="#231F20" d="M258,511.982c6.392-0.051,12.728-0.334,19-0.846V255.421h-19V511.982z"/>
		<path fill="#231F20" d="M298,508.54c6.417-1.061,12.753-2.359,19-3.889v-249.23h-19V508.54z"/>
		<path fill="#231F20" d="M18,255.421v95.2c5.291,13.292,11.655,26.04,19,38.128V255.421H18z"/>
	</g>
	<path opacity="0.1" d="M262.618,511.914c21.955-0.563,43.224-3.89,63.469-9.646V370.412H121.116L262.618,511.914z"/>
	<g>
		<path fill="#FBA90B" d="M416.329,228.613c0,0-31.088-20.274-36.494-31.729c-3.225-6.832-6.248-13.115-9.153-18.902
			c15.566-17.084,31.169-49.506,4.197-101.201l-60.153,42.39c-14.531-4.297-33.098-6.539-58.79-6.539s-44.259,2.241-58.789,6.539
			l-60.154-42.39c-26.972,51.695-11.369,84.117,4.198,101.201c-2.905,5.787-5.93,12.07-9.154,18.902
			c-5.406,11.455-36.494,31.729-36.494,31.729S69.862,414.236,210.882,414.236c0,0,3.543,20.983,45.054,20.983
			c41.512,0,45.055-20.983,45.055-20.983C442.01,414.236,416.329,228.613,416.329,228.613z"/>
		<path fill="#231F20" d="M255.936,119.39c-25.692,0-44.259,2.241-58.789,6.539v8.56c14.53-4.297,33.097-6.539,58.789-6.539
			s44.259,2.241,58.79,6.539v-8.56C300.194,121.631,281.628,119.39,255.936,119.39z"/>
		<path fill="#231F20" d="M255.936,137.412c-21.488,0-37.017,2.241-49.17,6.539v8.561c12.153-4.298,27.682-6.539,49.17-6.539
			c21.489,0,37.018,2.241,49.171,6.539v-8.561C292.953,139.653,277.425,137.412,255.936,137.412z"/>
		<path fill="#231F20" d="M255.936,155.433c-17.354,0-29.894,2.241-39.709,6.539v8.561c9.815-4.297,22.355-6.539,39.709-6.539
			c17.354,0,29.895,2.241,39.709,6.539v-8.561C285.83,157.674,273.29,155.433,255.936,155.433z"/>
		<path fill="#231F20" d="M255.936,173.455c-13.749,0-23.684,2.241-31.459,6.539v8.56c7.775-4.297,17.711-6.539,31.459-6.539
			c13.749,0,23.685,2.241,31.46,6.539v-8.56C279.62,175.696,269.685,173.455,255.936,173.455z"/>
		<g>
			<path fill="#231F20" d="M130.878,224.497c-4.681,3.134-8.164,5.249-8.164,5.249s-22.432,150.807,100.747,150.807l8.498-7.904
				C118.474,372.648,128.584,244.642,130.878,224.497z"/>
			<path fill="#231F20" d="M158.726,218.657c-3.901,2.612-6.804,4.375-6.804,4.375s-18.697,125.7,83.973,125.7l7.083-6.589
				C148.386,342.143,156.813,235.448,158.726,218.657z"/>
			<path fill="#231F20" d="M380.993,224.497c4.681,3.134,8.163,5.249,8.163,5.249s22.432,150.807-100.746,150.807l-8.498-7.904
				C393.397,372.648,383.287,244.642,380.993,224.497z"/>
			<path fill="#231F20" d="M353.146,218.657c3.901,2.612,6.804,4.375,6.804,4.375s18.697,125.7-83.973,125.7l-7.084-6.589
				C363.485,342.143,355.058,235.448,353.146,218.657z"/>
		</g>
		<g>
			<path fill="#F7FBFE" d="M204.864,165.504c0,0,19.612,54.516,19.612,66.68s-11.502,34.241-15.107,34.241
				s-37.846-22.077-37.846-34.241S190.897,168.208,204.864,165.504z"/>
			<path fill="#F7FBFE" d="M307.008,165.504c0,0-19.612,54.516-19.612,66.68s11.503,34.241,15.107,34.241
				c3.604,0,37.845-22.077,37.845-34.241S320.975,168.208,307.008,165.504z"/>
		</g>
		<g>
			<g>
				<path fill="#231F20" d="M178.086,228.242h27.746l12.69,12.953C218.522,241.195,204.631,267.177,178.086,228.242z"/>
				<path fill="#FFDE17" d="M213.041,238.825c0,4.645-3.765,8.41-8.41,8.41c-4.645,0-8.41-3.766-8.41-8.41
					c0-4.645,3.766-8.41,8.41-8.41L213.041,238.825z"/>
			</g>
			<g>
				<path fill="#231F20" d="M333.785,228.242h-27.746l-12.69,12.953C293.349,241.195,307.24,267.177,333.785,228.242z"/>
				<path fill="#FFDE17" d="M298.831,238.825c0,4.645,3.765,8.41,8.409,8.41c4.646,0,8.41-3.766,8.41-8.41
					c0-4.645-3.765-8.41-8.41-8.41L298.831,238.825z"/>
			</g>
		</g>
		<g>
			<g>
				<polygon fill="#231F20" points="367.989,81.689 374.955,76.78 339.104,146.328 336.178,143.401 				"/>
				<g>
					<g>
						<g>
							<path fill="#F7FBFE" d="M374.903,76.78c26.972,51.695,11.369,84.117-4.197,101.201l0,0l-31.654-31.653L374.903,76.78z"/>
						</g>
					</g>
				</g>
				<path opacity="0.1" d="M363.324,99.243l-24.272,47.085l19.52,19.519C367.538,150.735,372.955,128.889,363.324,99.243z"/>
			</g>
			<g>
				<g>
					<path fill="#F7FBFE" d="M136.993,76.78c-26.972,51.695-11.369,84.117,4.198,101.201l0,0l31.653-31.653L136.993,76.78z"/>
				</g>
				<polygon fill="#231F20" points="143.958,81.689 136.993,76.78 172.844,146.328 175.771,143.401 				"/>
				<path opacity="0.1" d="M148.572,99.243l24.272,47.085l-19.519,19.519C144.357,150.735,138.941,128.889,148.572,99.243z"/>
			</g>
		</g>
		<path opacity="0.1" d="M416.329,228.613c0,0-31.088-20.274-36.494-31.729c-3.225-6.832-6.248-13.115-9.153-18.902
			c15.566-17.084,31.169-49.506,4.197-101.201l-60.153,42.39c-14.531-4.297-33.098-6.539-58.79-6.539V435.22
			c41.512,0,45.055-20.983,45.055-20.983C442.01,414.236,416.329,228.613,416.329,228.613z"/>
		<path fill="#F7FBFE" d="M210.882,359.844v54.393c0,0,3.543,20.983,45.054,20.983c41.512,0,45.055-20.983,45.055-20.983v-54.393
			H210.882z"/>
		<path fill="#F7FBFE" d="M290.938,320.271c-0.088,0-0.175,0.006-0.263,0.006c-3.543-15.926-17.746-17.982-34.74-17.982
			c-16.994,0-31.197,2.057-34.74,17.982c-0.088,0-0.175-0.006-0.263-0.006c-19.412,0-35.148,15.736-35.148,35.148
			s15.736,35.148,35.148,35.148c16.588,0,30.483-11.495,34.176-26.952c0.276,0.007,0.549,0.021,0.827,0.021
			c0.278,0,0.551-0.015,0.827-0.021c3.692,15.457,17.587,26.952,34.176,26.952c19.412,0,35.148-15.736,35.148-35.148
			S310.351,320.271,290.938,320.271z"/>
		<path opacity="0.1" d="M290.938,390.567c-16.589,0-30.483-11.495-34.176-26.952c-0.276,0.006-0.549,0.021-0.827,0.021
			c-0.277,0-0.551-0.016-0.827-0.021c-3.692,15.457-17.587,26.952-34.176,26.952c-18.706,0-33.992-14.613-35.081-33.046
			c-0.041,0.696-0.068,1.396-0.068,2.103c0,19.412,15.736,35.148,35.148,35.148c16.588,0,30.483-11.495,34.176-26.952
			c0.276,0.007,0.549,0.021,0.827,0.021c0.278,0,0.551-0.014,0.827-0.021c3.692,15.457,17.587,26.952,34.176,26.952
			c19.412,0,35.148-15.736,35.148-35.148c0-0.706-0.026-1.406-0.068-2.103C324.931,375.954,309.645,390.567,290.938,390.567z"/>
		<path opacity="0.1" d="M288.829,328.406c-3.301,8.109-9.751,9.751-9.751,9.751c0.807-1.114,1.436-2.175,1.788-3.143
			c0,0-0.602-6.608-3.604-6.608c-3.004,0-8.41,6.608-21.326,6.608c-12.915,0-18.322-6.608-21.326-6.608
			c-3.003,0-3.604,6.608-3.604,6.608c0.352,0.968,0.98,2.028,1.788,3.143c0,0-6.45-1.642-9.75-9.751
			c-3.301-8.109-2.25,6.758,2.857,11.864c5.106,5.106,21.201,16.103,21.865,14.284c0.422,0.69,0.662,1.293,0.662,1.785
			c0,3.904,7.509,3.604,7.509,3.604s7.509,0.3,7.509-3.604c0-0.492,0.24-1.096,0.663-1.785c0.662,1.818,16.759-9.178,21.864-14.284
			C291.078,335.164,292.129,320.297,288.829,328.406z"/>
		<g>
			<path fill="#F26649" d="M277.262,331.904c-3.004,0-8.41,6.608-21.326,6.608c-12.915,0-18.322-6.608-21.326-6.608
				c-3.003,0-3.604,6.608-3.604,6.608c2.403,6.607,17.421,17.421,17.421,21.325c0,3.905,7.509,3.604,7.509,3.604
				s7.509,0.301,7.509-3.604c0-3.904,15.019-14.718,17.422-21.325C280.866,338.513,280.265,331.904,277.262,331.904z"/>
			<path fill="#231F20" d="M247.765,358.053c3.304-9.076-0.846-11.725-4.294-15.172c-8.253-8.254-10.677-1.226-10.677-1.226
				s-6.45-1.641-9.75-9.751c-3.301-8.109-2.25,6.758,2.857,11.864C231.006,348.875,247.103,359.872,247.765,358.053z"/>
			<path fill="#231F20" d="M264.107,358.053c-3.305-9.076,0.846-11.725,4.293-15.172c8.254-8.254,10.678-1.226,10.678-1.226
				s6.45-1.641,9.751-9.751c3.3-8.109,2.249,6.758-2.857,11.864C280.866,348.875,264.77,359.872,264.107,358.053z"/>
		</g>
		<rect x="251.612" y="111.056" fill="#231F20" width="8.647" height="88.69"/>
	</g>
</g>
</svg>
