<?xml version="1.0" encoding="utf-8"?>
<!-- Generator: Adobe Illustrator 16.0.0, SVG Export Plug-In . SVG Version: 6.00 Build 0)  -->
<!DOCTYPE svg PUBLIC "-//W3C//DTD SVG 1.1//EN" "http://www.w3.org/Graphics/SVG/1.1/DTD/svg11.dtd">
<svg version="1.1" id="White_Tiger_1_" xmlns="http://www.w3.org/2000/svg" xmlns:xlink="http://www.w3.org/1999/xlink" x="0px"
	 y="0px" width="512px" height="512px" viewBox="0 0 512 512" enable-background="new 0 0 512 512" xml:space="preserve">
<circle id="Background_32_" fill="#F8B913" cx="256" cy="256" r="256"/>
<path id="Shadow" opacity="0.1" d="M326.154,139.921h-70.151V512c141.386,0,256-114.614,256-256c0-15.832-1.448-31.324-4.199-46.361
	L374.945,76.78L326.154,139.921z"/>
<g id="White_Tiger">
	<path fill="#F1F2F2" d="M0.003,256c0,141.386,114.615,256,256,256c24.325,0,47.857-3.394,70.151-9.731V255.421H0.01
		C0.01,255.615,0.003,255.807,0.003,256z"/>
	<g>
		<path fill="#231F20" d="M58.067,255.421v162.93c5.951,7.247,12.3,14.152,19,20.702V255.421H58.067z"/>
		<path fill="#231F20" d="M98.067,255.421v202.066c6.114,4.799,12.457,9.317,19,13.554v-215.62H98.067z"/>
		<path fill="#231F20" d="M138.067,255.421V483.26c6.191,3.22,12.526,6.198,19,8.913V255.421H138.067z"/>
		<path fill="#231F20" d="M178.067,255.421v244.482c6.234,1.99,12.569,3.752,19,5.268v-249.75H178.067z"/>
		<path fill="#231F20" d="M218.067,255.421v253.776c6.263,0.931,12.598,1.637,19,2.104v-255.88H218.067z"/>
		<path fill="#231F20" d="M258.066,511.982c6.393-0.051,12.729-0.334,19-0.846V255.421h-19V511.982z"/>
		<path fill="#231F20" d="M298.066,508.54c6.418-1.061,12.754-2.359,19-3.889v-249.23h-19V508.54z"/>
		<path fill="#231F20" d="M18.067,255.421v95.2c5.291,13.292,11.655,26.04,19,38.128V255.421H18.067z"/>
	</g>
	<path opacity="0.1" d="M262.685,511.914c21.956-0.563,43.224-3.89,63.47-9.646V370.412H121.183L262.685,511.914z"/>
	<g>
		<path fill="#F1F2F2" d="M416.396,228.613c0,0-31.087-20.274-36.494-31.729c-3.224-6.832-6.248-13.115-9.153-18.902
			c15.567-17.084,31.169-49.506,4.197-101.201l-60.153,42.39c-14.53-4.297-33.097-6.539-58.789-6.539
			c-25.693,0-44.259,2.241-58.79,6.539L137.06,76.78c-26.972,51.695-11.369,84.117,4.198,101.201
			c-2.905,5.787-5.93,12.07-9.154,18.902c-5.406,11.455-36.494,31.729-36.494,31.729S69.929,414.236,210.949,414.236
			c0,0,3.543,20.983,45.054,20.983c41.511,0,45.054-20.983,45.054-20.983C442.076,414.236,416.396,228.613,416.396,228.613z"/>
		<path fill="#231F20" d="M256.003,119.39c-25.693,0-44.259,2.241-58.79,6.539v8.56c14.53-4.297,33.097-6.539,58.79-6.539
			c25.692,0,44.259,2.241,58.789,6.539v-8.56C300.262,121.631,281.695,119.39,256.003,119.39z"/>
		<path fill="#231F20" d="M256.003,137.412c-21.489,0-37.018,2.241-49.17,6.539v8.561c12.153-4.298,27.682-6.539,49.17-6.539
			c21.488,0,37.018,2.241,49.17,6.539v-8.561C293.021,139.653,277.491,137.412,256.003,137.412z"/>
		<path fill="#231F20" d="M256.003,155.433c-17.354,0-29.895,2.241-39.709,6.539v8.561c9.815-4.297,22.355-6.539,39.709-6.539
			c17.354,0,29.895,2.241,39.709,6.539v-8.561C285.897,157.674,273.356,155.433,256.003,155.433z"/>
		<path fill="#231F20" d="M256.003,173.455c-13.749,0-23.685,2.241-31.46,6.539v8.56c7.775-4.297,17.711-6.539,31.46-6.539
			s23.684,2.241,31.46,6.539v-8.56C279.687,175.696,269.752,173.455,256.003,173.455z"/>
		<g>
			<path fill="#231F20" d="M130.945,224.497c-4.681,3.134-8.164,5.249-8.164,5.249S100.35,380.553,223.528,380.553l8.498-7.904
				C118.541,372.648,128.651,244.642,130.945,224.497z"/>
			<path fill="#231F20" d="M158.792,218.657c-3.901,2.612-6.804,4.375-6.804,4.375s-18.697,125.7,83.973,125.7l7.083-6.589
				C148.453,342.143,156.88,235.448,158.792,218.657z"/>
			<path fill="#231F20" d="M381.061,224.497c4.681,3.134,8.163,5.249,8.163,5.249s22.432,150.807-100.746,150.807l-8.498-7.904
				C393.465,372.648,383.354,244.642,381.061,224.497z"/>
			<path fill="#231F20" d="M353.213,218.657c3.901,2.612,6.805,4.375,6.805,4.375s18.697,125.7-83.974,125.7l-7.083-6.589
				C363.553,342.143,355.125,235.448,353.213,218.657z"/>
		</g>
		<g>
			<path fill="#F7FBFE" d="M204.931,165.504c0,0,19.612,54.516,19.612,66.68s-11.502,34.241-15.107,34.241
				s-37.846-22.077-37.846-34.241S190.964,168.208,204.931,165.504z"/>
			<path fill="#F7FBFE" d="M307.075,165.504c0,0-19.612,54.516-19.612,66.68s11.502,34.241,15.106,34.241
				s37.846-22.077,37.846-34.241S321.042,168.208,307.075,165.504z"/>
		</g>
		<g>
			<g>
				<path fill="#231F20" d="M178.153,228.242h27.746l12.69,12.953C218.589,241.195,204.698,267.177,178.153,228.242z"/>
				<path fill="#8DD2EF" d="M213.108,238.825c0,4.645-3.765,8.41-8.41,8.41c-4.645,0-8.41-3.765-8.41-8.41
					c0-4.645,3.766-8.41,8.41-8.41L213.108,238.825z"/>
			</g>
			<g>
				<path fill="#231F20" d="M333.852,228.242h-27.745l-12.69,12.953C293.416,241.195,307.308,267.177,333.852,228.242z"/>
				<path fill="#8DD2EF" d="M298.897,238.825c0,4.645,3.766,8.41,8.41,8.41s8.41-3.765,8.41-8.41c0-4.645-3.766-8.41-8.41-8.41
					L298.897,238.825z"/>
			</g>
		</g>
		<g>
			<g>
				<polygon fill="#231F20" points="368.057,81.689 375.022,76.78 339.171,146.328 336.244,143.401 				"/>
				<g>
					<g>
						<g>
							<path fill="#F7FBFE" d="M374.97,76.78c26.972,51.695,11.37,84.117-4.197,101.201l0,0l-31.653-31.653L374.97,76.78z"/>
						</g>
					</g>
				</g>
				<path opacity="0.1" d="M363.391,99.243l-24.271,47.085l19.52,19.519C367.605,150.735,373.022,128.888,363.391,99.243z"/>
			</g>
			<g>
				<g>
					<path fill="#F7FBFE" d="M137.06,76.78c-26.972,51.695-11.369,84.117,4.198,101.201l0,0l31.653-31.653L137.06,76.78z"/>
				</g>
				<polygon fill="#231F20" points="144.025,81.689 137.06,76.78 172.911,146.328 175.837,143.401 				"/>
				<path opacity="0.1" d="M148.639,99.243l24.272,47.085l-19.519,19.519C144.424,150.735,139.008,128.888,148.639,99.243z"/>
			</g>
		</g>
		<path opacity="0.1" d="M416.396,228.613c0,0-31.087-20.274-36.494-31.729c-3.224-6.832-6.248-13.115-9.153-18.902
			c15.567-17.084,31.169-49.506,4.197-101.201l-60.153,42.39c-14.53-4.297-33.097-6.539-58.789-6.539V435.22
			c41.511,0,45.054-20.983,45.054-20.983C442.076,414.236,416.396,228.613,416.396,228.613z"/>
		<path fill="#F7FBFE" d="M210.949,359.844v54.393c0,0,3.543,20.983,45.054,20.983c41.511,0,45.054-20.983,45.054-20.983v-54.393
			H210.949z"/>
		<path fill="#F7FBFE" d="M291.006,320.271c-0.089,0-0.175,0.006-0.264,0.006c-3.543-15.927-17.746-17.982-34.739-17.982
			c-16.994,0-31.197,2.056-34.74,17.982c-0.088,0-0.175-0.006-0.263-0.006c-19.412,0-35.148,15.736-35.148,35.148
			s15.736,35.148,35.148,35.148c16.588,0,30.483-11.495,34.176-26.952c0.276,0.006,0.549,0.021,0.827,0.021
			c0.277,0,0.551-0.015,0.827-0.021c3.693,15.457,17.587,26.952,34.176,26.952c19.412,0,35.148-15.736,35.148-35.148
			S310.418,320.271,291.006,320.271z"/>
		<path opacity="0.1" d="M291.006,390.567c-16.589,0-30.483-11.495-34.176-26.952c-0.276,0.006-0.549,0.021-0.827,0.021
			c-0.278,0-0.551-0.015-0.827-0.021c-3.692,15.457-17.587,26.952-34.176,26.952c-18.706,0-33.992-14.613-35.081-33.046
			c-0.041,0.696-0.068,1.396-0.068,2.103c0,19.412,15.736,35.148,35.148,35.148c16.588,0,30.483-11.495,34.176-26.952
			c0.276,0.007,0.549,0.021,0.827,0.021c0.277,0,0.551-0.014,0.827-0.021c3.693,15.457,17.587,26.952,34.176,26.952
			c19.412,0,35.148-15.736,35.148-35.148c0-0.706-0.027-1.406-0.068-2.103C324.998,375.954,309.711,390.567,291.006,390.567z"/>
		<path opacity="0.1" d="M288.896,328.406c-3.301,8.109-9.75,9.75-9.75,9.75c0.807-1.113,1.436-2.174,1.787-3.142
			c0,0-0.601-6.608-3.604-6.608s-8.41,6.608-21.325,6.608c-12.916,0-18.322-6.608-21.326-6.608c-3.004,0-3.604,6.608-3.604,6.608
			c0.352,0.968,0.98,2.028,1.788,3.142c0,0-6.45-1.641-9.75-9.75c-3.301-8.109-2.25,6.758,2.857,11.864
			c5.106,5.106,21.201,16.103,21.865,14.284c0.422,0.69,0.662,1.293,0.662,1.785c0,3.904,7.509,3.604,7.509,3.604
			s7.509,0.3,7.509-3.604c0-0.492,0.24-1.096,0.662-1.785c0.663,1.818,16.759-9.178,21.865-14.284
			C291.145,335.164,292.196,320.297,288.896,328.406z"/>
		<g>
			<path fill="#F26649" d="M277.328,331.904c-3.004,0-8.41,6.608-21.325,6.608c-12.916,0-18.322-6.608-21.326-6.608
				c-3.004,0-3.604,6.608-3.604,6.608c2.403,6.607,17.421,17.421,17.421,21.325c0,3.905,7.509,3.604,7.509,3.604
				s7.509,0.301,7.509-3.604c0-3.904,15.018-14.718,17.421-21.325C280.933,338.513,280.332,331.904,277.328,331.904z"/>
			<path fill="#231F20" d="M247.832,358.053c3.304-9.076-0.846-11.725-4.294-15.172c-8.253-8.254-10.677-1.226-10.677-1.226
				s-6.45-1.641-9.75-9.751c-3.301-8.109-2.25,6.758,2.857,11.864C231.073,348.875,247.169,359.872,247.832,358.053z"/>
			<path fill="#231F20" d="M264.174,358.053c-3.304-9.076,0.846-11.725,4.294-15.172c8.254-8.254,10.678-1.226,10.678-1.226
				s6.449-1.641,9.75-9.751c3.301-8.109,2.249,6.758-2.856,11.864C280.933,348.875,264.836,359.872,264.174,358.053z"/>
		</g>
		<rect x="251.679" y="111.056" fill="#231F20" width="8.647" height="88.69"/>
	</g>
</g>
</svg>
